<svg id="Layer_1" data-name="Layer 1" xmlns="http://www.w3.org/2000/svg" viewBox="0 0 175.75 175.61"><defs><style>.cls-1{fill:#1cc2ff;}</style></defs><title>Artboard 2</title><polygon class="cls-1" points="46.13 26.81 47.05 9.99 61.37 18.86 66.14 2.69 78.04 14.63 86.4 0 95.23 14.36 106.74 2.05 112.02 18.05 126.06 8.74 127.5 25.53 143.31 19.7 140.84 36.37 157.57 34.34 151.32 49.99 168.07 51.88 158.38 65.67 174.24 71.37 161.63 82.55 175.75 91.75 160.91 99.73 172.52 111.94 156.24 116.27 164.72 130.83 147.88 131.29 152.77 147.42 136.28 143.98 137.32 160.8 122.06 153.66 119.21 170.26 106 159.79 99.39 175.29 88.96 162.06 78.96 175.61 71.86 160.33 58.99 171.21 55.61 154.71 40.59 162.33 41.1 145.49 24.72 149.44 29.11 133.17 12.26 133.24 20.28 118.42 3.87 114.6 15.09 102.03 0 94.53 13.82 84.89 0.87 74.11 16.54 67.91 6.42 54.44 23.09 52.02 16.36 36.58 33.14 38.07 30.15 21.49 46.13 26.81"/></svg>