<svg id="Layer_1" data-name="Layer 1" xmlns="http://www.w3.org/2000/svg" viewBox="0 0 474.77 129.02"><defs><style>.cls-1{fill:#ee343f;}.cls-2{fill:#383838;}</style></defs><title>alpine-dark</title><path class="cls-1" d="M88.36,80.41a49.21,49.21,0,0,1-4.81,3.29,20.64,20.64,0,0,1-4,1.18,15.71,15.71,0,0,1,0-4.11,50.94,50.94,0,0,1,2.21-6.25,18.08,18.08,0,0,0,1.42-8.12A8,8,0,0,0,73.39,59c-2.81.61-5.54,1.59-8.3,2.41l-1.76.5a4.93,4.93,0,0,1-5.16-1.12A46.31,46.31,0,0,0,46.08,53a25.88,25.88,0,0,0-13.52-1.9,8,8,0,0,0-6.05,4.25A39.5,39.5,0,0,0,24,60.75a3.77,3.77,0,0,1-2.71,2.64c-1.29.29-1.75.89-.89,2.23a13.33,13.33,0,0,1,1.78,7.66,27.13,27.13,0,0,0,.11,5.48c.67,3.54,3.09,6,6,7.86,1.26.83,3.38-.21,3.64-2a25.62,25.62,0,0,0,0-6.43c-.31-2.67-.35-5.19,1.29-7.49,1.27-1.77,2.45-2,4.22-.76,3.27,2.29,4.06,5.31,2.2,8.85-1.28,2.46-2.49,4.84-2.65,7.77-.11,2.18-1.91,3.91-3.79,4.79C22.26,96.45,11.3,101.41,0,106.59,10.92,70.87,21.75,35.47,32.57.07L33,0c5.88,14.88,11.8,29.76,17.84,45l18-28.43L124,128.5H54.74c-.38-7.16-.25-14.23,1.44-21.2.53-2.21,1-4.44,1.47-6.65a2.41,2.41,0,0,1,2.27-2.08,6.81,6.81,0,0,0,1-.2c4.4-1.16,4.76-1.81,4.4-6.33-.23-2.82-.13-5.66-.15-8.49a7.84,7.84,0,0,1,2.56-5.43,2.49,2.49,0,0,1,2.11-.67c1,.39.9,1.35.58,2.39a29.64,29.64,0,0,0-1.67,7c-.2,4.55,5.65,8.65,9.89,6.92,5.45-2.22,8.1-7,9.85-12.27a1.4,1.4,0,0,0,0-.5C88.46,80.84,88.42,80.69,88.36,80.41Z"/><path class="cls-2" d="M348.16,80V72.35c1-.1,2-.21,3-.29,2-.16,2.74-.9,2.85-2.92V25.33L348.73,25V16.8c4.29,0,8.57.25,12.8-.08,3.19-.25,4.85.89,6.47,3.61,7.65,12.79,15.57,25.42,23.39,38.1.37.59.75,1.18,1.29,2V25.31L386.6,25V16.9h23.1v7.71c-1.07.1-2.1.21-3.14.28a2.44,2.44,0,0,0-2.51,2.38,1.9,1.9,0,0,0,0,.34v52.5H393.33c-.39,0-.87-.58-1.14-1Q379.34,58.34,366.5,37.64c-.28-.45-.57-.89-1.09-1.69V71.63l6,.33v8Z"/><path class="cls-2" d="M183.65,80V72.37l3.44-.31c2.52-.22,3-1,2.27-3.31-.46-1.42-1.06-2.8-1.44-4.24-.25-1-.75-1.14-1.65-1.13H166.6a1.4,1.4,0,0,0-1.6,1.16c-.69,2.32-1.54,4.6-2.39,7.08l5.61.34v8h-22V72.39a17.81,17.81,0,0,1,2.3-.27,3.51,3.51,0,0,0,3.6-2.63q7.59-22,15.19-43.93a1.15,1.15,0,0,0,0-.37l-5.71-.57V16.9h21.75c1.55,4.4,3.15,8.91,4.75,13.43q7,20,14.07,39.93a1.85,1.85,0,0,0,2.14,1.5,33.33,33.33,0,0,1,3.74.18v8Zm1.54-25.51L176.6,27.28c-3,9.34-5.95,18.2-8.88,27.19Z"/><path class="cls-2" d="M460.39,80H415.33V72.36c1.09-.11,2.13-.19,3.17-.32,1.83-.23,2.65-1,2.65-2.78V25.94a3.5,3.5,0,0,0-.12-.63L415.87,25V16.9h43.42V32.68l-9.79.71V28.68a1.82,1.82,0,0,0-1.63-2,1.85,1.85,0,0,0-.47,0H433v16h21.71V52.5H432.94V70.16h15.85c1.45,0,1.87-1.06,1.91-2.25.06-1.77,0-3.54,0-5.47l9.68.66Z"/><path class="cls-2" d="M263.36,25V17a1.33,1.33,0,0,1,.43-.17c9.61,0,19.22,0,28.83.12a24.53,24.53,0,0,1,11.05,2.67,15.76,15.76,0,0,1,8.5,10.52c1.4,5.53,1.37,11-1.16,16.25-3.21,6.58-9,9.82-15.92,11a97.49,97.49,0,0,1-10.94.67c-1.21.06-2.42,0-3.69,0V71.75h8.91V80h-26.5V72.4c.77-.09,1.54-.21,2.31-.27,2.86-.22,3.53-.94,3.53-3.86V25.32Zm17.1,23.46c3.44,0,6.82.24,10.15,0,7.13-.63,10.63-4.85,10.32-12-.22-5.27-2-7.91-6.29-9.18-4.64-1.37-9.4-1.05-14.18-1Z"/><path class="cls-2" d="M211.81,80V72.37c1-.1,2-.2,3-.32,2-.22,2.85-1.06,2.85-3V25.89a3,3,0,0,0-.15-.59l-5.15-.3V16.9H235v7.68c-1.06.13-2.2.24-3.33.42a2.44,2.44,0,0,0-2.31,2.56V69.9c0,21.15.06.09.22.32h15c2.1,0,2.53-.44,2.56-2.58s0-4.55,0-7.07l9.68.61V80Z"/><path class="cls-2" d="M324.71,25.32,319.37,25V16.86H342.3V24.6c-1.05.1-2,.17-3,.31-2.16.32-2.85,1.12-2.85,3.33V71.63l5.29.32v8H318.86V72.37c.85-.09,1.76-.22,2.67-.3,2.37-.21,3.12-1,3.17-3.36.05-2.1,0-4.22,0-6.33V25.32Z"/><path class="cls-2" d="M432.39,128.25a2.47,2.47,0,0,1-.36.11c-4.25.23-4.26.23-6.48-3.34q-4.35-7-8.69-14c0-.08-.14-.13-.32-.29v14.13l2.3.21v3.2h-9.4v-3.14c2.2.28,2.38-1,2.36-2.73-.08-5.44,0-10.88,0-16.39l-2.21-.32v-3.33c2.16,0,4.3-.06,6.44,0,.44,0,1,.61,1.26,1.06,3.08,4.93,6.12,9.89,9.17,14.83l1.07,1.7V106l-2.34-.3v-3.26h9.44v3.18c-2.16-.25-2.26,1.07-2.24,2.76C432.43,115,432.39,121.59,432.39,128.25Z"/><path class="cls-2" d="M163,102.44h9.4v3.24c-2-.24-2.36.84-2.33,2.59.1,5.49,0,11,0,16.59l2.08.25v3.2h-9.34v-3c2.31-.67,2.31-.67,2.31-3.32v-4.85H154.41v7.69l2,.22v3.2h-9.28v-3c2.32-.66,2.32-.66,2.32-3.2V106l-2.19-.27V102.5h9.4v3c-2.37.63-2.37.63-2.37,3.18V113h10.8v-7l-2.09-.3Z"/><path class="cls-2" d="M347.1,106l-2.22-.28v-3c4.65,0,9.24-.23,13.81.07,3.52.23,5.48,2.12,6.05,4.79.76,3.57-.27,6.27-3.14,8.29l-.57.4c1.15,2.31,2.31,4.48,3.32,6.72.6,1.34,1.1,2.61,3,2v3.37h-9.56v-3l2.22-.52a57.84,57.84,0,0,0-3-5.8c-.34-.53-1.56-.57-2.4-.69a20.42,20.42,0,0,0-2.71,0v6c0,.26.52.61.85.71a7.12,7.12,0,0,0,1.53.11v3.24h-9.55v-3.19c2,.27,2.34-.84,2.32-2.57C347,117.06,347.1,111.57,347.1,106Zm4.94.42v8.11a42.28,42.28,0,0,0,5.51-.52c1.79-.41,2.71-2.3,2.48-4.36s-1-3-3.13-3.2c-1.58-.14-3.19,0-4.9,0Z"/><path class="cls-2" d="M276,115.94a44.79,44.79,0,0,1-1.26,6.07c-1.47,4.44-5.45,7-10.42,7s-8.75-2.44-10.3-6.91a18.87,18.87,0,0,1,.07-13c1.82-4.92,6.43-7.51,12.27-7,4.47.37,8.18,3.93,9.08,8.83C275.69,112.34,275.76,113.84,276,115.94Zm-4.87-.09c-.38-2-.59-3.82-1.06-5.51a5.34,5.34,0,0,0-4.94-4.25,5.5,5.5,0,0,0-6,3.32,14.6,14.6,0,0,0,.24,12.69c1.11,2.24,3.24,2.88,5.61,2.78a4.79,4.79,0,0,0,4.71-3.32,56,56,0,0,0,1.42-5.71Z"/><path class="cls-2" d="M174.77,128.32v-3.14c2.3.29,2.39-1.09,2.36-2.85-.08-5.43,0-10.87,0-16.31l-2.1-.31v-3.24h17.74V109l-3.79.24c-.42-2.77-.42-2.77-3.36-2.77H182V113h9v4.06h-8.92v7.23c2,0,4.09.06,6.12,0,.38,0,.9-.68,1-1.13a8.36,8.36,0,0,0,0-2l4.05.32v6.88Z"/><path class="cls-2" d="M339.62,117.15h-8.93v7.18h6.42c.28,0,.69-.65.78-1a10.53,10.53,0,0,0,0-2.1l4,.3v6.86H323.47v-2.91c2.3-.77,2.3-.77,2.3-3.47V106l-2.08-.28V102.5h17.75V109l-3.75.25c-.1-.13-.21-.22-.21-.31-.16-2.46-.16-2.46-2.65-2.46h-4.09V113h8.88Z"/><path class="cls-2" d="M289.53,128.36H278.81v-3c2.29-.83,2.29-.83,2.29-3.51V106l-2.22-.3v-3.1c4.57,0,9.13-.32,13.61.08s6.55,3,6.86,7.54a7.83,7.83,0,0,1-5.85,8.42,56.33,56.33,0,0,1-7.55,1c0,1.35-.06,2.88.05,4.41,0,.33.6.84,1,.91a15.51,15.51,0,0,0,2.55,0ZM286,115.59a40.37,40.37,0,0,0,5.37-.54c2.09-.47,3.12-2.19,3-4.39-.11-2.5-1-3.71-3.29-4.09a43.46,43.46,0,0,0-5.1-.28Z"/><path class="cls-2" d="M386.16,109.47l-4.06.32a11.22,11.22,0,0,1,0-1.64c.26-1.67-.64-2.22-2.09-2.21a15.66,15.66,0,0,0-2.65.16,3,3,0,0,0-1,5.69A28.89,28.89,0,0,0,379.6,113c1.13.44,2.31.79,3.39,1.33,3.3,1.67,4.58,4,4.22,7.36a7.21,7.21,0,0,1-5.59,6.66,17.56,17.56,0,0,1-11.73-1v-6.25l4-.31c0,.37.09.64.09.91.09,2.94.39,3.16,4.15,3,2.62-.08,4-1.39,4-3.63a2.85,2.85,0,0,0-2-2.79c-1.85-.71-3.78-1.24-5.62-2-4.14-1.66-5.79-5.11-4.4-9.27,1-3.15,3.54-4.61,6.64-5a17.42,17.42,0,0,1,8.19.9,1.54,1.54,0,0,1,1.24,1.79C386.11,106.28,386.16,107.78,386.16,109.47Z"/><path class="cls-2" d="M249.28,110.31l-4.13.18a17.81,17.81,0,0,1,0-2.31c.17-1.47-.4-2.07-1.9-2.21-4.55-.44-7.41,1.47-8.33,5.94a15.92,15.92,0,0,0,.5,8.86,7,7,0,0,0,9.18,3.88l.06,0a2,2,0,0,0,.87-1.37,21.45,21.45,0,0,0,0-3l4,.22a3,3,0,0,1,.14.59v6.32c-4.87,1.92-9.75,2.37-14.6,0a9.08,9.08,0,0,1-4.65-5.81,20.27,20.27,0,0,1-.17-11.32c1.29-4.76,4.57-7.36,9.29-8.13a16.5,16.5,0,0,1,8.52.89,1.5,1.5,0,0,1,1.19,1.67C249.23,106.52,249.28,108.34,249.28,110.31Z"/><path class="cls-2" d="M457,110.3l-4.13.19v-2c0-2.24-.09-2.33-2.26-2.53-4.14-.37-6.85,1.5-7.83,5.53a15.91,15.91,0,0,0,.39,9.34,7.09,7.09,0,0,0,9.27,3.81,2,2,0,0,0,.83-1.4,19,19,0,0,0,0-2.82h4.13v7c-4.73,1.93-9.48,2.3-14.2.23a9.14,9.14,0,0,1-5.07-6.07,20.27,20.27,0,0,1-.13-11.32c1.29-4.76,4.59-7.34,9.31-8.09a16.61,16.61,0,0,1,8.52.9,1.5,1.5,0,0,1,1.15,1.7C456.89,106.56,457,108.38,457,110.3Z"/><path class="cls-2" d="M301.12,102.43h20.2v6.67l-3.69.33c-.51-3.23-.51-3.23-3.83-2.91v18.4l2.89.14v3.24H305.77v-3c.14-.1.23-.21.32-.21,2.84-.18,2.84-.17,2.84-3.08V106.59c-3.54-.63-3.67-.54-4,2.84l-3.8-.3Z"/><path class="cls-2" d="M198.77,106l-2.22-.29v-3.25H206v3.18c-2.15-.24-2.41,1-2.37,2.75.1,4.71,0,9.43,0,14.15v1.77c2.17,0,4.16.06,6.14,0,.37,0,.94-.66,1-1.09a16.83,16.83,0,0,0,0-2.84l4.06.27v7.69h-18.4v-3.17c2.21.3,2.33-1,2.31-2.75C198.72,117,198.77,111.52,198.77,106Z"/><path class="cls-2" d="M227,102.48v3.17c-2.1-.19-2.45,1-2.41,2.75.1,4.82.09,9.65,0,14.48,0,1.54.16,2.55,2.14,2.09v3.31h-9.24v-3.14c2,.26,2.34-.86,2.32-2.59-.09-5.48,0-11,0-16.52l-2.22-.31v-3.24Z"/><path class="cls-2" d="M399.77,106l-2.22-.28v-3.25H407v3.18c-2.09-.2-2.41,1-2.37,2.75.1,4.82.09,9.65,0,14.47,0,1.57.19,2.54,2.14,2.1v3.31h-9.24v-3.17c2.06.3,2.34-.87,2.32-2.57C399.72,117.06,399.77,111.57,399.77,106Z"/></svg>