<svg id="Layer_1" data-name="Layer 1" xmlns="http://www.w3.org/2000/svg" viewBox="0 0 439.97 185.69"><defs><style>.cls-1{fill:#fff;}</style></defs><title>Artboard 1</title><path class="cls-1" d="M265.44,54.77V85.59h-8.81V70.07L244.12,73.5V85.59h-8.8V54.77a11.09,11.09,0,0,1,11.11-11.11h7.9A11.09,11.09,0,0,1,265.44,54.77Zm-8.81,0a2.33,2.33,0,0,0-2.3-2.31h-7.9a2.33,2.33,0,0,0-2.31,2.31v9.64l12.51-3.35Z"/><path class="cls-1" d="M301.85,54.77V85.59h-8.73V54.77a2.33,2.33,0,0,0-2.24-2.38H280.4v33.2h-8.74V43.66h19.22A11.15,11.15,0,0,1,301.85,54.77Z"/><path class="cls-1" d="M316.88,54.77v8.94l12.86-3.42v9.08L316.88,72.8V85.59h-8.73V54.77a11,11,0,0,1,11-11.11h14.68v8.73H319.19A2.39,2.39,0,0,0,316.88,54.77Z"/><path class="cls-1" d="M348.9,54.77v8.94l12.86-3.42v9.08L348.9,72.8V85.59h-8.74V54.77a11,11,0,0,1,11-11.11h14.68v8.73H351.2A2.38,2.38,0,0,0,348.9,54.77Z"/><path class="cls-1" d="M221.13,114.18v-3.47a2.35,2.35,0,0,0-2.38-2.37h-7.83a2.34,2.34,0,0,0-2.31,2.37v19.85a2.33,2.33,0,0,0,2.31,2.31h7.83a2.23,2.23,0,0,0,2.38-2.17v-3.24L214.84,129v-8.09l15-3.77v13.49a11.06,11.06,0,0,1-11.11,11h-7.83a11,11,0,0,1-11-11V110.71a11,11,0,0,1,11-11h7.83a11.12,11.12,0,0,1,11.11,11v1.54Z"/><path class="cls-1" d="M265.51,110.78v19.78a11.06,11.06,0,0,1-11,11h-8a11.11,11.11,0,0,1-11-11V110.78a11.17,11.17,0,0,1,11-11.11h8A11.12,11.12,0,0,1,265.51,110.78Zm-8.74,0a2.33,2.33,0,0,0-2.3-2.31h-8a2.33,2.33,0,0,0-2.31,2.31v19.78a2.33,2.33,0,0,0,2.31,2.31h8a2.33,2.33,0,0,0,2.3-2.31Z"/><path class="cls-1" d="M301.29,110.78V141.6h-8.73V110.78a2.33,2.33,0,0,0-2.24-2.38H279.84v33.2H271.1V99.67h19.22A11.15,11.15,0,0,1,301.29,110.78Z"/><path class="cls-1" d="M337.64,110.71v19.92a11,11,0,0,1-11.11,11H307.59V99.67h18.94A11.08,11.08,0,0,1,337.64,110.71Zm-8.74,0a2.33,2.33,0,0,0-2.37-2.24h-10.2v24.4h10.2a2.33,2.33,0,0,0,2.37-2.24Z"/><path class="cls-1" d="M373.29,110.78v19.78a11.06,11.06,0,0,1-11,11h-8a11.11,11.11,0,0,1-11-11V110.78a11.17,11.17,0,0,1,11-11.11h8A11.12,11.12,0,0,1,373.29,110.78Zm-8.74,0a2.33,2.33,0,0,0-2.3-2.31h-8a2.33,2.33,0,0,0-2.31,2.31v19.78a2.33,2.33,0,0,0,2.31,2.31h8a2.33,2.33,0,0,0,2.3-2.31Z"/><path class="cls-1" d="M404.6,141.6H390a11.12,11.12,0,0,1-11.11-11V99.67h8.73v30.89a2.35,2.35,0,0,0,2.38,2.31h14.53Z"/><path class="cls-1" d="M440,110.78V141.6h-8.81V126.09l-12.5,3.42V141.6h-8.81V110.78A11.09,11.09,0,0,1,421,99.67h7.9A11.09,11.09,0,0,1,440,110.78Zm-8.81,0a2.32,2.32,0,0,0-2.3-2.31H421a2.32,2.32,0,0,0-2.3,2.31v9.65l12.5-3.36Z"/><path class="cls-1" d="M229.06,66.48a6.36,6.36,0,0,0-.73-1.21l0,0h0a5.25,5.25,0,0,0-1.55-1.31,10.69,10.69,0,0,0,1.22-5V55.38a11.14,11.14,0,0,0-11.11-11.11H199.49V86.2H219.2a11.15,11.15,0,0,0,11.12-11.11V71.52A10.84,10.84,0,0,0,229.06,66.48ZM208.3,52.73h8.57a2.33,2.33,0,0,1,2.3,2.37v3.84a2.38,2.38,0,0,1-1.95,2.31h-8.91V58.53h0Zm13.21,22.64a2.34,2.34,0,0,1-2.31,2.37H208.3v-5.8h0V69.22h11.24a2.39,2.39,0,0,1,2,2.3Z"/><polygon class="cls-1" points="66.23 106.22 168.52 3.56 164.96 0 64.16 101.16 66.23 106.22"/><polygon class="cls-1" points="76.74 112.51 168.12 21.14 164.55 17.57 69.36 112.76 76.74 112.51"/><polygon class="cls-1" points="38.46 143.66 0 182.13 3.56 185.69 41.73 147.52 38.46 143.66"/><polygon class="cls-1" points="30.75 134.58 0 165.33 3.56 168.89 34.02 138.43 30.75 134.58"/><path class="cls-1" d="M152.62,44.05l-.05-.08-6.09,6.09a70.07,70.07,0,0,1,12,33.63l-16.29-16.3L122,87.56l-6.5-6.51-6,6L122,99.57,142.15,79.4l16.29,16.3a70.71,70.71,0,0,1-29.3,51.48c-1.2-7.09-4.19-12.38-8.94-15.77-5.83-4.17-12.78-4.34-17.72-3.7-2.1-8.2-6.13-14.08-12-17.48C84,106.49,77,106.7,72,107.6a68.24,68.24,0,0,0-9.56-21.55l23-23,4.7,4.7,6-6L85.46,51,57,79.5a43,43,0,0,0-8.93-6.85c-9.75-5.57-19.9-6.09-27-5.46a70.58,70.58,0,0,1,106-36.33l6.1-6.1A79.06,79.06,0,0,0,11.68,69l-.3.1.15.46A79.17,79.17,0,1,0,152.62,44.05ZM17.39,89.74A70.54,70.54,0,0,1,18.74,76c5.54-.91,15.6-1.43,25.12,4,10.23,5.84,17.26,17.16,20.9,33.66l1.06,4.78,4.58-1.71c.08,0,9-3.16,15.83.82,4.54,2.63,7.49,8,8.76,15.8l.79,4.79,4.65-1.42c.09,0,9-2.64,14.87,1.59,3.49,2.51,5.46,7.15,5.87,13.79A70.62,70.62,0,0,1,17.39,89.74Z"/></svg>