<svg id="Layer_1" data-name="Layer 1" xmlns="http://www.w3.org/2000/svg" viewBox="0 0 295.23 63.07"><defs><style>.cls-1{fill:#272727;}</style></defs><title>basecamp</title><path class="cls-1" d="M31.55,63.07A31.54,31.54,0,1,1,63.26,31.58,31.6,31.6,0,0,1,31.55,63.07Zm27.8-31.53A27.74,27.74,0,1,0,31.59,59.21,27.7,27.7,0,0,0,59.35,31.54Z"/><path class="cls-1" d="M266.84,15V36.45h-4.65V23l-.27-.07-5.83,8.79-5.8-8.69-.24.05V36.46h-4.64V15c1.56,0,3.14,0,4.72,0,.28,0,.61.44.81.74,1.5,2.36,3,4.73,4.45,7.09.2.33.43.66.76,1.15l.93-1.44c1.41-2.26,2.85-4.52,4.23-6.8a1.41,1.41,0,0,1,1.43-.79C264.09,15.05,265.44,15,266.84,15Z"/><path class="cls-1" d="M89.8,25.19l1,.53a5,5,0,0,1,2.82,5,4.92,4.92,0,0,1-3.09,4.82,11,11,0,0,1-3.8.93c-3.75.12-7.5,0-11.35,0V15.1a5.7,5.7,0,0,1,.75-.09c3.16,0,6.31-.06,9.47,0a10.55,10.55,0,0,1,3.48.68,5.15,5.15,0,0,1,1.3,9Zm-9.91,7.07c2.32,0,4.5.08,6.67,0A2.21,2.21,0,0,0,89,29.94c0-1.27-.86-2.16-2.43-2.26-2-.11-3.91-.11-5.86-.07a1.05,1.05,0,0,0-.74.72C79.84,29.6,79.89,30.87,79.89,32.26Zm0-8.53c2.16-.12,4.19-.15,6.2-.39a1.84,1.84,0,0,0,1.61-2.07,1.8,1.8,0,0,0-1.69-1.87c-2-.14-4,0-6.12,0Z"/><path class="cls-1" d="M159.55,15.06H175.7v4.19H164.23V23.4h10.06v4.26h-10v4.57H175.8v4.25H159.55Z"/><path class="cls-1" d="M124.61,36.53c-1.52,0-2.92,0-4.31,0a1.35,1.35,0,0,1-.89-.69c-.52-1.11-.89-2.3-1.45-3.4a1.54,1.54,0,0,0-1.11-.74c-2.47-.07-4.95,0-7.42-.05a1.11,1.11,0,0,0-1.24.83,29.81,29.81,0,0,1-1.35,3.31,1.56,1.56,0,0,1-1.1.74c-1.26.09-2.54,0-4,0,.17-.45.28-.8.43-1.14,2.79-6.55,5.6-13.09,8.36-19.64a1.36,1.36,0,0,1,1.49-1c3.35,0,3.36,0,4.66,3q3.75,8.78,7.49,17.55C124.32,35.7,124.44,36.07,124.61,36.53Zm-11.5-16-2.81,6.86h5.64Z"/><path class="cls-1" d="M236.13,36.53c-1.56,0-3,0-4.41,0a1.21,1.21,0,0,1-.79-.67c-.51-1.12-.89-2.3-1.44-3.4a1.56,1.56,0,0,0-1.1-.76c-2.51-.07-5-.06-7.54,0-.37,0-.76.4-1.06.68s-.22.5-.34.76c-.48,1.12-.71,2.88-1.52,3.22-1.31.54-3,.14-4.7.14l2.56-6c2.07-4.86,4.17-9.71,6.2-14.59a1.5,1.5,0,0,1,1.64-1.13c3.26.05,3.26,0,4.55,3q3.76,8.78,7.5,17.55C235.83,35.68,236,36.05,236.13,36.53Zm-8.67-9.15-2.83-6.88-2.83,6.88Z"/><path class="cls-1" d="M283,30.12v6.32h-4.71V15.17c3.56,0,7.12-.28,10.62.07,4.08.42,6.34,3.29,6.36,7.23a7.06,7.06,0,0,1-6.32,7.34,45.89,45.89,0,0,1-5.13.27Zm.08-10.8V25.8c1.38,0,2.7,0,4,0a3.21,3.21,0,0,0,3.36-3.29c0-1.85-1.25-3.06-3.32-3.16C285.77,19.27,284.45,19.32,283,19.32Z"/><path class="cls-1" d="M148.88,17.34l-2.46,3.57a38.63,38.63,0,0,0-3.95-1.64,7.9,7.9,0,0,0-2.83-.16,1.78,1.78,0,0,0-1.73,1.56,1.7,1.7,0,0,0,1.26,1.93c1.05.39,2.13.68,3.19,1s2,.57,3,1c3,1.22,4.21,3,4.06,6a6,6,0,0,1-4.67,5.69c-4.59,1.25-8.64,0-12.41-2.93L135.11,30c1.82,1.37,3.66,2.48,5.93,2.51a5.16,5.16,0,0,0,2.33-.32,2.45,2.45,0,0,0,1.23-1.64,2.16,2.16,0,0,0-1.06-1.62,27.42,27.42,0,0,0-3.61-1.24c-1.09-.36-2.21-.66-3.28-1.09-4.77-1.86-4.14-8.32-.92-10.39,2.87-1.84,5.91-1.78,9-.83A33.62,33.62,0,0,1,148.88,17.34Z"/><path class="cls-1" d="M205,18.08l-2.82,3.27c-2-1.91-4.31-2.91-7.08-2.25a5.86,5.86,0,0,0-3.46,2.4,7.53,7.53,0,0,0,.86,9.53c2.61,2.41,6.06,2.12,9.82-.93l2.95,3.16c-3.27,4.45-11.38,5-16,1.2a11.6,11.6,0,0,1-.84-16.56A11.68,11.68,0,0,1,205,18.08Z"/><path class="cls-1" d="M90.65,45.37a34.57,34.57,0,0,1,4.55.44,2.05,2.05,0,0,1,1,3.18c-.38.55-1,1.13-1,1.7s.65,1.12,1,1.68a1.69,1.69,0,0,1,.06.3c-.8.35-1.18-.09-1.58-.71-1.13-1.73-1.16-1.72-2.93-1.58v2.35H90.65Zm1.41,4a25.12,25.12,0,0,0,3-.84,1.77,1.77,0,0,0,0-1.26,25.93,25.93,0,0,0-3-.77Z"/><path class="cls-1" d="M148.47,45.37a34.46,34.46,0,0,1,4.46.42,2,2,0,0,1,1,3.31c-1.13,1.45-1.13,1.45-.08,3l.37.52c-.91.39-1.28-.06-1.68-.68-1.16-1.78-1.19-1.77-2.92-1.53v2.3l-1.17.09Zm1.17,1.19v2.67c.79,0,1.46,0,2.12,0,.85,0,1.41-.35,1.4-1.35s-.59-1.29-1.44-1.32C151.09,46.54,150.46,46.56,149.64,46.56Z"/><path class="cls-1" d="M112.44,49.17a4,4,0,0,1-4,3.64,4,4,0,0,1-3.89-3.68,4.05,4.05,0,0,1,4-3.64A3.94,3.94,0,0,1,112.44,49.17Zm-3.88,2.5a2.26,2.26,0,0,0,2.49-2.52,2.4,2.4,0,0,0-2.52-2.54A2.3,2.3,0,0,0,106,49.19,2.39,2.39,0,0,0,108.56,51.67Z"/><path class="cls-1" d="M120.76,45.51c1.16,0,2.23-.08,3.29,0A2.69,2.69,0,0,1,126.49,48a2.79,2.79,0,0,1-2.56,2.53c-.58.06-1.18,0-1.89,0v2.18l-1.28.07Zm1.33,3.92c1.08-.06,2.27.49,2.94-.72a1.8,1.8,0,0,0-.13-1.53c-.73-1.08-1.83-.51-2.81-.54Z"/><path class="cls-1" d="M134.62,45.54h5.07c.25.66.18,1-.61,1-1,0-2.06,0-3.19,0v2.2c.88,0,1.78,0,2.68,0,.74,0,.89.31.61,1.07h-3.33v2c1.14,0,2.28,0,3.42,0,.72,0,.93.26.66,1h-5.31Z"/><path class="cls-1" d="M78.05,50.55l-.11,2.18-1.14.08V45.4a40.14,40.14,0,0,1,4,.38,2.34,2.34,0,0,1,1.69,2.41,2.81,2.81,0,0,1-2.6,2.35C79.3,50.59,78.71,50.55,78.05,50.55Zm.2-4.16v3.23a13.61,13.61,0,0,0,2.58-.88c.23-.13.27-1.24.07-1.35A16.6,16.6,0,0,0,78.25,46.39Z"/><path class="cls-1" d="M191.2,49.83h-3.32v1.94H192l.22.34c-.24.23-.48.65-.74.66-1.58.07-3.17,0-4.82,0V45.5c1.58,0,3.16,0,4.74,0,.21,0,.4.49.81,1h-4.29v2.19c.89,0,1.79,0,2.68,0C191.28,48.72,191.51,49,191.2,49.83Z"/><path class="cls-1" d="M200.43,51.42c.39,0,.78,0,1.17.09a8.49,8.49,0,0,0,1.85.22,1.21,1.21,0,0,0,.85-.79c0-.28-.3-.76-.61-.95a5.6,5.6,0,0,0-1.45-.47c-1.13-.31-2-1.3-1.85-2.15a2.39,2.39,0,0,1,2.55-1.85,13.56,13.56,0,0,1,2.13.61l.05.44a5.19,5.19,0,0,1-1.07.21,9.9,9.9,0,0,0-1.39-.2c-.35,0-1,.41-.94.55a1.86,1.86,0,0,0,.63,1.18c.55.34,1.32.35,1.85.71s1.31,1,1.35,1.59a2.46,2.46,0,0,1-1.11,1.74c-1.42,1-2.76.36-4-.47Z"/><path class="cls-1" d="M166.22,52.77H165V46.55a9.31,9.31,0,0,1-1.61,0c-.26,0-.48-.33-.72-.52.21-.17.42-.48.64-.48,1.51-.05,3-.05,4.53,0,.22,0,.43.32.64.49-.23.18-.45.47-.71.52a8.42,8.42,0,0,1-1.53,0Z"/><path class="cls-1" d="M177.9,52.77h-1.08v-7.2l1.08-.07Z"/><path class="cls-1" d="M28.25,34.22c2.25-3.84,4.39-7.47,6.53-11.1.46-.79.9-1.6,1.4-2.36a1.89,1.89,0,0,1,3.35,0q4.86,8.15,9.62,16.36A1.86,1.86,0,0,1,47.57,40c-.4,0-.8,0-1.2,0H16.43a9.65,9.65,0,0,1-1.32,0,1.83,1.83,0,0,1-1.46-2.76q3.18-5.59,6.53-11.11c.84-1.37,2.52-1.22,3.41.24C25.13,28.88,26.62,31.46,28.25,34.22Z"/></svg>