<svg id="Layer_1" data-name="Layer 1" xmlns="http://www.w3.org/2000/svg" viewBox="0 0 718 122.24"><defs><style>.cls-1{fill:#3f3f3f;}</style></defs><title>blake</title><path class="cls-1" d="M81,0c1.89.51,3.77,1.08,5.68,1.53,10.85,2.53,19,8.23,21.53,19.63C110.88,33,109.54,44,99,52.79c1.19.94,2.26,1.83,3.39,2.64,13.32,9.63,18.58,24.73,14.3,41.05a34.24,34.24,0,0,1-32.41,25.28c-27.44.75-54.91.27-82.37.29-.3,0-.6-.25-1.45-.64v-5.64q0-54.93,0-109.85C.47,3.94.16,2,0,0ZM16.28,107.86c22.58,0,44.86.33,67.12-.15,9.15-.2,15.65-6.84,17.68-15.74C105,74.69,95.6,62.65,77.88,62.53c-15-.11-30,0-44.95,0H16.28ZM16.22,48c21,0,41.63.22,62.22-.11,7.75-.13,13-4.81,14.67-11.35,3.31-12.83-3.7-21.85-17.48-22-18.8-.18-37.6-.05-56.39,0a28.37,28.37,0,0,0-3,.35Z"/><path class="cls-1" d="M713,0V14.37H632.32V49.81h48.2v14.3H632.3V108H718v14l-99.46.11a12.64,12.64,0,0,1-2-.46v-5.77q0-55,0-110c0-2-.31-3.95-.47-5.92Z"/><path class="cls-1" d="M361,0c4.46,9.43,8.79,18.93,13.41,28.28Q396.49,73,418.73,117.66c.58,1.17,1.06,2.4,2,4.47-5.42,0-10.3.21-15.13-.16-1.15-.08-2.47-1.94-3.16-3.26-4.37-8.41-8.69-16.86-12.79-25.4-1.32-2.75-2.9-3.9-6.05-3.87q-29.49.21-59,0c-3.12,0-4.75,1-6.06,3.85-4,8.6-8.38,17-12.41,25.58-1.15,2.46-2.52,3.51-5.28,3.36-4.08-.23-8.18-.06-13-.06,6.48-13.27,12.58-25.79,18.71-38.28q19.67-40.1,39.31-80.17A24.27,24.27,0,0,0,347,0Zm19.65,74.83L354,21.61C345,39.89,336.42,57.16,327.67,74.83Z"/><path class="cls-1" d="M566,0c-4.92,4.63-9.74,9.37-14.77,13.87-11,9.86-22.19,19.59-33.53,29.59l56.67,78.68c-6.44,0-11.87.23-17.26-.16-1.39-.09-2.92-1.9-3.92-3.27q-21.75-29.88-43.36-59.85c-1-1.34-2-2.65-3.39-4.5-3.92,3.23-7.71,6.33-11.47,9.47C490,68,484.84,72,480.16,76.49a10.48,10.48,0,0,0-3,6.62c-.29,12.79-.14,25.59-.14,38.72H462.39a4.91,4.91,0,0,1-.48-1.41q0-60.21.09-120.42h15V60.54c13.6-11.83,26.26-22.78,38.86-33.82C526,17.87,536,8.91,546,0Z"/><path class="cls-1" d="M186,0V107.78h79.42v14h-94c-.18-.33-.47-.61-.47-.89Q171,60.43,171,0Z"/></svg>