<svg id="Layer_1" data-name="Layer 1" xmlns="http://www.w3.org/2000/svg" viewBox="0 0 512.05 235.12"><defs><style>.cls-1{fill:#262626;}.cls-2{fill:#fff;}</style></defs><title>block</title><path class="cls-1" d="M150,110a21.26,21.26,0,0,0,5.87-.86c1.44-.45,3.13-.09,5-.09l1.54-1.72c-.46-1-1.24-.93-2-.92a3.33,3.33,0,0,1-2.58-1.1,14,14,0,0,0-3.22-1.89l-.16-1.86a5.23,5.23,0,0,1,.3-.57c.9-1.08,1.74-2.21,2.7-3.23,3.07-3.27,6-6.67,9.32-9.7a70.32,70.32,0,0,1,22.33-12.31,33.22,33.22,0,0,1,8.38-1.88c1.45-.09,2.88-.65,4.33-.8a44,44,0,0,1,8.39-.5c3.25.32,6.57.32,9.76,1.26.92.27,2,0,3,.31,1.49.42,3,.94,4.47,1.24a41.14,41.14,0,0,1,6.9,2.4c1.53.6,3,1.33,4.45,2a53.52,53.52,0,0,1,16,11.55c1.23,1.32,2.58,2.54,3.82,3.85a61.49,61.49,0,0,1,9.66,14.3c1.41,2.76,2.29,5.79,3.44,8.67,1.06,2.63,1.14,5.42,2.16,8a13.67,13.67,0,0,1,.63,4.62c.08,4.75.17,9.5,0,14.25a43.89,43.89,0,0,1-1.07,7.54c-.53,2.56-1.31,5.07-2,7.58a14.43,14.43,0,0,1-1,2.53c-1.63,3.33-3.2,6.68-5,9.93A46.91,46.91,0,0,1,262,177.5c-1.11,1.51-2.27,3-3.4,4.47-1.37-.09-2-1-2.55-1.91-1.07-1.56-2-3.21-3.09-4.75-4.28-6.05-8.61-12.06-12.9-18.11-.71-1-1.33-2.08-2-3.12-2.18-3.39-4.33-6.8-6.55-10.15-1.05-1.58-2.39-3-2.64-4.9-3-2.5-4.63-5.89-6.74-8.93-3.09-4.45-5.91-9.1-8.84-13.67-.13-.2-.21-.44-.33-.66a44.28,44.28,0,0,0-2.91-4.86c-1.71-2.51-3.14-5.21-4.7-7.83-.42-.71-.87-1.39-1.42-2.26V98.47l-2.55-1.08c-8.63,5-17.3,10.36-26.09,15.7.27,1.31.46,2.35.7,3.37s.53,2.06.83,3.08a26,26,0,0,0,2.39,5.9c1.1,1.92,2,3.95,3,5.94,2.25,4.53,5.3,8.54,8.25,12.59,2.67,3.67,5.84,7,8.76,10.45,2.23,2.66,4.4,5.36,6.62,8,.64.76,1.41,1.42,2.09,2.15l8.74,9.28c6.11-3.06,11.22-7.55,17.25-10.75a22,22,0,0,1,2.23,3.94c1.05,2.64,2.6,5.07,3.76,7.66a64.16,64.16,0,0,0,6.1,10.69c.9,1.28,1.81,2.54,2.93,4.11v1.18a23.53,23.53,0,0,1-5.94,4.22,73.48,73.48,0,0,1-9,4.48,64.5,64.5,0,0,1-12,3.53c-.56.1-1.11.26-1.67.37a22.78,22.78,0,0,1-4.88.68c-4.25-.08-8.5,0-12.74,0a25.3,25.3,0,0,1-4.15-.51,48.57,48.57,0,0,1-6-1.26,75.1,75.1,0,0,1-14.18-5.53A66.12,66.12,0,0,1,165.78,188c-.91-.83-2-1.51-2.82-2.41-5.23-5.64-10.13-11.51-13.05-18.77-.67-1.67-1.76-3.18-2.35-4.87-1-2.77-1.71-5.63-2.52-8.47-.24-.86-.39-1.75-.59-2.63a9.14,9.14,0,0,1-.41-1.66c-.17-4.06-.76-8.09-.52-12.17.2-3.22.3-6.45.57-9.66.09-1,.79-2,.87-3,.21-2.91,1.6-5.49,2.17-8.31a24.36,24.36,0,0,1,2.1-4.93A5.6,5.6,0,0,1,150,110Zm25.7-5.15-1.38-1-1.65.76-3.18,5,1.26.85a2.87,2.87,0,0,0,.49-.19,6.19,6.19,0,0,0,1.9-2.47C173.59,106.77,174.7,106,175.72,104.84Zm38.42,3.33c-.45,1.17-1.53,2.18-1,3.63,1.19,1.18,2.24.53,3.4-.18v-2.21l1-1.13C216.05,107.3,216.05,107.3,214.14,108.17Zm2.82-7.06c0-1.71,0-1.71-.94-2.61-1.86.48-2.55,2.36-4,3.4-.13.1,0,.58.05.89C214.1,103.15,215.69,102.85,217,101.11Zm9.36,5.79c.76.56,1.33,1,1.93,1.41a5,5,0,0,0,.66.31,2.82,2.82,0,0,0,3.51-.63l-5-2.85Zm-51.87,33.85c-.59-.81-1.09-1.48-2.1-1.27-1.17,1.42-1.17,1.42.53,2.59Zm45.09-53.13,1.71-1.83-1.58-1.62-1.23,2.44Zm-16.85-9.56c-.34.89-.1,1.49.59,1.75a1.19,1.19,0,0,0,1.69-.88C204.58,77.79,203.74,77.81,202.69,78.06Zm38.13,25.83-3.33.15.16,1.31C238.89,105.52,239.67,105,240.82,103.89ZM170.5,182l.48-.26-.15-2-2,1ZM166.37,93l-1.35.65.12,1.12a1.25,1.25,0,0,0,1.83-1Zm70.49-7.16.23-.52-1.23-1-1.1,1.44Zm-72.6,64.17.81-1.19-.79-.89-.86.95ZM230,120.87c.86-.05,1.61.47,2-.53C231.21,119.69,230.66,119.93,230,120.87Zm34.94-3.55c-.8-.24-1.63-.82-1.92.43a2.69,2.69,0,0,0,.95.14A4.18,4.18,0,0,0,264.93,117.32Z"/><path class="cls-1" d="M.3,200.82a15.55,15.55,0,0,1-.28-2c0-2.25,0-4.5,0-6.75V41.94c2.32-.17,4.43-.45,6.55-.46,8.83,0,17.66-.11,26.49,0a45.66,45.66,0,0,1,9,1.15c2.47.53,4.93,1.15,7.4,1.69s4.78,1.7,7.19,2.47a31,31,0,0,1,5.67,2.36c2.44,1.35,4.76,2.93,7.07,4.51a15.53,15.53,0,0,1,3.21,2.71c1.91,2.25,4.11,4.27,5.43,7,.54,1.09,1.4,2,1.92,3.13.88,1.86,1.6,3.79,2.34,5.56.69,3.09.64,6.15,1.49,9.1a9.55,9.55,0,0,1,.06,3.95c-.33,2.26-1,4.48-1.31,6.74a26,26,0,0,1-2.19,6.47,39,39,0,0,1-6.64,9.73,42.69,42.69,0,0,1-6.65,5.82c-.74.56-1.56,1-1.6,2.26.9.39,1.86.77,2.8,1.19A59.13,59.13,0,0,1,74.09,120,81.14,81.14,0,0,1,81,124.75a42.43,42.43,0,0,1,4.12,3.58,46.93,46.93,0,0,1,6.9,9,29.87,29.87,0,0,1,3.79,10.08,38.08,38.08,0,0,1,.3,13.56A34.61,34.61,0,0,1,92,173.27a40,40,0,0,1-9,11.06,57.81,57.81,0,0,1-12.21,7.9,83.49,83.49,0,0,1-11.47,4.39c-3.13,1-6.45,1.24-9.47,2.6a2.86,2.86,0,0,1-1.2.2,34.33,34.33,0,0,0-7.06,1,40.5,40.5,0,0,1-4.41.52c-8.21.67-16.43.53-24.65.46C8.62,201.36,4.66,201,.3,200.82ZM15.72,184.9a4.94,4.94,0,0,0,3.14,1c4.89-.14,9.77-.3,14.66-.45l.5,0c3.24-.47,6.49-.92,9.73-1.41a56.92,56.92,0,0,0,8.88-1.85c.86-.28,1.76-.43,2.6-.73,2.33-.81,4.68-1.57,6.92-2.56,1.79-.78,3.4-2,5.18-2.8a24.08,24.08,0,0,0,6.37-4.61A25.74,25.74,0,0,0,76,168.86a22.18,22.18,0,0,0,4.12-9.37,20.12,20.12,0,0,0,.27-6.9,22.39,22.39,0,0,0-3.7-9.58,23.73,23.73,0,0,0-4.51-4.93,48.78,48.78,0,0,0-13.09-7.31A34.56,34.56,0,0,0,53.76,129c-2.87-.62-5.67-1.56-8.59-2s-5.79-1.27-8.8-1.1a9.07,9.07,0,0,1-1.72-.14A44.9,44.9,0,0,0,27.8,125c-2.16,0-4.33,0-6.49-.06-1.06,0-2.11-.21-3.53-.36l-1.81,1v2.64q0,26.61,0,53.21C16,182.47,15.82,183.52,15.72,184.9ZM15.64,58.64c.43,2,.47,46.8,0,48.78L16.76,109c2.44,0,4.77,0,7.1,0a70.69,70.69,0,0,0,14.81-1,29.64,29.64,0,0,0,4.34-.79c2.69-1,5.63-1.19,8.15-2.68A18.37,18.37,0,0,1,54,103a21.87,21.87,0,0,0,9.24-7.12,17.31,17.31,0,0,0,3.64-7c1-4.69,1.15-9.42-.79-14.08S60.94,67.28,57,64.71c-2.82-1.85-6.06-2.8-9.09-4.23A6.61,6.61,0,0,0,46.28,60c-3-.52-5.84-1.59-8.88-1.87-2.77-.26-5.51-1-8.28-1.1-4-.19-8-.06-12-.05a2.84,2.84,0,0,0-.64.19Z"/><path class="cls-1" d="M426.5,147.28l-9.24,6.92c-.46,4.56-.3,43.55.19,45.36l-.85,1.6a3,3,0,0,1-.77.24c-3.92,0-7.84,0-11.75,0a3.27,3.27,0,0,1-2.5-.87V.58c.26-.19.52-.55.78-.55,4.82,0,9.63,0,14.7,0V129.8a11.1,11.1,0,0,0,0,2,4.72,4.72,0,0,0,.74,1.29,9.92,9.92,0,0,0,1.41-.66c3.68-2.64,7.33-5.32,11-8,2.8-2,5.63-4,8.41-6.06s5.65-4.28,8.49-6.39c2.45-1.81,4.94-3.57,7.39-5.37,3.31-2.45,6.6-4.93,9.92-7.37,4.71-3.47,9.45-6.89,14.15-10.36,3.52-2.59,7-5.23,10.5-7.84q4.86-3.61,9.74-7.19a17.9,17.9,0,0,1,1.78-1c3.91,3.63,6,8.57,9.83,12.35a19.65,19.65,0,0,1-1.78,1.64c-2.72,2-5.5,3.9-8.22,5.89q-8,5.82-15.94,11.7c-3.58,2.64-7.13,5.32-10.71,8-3,2.2-6,4.38-8.95,6.59-4.89,3.64-9.75,7.33-14.65,11-2.78,2.06-5.61,4-8.41,6.08-.46.34-.86.76-1.37,1.21a8.38,8.38,0,0,0,2.86,3.07c3,2.37,6.36,4.46,9.23,7,4.39,3.91,9.26,7.2,13.72,11,3.2,2.73,6.68,5.11,10,7.71,2.93,2.29,5.74,4.72,8.69,7a33.31,33.31,0,0,0,4.75,3.54,24.52,24.52,0,0,1,3.47,2.79c3.77,3,7.55,5.87,11.32,8.82,1.57,1.22,3.12,2.44,4.66,3.68a12.53,12.53,0,0,1,1.14,1.24c-3.12,4.23-6.27,8.3-9.42,12.42-2.11-.77-3.4-2.36-5-3.51-2.65-2-5.23-4-7.82-6.06-2-1.58-4-3.18-6-4.78-3.66-2.95-7.29-5.94-11-8.86-2.59-2-5.27-4-7.86-6-3.45-2.69-6.85-5.44-10.26-8.17-1.74-1.4-3.43-2.85-5.2-4.21-4-3.12-8.15-6.15-12.17-9.29C432.59,152.34,429.68,149.88,426.5,147.28Z"/><path class="cls-1" d="M382.9,76.09l.85,1c-.09,2.09-.14,3.81-.24,5.53-.16,2.88-.35,5.77-.54,8.84a5.41,5.41,0,0,1-1.55.51,29.89,29.89,0,0,1-5.16-.39,61.28,61.28,0,0,0-8.14-.57c-1.75-.08-3.5,0-5.25,0a52.26,52.26,0,0,0-8.82.92c-1.79.29-3.63.24-5.41.59a62.83,62.83,0,0,0-13.14,3.93,68.74,68.74,0,0,0-12.17,6.45,49.5,49.5,0,0,0-11.35,11,45.38,45.38,0,0,0-4.85,8.32,46.8,46.8,0,0,0-2.68,8.41,42.32,42.32,0,0,0-.89,12.07,25.16,25.16,0,0,0,1,5.05c.61,2.38,1.27,4.75,2,7.08a15.85,15.85,0,0,0,1.48,3.08,76.46,76.46,0,0,0,5.38,8.55c1.93,2.41,4.47,4.33,6.74,6.46a35.29,35.29,0,0,0,7.76,5.27,57.12,57.12,0,0,0,8.63,4.07c2.55.85,5,2,7.76,2.29,1.2.11,2.35.71,3.55.94,1.93.38,3.87.73,5.83.93,2.62.27,5.26.45,7.89.55,2.42.09,4.84,0,7.25,0a44.73,44.73,0,0,0,10.32-1,12.71,12.71,0,0,1,2.55,0l1.18,1.06c.31,4.57.61,9,.93,13.81-.74,1.42-2.53,1.28-4.1,1.53a18.89,18.89,0,0,1-2.5.06c-5.47.07-10.94.89-16.42.43-5.24-.44-10.56-.25-15.66-1.86-3,.24-5.55-1.52-8.45-1.6-1.77-1.07-3.89-1.19-5.72-2.17s-3.65-1.47-5.44-2.29-3.68-1.8-5.5-2.75c-2.09-1.11-4.19-2.22-6.23-3.43a15.87,15.87,0,0,1-2.73-2.12c-2.62-2.47-5.84-4.34-7.73-7.56-1.89-1.16-2.86-3.14-4.18-4.79a54.91,54.91,0,0,1-4.88-7.66,52.54,52.54,0,0,1-2.55-5.83,53.72,53.72,0,0,1-2.71-8.66,36.84,36.84,0,0,1-1-9.06c.06-2.91,0-5.83,0-8.75a37.38,37.38,0,0,1,2.78-13.93c.6-1.52,1-3.14,1.64-4.62,1.22-2.68,2.49-5.35,4-7.89,3.14-5.44,7.47-9.92,12.09-14.09a59.43,59.43,0,0,1,11.7-8.23,88.32,88.32,0,0,1,12-5.44C335.69,78.88,339.36,78,343,77a30.16,30.16,0,0,1,3.91-.55,29.13,29.13,0,0,0,4.4-.61,14.39,14.39,0,0,1,4.17-.42c7.58,0,15.16,0,22.74.06A40.4,40.4,0,0,1,382.9,76.09Z"/><path class="cls-1" d="M115.11.05h14.56a2.43,2.43,0,0,1,.23.23.56.56,0,0,1,.07.23A2.63,2.63,0,0,1,130,1q0,99.36,0,198.73a4.32,4.32,0,0,1,0,.5,3.59,3.59,0,0,1-.12.47.74.74,0,0,1-.13.21c-.12.12-.25.23-.58.53-4.11,0-8.43,0-12.75,0a6.44,6.44,0,0,1-1.85-.63q0-100.14,0-200C114.59.54,114.88.34,115.11.05Z"/><path class="cls-1" d="M101.22,223.76a19.69,19.69,0,0,1,2.37-.3c2.55,0,5.1-.23,7.67.37,1.38.32,2.94-.1,4.42-.22a28.29,28.29,0,0,1,7.41.08c1.79.3,3.63.27,5.7.4l1.09,1c-.57,1.25-.89,2.57-2.36,3.36a69.94,69.94,0,0,1-7.22-.35,29.29,29.29,0,0,0-7.41.22c-1.72.18-3.19-.58-5.45-.66-1.42.1-3.45.56-5.59.59s-4.16-1-6.22.16c-.51.29-1.31.09-2,.09-4.5,0-9,0-13.49,0-1.14,0-2.28-.21-3.75-.36a9.14,9.14,0,0,1-5,.06,7.55,7.55,0,0,0-1.71-.21c-4.5,0-9-.26-13.49.08a79.4,79.4,0,0,1-8.15.39c-1,0-1.94-.34-2.91-.38a12.12,12.12,0,0,0-2.69.22,15,15,0,0,1-4.86,0H34.3V228a17.51,17.51,0,0,1-2.66.42c-9.91,0-19.82,0-29.65,0C.08,226.86.06,226.79,1.27,225c2.65-.36,5.43.43,8.16-.58l2,.94c4.94-1.28,9.89-.59,15.28-.07,3.72-.74,4.15-1.25,6.39-.47,1-.14,1.91-.3,2.8-.36,2.14-.16,4.32.27,6.42-.47a1.25,1.25,0,0,1,.74,0c2.29.75,4.57-.13,6.84,0,1.23.07,2.44.29,3.67.37a10.93,10.93,0,0,0,2.74,0c4.21-.78,8.45-.31,12.68-.42,3.41-.09,6.83.05,10.23-.1,2.16-.1,4.35-.27,6.49-.33,3.86-.11,7.74-.27,11.6-.09C98.66,223.51,100.1,223.11,101.22,223.76Z"/><path class="cls-1" d="M511.51,224.66a2.55,2.55,0,0,1,.14,2.94c-2.81,1.24-5.44-1.13-8,.27-2.63-.14-5.25-.31-7.89-.39s-5.33-.09-8,0-5.14.61-7.6.23c-2.7-.41-5.2.93-7.73.41-2.71-.55-5.23,1-7.88.34l-2.09-1c-2.57,0-5.15-.11-7.77.77-1.73.58-3.79.19-5.7.19a22.93,22.93,0,0,1-3.41-.26,14.42,14.42,0,0,1-6.37.1,12.67,12.67,0,0,0-5.38,0,8.08,8.08,0,0,1-2,.17q-3.62,0-7.25,0c-.56,0-1.13-.22-1.69-.23a24.26,24.26,0,0,0-3.91.06c-2.16.33-4.27.61-6.37-.72-.91.26-1.92.6-2.94.83a3.32,3.32,0,0,1-1.47,0,10.82,10.82,0,0,0-6.1.06,5.26,5.26,0,0,1-1.49.07c-4.33,0-8.66,0-13,0a34.18,34.18,0,0,1-4.28-.62,7.93,7.93,0,0,1-.7-.93,9.73,9.73,0,0,1-.54-1.2c.31-.51.65-1.06,1-1.72,2.53,0,5,0,7.51,0,11.74,0,23.49,0,35.23,0a38.86,38.86,0,0,0,4.66-.61c1.74,1,3.92.86,6.14.3,1.25-.32,2.46-1,3.8-.24.18.1.59-.22,1-.4a6,6,0,0,0,5.54.71c1.46.12,2.68.27,3.91.3,1.75,0,3.5-.07,5.25,0,5.05.13,10.1.4,15.16.45,3.05,0,6.11-.3,9.17-.39a24.77,24.77,0,0,1,2.68.32,18.51,18.51,0,0,0,2.47,0,26.49,26.49,0,0,1,3.17-.35c2.38.11,4.76,0,7.13,0q7.45.21,14.92.45A2.34,2.34,0,0,1,511.51,224.66Z"/><path class="cls-1" d="M273.45,226l1-.26v-8.37c1.26-1.43,2.55-1,4-.45,0,.6.12,1.16.12,1.73q0,7,0,14c0,.82.2,1.72-.87,2.17a4.61,4.61,0,0,1-2.81-1.79q-3.3-3.54-6.59-7.12a7,7,0,0,1-.65-.93c-1.21.45-1.08,1.23-1.08,2v7.15c-1.41.94-1.41.94-3.23.27a3.4,3.4,0,0,1-.51-3.48,2.87,2.87,0,0,0,.18-1c0-3.83,0-7.67,0-11.5a3.27,3.27,0,0,0-.33-.87l1.52-1.23A107.4,107.4,0,0,1,273.45,226Z"/><path class="cls-1" d="M317,216.21l3.44,2.84V225c.59,1,1.53,2.05,1.61,3.6a5.32,5.32,0,0,1-2.79,5.19c-2.83,1.58-6,1.4-9.21.86V217C312.15,215.72,314.55,216.89,317,216.21Zm1,13.45-.13-1.53c-1.84-1.21-1.9-1.29-3-1.16a4.69,4.69,0,0,0-1.31.57v3.32h3.14Zm-3.81-9.73c-1,1.06-1.06,2-.14,2.87A2.58,2.58,0,0,0,317,222C316.3,220.17,316.3,220.17,314.26,219.93Z"/><path class="cls-1" d="M368.83,220.16c.89,3.86-1.67,5.44-4,7.36a43.28,43.28,0,0,0,4.8,6l-.71,1.41c-.71,0-1.37,0-2,0a2.57,2.57,0,0,1-2-1.16c-1.2-1.66-2.63-3.17-4-4.81-1.6,1.38-.48,3.09-1.06,5-.29.66-1.11,1.19-2.93.81l-.87-1c.71-2.49.7-14.34.07-16.3,1.62-1.13,1.62-1.13,8.87-1A7.83,7.83,0,0,1,368.83,220.16Zm-3.67,1.68c-.83-2-2.55-1.8-4-2.4l-1.11,1v2.31l1.25,1.14A4,4,0,0,0,365.16,221.84Z"/><path class="cls-1" d="M209.5,219.08v2.27l-1.12,1.05a2.87,2.87,0,0,1-.82-.2,21.6,21.6,0,0,1-2.53-1.54c-3.36-2.59-8-.58-9.54,2.37l-.94,1.84c.39,4.06,2.66,6.19,6.45,6.91a9.54,9.54,0,0,0,6.42-2.89c1.38.16,1.92,1.1,2.69,2.08a9.13,9.13,0,0,1-7.11,4c-1.66.06-3.33,0-5,0-.88-.47-1.76-.92-2.62-1.41-2.86-1.6-4-4.25-4.31-7.34-.53-5.46,2.8-8.13,7.07-9.73a10.78,10.78,0,0,1,7,.13C206.69,217.05,208,218.19,209.5,219.08Z"/><path class="cls-1" d="M242.5,234v-16.6a1.63,1.63,0,0,1,1.66-.92c3.16,0,6.33,0,9.6,0l.88,2c-2.18,2.43-5,.92-7.47,1.58-.84.43-.75,1.26-.62,2.23l1,1.12h6.13l.89,1.71-.75,1.73h-6.26c-1.69,1.06-.81,2.52-1,3.61a1.79,1.79,0,0,0,1.95,1h5.28l.83,1.61-.82,1.83h-9.58A1.59,1.59,0,0,1,242.5,234Z"/><path class="cls-1" d="M232.86,233.85l-1.52,1.27-1.8-1.24v-6.26c-2-1.37-4.17-.34-6.36-.77-1.43,2.19-.26,4.59-.79,6.82-1.41,1.52-1.41,1.52-3.22.66-.53-1.74-.23-3.51-.25-5.27,0-3.72-.19-7.43-.3-11.35l1-1.24c.92.1,2-.44,2.79.86v5.25a11.68,11.68,0,0,0,5.75.8l1.26-1.13v-4.92c1.05-1.33,2.15-1.06,3.39-.33Z"/><path class="cls-1" d="M336.28,229.49a8,8,0,0,0-2.33,3.44c-.7,1.77-2.32,2.26-4.23,1.44-.55-.94-.06-1.76.35-2.55,1.36-2.6,2.78-5.18,4.11-7.79,1-2,2-3.95,2.85-6a2.56,2.56,0,0,1,1.66-1.64,2.28,2.28,0,0,1,1.83,1.53c1.5,3.12,3,6.24,4.51,9.34.73,1.47,1.57,2.89,2.33,4.34.41.8.77,1.63,1.14,2.42-1.52,1.14-1.82,1.14-4.14,0-1-1.47-1.29-3.54-3.33-4.59Zm2.35-4.13.33.14.48-.6-.71-.32Z"/><path class="cls-1" d="M143.14,234.52c-.89.87-1.92.32-3-.35V217.06a5.44,5.44,0,0,1,1.32-.58,1.67,1.67,0,0,1,2.06.86v2.27l.86.81c.28-.09.47-.1.58-.2a30.84,30.84,0,0,0,2.36-2.21,4.67,4.67,0,0,1,4.4-1.58,7.13,7.13,0,0,0,1,0l.84.92L146,224v1.67l.31-.28,7.61,8.23v1c-.15.13-.21.23-.28.23-1.72.1-3.5.46-4.93-.94l-2.3-2.28-1.85-1.78C142.63,230.91,144,232.79,143.14,234.52Z"/><path class="cls-1" d="M184.15,218.44l-1.31,1.39-2.17.18c-.2.27-.53.5-.57.78A15.14,15.14,0,0,0,180,223c0,3.66,0,7.31,0,10.93-1.71,1.11-1.71,1.11-3.51.3v-2.33c0-3.08,0-6.15,0-9.22A18.86,18.86,0,0,0,176,220l-2.35-.13-1.4-1.66,1.37-1.73h9.56Z"/><path class="cls-1" d="M300.92,226.71c-1.65.68-3.35-.26-4.72.74l-.77,4.41h-2.25c-.66-1.23-.66-1.23-.76-3.65a5.32,5.32,0,0,0-.43-.57,8.47,8.47,0,0,0-.64-.56l-3.59-.21-.78-1.49,1.25-1.44h2.87l1.32-1.14v-2.24c.64-1.45,1.7-1.12,2.7-1.13,1.21,1,0,2.74,1.14,3.78s2.6.54,3.88.75C301.35,224.64,301.05,225.65,300.92,226.71Z"/><path class="cls-1" d="M161.07,217.05a3.08,3.08,0,0,1,3.86,0v17.2c-1.31,1.17-2.55.64-3.86-.07Z"/><path class="cls-2" d="M175.72,104.84c-1,1.14-2.13,1.93-2.56,3a6.19,6.19,0,0,1-1.9,2.47,2.87,2.87,0,0,1-.49.19l-1.26-.85,3.18-5,1.65-.76Z"/><path class="cls-2" d="M214.14,108.17c1.91-.87,1.91-.87,3.42.11l-1,1.13v2.21c-1.16.71-2.21,1.36-3.4.18C212.61,110.35,213.69,109.34,214.14,108.17Z"/><path class="cls-2" d="M217,101.11c-1.27,1.74-2.86,2-4.84,1.68,0-.31-.18-.79-.05-.89,1.4-1,2.09-2.92,4-3.4C217,99.4,217,99.4,217,101.11Z"/><path class="cls-2" d="M226.32,106.9l1.1-1.76,5,2.85a2.82,2.82,0,0,1-3.51.63,5,5,0,0,1-.66-.31C227.65,107.9,227.08,107.46,226.32,106.9Z"/><path class="cls-2" d="M174.45,140.75l-1.57,1.32c-1.7-1.17-1.7-1.17-.53-2.59C173.36,139.27,173.86,139.94,174.45,140.75Z"/><path class="cls-2" d="M219.54,87.62l-1.1-1,1.23-2.44,1.58,1.62Z"/><path class="cls-2" d="M202.69,78.06c1.05-.25,1.89-.27,2.28.87a1.19,1.19,0,0,1-1.69.88C202.59,79.55,202.35,79,202.69,78.06Z"/><path class="cls-2" d="M240.82,103.89c-1.15,1.11-1.93,1.63-3.17,1.46l-.16-1.31Z"/><path class="cls-2" d="M170.5,182l-1.64-1.34,2-1,.15,2Z"/><path class="cls-2" d="M166.37,93l.6.82a1.25,1.25,0,0,1-1.83,1L165,93.69Z"/><path class="cls-2" d="M236.86,85.88l-2.1-.11,1.1-1.44,1.23,1Z"/><path class="cls-2" d="M164.26,150.05l-.84-1.13.86-.95.79.89Z"/><path class="cls-2" d="M230,120.87c.67-.94,1.22-1.18,2-.53C231.6,121.34,230.85,120.82,230,120.87Z"/><path class="cls-2" d="M264.93,117.32a4.18,4.18,0,0,1-1,.57,2.69,2.69,0,0,1-.95-.14C263.3,116.5,264.13,117.08,264.93,117.32Z"/><path class="cls-2" d="M15.72,184.9c.1-1.38.24-2.43.24-3.49q0-26.59,0-53.21v-2.64l1.81-1c1.42.15,2.47.33,3.53.36,2.16.07,4.33.11,6.49.06a44.9,44.9,0,0,1,6.85.78,9.07,9.07,0,0,0,1.72.14c3-.17,5.88.65,8.8,1.1s5.72,1.39,8.59,2a34.56,34.56,0,0,1,5.35,1.77,48.78,48.78,0,0,1,13.09,7.31A23.73,23.73,0,0,1,76.71,143a22.39,22.39,0,0,1,3.7,9.58,20.12,20.12,0,0,1-.27,6.9A22.18,22.18,0,0,1,76,168.86a25.74,25.74,0,0,1-2.32,2.58,24.08,24.08,0,0,1-6.37,4.61c-1.78.83-3.39,2-5.18,2.8-2.24,1-4.59,1.75-6.92,2.56-.84.3-1.74.45-2.6.73A56.92,56.92,0,0,1,43.75,184c-3.24.49-6.49.94-9.73,1.41l-.5,0c-4.89.15-9.77.31-14.66.45A4.94,4.94,0,0,1,15.72,184.9Z"/><path class="cls-2" d="M15.64,58.64l.85-1.48a2.84,2.84,0,0,1,.64-.19c4,0,8-.14,12,.05,2.77.14,5.51.84,8.28,1.1,3,.28,5.9,1.35,8.88,1.87a6.61,6.61,0,0,1,1.64.49c3,1.43,6.27,2.38,9.09,4.23,3.93,2.57,7.19,5.65,9.07,10.16s1.82,9.39.79,14.08a17.31,17.31,0,0,1-3.64,7A21.87,21.87,0,0,1,54,103a18.37,18.37,0,0,0-2.83,1.44c-2.52,1.49-5.46,1.71-8.15,2.68a29.64,29.64,0,0,1-4.34.79,70.69,70.69,0,0,1-14.81,1c-2.33-.06-4.66,0-7.1,0l-1.07-1.55C16.11,105.44,16.07,60.59,15.64,58.64Z"/><path class="cls-2" d="M318.07,229.66l-1.33,1.2H313.6v-3.32a4.69,4.69,0,0,1,1.31-.57c1.13-.13,1.19-.05,3,1.16Z"/><path class="cls-2" d="M314.26,219.93c2,.24,2,.24,2.74,2.07a2.58,2.58,0,0,1-2.88.8C313.2,221.9,313.25,221,314.26,219.93Z"/><path class="cls-2" d="M365.16,221.84a4,4,0,0,1-3.85,2.06l-1.25-1.14v-2.31l1.11-1C362.61,220,364.33,219.88,365.16,221.84Z"/><path class="cls-2" d="M338.63,225.36l.1-.78.71.32-.48.6Z"/></svg>