<svg id="Layer_1" data-name="Layer 1" xmlns="http://www.w3.org/2000/svg" viewBox="0 0 111 92.22"><defs><style>.cls-1{fill:#fff;}.cls-2{fill:#bf2433;}</style></defs><title>caving</title><path class="cls-1" d="M64,0a11.7,11.7,0,0,1,.72,2.71c.08,3.7,0,7.41,0,11.12l-4.55,1c.46-2.52-.3-4.84.66-7.31.47-1.2-.5-3-.9-4.86-.51.57-1.09.92-1.1,1.27-.07,3.57,0,7.14,0,10.83H55.48a2.67,2.67,0,0,0-.37-.7c-1.07-1.13-.78-2.53-.72-3.84,0-.8.59-1.57.65-2.38.1-1.57,0-3.15,0-5.37L52.62,4.26c1.72,3.52.69,6.92,0,10.59a8.23,8.23,0,0,1-1.64,0,10.91,10.91,0,0,1-1.86-.75V0h3.73l.56.8.93-.8h3.72l.45,2,1.79-2Z"/><path class="cls-1" d="M34.21,0l1,3.64L36.35,4V14.68H26.87l-1.53-1.51V9L27.5,7l7.14-1.36-2.36-.57-.65-1.34H30.12L29.47,5h-3.3V2.3L27.94.77c1.6,0,3.09,0,4.57,0,.33,0,.64-.48,1-.74ZM30.59,11.76a4,4,0,0,0,0-4.22Z"/><path class="cls-1" d="M18.57,0c.83,1.51,2.91.67,4,2L24,5.56,20.41,6.73,18.93,1.42,17.77,3.64c-.18,2.56.47,6.24-1.12,9.67-2.36.69-2.28-1.64-3.16-2.52l-.56-6.07c.54-1,.46-3.24,2.69-4C16.2.67,17,1,17.08,0Z"/><path class="cls-1" d="M86.37,0V4.1c-1.08.8-2.94-.48-3.6,1.7l-.59,6.78a1.82,1.82,0,0,1-.57,2.82,10,10,0,0,0-1.32-.53A7.19,7.19,0,0,0,79,14.73c-.19-1.73,1.11-1.86,2.24-2.49l-2.35-.52c0-1.73.11-3.56,0-5.36S78.28,2.87,78,.91h4.34l.64,1.26L85.62,0Z"/><path class="cls-2" d="M45.72,55.09l.51-3.84-5.89,1.08v4.1l-5.75,5.3-3.07-.89c-.09-.21-.28-.43-.26-.63a65,65,0,0,1,1.35-10,10,10,0,0,0,.09-1.46c.27-3.39.06-6.92.95-10.14.75-2.73.38-5.47,1.11-8.2.63-2.34.56-5,1-7.52a8.7,8.7,0,0,1,.69-1.78c3.51-.36,6.75-.8,10-1a19.79,19.79,0,0,1,4.24.74,29.29,29.29,0,0,0,2,13.07c1.08,2.72,1.26,5.8,1.87,8.83L51.6,44.62h-6L43,28.91l-1,1-1.48,14.6L41.94,46h3.82l1.52,2.22L54,46.48c1.79,2.88,1.41,6,2.25,8.85s2.31,5.31,1.72,8.39l-8.6,1.09-1.89-8.22Z"/><path class="cls-2" d="M25.27,32.6l-3.4,3.79H17.19c-1.83-2.8-.28-6.11-1.05-9.4l-2.63-.37-.38-3c-.53.93-1.14,1.53-1.19,2.17-.42,4.86-.72,9.73-1.06,14.59l1.69,1c.33,3.46-.59,7.06,1,10.42l4.46,1.41L19,55.94c.52-.26.91-.36.91-.47,0-2,.5-4-.41-6.09-.63-1.45-.12-3.39-.12-5.46,2.64-.08,5.29-.06,8.25,0-.63,3.39-.53,6.7-2,9.57-1,1.95-3,3.32-4.87,4.5-.82.5-1.7.88-2.7,1.4a14.63,14.63,0,0,1-7-.68,9.22,9.22,0,0,1-5.31-4.3C4.23,51.73,4,48.79,3,46.06c-.61-1.53-.53-1.56-2.17-2.45C.23,42.4,1,41.05.14,39.73c-.41-.61.16-2.07.6-3,.82-1.74.67-3.55.73-5.78C2,30.19,2.94,29.36,3,27.83c.1-2,1.7-3.46,3.26-4.62a40.88,40.88,0,0,1,4-2.38c1.59,0,3.22-.11,4.81,0a46.27,46.27,0,0,1,4.63.86C24.26,25.84,25.53,26.62,25.27,32.6Z"/><path class="cls-2" d="M99.75,39.46l3.68-.89a7.8,7.8,0,0,1,3.79,5.22H99.1V54.9c3.64.81,7.58-.81,11.09,1.25v5.48c-6.5.27-13,0-19.64.11A5.34,5.34,0,0,1,88.76,56c.8-2.69.46-5.32.61-8,.11-2,0-4,0-6.05l1.43-1.24,5.45,2.06,3.53-3.39Z"/><path class="cls-2" d="M66.92,47.83l-1.06-1c-.42-1.75-.87-3.12-1.06-4.52-.3-2.15-.73-4.27-.89-6.46-.2-2.82-1.14-5.58-1.75-8.36-.38-1.74-.82-3.48-1-5.24-.09-.61.36-1.29.59-2.05h8.74l.83.87c.32,4.29.36,8.46,1,12.53.58,3.57,1.44,7.08,1.39,10.72a5.17,5.17,0,0,1-.15.8Z"/><path class="cls-1" d="M49.13,71.63l5-.76.75,1.79c-1.13,3.63-.32,8.18-.49,12.67a7.32,7.32,0,0,0,.9,2.39H57.9V72.59c1.82-1.52,3.52-1.64,5.11-.38,1.24,6.16,1.05,12.14.88,18.12,0,.63-.69,1.23-1.07,1.89H58.35l-.59-2.4-6.77,1-1.86-2Z"/><path class="cls-2" d="M99.8,39.41c-.37,0-.93.12-1.08-.07-1.77-2.19-4.39-2.79-6.59-3.7l-2-3.77V21.77l.64-.62c3.15.16,5.67.37,8.2.41,3.84.06,7.67,0,11.68,0a6.85,6.85,0,0,1-.92,6.14l-9.53-.82c-1.72,1.92-1,4.32-1.15,6.61l1.5,3.06-.79,2.89Z"/><path class="cls-1" d="M20.36,91.24a4.66,4.66,0,0,1-.58-4.49c.6-1.65.27-3.64.31-5.48s0-3.71,0-5.59l-2.2-1.57V71.7l2-1.37.64-5.84,2.59-1.29,3.62,1.15L26,70.76h3.64v4.29H26.36c-.6,1.94-1.71,3.63-.43,5.56A1.54,1.54,0,0,1,26,82c-1.47,1.84-.43,3.39.39,5h2.47L29.08,91l-2.19-.77-.21,2Z"/><path class="cls-1" d="M40.72,74.71,39.94,73H38c.46,2.27-1,4.3-.53,6.66s.46,4.58.63,6.5l-2.21,2.75c-4.82-4-3.9-9.1-3.88-14,1.35-1.75,1.45-4.32,4.25-5.09s5.41-1,8.07.27c3.65,6,3.37,11.51-1,17L39.5,85.3c.24-1.67.5-3.3.7-5S40.51,77,40.72,74.71Z"/><path class="cls-2" d="M78.43,62c-3.69,1.64-7,1.08-10.46,1.22-.52-3.95-2.2-7.65-2.51-11.76,1.09-.59,2-1.51,3-1.52,2.47,0,4.06-1.32,5.55-3a12,12,0,0,1,1.29-1c1.45,1.37,3.82.23,5.43,2.48C80,52.78,79.19,57.47,78.43,62Z"/><path class="cls-2" d="M80.79,43.81H75.27c-.55-8.08,1.82-15.69,2.44-23.58h7.63c1.08,2.62-.4,5.14-.7,7.69-.42,3.51-1.92,6.85-2.08,10.47a28.19,28.19,0,0,1-1,4.76Z"/><path class="cls-1" d="M84.09,70.66c2.38.09,4.76-.38,7.22,1.59.31,1,.78,2.41,1.35,4.18l-4.28.29-1.54-3.51-1.52,2.66a42.42,42.42,0,0,0,3.57,3.62A36.55,36.55,0,0,0,93,82c.16,2.3.61,4.59-1.3,6.79-2.52,1.44-5.28,2.81-8.73,1.35l-3.77-5,5.14-1.36,1.64,3.12h1.84V83.69L85,82.31l1.33-1.56c-1.21-1.25-2.13.33-3.18.31-3.22-2.39-2.9-5.46-1.71-8.83Z"/><path class="cls-1" d="M69.27,86.27H67.35l-1-2.92c2.12-3.92-.74-8.19,0-12.44l4.89-.83L72.54,72a.51.51,0,0,0,.35-.08,5.63,5.63,0,0,1,5-1.92c.47,1.6.12,3.26.25,5.06h-4.5c-1.56,2.52-1.56,2.52-1.47,8.75l-3,2.58Z"/><path class="cls-1" d="M92.28.67l3,0c1.51-.12,2.09,1.1,2.94,2V8l-4,.23c-1.66.94-1.49,2.22-.7,4.13.55-.77.83-1.21,1.15-1.61s.67-.73,1.12-1.2l2.43,1.25c-.34,2.49-2,3.52-4.39,4.13L89,12c-.33-1.23-.58-2.27-.9-3.29-.72-2.22,0-4.3.86-6.25A3,3,0,0,1,92.28.67Zm.92,5.17c.62-1,1-1.92,0-3Z"/><path class="cls-1" d="M41.72,2.91V13.36c-.81,1.82-2.15,1.55-3.77,1.32.38-3.43-1.08-7,1.48-10V1.1c.28-.11.63-.37.92-.33a14.56,14.56,0,0,1,2.07.68c1.22-.44,3-1.75,4.47.65.28,4,.58,8.22.89,12.6H43.14c0-2.88,0-5.8,0-8.72C43.14,4.88,43.31,3.72,41.72,2.91Z"/><path class="cls-1" d="M69.94.68l4.47,0,2.24,2.5V9l-1.71,3.44c-1.27.64-2.07-.06-2.83-1.06.29-2.07-.32-4.31.89-6.52L71.82,2.23c-.45.15-.82.17-.86.29-.86,2.63-1.53,5.23-.31,8,.36.82,0,1.94,0,2.92l.1-.1L69,13.46c-3.58-2.33-2.7-5.92-2.75-9.16C67.26,2.8,67.64.75,69.94.68Z"/><path class="cls-1" d="M17.91,14.88a12.21,12.21,0,0,1-.12-1.29c0-.47.07-.94.12-1.56h1.8c.68-1.11.13-2.94,2.23-3,.8,1.4.11,3,.4,4.41C21.46,15.47,19.74,14.86,17.91,14.88Z"/><path class="cls-2" d="M34.72,63.83l3.1-2.77H40l.24,3.14C36.9,66,36.9,66,34.72,63.83Z"/><path class="cls-1" d="M69.19,86.35h2l1.31,3.3L70.7,91.32l-.94-1.85-2.49.74L67,88.05l2.11-.44.16-1.34Z"/><path class="cls-1" d="M38.19,91.48c-.65-1.68,0-2.41,1.14-2.91,1.3.3,1.68,1.2,1.56,2.64a9,9,0,0,1-1.18.26A15.15,15.15,0,0,1,38.19,91.48Z"/><path class="cls-1" d="M70.67,13.44h2L73,14.78H70.77V13.34Z"/></svg>