<svg id="Layer_1" data-name="Layer 1" xmlns="http://www.w3.org/2000/svg" viewBox="0 0 730.19 267.37"><defs><style>.cls-1{fill:#279fbb;}.cls-2{fill:#175da4;}</style></defs><title>Artboard 3</title><g id="tRpL1U.tif"><path class="cls-1" d="M664.38,65.75c-1.67.1-2.54.2-3.41.2-11.92,0-23.83,0-35.75,0a11.31,11.31,0,0,1-4.3-1c-9.28-4.09-18.4-8.57-27.82-12.33C584,49,574.69,46,565.4,42.92c-6.85-2.24-13.8-4.22-20.76-6.08-7.54-2-15.1-4-22.74-5.57-11.79-2.49-23.61-4.82-35.48-6.89C478.32,23,470.14,21.91,462,21c-15.54-1.71-31.09-3.34-46.67-4.73-8-.71-16-.94-24-1.18-13.14-.4-26.29-1-39.43-.85q-25.59.32-51.17,1.74c-15.7.85-31.39,2.15-47.05,3.65-11.56,1.1-23.09,2.69-34.59,4.34-13.16,1.89-26.29,3.93-39.39,6.21-9,1.57-17.88,3.67-26.82,5.51a20.5,20.5,0,0,1-2.36.23l-.18-.73c2-.7,4-1.53,6.11-2.07,13.44-3.48,26.81-7.34,40.38-10.22,20.57-4.37,41.21-8.58,62-11.85,19.79-3.12,39.74-5.53,59.7-7.19C340.56,2,362.7,1,384.82.35c16.47-.52,33-.46,49.45.21,17.53.73,35.07,2.08,52.53,3.89a434,434,0,0,1,69.92,12.72C570.66,21,584.36,25.71,598,30.49,614.53,36.27,630,44.4,645.23,53c5.71,3.23,11.1,7,16.61,10.58A27.23,27.23,0,0,1,664.38,65.75Z"/><path class="cls-2" d="M144.88,112.91h8.94c4.74,0,9.49,0,14.24,0a2.57,2.57,0,0,0,2.82-1.86c3.43-8.92,7-17.79,10.33-26.75a23.23,23.23,0,0,0,1-6.63c.1-1.6.71-2.3,2.24-2.3h38.23c.15,0,.3.14.61.29-.07.4,0,1-.24,1.27-4.94,5.54-7.31,12.43-10,19.11-6.88,16.94-13.75,33.88-20.46,50.88a145.6,145.6,0,0,0-5.71,17.2c-1.11,4.38-.67,4.61-5.38,4.65-11.16.09-22.33.07-33.49.05a8.76,8.76,0,0,1-2.07-.53,7.91,7.91,0,0,1,.79-1.91c4.22-5.57,6.81-12,9.38-18.39,2.5-6.24,5-12.49,7.57-19a12.81,12.81,0,0,0-2.27-.44c-7.08,0-14.16.07-21.24,0a2.93,2.93,0,0,0-3.14,2.16c-3.49,8.9-7.15,17.74-10.48,26.7a48.05,48.05,0,0,0-2,9.44c-.23,1.5-.8,2-2.22,2q-15.36,0-30.74,0l-6.24,0c-1.4,0-2-.62-1-1.8,5.82-6.73,8.25-15.15,11.5-23.13,5.19-12.7,10.34-25.42,15.36-38.19,3.15-8,6.06-16.13,9-24.23a9.89,9.89,0,0,0,.5-3.67c-.07-2,.91-2.58,2.74-2.57,11.83.07,23.66.08,35.49.14a21.74,21.74,0,0,1,2.81.46c-9,11-11.83,24.31-17.47,36.31Z"/><path class="cls-2" d="M570.94,75.64c10.08,0,20.16-.09,30.24,0,4.67.06,8.69,1.93,11,6.14A10.54,10.54,0,0,1,613.56,88a61.53,61.53,0,0,1-3.12,13.54Q602,123.23,593,144.7c-3.13,7.41-7.3,14.23-14.38,18.7a31.69,31.69,0,0,1-17.16,5.35c-18.92,0-37.83.09-56.75-.06-5.25,0-10.35-1.07-13.3-6.3a12.59,12.59,0,0,1-.87-10.19c2.48-7.75,5.3-15.41,8.23-23,4-10.23,8-20.45,12.32-30.52,3-7,7.15-13.34,13.75-17.68a29.8,29.8,0,0,1,16.15-5.31c10-.13,20,0,30,0Zm-6.51,15.54h0c-2.5,0-5,0-7.49,0-5.7,0-7.92,1.51-10,6.77q-8.85,22-17.67,44c-1,2.46-1.85,5-2.63,7.5-.59,1.9.37,3,2.22,3.43a13.17,13.17,0,0,0,2.72.36c5.08,0,10.16,0,15.23,0,4.72,0,7.9-2.13,9.59-6.51.33-.86.62-1.72,1-2.57q9.54-23.88,19.07-47.75c1.35-3.39.15-5.14-3.47-5.21C570.09,91.14,567.26,91.18,564.43,91.18Z"/><path class="cls-2" d="M420,168.71c-9.92,0-19.84.11-29.75-.05-4.06-.06-7.91-1.18-10.7-4.5a11.08,11.08,0,0,1-2.28-10.56c1.93-6.69,4-13.35,6.54-19.84,4.55-11.79,9.24-23.54,14.26-35.14,3.37-7.81,8.13-14.72,15.87-19a31.8,31.8,0,0,1,15.54-4c18.74-.07,37.49-.09,56.24.09a30.72,30.72,0,0,1,8.91,2c3.3,1.07,4.93,3.79,5.5,7.11a25.73,25.73,0,0,1-1.81,14c-6.13,15.56-12.31,31.11-18.7,46.56-2.89,7-7,13.22-13.37,17.7a29.9,29.9,0,0,1-16.76,5.74c-9.83.22-19.66.06-29.49.06Zm6.42-15.61v0c2.74,0,5.5.1,8.24,0,3.89-.17,6.7-1.86,8.23-5.7,6.7-16.82,13.52-33.59,20.28-50.38,1.63-4,.41-5.83-4-5.85-5.08,0-10.15,0-15.23,0-6.14.07-8.12,1.51-10.42,7.29-2.71,6.79-5.47,13.56-8.18,20.34-3.82,9.57-7.68,19.12-11.4,28.72-1.55,4-.78,5.2,3.46,5.5C420.41,153.27,423.41,153.1,426.41,153.1Z"/><path class="cls-2" d="M672.73,76c-9,12-12.29,26.18-18.23,39.24l.68.55c2.23-1.74,4.49-3.45,6.71-5.22,9.51-7.55,19-15.09,28.5-22.71,3.58-2.89,6.82-6.09,8.27-10.7a2.76,2.76,0,0,1,2-1.58c9.16-.1,18.33-.06,27.49,0a8.42,8.42,0,0,1,2,.7,39.29,39.29,0,0,0-3.68,1.92c-5.59,3.76-11.22,7.46-16.68,11.39-6.89,4.95-13.61,10.14-20.47,15.15-1.34,1-1.57,1.71-.76,3.26a82.25,82.25,0,0,1,7.68,19.93,72.25,72.25,0,0,1,.12,31.92c-.49,2.19-1.12,4.35-1.66,6.53a2.92,2.92,0,0,1-3.21,2.48q-14-.09-28-.07c-2,0-2.67-.66-2.7-2.79-.13-10.88-1.51-21.57-5.82-31.7-.28-.66-.67-1.26-1.11-2.1-3,2.25-6.17,4-8.4,6.51-1.77,2-2.5,5-3.51,7.64-1.92,5-3.78,10.13-5.5,15.25a19.31,19.31,0,0,0-.72,5.16c-.06,1.45-.54,2.12-2.06,2.11q-18.24,0-36.49,0c-1.26,0-2.55-.32-1.38-1.79,5.86-7.38,8.53-16.28,12-24.79q8.45-20.67,16.71-41.41c2.25-5.64,4.43-11.31,6.41-17a21,21,0,0,0,.68-5.91c.06-1.7.82-2.4,2.46-2.39q18.49,0,37,.06A8,8,0,0,1,672.73,76Z"/><path class="cls-2" d="M301.88,92.65c-.78,1.9-1.58,3.79-2.35,5.69-7.44,18.33-15,36.63-22.26,55-1.75,4.41-4.18,8.79-3.24,13.91.08.4-.8,1.4-1.25,1.41-6.46.09-12.93.06-19.58.06.12-.69.05-1.21.27-1.43,4.58-4.55,6.71-10.46,9-16.23q10.42-25.8,20.72-51.63c2.07-5.17,4.22-10.32,6-15.59a16.91,16.91,0,0,0,.54-6.28c-.11-1.8.54-2.12,2.1-2.12,9.41,0,18.83,0,28.25,0,5.5,0,11,0,16.5,0,2,0,3,.64,3.15,2.82,1,11.62,2.16,23.22,3.25,34.83q1.65,17.66,3.31,35.32a3.11,3.11,0,0,0,1,2l3.76-9.28c7-17.5,14.14-35,21.12-52.52,1.47-3.67,3.17-7.31,2.38-11.56-.41-2.21,1.8-1.57,2.87-1.58,4.92-.08,9.83,0,14.74.1,1.12,0,2.23,0,3.73,0-9.72,12.4-13,26.91-18.78,40.26-6.86,16-13.1,32.17-19.57,48.28-2.29,5.68-1.4,4.68-7.15,4.71-12.58.06-25.17-.06-37.75.09-2.63,0-3.57-.91-3.77-3.33q-1.19-13.93-2.47-27.86-1.86-20.28-3.75-40.54c-.14-1.46-.23-2.92-.34-4.38Z"/><path class="cls-2" d="M83.56,151.18a17.68,17.68,0,0,1-.93,2.49c-2.37,4.3-4.68,8.64-7.27,12.81A5,5,0,0,1,72,168.72c-19.58.09-39.16.09-58.74-.11-4.31,0-8.38-1.4-11.12-5.18a10.68,10.68,0,0,1-1.68-9.31c1.81-6.63,3.83-13.24,6.27-19.67,4.15-11,8.41-21.91,13.16-32.63A69.5,69.5,0,0,1,29.1,86.27c6.31-7.78,15.17-10.76,25.06-10.76q26.63,0,53.25,0c2.69,0,2.74.25,2,2.91-1.21,4.31-2.3,8.66-3.3,13-.33,1.44-1.09,1.92-2.27,1.43-6.34-2.6-13-1.51-19.52-1.65-5.91-.13-11.83.12-17.74,0-4.75-.13-7.64,2-9.34,6.31-3.71,9.44-7.53,18.83-11.32,28.24-2.82,7-5.67,14-8.47,21.05a12.61,12.61,0,0,0-.82,2.86c-.22,1.62.41,2.84,2.13,3.11a30.5,30.5,0,0,0,5,.47c9.41-.07,18.83,0,28.22-.44,3.74-.17,7.44-1.42,11.15-2.17Z"/><path class="cls-2" d="M277.25,75.79c-.9,1.29-1.6,2.37-2.37,3.4-5.22,7-7.58,15.32-10.84,23.21-6.7,16.21-13.22,32.51-19.69,48.82-2,5-4.23,10-4.21,15.57,0,1.87-1.35,2-2.8,2q-12.12,0-24.24,0c-3.83,0-7.66.05-11.49,0a3.22,3.22,0,0,1-1.73-.6c-.15-.1,0-1,.29-1.3,5.2-6,7.51-13.45,10.42-20.59,5.92-14.55,11.89-29.07,17.59-43.71,2.95-7.57,6.93-14.79,8.09-23,.6-4.25.68-4.22,5.07-4.22l34.71,0A5.44,5.44,0,0,1,277.25,75.79Z"/><path class="cls-1" d="M689.92,178.5a94.08,94.08,0,0,1-12.09,20.17c-11.15,14.77-24.62,27.17-39.42,38.21a335.88,335.88,0,0,1-49.07,30,3.92,3.92,0,0,1-2.43.44,18.29,18.29,0,0,1,2.26-2.15,225.74,225.74,0,0,0,38.3-31.83c6.47-6.84,12.07-14.57,17.52-22.29a91,91,0,0,0,14-31.51,2.5,2.5,0,0,1,1.79-1.53c9.41-.08,18.82,0,28.23,0C689.19,178,689.4,178.23,689.92,178.5Z"/><path class="cls-2" d="M71.3,234l13-32.28a11.22,11.22,0,0,0,.5-1.41c1-3.9,1-4,5.15-3.95,9.33,0,18.66,0,28,.24,4.52.1,6.17,2.52,4.75,6.8-1.13,3.38-2.53,6.67-4,9.94a6.14,6.14,0,0,1-4.8,3.95c-2,.31-2.74,1.26-2.43,3.44.53,3.78.65,7.62,1,11.43.13,1.3-.3,1.89-1.59,1.89-4.08,0-8.16,0-12.24,0-1.71,0-2.09-.92-2.1-2.38,0-3.83,0-7.67-.23-11.49A3,3,0,0,0,94.89,218c-1.18-.35-2.53-.38-3.13,1.47-1.43,4.42-3.09,8.78-4.73,13.13-.22.57-.9,1.37-1.38,1.39C80.86,234,76.06,234,71.3,234Zm24.29-23.28c7.17,2.15,12.33-1.11,11.87-7.4-7.79-1.62-9.56-.61-11.81,6.74A5.15,5.15,0,0,0,95.59,210.72Z"/><path class="cls-2" d="M585.15,211.75c-4.31,5.64-6.11,12.07-8.41,18.28-1.49,4-1.36,4.06-5.8,4a35.25,35.25,0,0,1-4.24,0,21.33,21.33,0,0,1-3.29-1,60.3,60.3,0,0,1-6.72.94c-4.08.14-8.16.08-12.24,0-4.41-.12-6.86-3.12-5.34-7.17,3-8,6.19-15.94,9.7-23.72A11,11,0,0,1,559,196.57c8.82-.21,17.65-.18,26.47-.24,1.62,0,2.32.7,1.8,2.37a11.63,11.63,0,0,0-.4,2c-.22,2-1.08,2.68-3.29,2.58-6.15-.28-12.32-.28-18.47-.13a4.1,4.1,0,0,0-3,2.08c-2.86,6.56-5.48,13.22-8.16,19.85-.61,1.51-.09,2.27,1.57,2.58,5.26,1,7.39-.13,9.37-5.19.5-1.31,1-2.61,1.7-4.34h-7.53c1-2.4,1.7-4.29,2.61-6.09.21-.43,1.13-.7,1.72-.7,6.83-.06,13.66,0,20.48,0A5.37,5.37,0,0,1,585.15,211.75Z"/><path class="cls-2" d="M469.91,205.29c-1.27,3-2.57,6.08-3.8,9.14-1.93,4.78-3.82,9.58-5.73,14.37-.15.39-.28.78-.41,1.18-.44,1.33-.5,3.19-1.42,3.86s-2.72.18-4.14.19h-3.18c1.43-3.11,2.78-5.81,3.92-8.6,3.34-8.15,6.59-16.34,9.86-24.53.59-1.47.73-3.52,1.81-4.28s3.05-.23,4.63-.23c3.75,0,7.5.08,11.24,0,2.18-.07,3.12.64,3.29,2.94.6,7.88,1.4,15.76,2.13,23.63.07.72.27,1.43.47,2.54.51-.55.86-.77,1-1.09q4.55-11.35,9-22.73c.13-.3.21-.63.32-.94.49-1.38.73-3.73,1.53-3.93,2.14-.56,4.51-.19,7-.19-1.33,3.11-2.58,5.94-3.75,8.81-3.59,8.77-7.18,17.54-10.68,26.35-.64,1.61-1.46,2.39-3.28,2.34-4.59-.11-9.17-.12-13.75,0-1.88,0-2.67-.53-2.84-2.48-.68-8.13-1.48-16.24-2.26-24.36-.06-.63-.21-1.25-.32-1.87Z"/><path class="cls-2" d="M200.26,233.82H183.12c.27-2.75.53-5.33.79-7.91.13-1.38-.47-1.93-1.88-1.91-4.25.06-8.5,0-12.75.06a2.64,2.64,0,0,0-1.82.54c-2,2.6-3.88,5.31-5.85,7.94-.44.59-1.08,1.4-1.67,1.43-2.63.16-5.27.07-8.31.07a8.79,8.79,0,0,1,.8-1.62q10.84-12.06,21.71-24.09c2.44-2.72,4.83-5.48,7.25-8.22.27-.32.7-.64.74-1,.34-3.27,2.68-2.82,4.9-2.78,3.25.07,6.5.09,9.75,0,1.57,0,2.36.58,2.48,2.1.09,1.07.18,2.15.18,3.23,0,8.17-.07,16.33,0,24.5C199.48,228.57,199.94,231,200.26,233.82Zm-26-17,.53.57c2.56,0,5.11.07,7.66-.05.51,0,1.4-.76,1.42-1.19.12-3.11.07-6.22.07-9.34l-.89-.33Z"/><path class="cls-2" d="M264.52,211h16.55c-1,2.51-1.89,4.75-2.93,6.9-.16.33-1.17.37-1.79.35-4.24-.11-8.48-.37-12.71-.32a3.36,3.36,0,0,0-2.52,1.73c-1.73,4.23-3.17,8.57-4.81,12.84-.24.62-1,1.46-1.53,1.47-4.49.11-9,.06-13.49,0-.21,0-.41-.22-.72-.4,1.29-2.88,2.64-5.68,3.82-8.57,3.06-7.47,6-15,9.05-22.46.28-.7.53-1.4.76-2.12,1.29-4,1.29-4,5.7-4,8.25,0,16.5,0,24.74-.08,2.09,0,2.5.89,2.14,2.59a12.36,12.36,0,0,1-.95,3.34,2.45,2.45,0,0,1-1.89.9c-4.83,0-9.65-.23-14.47-.22a2.85,2.85,0,0,0-2.14,1.26C266.32,206.24,265.59,208.36,264.52,211Z"/><path class="cls-2" d="M335.7,203.29H324.13c1.12-2,2.1-4,3.32-5.82a3,3,0,0,1,2.15-.89c10.57-.11,21.14-.13,31.7-.21,1.57,0,2.14.63,1.72,2.16s-.86,3.36-1.15,4.47c-3.29,0-6.24.06-9.18,0a2.8,2.8,0,0,0-3.19,2c-3.2,8.29-6.59,16.51-9.83,24.78-1.66,4.27-1.58,4.29-6.21,4.29H323.09C327.31,223.77,331.41,213.77,335.7,203.29Z"/><path class="cls-2" d="M391.56,234c1.92-4.53,3.74-8.59,5.35-12.73,3-7.82,5.94-15.69,9-23.5a2.29,2.29,0,0,1,1.54-1.31c4.24-.09,8.48-.07,12.73,0,1.36,0,1.66.7,1.1,2-3.13,7.24-6.28,14.47-9.25,21.77-1.68,4.14-3,8.43-4.58,12.63a2,2,0,0,1-1.34,1.12C401.35,234,396.62,234,391.56,234Z"/><path class="cls-2" d="M83.08,150.6l.58-.18c0,.25-.07.5-.1.76Z"/></g></svg>