<svg id="Layer_1" data-name="Layer 1" xmlns="http://www.w3.org/2000/svg" viewBox="0 0 314.3 200.23"><defs><style>.cls-1{fill:#010102;}.cls-2{fill:#96adbd;}.cls-3{fill:#93a9b8;}.cls-4{fill:#fcfcfc;}.cls-5{fill:#f9f9f9;}.cls-6{fill:#f7f7f7;}.cls-7{fill:#f8f8f8;}.cls-8{fill:#fefefe;}</style></defs><title>coa</title><path class="cls-1" d="M212.18,186l-9.86,3.73c.06.26.11.57.19.86a4,4,0,0,1-2.82,5.19,82.12,82.12,0,0,1-8,1.94c-2.85.52-4.63-.81-5.74-4l-10.62,1.26a1.79,1.79,0,0,0-.08.36c-.11,3.2-1.71,4.82-4.93,4.91-2.08,0-4.16,0-6.24,0-4,0-5.43-1.28-5.76-5.27l-10.66-1.27c-.21.56-.37,1.14-.63,1.67a4.9,4.9,0,0,1-5.67,2.29c-2-.47-4-1-6.05-1.46-3.91-1-4.92-2.58-4-6.47l-9.66-3.63a19.22,19.22,0,0,1-2.87,2.46,4.57,4.57,0,0,1-4.59-.13c-1.77-.92-3.51-1.91-5.32-2.73-3.06-1.38-4.58-3.93-2.06-7.37-.24-.19-.48-.38-.73-.56-2.2-1.53-4.41-3-6.58-4.59a1.5,1.5,0,0,0-2,0c-2.53,1.89-4.29,1.86-7,0a2.28,2.28,0,0,0-1.21-.31c-2,0-4,.17-6,0-4.73-.42-9.44.27-14.16,0-1.1-.06-2.19-.31-3.29-.47a5,5,0,0,0-.93-.09c-3,.18-6,.42-9,.56a29.12,29.12,0,0,1-4.67,0c-3.73-.44-7.44.21-11.17.09-4.3-.13-8.6,0-12.91,0-1.15,0-2.29-.24-3.44-.35a4.07,4.07,0,0,0-.92,0,41.05,41.05,0,0,1-13.23-.15c-4.1-.81-6.77-3.67-8.21-7.52a20.15,20.15,0,0,1,0-14.54,12,12,0,0,1,8.81-7.72,14.46,14.46,0,0,0-1.27-2.05,8.78,8.78,0,0,1-2.06-8.76C11,117.09,18.16,103.89,27.11,91.61a11,11,0,0,1,6.08-4.06c4.65-1.27,9.34-2.44,14.07-3.31,4.43-.82,8.93-1.2,13.42-1.78,0,.07,0,0,0-.06-2.62-1.65-3.14-3-2.26-5.91.51-1.71,1-3.43,1.56-5.14A4.75,4.75,0,0,1,65.76,68c.77.17,1.55.37,2.4.57,1.36-2.87,2.71-5.73,4.11-8.67-.73-.38-1.48-.74-2.19-1.15a4,4,0,0,1-1.54-6Q70.24,50,72,47.38a4.93,4.93,0,0,1,6.4-1.82c.83.38,1.63.82,2.46,1.24l6.4-7.37c-.69-.63-1.38-1.23-2-1.89a3.8,3.8,0,0,1,0-5.65c1.81-1.75,3.68-3.44,5.62-5a4.93,4.93,0,0,1,6.4.09c.71.58,1.38,1.22,2.06,1.83l8.28-5.65c-.47-.72-1-1.44-1.4-2.18a3.84,3.84,0,0,1,1.24-5.53,80.45,80.45,0,0,1,7.43-3.86,4.77,4.77,0,0,1,6,1.91c.47.69.92,1.39,1.4,2.14l9.58-3.53c-.24-.82-.48-1.61-.7-2.41a4,4,0,0,1,2.56-5.1,84.45,84.45,0,0,1,8.72-2.1,4.53,4.53,0,0,1,5,3.13c.29.83.51,1.67.79,2.58L158.37,7c0-.78,0-1.56,0-2.35,0-2.52,1.4-4.32,3.88-4.49a67.4,67.4,0,0,1,9.1,0c2.44.17,3.85,2,3.87,4.52,0,.76,0,1.51,0,2.31l10.23,1.18c.27-.84.51-1.67.79-2.49a4.61,4.61,0,0,1,5.35-3.17c2.62.54,5.23,1.14,7.8,1.84s3.77,2.92,3,5.58c-.2.69-.38,1.38-.6,2.13l9.57,3.54c.46-.71.91-1.42,1.37-2.11a4.83,4.83,0,0,1,6.2-1.86c2.41,1.13,4.79,2.37,7.11,3.69a3.85,3.85,0,0,1,1.38,5.58c-.44.75-.92,1.47-1.39,2.22l8.24,5.66c.6-.54,1.24-1.13,1.9-1.69a5,5,0,0,1,7,.05c1.66,1.45,3.3,2.91,4.91,4.41,2.12,2,2.09,4.35,0,6.33-.56.52-1.13,1-1.71,1.53l6.42,7.39c.75-.38,1.52-.8,2.31-1.17a5,5,0,0,1,6.6,1.81q1.74,2.66,3.42,5.35a4,4,0,0,1-1.43,5.85c-.75.44-1.53.82-2.33,1.24,1.38,2.9,2.72,5.74,4.1,8.65l2.37-.54a4.77,4.77,0,0,1,5.86,3.42c.48,1.56.94,3.13,1.41,4.69,1,3.32.68,4.3-2.08,6.38,3.78.18,7.48.37,11.18.5a62,62,0,0,1,20.08,4.13c3.42,1.31,6.07,3.5,6.92,7.33a1.78,1.78,0,0,0,.55.75,8.31,8.31,0,0,1,2.22,8.67,116.12,116.12,0,0,1-18.47,37.85l-.59.83h1.77c2.83,0,5.68-.25,8.49,0a6.9,6.9,0,0,1,6.24,6.65c.09,2-.13,4-.18,6a3.41,3.41,0,0,0,.19,1,15.49,15.49,0,0,1,.28,8.05c-1.29,5.42-5.05,8.55-10.59,8.62-7,.08-14,0-21,0-2.3,0-4.61,0-6.91,0-.95,0-1.9-.23-2.85-.32a3.41,3.41,0,0,0-1.15,0,14.31,14.31,0,0,1-9.27-.5A1.19,1.19,0,0,0,259,172c-2.62,1.31-5.4.82-8.14.76-.7,0-1.4,0-2.1,0-1.08,0-2.15.12-3.23.09a4.89,4.89,0,0,0-3.33.9,4.68,4.68,0,0,1-5.59-.27,2.09,2.09,0,0,0-2.9,0c-2.25,1.65-4.56,3.22-6.84,4.82,0,.08,0,.17,0,.22,2.32,3,1,5.85-2,7.08-1.53.65-3,1.53-4.46,2.3C216.59,189.88,214.75,189.47,212.18,186ZM120.28,41l-.12-.16,0,.15.17,0,.18.54c1.72,2.78,3.43,5.56,5.16,8.33,1.26,2,2.54,4,3.83,6.08l-2.65,2.29-2.63-2.16-10.81-8.88-.46-.12.26.33c3.6,4.38,7.2,8.76,10.87,13.21l-2.67,2.31-15-9.58-.14.22,12.43,11.67-.17.4a5.68,5.68,0,0,1-1.32-.19q-7.35-2.93-14.68-5.88c-1.54-.62-2.07-.49-3.16.72s-2.39,2.69-3.64,4A26.35,26.35,0,0,1,92,67.78c-6.71,4.63-13.5,9.14-20.26,13.7-.27.19-.52.41-.85.67a6,6,0,0,0,4.82-1.07C81.59,77,87.59,73,93.55,69a7.89,7.89,0,0,0,1.36-1.15c1.85-2,3.7-4,5.49-6a1.29,1.29,0,0,1,1.73-.42c5.06,2.07,10.15,4.06,15.21,6.13a1.55,1.55,0,0,0,1.89-.29q13.81-12,27.69-23.91l4.84-4.15,23,24.15,16.1-12.07c3.22,2.35,6.44,4.52,9.45,7a30.55,30.55,0,0,0,12,6.15,23.94,23.94,0,0,1,7.21,3.4c7.48,4.85,15.05,9.55,22.51,14.41a4.93,4.93,0,0,0,4.29.5l-17.11-10.9,4.8-2.69-.15-.32c-1.77.59-3.53,1.2-5.3,1.77-.35.11-.85.24-1.11.08-1.93-1.16-3.82-2.4-5.84-3.68L230,60.83a2.07,2.07,0,0,0-1.15.27c-2.81,1.34-5.61,2.7-8.43,4a1.66,1.66,0,0,1-1.2.19c-1.59-.77-3.14-1.63-4.76-2.49l.79-.75L224,53.73l.13-.19h-.28q-6.1,3.9-12.23,7.78c-.35.21-.83.49-1.16.4-1.26-.33-2.48-.8-3.87-1.27l11.18-13.55-.2-.17L203.63,58.29l-2.77-2.06c3-4.84,6-9.6,9-14.36l-.34-.25L197.88,54.07,195,52l7-15.14-.33-.18-9.51,13.15c-1.85-1.24-2.83.49-4.35,1.27l5.74-18.59a2.17,2.17,0,0,0-.81.91Q186.87,44.27,181,55.11c-.28.51-.63,1-.94,1.49l-.05-.05a9.12,9.12,0,0,1,.07-1.18q1.73-10.21,3.47-20.43c.3-1.76.58-3.51.87-5.27l-.27-.05q-4.94,12.91-9.88,25.85l-.21,0q.48-14,1-28l-.18,0q-3.15,13.27-6.29,26.54l-.49,0L165.36,27h-.2c-.7,7-1.41,14.06-2.14,21.34a23.29,23.29,0,0,1-2.08-2.24,8.92,8.92,0,0,1-1.43-2.66c-.69-2.5-1.21-5.05-1.81-7.57-.65-2.77-1.32-5.53-2-8.3l-.2,0c.14,4.34.29,8.67.43,13-.9-.86-1.77-1.66-2.62-2.48a1.93,1.93,0,0,0-3-.25l-.63.47-3.37-8.68c.28,3.33.83,6.54,1.35,9.76a1.14,1.14,0,0,1-.27.92c-1.29,1.19-2.64,2.31-4,3.49L137.2,32.34c1.05,4.27,2.34,8.41,3.61,12.55.11.37.21,1,0,1.18-1,1-2.06,1.83-3.15,2.77l-2.27-3.13-2.1-2.92c-.73-1-1.42-2-2.19-3s-1.16-2.09-2.52-2.88c.14.46.16.6.22.73,2,4.27,4,8.53,6,12.8a1.06,1.06,0,0,1-.08.93c-.78.77-1.64,1.46-2.5,2.2L120.67,41.34Zm102.17-7,.18.17c-.19,1.42-.4,2.84-.53,4.27a1.57,1.57,0,0,0,.3,1.14,13.8,13.8,0,0,0,1.81,1.32c1.8-2.24,3.51-4.36,5.26-6.55L227.61,33,224.4,37c.18-1.3.31-2.24.45-3.19.38-2.53.38-2.53-1.77-4a.81.81,0,0,0-.27,0l-5.18,6.45,1.82,1.28ZM174.16,80.68c2-2,4.12-4,6.11-6.09a4.38,4.38,0,0,0,1-1.94c.32-1.44.49-2.92.74-4.56,1.32,1.4,2.52,2.58,3.59,3.87a3.11,3.11,0,0,1,.65,1.77c.08,2.12,0,4.25,0,6.4,1.38-3,2.79-6.09,4.15-9.17a1.77,1.77,0,0,0-.11-1.12c-.66-1.87-1.38-3.73-2-5.62a1.5,1.5,0,0,1,.08-1.16c.57-.85,1.25-1.62,2.09-2.68l2.18,2.52.33-.16c-.79-2.72-1.58-5.44-2.44-8.38-4.29,3.65-8.23,7.08-12.27,10.39a3.49,3.49,0,0,0-1.51,3.34,24.43,24.43,0,0,1,0,4.19,11.67,11.67,0,0,1-.6,3c-.63,1.8-1.4,3.54-2.11,5.31l-.15.31ZM170.4,171c-1.73,1.83-2.47,1.71-3.47-.61-.31-.7-.54-1.43-.89-2.35-.23.76-.38,1.25-.54,1.74-.89,2.77-1.31,2.92-3.71,1.33.37,2.81,1.88,5.42,1.42,8.31l-.4.21-3.85-5c0,.61,0,.89,0,1.16,0,1.58-.22,1.76-1.74,1.22-.76-.27-1.54-.5-2.5-.82.31.84.54,1.43.75,2,.65,1.93.36,2.39-1.89,2.59,1.36,1.11,2.58,2.12,3.82,3.1s3.06,1.89,2.46,4.17c1.55-.35,2.9-.69,4.27-.94,1.19-.22,1.51.09,1.52,1.3,0,1.51,0,3,0,4.54.71.26,1,.14,1-.62,0-1.19,0-2.39,0-3.59,0-1.76.14-1.87,1.86-1.5,1.35.29,2.69.6,4.4,1-1.09-1.93-.12-2.79,1.07-3.58.66-.45,1.29-.94,1.93-1.42,1-.72,1.92-1.46,3-2.32-2.51-.23-2.84-.75-2.07-2.85l.59-1.63c-.69.22-1.16.38-1.65.51-2.67.76-2.42.74-2.59-1.72,0,0-.1-.08-.15-.11-1.44,1.32-2.12,3.34-4.21,4.58a11,11,0,0,1,0-1.66c.21-1.06.51-2.09.73-3.15.27-1.31.5-2.63.75-3.94h0Zm79.52-30.14c1,0,2.07,0,3.08,0q13.31-.62,26.6-1.28a1.88,1.88,0,0,0,1.2-.58c10.45-12.37,18.29-26.15,22.64-41.82.51-1.84.41-2.08-1.29-3a3.77,3.77,0,0,0-.76-.36c-4.49-1.09-8.93-2.59-13.48-3.16-5.66-.7-11.41-.62-17.13-.9a163.81,163.81,0,0,0-33.49,1.38c-4.56.73-9,2-13.53,3.06a6.3,6.3,0,0,0-3.93,2.93c-1.32,2.1-2.83,4.07-4.16,6.16-6.16,9.64-11.22,19.79-14.13,30.92-.45,1.72-.81,3.46-1.23,5.3,2.42.19,4.64.43,6.87.53,7.11.32,14.22.56,21.33.89a1.47,1.47,0,0,0,1.68-1.05c3.05-6.69,6.16-13.34,9.23-20a1.41,1.41,0,0,1,1.49-1c6.56,0,13.12,0,19.68,0,.34,0,.68,0,1.25.08C257.81,126.37,253.87,133.61,249.92,140.88ZM173.35,89.73v-.19c-4.32,0-8.64-.18-12.95,0-7.34.37-14.7.75-21.91,2.31-3.54.77-7.06,1.69-10.56,2.63a5.68,5.68,0,0,0-3.31,2.6c-1.21,1.92-2.58,3.75-3.83,5.65A111.78,111.78,0,0,0,106.6,133c-.6,2.08-.26,2.72,1.77,3.51.41.16.82.32,1.24.45a86,86,0,0,0,24.18,3.84c10,0,20.06.27,30.08-.63a126.74,126.74,0,0,0,21.65-4,7.55,7.55,0,0,0,5-3.56c.5-.9,1.2-1.69,1.79-2.54,7-10.12,12.62-20.91,15.81-32.86.51-1.89.35-2.35-1.5-3.09a50.06,50.06,0,0,0-14.38-3.47C186,90.15,179.66,90,173.35,89.73ZM79.28,108.67c10.82,0,21.3,0,31.78,0a1,1,0,0,0,1.11-.8c1.17-3.51,2.43-7,3.54-10.54.62-2,.35-2.49-1.61-3.25a55.5,55.5,0,0,0-14.4-3.43c-3.77-.39-7.58-.51-11.38-.6-7.47-.18-14.95-.46-22.42-.32a129.45,129.45,0,0,0-25.75,3.32c-4.12.92-7.26,2.68-9.7,6.4-6.81,10.38-12.62,21.19-16.17,33.14-.71,2.38-.94,2.84,2.18,4.11a5.44,5.44,0,0,0,.68.23A85.29,85.29,0,0,0,41,140.8c10.15.07,20.3.28,30.45-.62a124.35,124.35,0,0,0,21.77-4,7.94,7.94,0,0,0,5-3.48c1.79-2.88,3.76-5.65,5.63-8.48.52-.78,1-1.61,1.48-2.48a4.21,4.21,0,0,0-.5-.09c-10.56.14-21.11.28-31.67.48a1.58,1.58,0,0,0-1.1.79q-2.67,4.81-5.23,9.7a1.52,1.52,0,0,1-1.55,1c-6.28,0-12.56,0-18.84,0-.3,0-.61,0-1-.06a8.5,8.5,0,0,1,.36-1q8.73-17.46,17.47-34.91a1.3,1.3,0,0,1,1.43-.75H83.68c.29,0,.59,0,1,.07Zm72.24-65.21a4,4,0,0,0-.47.28q-13.59,12.07-27.16,24.15a3,3,0,0,0-.75,1.17c-1,2.74-1.87,5.51-2.89,8.23A4,4,0,0,1,119,79c-2,1.42-4,2.73-6.3,4.24a9,9,0,0,0,1.14-.06c3.56-.87,7.13-1.73,10.68-2.64a2.16,2.16,0,0,0,1.07-.85c1.42-2.07,2.68-4.27,4.22-6.24s3.15-3.46,4.75-5.17l.23.15q-2,8.69-4,17.36l.32.14c.65-.88,1.29-1.76,1.95-2.64,3.88-5.12,7.88-10.17,9.27-16.67.21-1,.75-1.95,1-2.95.65-3,3-4.67,4.77-7.13.5,3.41,1,6.55,1.46,10,1-1.75,1.72-3.23,2.65-4.56,1.59-2.24,2.28-4.56,1.3-7.24a9.35,9.35,0,0,1-.3-1.77C152.61,49.87,152.07,46.72,151.52,43.46Zm-49.7,20.87c-1.13,1.48-2.18,3-3.38,4.36a15.78,15.78,0,0,1-3,2.79c-3.91,2.61-7.9,5.11-11.86,7.66l-.89.58.11.18,15-4.35-3.47,7.56a7.69,7.69,0,0,0,1.22-.39c2.58-1.51,5.17-3,7.72-4.57a1.21,1.21,0,0,0,.38-1c-.38-1.59-.9-3.14-1.25-4.74a2.29,2.29,0,0,1,.32-1.59c1-1.41,2-2.73,3.15-4.16ZM94,158.74h-.23c-1.09-2.72-2.16-5.45-3.28-8.16-.13-.32-.45-.76-.72-.78-1-.1-2,0-3.05,0V165.4h2.83v-9.23l.15,0,3.7,9.23h3.43V149.82H94Zm143.4-9v15.62h2.89v-9.06c1.25,2.76,2.34,5.53,3.47,8.28.14.35.51.8.81.83a25.18,25.18,0,0,0,2.89,0V149.83h-2.87v9.31c-1.21-3-2.28-5.76-3.41-8.48-.15-.37-.56-.83-.9-.87A22.93,22.93,0,0,0,237.39,149.75Zm-35.53.05v15.66c1.75,0,3.42,0,5.09,0a5.07,5.07,0,0,0,5.25-4.33,15.85,15.85,0,0,0,0-7.12,4.82,4.82,0,0,0-4.71-4.17C205.67,149.69,203.82,149.8,201.86,149.8Zm-171,0v15.59h2.85v-9.19a1.79,1.79,0,0,1,.46.72c1,2.59,2,5.19,3.11,7.76a1.35,1.35,0,0,0,.85.76,26.88,26.88,0,0,0,2.84,0V149.83H38.12v9.41c-1-2.44-1.8-4.54-2.64-6.64C34.28,149.62,34.27,149.62,30.87,149.79Zm241.67,0v15.63h3.31v-5.31c1.88-.27,2.15-.12,2.74,1.53.45,1.27.87,2.55,1.29,3.75h3.52l-2.31-6c1.68-1.21,2.3-2.77,2-5.35-.32-2.92-1.55-4.12-4.48-4.21C276.64,149.7,274.65,149.76,272.54,149.76ZM147,165.42l-2.32-6.08c2.26-1.43,2.24-3.76,1.9-6.11a3.47,3.47,0,0,0-3.58-3.36c-2.25-.15-4.52,0-6.85,0V165.4h3.33V160c2-.09,2.09-.05,2.71,1.7l.27.79C143.52,165.56,143.52,165.56,147,165.42ZM55.87,149.93v15.5c1.91,0,3.74,0,5.57,0A4.64,4.64,0,0,0,66,161.92a14.15,14.15,0,0,0,0-8.73A4.16,4.16,0,0,0,62.45,150C60.29,149.78,58.09,149.93,55.87,149.93Zm117.94,15.51c1.93,0,3.73.08,5.51,0a4.89,4.89,0,0,0,4.77-4,14.79,14.79,0,0,0,0-7.7c-.49-1.84-1.53-3.42-3.49-3.71a66.42,66.42,0,0,0-6.8-.36Zm-72.59-8a40.76,40.76,0,0,0,1,4.89,4.84,4.84,0,0,0,5,3.35,4.91,4.91,0,0,0,5-3.24,13.38,13.38,0,0,0,0-9.82,5.4,5.4,0,0,0-9.86,0A37.38,37.38,0,0,0,101.22,157.47Zm58.48.17a40.63,40.63,0,0,0-1.06-4.88,4.8,4.8,0,0,0-4.92-3.29,4.9,4.9,0,0,0-5,3.2,13.33,13.33,0,0,0,0,9.82,5.42,5.42,0,0,0,10-.14A40,40,0,0,0,159.7,157.64ZM288.2,156v-2.81h5.62v-3.35h-9v15.59H294V162h-5.76v-3h4.85v-3Zm-52.53,6h-5.84v-3h4.91v-3h-4.9v-2.86h5.6v-3.31h-9v15.56h9.23Zm31.48-12.18c0,2.79,0,5.53,0,8.27a21.34,21.34,0,0,1-.25,3.09,1.44,1.44,0,0,1-1.57,1.2,1.52,1.52,0,0,1-1.74-1.14,7.72,7.72,0,0,1-.23-1.66c0-2.91,0-5.83,0-8.74,0-.34,0-.69-.06-1h-3.07c0,3.94-.18,7.85.06,11.73.19,2.83,2,4.17,4.88,4.18s4.89-1.38,5.12-4.25c.28-3.57.2-7.17.27-10.76a6.84,6.84,0,0,0-.08-.9ZM20.57,165.41l.72-2.94h4l.72,2.91h3.54l-4-15.6H21.43l-4.1,15.63Zm25.72-3c1.31,0,2.7-.3,3.8.13.56.22.6,1.76.88,2.7l.07.12h3.49c-1.05-4.1-2.1-8.1-3.12-12.11-.95-3.73-.94-3.73-4.79-3.52l-.22.08-4.08,15.57h3.24Zm154.22,3-4-15.59h-4.1l-4.08,15.61h3.22l.75-2.93h4c.24,1,.46,1.93.7,2.91Zm-32.29-3c.2.85.34,1.64.58,2.39a1,1,0,0,0,.68.61c.94.08,1.89,0,3,0-1.37-5.33-2.71-10.51-4.05-15.71-1.17,0-2.21,0-3.24,0-.63,0-.89.17-1.05.81-.81,3.21-1.68,6.4-2.52,9.61-.46,1.72-.89,3.45-1.35,5.24h3.21c.27-1,.52-2,.77-3Zm-82.82,3-4.06-15.71c-1.18,0-2.22,0-3.25,0-.65,0-.89.21-1,.84-.73,2.94-1.54,5.86-2.31,8.79-.52,2-1,4-1.54,6,3.07.35,3.07.35,3.8-2.34.05-.19.11-.37.18-.56h4c.18.83.32,1.62.56,2.37a1,1,0,0,0,.69.61C83.32,165.51,84.27,165.46,85.4,165.46Zm218.66-15.71a53,53,0,0,0-5.52.06,3.86,3.86,0,0,0-2.53,1.27,6.11,6.11,0,0,0-.36,6.26c.79,1.82,2.47,1.77,4.1,1.72h.12c1.08-.12,1.56.43,1.57,1.45s-.44,1.54-1.53,1.51c-1.47-.05-2.94,0-4.47,0v3.36a2.62,2.62,0,0,0,.41.09c1.72,0,3.44,0,5.15,0a3.22,3.22,0,0,0,3.51-2.92,10.18,10.18,0,0,0,.14-2.14c0-2.48-.78-4.6-4.35-4.3-.16,0-.32,0-.48,0-1.05.06-1.55-.43-1.54-1.49s.55-1.47,1.58-1.44c1.39,0,2.78,0,4.2,0Zm-82.17,0c-.8,3.77-1.58,7.47-2.36,11.16l-.18,0-2.44-11.18h-3.53c1,4.14,2,8.21,3,12.27.29,1.14.34,2.72,1.1,3.27s2.31.14,3.51.15a1.77,1.77,0,0,0,.33-.07q1.89-7.75,3.83-15.64ZM208.66,84.1h.23c.08-1.09.25-2.19.23-3.28a3.74,3.74,0,0,1,1.37-3.12c1.31-1.16,2.46-2.52,3.77-3.68a3.21,3.21,0,0,1,1.85-.76c2-.1,3.93,0,6,0-4.71-3.66-9.56-6.45-15.53-6.95.24.46.47.87.69,1.29.72,1.33,2,2.65,2,4s-1.2,2.7-1.85,4.06c-.2.42-.53.92-.45,1.31C207.51,79.33,208.1,81.71,208.66,84.1Zm-74.94,72.38h-4.91v-3.36h5.57v-3.29h-9V165.4h3.37v-6h5Zm-15.62,8.93v-6h5v-2.92h-4.92v-3.3h5.55V149.8h-8.93v15.61ZM16.52,162c-1,0-1.95,0-2.9,0-1.58-.05-2.34-.58-2.52-2.14a20,20,0,0,1,0-4.51c.18-1.6,1-2.16,2.6-2.23.94,0,1.89,0,2.8,0v-3.39c-1.43,0-2.78-.06-4.13,0a4.44,4.44,0,0,0-4.14,3.12,13.48,13.48,0,0,0,0,9.37,4.06,4.06,0,0,0,3.28,3,40.21,40.21,0,0,0,5,.05Zm239,3.38V153.14h3.17v-3.31h-9.81v3.39h3.24v12.2ZM158,17.82a1.8,1.8,0,0,0,.89-2.47,2,2,0,0,0-2.13-1.24c-2.05.08-4.1.25-6.22.39.34,2.87.65,5.54,1,8.2,1-.08,1.83-.11,2.66-.23,1.33-.18,2.68-.34,4-.65a1.87,1.87,0,0,0,1.55-1.88A2,2,0,0,0,158,17.82Zm-26.45,1.07c.81,2.64,1.6,5.2,2.42,7.85l2.2-.57c-.45-1.56-.88-3-1.4-4.82,1.49,1.35,2.68,2.46,3.91,3.54a1.32,1.32,0,0,0,.91.35c.77-.13,1.51-.4,2.28-.61-.84-2.7-1.64-5.27-2.44-7.88l-2.2.62,1.42,4.75c-1.41-1.27-2.61-2.39-3.85-3.45a1.43,1.43,0,0,0-1-.39A18.45,18.45,0,0,0,131.54,18.89ZM71.67,165.42V149.81H68.46v15.61Zm165.63-112c.8,1.11,1.5,2.12,2.25,3.11,2,2.7,4.34,3,7,.84,1.52-1.23,1.89-2.67.92-4.34-.83-1.44-1.87-2.76-2.85-4.19ZM111.56,38.13l3-1.94c.3-.2.59-.41.88-.63,1.83-1.42,2.2-3,1.16-4.79-1.26-2.24-3.25-3.19-5.26-2.26a55.24,55.24,0,0,0-4.83,2.83ZM93.32,44.59c-2.15-.07-4.76,2.4-4.89,4.63-.11,2,2.5,4.42,4.83,4.47,2.13.05,4.74-2.51,4.81-4.71C98.14,47,95.63,44.66,93.32,44.59ZM88.68,59.85c-1.32,2.56-2.3,2.83-4.43,1.33a1.6,1.6,0,0,1-.6-2.46c.52-.93,1.1-1.82,1.7-2.8L83.72,55c-.71,1.16-1.4,2.19-2,3.27-1.14,2.1-.73,3.83,1.15,5.1,2.26,1.53,4.47,1.47,5.9-.34,1-1.33,1.88-2.84,2.85-4.34l-4.38-2.38-2.07,3.38,1.33.73.93-1.28ZM128.9,27l-4.35,1.77-.65-1.45,3.64-1.54-.68-1.36-3.68,1.48-.6-1.34,4.16-1.77L126,21.19,119.27,24l3.59,7.5,6.82-2.83Zm86.19-1.55c-.84-.43-1.58-.83-2.34-1.17a1,1,0,0,0-.85,0c-2.23,1.79-4.43,3.62-6.67,5.46,1.78,1.07,1.78,1.06,3.31.29a1.05,1.05,0,0,1,.76,0c.51.21,1,.53,1.5.73s.91.61.67,1.27.08,1,.67,1.26,1.07.5,1.71.8C214.27,31.19,214.67,28.36,215.09,25.46ZM238.37,42.1c-.71-.64-1.3-1.22-2-1.74a1,1,0,0,0-.81-.19c-2.66,1.13-5.31,2.31-8,3.52A12.65,12.65,0,0,0,229,44.93a1.18,1.18,0,0,0,1,.18,1.35,1.35,0,0,1,2,.36,13.6,13.6,0,0,0,1.35,1.24l-.76,1.55,2.08,1.8Zm10,29.32,6.41-6.23c-.35-.66-.7-1.38-1.12-2a1.08,1.08,0,0,0-.8-.48c-2.89.26-5.79.58-8.78.89a11.28,11.28,0,0,0,.92,1.64,1.11,1.11,0,0,0,.91.43c1-.3,1.39.1,1.72.91.22.55.55,1,1,1.85l-1.44.85Zm-46.31-45c-.9-.29-1.7-.52-2.48-.82-1.28-.48-1.58-1.18-1.15-2.55.5-1.6,1.24-2.15,2.54-1.84.88.21,1.73.48,2.65.74l.56-1.73a33.17,33.17,0,0,0-4.33-1c-2.1-.25-3.67,1.15-4.18,3.45A3.48,3.48,0,0,0,198,27c1.11.42,2.26.71,3.45,1.08ZM179.59,14.56c-1.28-.13-2.43-.29-3.59-.35a3.73,3.73,0,0,0-4.17,3.67c-.25,2.5.84,4,3.28,4.42,1.13.19,2.29.28,3.52.43l.24-1.75c-.94-.13-1.81-.21-2.67-.36-1.35-.24-1.78-.85-1.66-2.27.14-1.67.74-2.34,2.14-2.29.87,0,1.74.16,2.67.24ZM97,39.08l6.4,5.66L108,40.81l-1.32-1.28-2.84,2.37-4.91-4.51Zm86.18-15.69,2.5.38L186,21.6l-2.51-.38Zm-18.71-1.65h2.42V19.68h-2.42Zm74,55.1v.06h.28v-.06Z"/><path class="cls-2" d="M249.92,140.88c4-7.27,7.89-14.51,11.92-21.94-.57,0-.91-.08-1.25-.08-6.56,0-13.12.07-19.68,0a1.41,1.41,0,0,0-1.49,1c-3.07,6.67-6.18,13.32-9.23,20a1.47,1.47,0,0,1-1.68,1.05c-7.11-.33-14.22-.57-21.33-.89-2.23-.1-4.45-.34-6.87-.53.42-1.84.78-3.58,1.23-5.3,2.91-11.13,8-21.28,14.13-30.92,1.33-2.09,2.84-4.06,4.16-6.16a6.3,6.3,0,0,1,3.93-2.93c4.49-1.08,9-2.33,13.53-3.06a163.81,163.81,0,0,1,33.49-1.38c5.72.28,11.47.2,17.13.9,4.55.57,9,2.07,13.48,3.16a3.77,3.77,0,0,1,.76.36c1.7.88,1.8,1.12,1.29,3-4.35,15.67-12.19,29.45-22.64,41.82a1.88,1.88,0,0,1-1.2.58q-13.29.68-26.6,1.28C252,140.92,251,140.88,249.92,140.88Zm22.38-44c-6.91,0-13.58,0-20.25,0a1.48,1.48,0,0,0-1,.71c-2.35,4.36-4.66,8.73-7,13.1a6.87,6.87,0,0,0-.26.8c7.07,0,14,0,21,0a1.58,1.58,0,0,0,1.1-.8c1-2,2-4,2.93-6C270,102.11,271.07,99.57,272.3,96.86Z"/><path class="cls-2" d="M173.35,89.73c6.31.3,12.64.42,18.92,1a50.06,50.06,0,0,1,14.38,3.47c1.85.74,2,1.2,1.5,3.09-3.19,11.95-8.8,22.74-15.81,32.86-.59.85-1.29,1.64-1.79,2.54a7.55,7.55,0,0,1-5,3.56,126.74,126.74,0,0,1-21.65,4c-10,.9-20.05.67-30.08.63A86,86,0,0,1,109.61,137c-.42-.13-.83-.29-1.24-.45-2-.79-2.37-1.43-1.77-3.51a111.78,111.78,0,0,1,14.19-30.24c1.25-1.9,2.62-3.73,3.83-5.65a5.68,5.68,0,0,1,3.31-2.6c3.5-.94,7-1.86,10.56-2.63,7.21-1.56,14.57-1.94,21.91-2.31,4.31-.22,8.63,0,12.95,0ZM177,97a2.17,2.17,0,0,0-.42-.1c-6.6,0-13.2,0-19.79,0a1.73,1.73,0,0,0-1.19.87q-8.73,17.31-17.4,34.67c-.15.3-.25.63-.41,1,.3,0,.49.07.67.07,6.48,0,13,0,19.44,0a1.37,1.37,0,0,0,1.34-.92q9.35-17,17.36-34.68C176.71,97.68,176.82,97.35,177,97Z"/><path class="cls-2" d="M79.28,108.67,84.7,97c-.43,0-.73-.07-1-.07H64.6a1.3,1.3,0,0,0-1.43.75Q54.46,115.1,45.7,132.55a8.5,8.5,0,0,0-.36,1c.41,0,.72.06,1,.06,6.28,0,12.56,0,18.84,0a1.52,1.52,0,0,0,1.55-1q2.56-4.87,5.23-9.7a1.58,1.58,0,0,1,1.1-.79c10.56-.2,21.11-.34,31.67-.48a4.21,4.21,0,0,1,.5.09c-.52.87-1,1.7-1.48,2.48-1.87,2.83-3.84,5.6-5.63,8.48a7.94,7.94,0,0,1-5,3.48,124.35,124.35,0,0,1-21.77,4c-10.15.9-20.3.69-30.45.62A85.29,85.29,0,0,1,17.14,137a5.44,5.44,0,0,1-.68-.23c-3.12-1.27-2.89-1.73-2.18-4.11,3.55-12,9.36-22.76,16.17-33.14,2.44-3.72,5.58-5.48,9.7-6.4A129.45,129.45,0,0,1,65.9,89.75c7.47-.14,14.95.14,22.42.32,3.8.09,7.61.21,11.38.6a55.5,55.5,0,0,1,14.4,3.43c2,.76,2.23,1.28,1.61,3.25-1.11,3.54-2.37,7-3.54,10.54a1,1,0,0,1-1.11.8C100.58,108.67,90.1,108.67,79.28,108.67Z"/><path class="cls-3" d="M113.38,47.17l10.81,8.88,2.63,2.16,2.65-2.29c-1.29-2.05-2.57-4.06-3.83-6.08-1.73-2.77-3.44-5.55-5.16-8.33l.19-.17,11.52,12.23c.86-.74,1.72-1.43,2.5-2.2a1.06,1.06,0,0,0,.08-.93c-2-4.27-4-8.53-6-12.8-.06-.13-.08-.27-.22-.73,1.36.79,1.79,2,2.52,2.88s1.46,2,2.19,3l2.1,2.92,2.27,3.13c1.09-.94,2.17-1.8,3.15-2.77.2-.2.1-.81,0-1.18-1.27-4.14-2.56-8.28-3.61-12.55l6.26,11.51c1.36-1.18,2.71-2.3,4-3.49a1.14,1.14,0,0,0,.27-.92c-.52-3.22-1.07-6.43-1.35-9.76l3.37,8.68.63-.47a1.93,1.93,0,0,1,3,.25c.85.82,1.72,1.62,2.62,2.48-.14-4.37-.29-8.7-.43-13l.2,0c.66,2.77,1.33,5.53,2,8.3.6,2.52,1.12,5.07,1.81,7.57a8.92,8.92,0,0,0,1.43,2.66A23.29,23.29,0,0,0,163,48.32C163.75,41,164.46,34,165.16,27h.2l2.7,26.91.49,0q3.13-13.27,6.29-26.54l.18,0q-.48,14-1,28l.21,0q4.94-12.93,9.88-25.85l.27.05c-.29,1.76-.57,3.51-.87,5.27q-1.74,10.22-3.47,20.43a9.12,9.12,0,0,0-.07,1.18c0,.12-.08.24-.11.36l.1,0,.06-.33c.31-.5.66-1,.94-1.49q5.88-10.84,11.74-21.7a2.17,2.17,0,0,1,.81-.91L187.8,51.09c1.52-.78,2.5-2.51,4.35-1.27l9.51-13.15.33.18L195,52l2.85,2.08,11.68-12.45.34.25c-3,4.76-6,9.52-9,14.36l2.77,2.06,13.93-11.55.2.17L206.58,60.46c1.39.47,2.61.94,3.87,1.27.33.09.81-.19,1.16-.4q6.12-3.87,12.23-7.78a.65.65,0,0,0,.15.18l-8.78,8.34-.79.75c1.62.86,3.17,1.72,4.76,2.49a1.66,1.66,0,0,0,1.2-.19c2.82-1.32,5.62-2.68,8.43-4a2.07,2.07,0,0,1,1.15-.27l-8.33,6.07c2,1.28,3.91,2.52,5.84,3.68.26.16.76,0,1.11-.08,1.77-.57,3.53-1.18,5.3-1.77l.15.32-4.8,2.69,17.11,10.9a4.93,4.93,0,0,1-4.29-.5c-7.46-4.86-15-9.56-22.51-14.41a23.94,23.94,0,0,0-7.21-3.4,30.55,30.55,0,0,1-12-6.15c-3-2.43-6.23-4.6-9.45-7L174.75,63.3l-23-24.15-4.84,4.15q-13.86,12-27.69,23.91a1.55,1.55,0,0,1-1.89.29c-5.06-2.07-10.15-4.06-15.21-6.13a1.29,1.29,0,0,0-1.73.42c-1.79,2-3.64,4-5.49,6A7.89,7.89,0,0,1,93.55,69c-6,4-12,8-17.87,12.1a6,6,0,0,1-4.82,1.07c.33-.26.58-.48.85-.67,6.76-4.56,13.55-9.07,20.26-13.7a26.35,26.35,0,0,0,3.71-3.54c1.25-1.29,2.43-2.64,3.64-4s1.62-1.34,3.16-.72q7.33,2.94,14.68,5.88a5.68,5.68,0,0,0,1.32.19l.17-.4L106.22,53.54l.14-.22,15,9.58,2.67-2.31L113.18,47.38Z"/><path class="cls-4" d="M151.52,43.46c.55,3.26,1.09,6.41,1.63,9.55a9.35,9.35,0,0,0,.3,1.77c1,2.68.29,5-1.3,7.24-.93,1.33-1.64,2.81-2.65,4.56-.5-3.48-1-6.62-1.46-10-1.74,2.46-4.12,4.18-4.77,7.13-.22,1-.76,1.94-1,2.95-1.39,6.5-5.39,11.55-9.27,16.67-.66.88-1.3,1.76-1.95,2.64l-.32-.14q2-8.67,4-17.36l-.23-.15c-1.6,1.71-3.31,3.33-4.75,5.17s-2.8,4.17-4.22,6.24a2.16,2.16,0,0,1-1.07.85c-3.55.91-7.12,1.77-10.68,2.64a9,9,0,0,1-1.14.06c2.26-1.51,4.32-2.82,6.3-4.24a4,4,0,0,0,1.3-1.72c1-2.72,1.91-5.49,2.89-8.23a3,3,0,0,1,.75-1.17q13.58-12.09,27.16-24.15A4,4,0,0,1,151.52,43.46Z"/><path class="cls-2" d="M170.38,171c-.24,1.32-.47,2.64-.74,3.95-.22,1.06-.52,2.09-.73,3.15a11,11,0,0,0,0,1.66c2.09-1.24,2.77-3.26,4.21-4.58,0,0,.15.07.15.11.17,2.46-.08,2.48,2.59,1.72.49-.13,1-.29,1.65-.51l-.59,1.63c-.77,2.1-.44,2.62,2.07,2.85-1.13.86-2.09,1.6-3,2.32-.64.48-1.27,1-1.93,1.42-1.19.79-2.16,1.65-1.07,3.58-1.71-.38-3.05-.69-4.4-1-1.72-.37-1.86-.26-1.86,1.5,0,1.2,0,2.4,0,3.59,0,.76-.31.88-1,.62,0-1.52,0-3,0-4.54,0-1.21-.33-1.52-1.52-1.3-1.37.25-2.72.59-4.27.94.6-2.28-1.11-3.1-2.46-4.17s-2.46-2-3.82-3.1c2.25-.2,2.54-.66,1.89-2.59-.21-.6-.44-1.19-.75-2,1,.32,1.74.55,2.5.82,1.52.54,1.78.36,1.74-1.22,0-.27,0-.55,0-1.16l3.85,5,.4-.21c.46-2.89-1.05-5.5-1.42-8.31,2.4,1.59,2.82,1.44,3.71-1.33.16-.49.31-1,.54-1.74.35.92.58,1.65.89,2.35,1,2.32,1.74,2.44,3.47.61Z"/><path class="cls-5" d="M174,80.58c.71-1.77,1.48-3.51,2.11-5.31a11.67,11.67,0,0,0,.6-3,24.43,24.43,0,0,0,0-4.19,3.49,3.49,0,0,1,1.51-3.34c4-3.31,8-6.74,12.27-10.39.86,2.94,1.65,5.66,2.44,8.38l-.33.16-2.18-2.52c-.84,1.06-1.52,1.83-2.09,2.68a1.5,1.5,0,0,0-.08,1.16c.63,1.89,1.35,3.75,2,5.62a1.77,1.77,0,0,1,.11,1.12c-1.36,3.08-2.77,6.13-4.15,9.17,0-2.15,0-4.28,0-6.4a3.11,3.11,0,0,0-.65-1.77c-1.07-1.29-2.27-2.47-3.59-3.87-.25,1.64-.42,3.12-.74,4.56a4.38,4.38,0,0,1-1,1.94c-2,2.07-4.07,4.06-6.11,6.09Z"/><path class="cls-5" d="M101.82,64.33l4,2.3c-1.1,1.43-2.18,2.75-3.15,4.16a2.29,2.29,0,0,0-.32,1.59c.35,1.6.87,3.15,1.25,4.74a1.21,1.21,0,0,1-.38,1c-2.55,1.56-5.14,3.06-7.72,4.57a7.69,7.69,0,0,1-1.22.39l3.47-7.56-15,4.35-.11-.18.89-.58c4-2.55,7.95-5,11.86-7.66a15.78,15.78,0,0,0,3-2.79C99.64,67.32,100.69,65.81,101.82,64.33Z"/><path class="cls-6" d="M94,158.74v-8.92h2.83v15.55H93.39l-3.7-9.23-.15,0v9.23H86.71V149.75c1,0,2-.06,3.05,0,.27,0,.59.46.72.78,1.12,2.71,2.19,5.44,3.28,8.16Z"/><path class="cls-7" d="M237.39,149.75a22.93,22.93,0,0,1,2.88,0c.34,0,.75.5.9.87,1.13,2.72,2.2,5.46,3.41,8.48v-9.31h2.87v15.63a25.18,25.18,0,0,1-2.89,0c-.3,0-.67-.48-.81-.83-1.13-2.75-2.22-5.52-3.47-8.28v9.06h-2.89Z"/><path class="cls-7" d="M201.86,149.8c2,0,3.81-.11,5.63,0A4.82,4.82,0,0,1,212.2,154a15.85,15.85,0,0,1,0,7.12,5.07,5.07,0,0,1-5.25,4.33c-1.67.05-3.34,0-5.09,0Zm3.39,12.2c2.93.29,3.72-.31,3.84-2.89q.06-1.38,0-2.76c-.11-2.77-1-3.48-3.84-3.12Z"/><path class="cls-7" d="M30.87,149.79c3.4-.17,3.41-.17,4.61,2.81.84,2.1,1.67,4.2,2.64,6.64v-9.41H41v15.63a26.88,26.88,0,0,1-2.84,0,1.35,1.35,0,0,1-.85-.76c-1.07-2.57-2.08-5.17-3.11-7.76a1.79,1.79,0,0,0-.46-.72v9.19H30.87Z"/><path class="cls-7" d="M272.54,149.76c2.11,0,4.1-.06,6.09,0,2.93.09,4.16,1.29,4.48,4.21.28,2.58-.34,4.14-2,5.35l2.31,6h-3.52c-.42-1.2-.84-2.48-1.29-3.75-.59-1.65-.86-1.8-2.74-1.53v5.31h-3.31Zm3.35,7.42c1.29-.23,2.88.6,3.63-.78a3.43,3.43,0,0,0-.11-3c-.79-1.21-2.29-.47-3.52-.62Z"/><path class="cls-7" d="M147,165.42c-3.48.14-3.48.14-4.54-2.93l-.27-.79c-.62-1.75-.68-1.79-2.71-1.7v5.4h-3.33V149.83c2.33,0,4.6-.11,6.85,0a3.47,3.47,0,0,1,3.58,3.36c.34,2.35.36,4.68-1.9,6.11Zm-7.5-8.15c1.31-.4,2.91.54,3.63-.89a3.56,3.56,0,0,0-.09-2.93c-.78-1.3-2.3-.47-3.54-.7Z"/><path class="cls-7" d="M55.87,149.93c2.22,0,4.42-.15,6.58,0A4.16,4.16,0,0,1,66,153.19a14.15,14.15,0,0,1,0,8.73,4.64,4.64,0,0,1-4.52,3.49c-1.83.07-3.66,0-5.57,0Zm3.38,3.28V162c2.81.43,3.75-.27,3.89-2.89,0-.92,0-1.84,0-2.75C63,153.59,62.1,152.87,59.25,153.21Z"/><path class="cls-5" d="M173.81,165.44V149.66a66.42,66.42,0,0,1,6.8.36c2,.29,3,1.87,3.49,3.71a14.79,14.79,0,0,1,0,7.7,4.89,4.89,0,0,1-4.77,4C177.54,165.52,175.74,165.44,173.81,165.44Zm3.38-3.42c3.13.23,3.72-.26,3.9-3.26a19.1,19.1,0,0,0-.05-2.62c-.2-2.67-1.16-3.39-3.85-2.88Z"/><path class="cls-5" d="M101.22,157.47a37.38,37.38,0,0,1,1.11-4.8,5.4,5.4,0,0,1,9.86,0,13.38,13.38,0,0,1,0,9.82,4.91,4.91,0,0,1-5,3.24,4.84,4.84,0,0,1-5-3.35A40.76,40.76,0,0,1,101.22,157.47Zm3.55.19c.15,1.06.22,2.13.46,3.17a2.09,2.09,0,0,0,4,0,12.53,12.53,0,0,0,0-6.49,1.91,1.91,0,0,0-2.12-1.53,1.89,1.89,0,0,0-1.94,1.61C105,155.49,104.91,156.57,104.77,157.66Z"/><path class="cls-5" d="M159.7,157.64a40,40,0,0,1-1,4.71,5.42,5.42,0,0,1-10,.14,13.33,13.33,0,0,1,0-9.82,4.9,4.9,0,0,1,5-3.2,4.8,4.8,0,0,1,4.92,3.29A40.63,40.63,0,0,1,159.7,157.64Zm-3.55,0c-.14-1-.2-2.13-.44-3.17a1.94,1.94,0,0,0-2.08-1.6,1.92,1.92,0,0,0-2,1.56,12.88,12.88,0,0,0,0,6.38,2.12,2.12,0,0,0,4.12-.07C156,159.69,156,158.66,156.15,157.6Z"/><path class="cls-6" d="M288.2,156h4.87v3h-4.85v3H294v3.44h-9.16V149.82h9v3.35H288.2Z"/><path class="cls-6" d="M235.67,162v3.41h-9.23V149.83h9v3.31h-5.6V156h4.9v3h-4.91v3Z"/><path class="cls-4" d="M267.15,149.8h3.28a6.84,6.84,0,0,1,.08.9c-.07,3.59,0,7.19-.27,10.76-.23,2.87-2.14,4.26-5.12,4.25s-4.69-1.35-4.88-4.18c-.24-3.88-.06-7.79-.06-11.73h3.07c0,.33.06.68.06,1,0,2.91,0,5.83,0,8.74a7.72,7.72,0,0,0,.23,1.66,1.52,1.52,0,0,0,1.74,1.14,1.44,1.44,0,0,0,1.57-1.2,21.34,21.34,0,0,0,.25-3.09C267.17,155.33,267.15,152.59,267.15,149.8Z"/><path class="cls-7" d="M20.57,165.41H17.33l4.1-15.63h4.08l4,15.6H26l-.72-2.91h-4ZM23.4,154l-.21,0-1.14,5.2h2.5Z"/><path class="cls-7" d="M46.29,162.45l-.73,3H42.32l4.08-15.57.22-.08c3.85-.21,3.84-.21,4.79,3.52,1,4,2.07,8,3.12,12.11H51l-.07-.12c-.28-.94-.32-2.48-.88-2.7C49,162.15,47.6,162.45,46.29,162.45Zm2.12-8.4-.21,0L47,159.24h2.49Z"/><path class="cls-7" d="M200.51,165.4H197c-.24-1-.46-1.9-.7-2.91h-4l-.75,2.93H188.3l4.08-15.61h4.1Zm-6.22-11.83c-.46,2-.87,3.82-1.29,5.67h2.5Z"/><path class="cls-7" d="M168.22,162.43h-3.95c-.25.95-.5,1.93-.77,3h-3.21c.46-1.79.89-3.52,1.35-5.24.84-3.21,1.71-6.4,2.52-9.61.16-.64.42-.84,1.05-.81,1,0,2.07,0,3.24,0,1.34,5.2,2.68,10.38,4.05,15.71-1.13,0-2.08,0-3,0a1,1,0,0,1-.68-.61C168.56,164.07,168.42,163.28,168.22,162.43Zm-.73-3.16c-.4-1.88-.8-3.7-1.24-5.72-.45,2-.85,3.86-1.26,5.72Z"/><path class="cls-7" d="M85.4,165.46c-1.13,0-2.08,0-3,0a1,1,0,0,1-.69-.61c-.24-.75-.38-1.54-.56-2.37h-4c-.07.19-.13.37-.18.56-.73,2.69-.73,2.69-3.8,2.34.52-2,1-4,1.54-6,.77-2.93,1.58-5.85,2.31-8.79.16-.63.4-.87,1-.84,1,.05,2.07,0,3.25,0Zm-6.26-11.92-1.26,5.7h2.5Z"/><path class="cls-7" d="M304.06,149.75v3.44c-1.42,0-2.81,0-4.2,0-1,0-1.58.36-1.58,1.44s.49,1.55,1.54,1.49c.16,0,.32,0,.48,0,3.57-.3,4.3,1.82,4.35,4.3a10.18,10.18,0,0,1-.14,2.14,3.22,3.22,0,0,1-3.51,2.92c-1.71,0-3.43,0-5.15,0a2.62,2.62,0,0,1-.41-.09V162c1.53,0,3,0,4.47,0,1.09,0,1.54-.5,1.53-1.51s-.49-1.57-1.57-1.45h-.12c-1.63.05-3.31.1-4.1-1.72a6.11,6.11,0,0,1,.36-6.26,3.86,3.86,0,0,1,2.53-1.27A53,53,0,0,1,304.06,149.75Z"/><path class="cls-7" d="M221.89,149.78h3.25q-1.94,7.89-3.83,15.64a1.77,1.77,0,0,1-.33.07c-1.2,0-2.71.42-3.51-.15s-.81-2.13-1.1-3.27c-1-4.06-2-8.13-3-12.27h3.53L219.35,161l.18,0C220.31,157.25,221.09,153.55,221.89,149.78Z"/><path class="cls-5" d="M208.66,84.1c-.56-2.39-1.15-4.77-1.64-7.18-.08-.39.25-.89.45-1.31.65-1.36,1.87-2.72,1.85-4.06s-1.28-2.67-2-4c-.22-.42-.45-.83-.69-1.29,6,.5,10.82,3.29,15.53,6.95-2.12,0-4.09-.06-6,0a3.21,3.21,0,0,0-1.85.76c-1.31,1.16-2.46,2.52-3.77,3.68a3.74,3.74,0,0,0-1.37,3.12c0,1.09-.15,2.19-.23,3.28Z"/><path class="cls-7" d="M133.72,156.48v2.89h-5v6h-3.37V149.83h9v3.29h-5.57v3.36Z"/><path class="cls-7" d="M118.1,165.41h-3.34V149.8h8.93v3.35h-5.55v3.3h4.92v2.92h-5Z"/><path class="cls-6" d="M16.52,162v3.27a40.21,40.21,0,0,1-5-.05,4.06,4.06,0,0,1-3.28-3,13.48,13.48,0,0,1,0-9.37,4.44,4.44,0,0,1,4.14-3.12c1.35-.08,2.7,0,4.13,0v3.39c-.91,0-1.86,0-2.8,0-1.63.07-2.42.63-2.6,2.23a20,20,0,0,0,0,4.51c.18,1.56.94,2.09,2.52,2.14C14.57,162.06,15.52,162,16.52,162Z"/><path class="cls-6" d="M255.56,165.42h-3.4v-12.2h-3.24v-3.39h9.81v3.31h-3.17Z"/><path class="cls-6" d="M158,17.82a2,2,0,0,1,1.7,2.12,1.87,1.87,0,0,1-1.55,1.88c-1.31.31-2.66.47-4,.65-.83.12-1.67.15-2.66.23-.31-2.66-.62-5.33-1-8.2,2.12-.14,4.17-.31,6.22-.39a2,2,0,0,1,2.13,1.24A1.8,1.8,0,0,1,158,17.82ZM153.81,19l.22,1.94c.77-.08,1.4-.12,2-.21s1.17-.4.9-1.07a1.77,1.77,0,0,0-1.18-.82A8,8,0,0,0,153.81,19Zm-.41-3.12.3,1.79a7.73,7.73,0,0,0,1.8-.21c.38-.15.63-.64.93-1-.37-.27-.72-.7-1.12-.77A8.37,8.37,0,0,0,153.4,15.85Z"/><path class="cls-6" d="M131.54,18.89a18.45,18.45,0,0,1,2.24-.61,1.43,1.43,0,0,1,1,.39c1.24,1.06,2.44,2.18,3.85,3.45l-1.42-4.75,2.2-.62c.8,2.61,1.6,5.18,2.44,7.88-.77.21-1.51.48-2.28.61a1.32,1.32,0,0,1-.91-.35c-1.23-1.08-2.42-2.19-3.91-3.54.52,1.79,1,3.26,1.4,4.82l-2.2.57C133.14,24.09,132.35,21.53,131.54,18.89Z"/><path class="cls-7" d="M71.67,165.42H68.46V149.81h3.21Z"/><path class="cls-6" d="M222.45,34l-3,3.53-1.82-1.28,5.18-6.45a.81.81,0,0,1,.27,0c2.15,1.43,2.15,1.43,1.77,4-.14.95-.27,1.89-.45,3.19L227.61,33l1.86,1.28c-1.75,2.19-3.46,4.31-5.26,6.55a13.8,13.8,0,0,1-1.81-1.32,1.57,1.57,0,0,1-.3-1.14c.13-1.43.34-2.85.53-4.27l.06-.42Z"/><path class="cls-6" d="M237.3,53.38l7.29-4.58c1,1.43,2,2.75,2.85,4.19,1,1.67.6,3.11-.92,4.34-2.63,2.13-4.92,1.86-7-.84C238.8,55.5,238.1,54.49,237.3,53.38Zm3,1.17c.8.81,1.15,2.19,2.43,1.76a5.39,5.39,0,0,0,2.68-1.93c.31-.48-.42-1.63-.72-2.59Z"/><path class="cls-7" d="M111.56,38.13l-5.07-6.79a55.24,55.24,0,0,1,4.83-2.83c2-.93,4,0,5.26,2.26,1,1.84.67,3.37-1.16,4.79-.29.22-.58.43-.88.63Zm1.36-2.63c.67-.91,1.8-1.83,1.64-2.37a5.12,5.12,0,0,0-2.1-2.67c-.92-.58-1.78.37-2.57,1Z"/><path class="cls-6" d="M93.32,44.59c2.31.07,4.82,2.39,4.75,4.39-.07,2.2-2.68,4.76-4.81,4.71-2.33,0-4.94-2.47-4.83-4.47C88.56,47,91.17,44.52,93.32,44.59Zm.9,6.91a5.25,5.25,0,0,0,1.3-1.17,1.58,1.58,0,0,0,0-1.48A9.72,9.72,0,0,0,92.85,47c-.38-.17-1.23.23-1.6.62a1.8,1.8,0,0,0-.4,1.58A4.76,4.76,0,0,0,94.22,51.5Z"/><path class="cls-6" d="M88.68,59.85l-1.24-.69-.93,1.28-1.33-.73,2.07-3.38,4.38,2.38c-1,1.5-1.8,3-2.85,4.34-1.43,1.81-3.64,1.87-5.9.34-1.88-1.27-2.29-3-1.15-5.1.59-1.08,1.28-2.11,2-3.27l1.63.9c-.6,1-1.18,1.87-1.7,2.8a1.6,1.6,0,0,0,.6,2.46C86.38,62.68,87.36,62.41,88.68,59.85Z"/><path class="cls-6" d="M128.9,27l.78,1.62-6.82,2.83L119.27,24,126,21.19l.78,1.61-4.16,1.77.6,1.34,3.68-1.48.68,1.36-3.64,1.54.65,1.45Z"/><path class="cls-6" d="M215.09,25.46c-.42,2.9-.82,5.73-1.24,8.63-.64-.3-1.16-.58-1.71-.8s-.93-.57-.67-1.26-.05-1-.67-1.27-1-.52-1.5-.73a1.05,1.05,0,0,0-.76,0c-1.53.77-1.53.78-3.31-.29,2.24-1.84,4.44-3.67,6.67-5.46a1,1,0,0,1,.85,0C213.51,24.63,214.25,25,215.09,25.46Zm-3.18,4.05.6-3.09-2.37,2.21Z"/><path class="cls-6" d="M238.37,42.1l-3.72,8-2.08-1.8.76-1.55A13.6,13.6,0,0,1,232,45.47a1.35,1.35,0,0,0-2-.36,1.18,1.18,0,0,1-1-.18,12.65,12.65,0,0,1-1.41-1.24c2.74-1.21,5.39-2.39,8-3.52a1,1,0,0,1,.81.19C237.07,40.88,237.66,41.46,238.37,42.1Zm-3.14.56-2.6,1.18,1.49,1.35c.45-.87.86-1.63,1.26-2.4l.05-.26Z"/><path class="cls-6" d="M248.37,71.42l-1.21-2.19,1.44-.85c-.42-.8-.75-1.3-1-1.85-.33-.81-.77-1.21-1.72-.91a1.11,1.11,0,0,1-.91-.43,11.28,11.28,0,0,1-.92-1.64c3-.31,5.89-.63,8.78-.89a1.08,1.08,0,0,1,.8.48c.42.67.77,1.39,1.12,2Zm1.4-4.47,2.42-2.21-3.34.53Z"/><path class="cls-6" d="M202.06,26.44l-.58,1.66c-1.19-.37-2.34-.66-3.45-1.08a3.48,3.48,0,0,1-2.36-4.38c.51-2.3,2.08-3.7,4.18-3.45a33.17,33.17,0,0,1,4.33,1L203.62,22c-.92-.26-1.77-.53-2.65-.74-1.3-.31-2,.24-2.54,1.84-.43,1.37-.13,2.07,1.15,2.55C200.36,25.92,201.16,26.15,202.06,26.44Z"/><path class="cls-6" d="M179.59,14.56l-.24,1.74c-.93-.08-1.8-.21-2.67-.24-1.4,0-2,.62-2.14,2.29-.12,1.42.31,2,1.66,2.27.86.15,1.73.23,2.67.36l-.24,1.75c-1.23-.15-2.39-.24-3.52-.43-2.44-.41-3.53-1.92-3.28-4.42A3.73,3.73,0,0,1,176,14.21C177.16,14.27,178.31,14.43,179.59,14.56Z"/><path class="cls-6" d="M97,39.08l2-1.69,4.91,4.51,2.84-2.37L108,40.81l-4.66,3.93Z"/><path class="cls-6" d="M183.13,23.39l.4-2.17,2.51.38-.41,2.17Z"/><path class="cls-8" d="M164.42,21.74V19.68h2.42v2.06Z"/><path class="cls-3" d="M120.28,41l.39.34-.19.17L120.3,41Z"/><path class="cls-3" d="M113.18,47.38l-.26-.33.46.12Z"/><path class="cls-3" d="M238.43,76.84h.28v.06h-.28Z"/><path class="cls-5" d="M174.16,80.68l-.28.21.15-.31Z"/><path class="cls-3" d="M120.3,41l-.17,0,0-.15.12.16Z"/><path class="cls-3" d="M223.84,53.55h.28l-.13.19A.65.65,0,0,1,223.84,53.55Z"/><path class="cls-2" d="M170.4,171h0Z"/><path class="cls-1" d="M272.3,96.86c-1.23,2.71-2.35,5.25-3.52,7.78-.94,2-1.91,4-2.93,6a1.58,1.58,0,0,1-1.1.8c-6.94.05-13.89,0-21,0a6.87,6.87,0,0,1,.26-.8c2.31-4.37,4.62-8.74,7-13.1a1.48,1.48,0,0,1,1-.71C258.72,96.85,265.39,96.86,272.3,96.86Z"/><path class="cls-1" d="M177,97c-.14.35-.25.68-.4,1q-8,17.69-17.36,34.68a1.37,1.37,0,0,1-1.34.92c-6.48,0-13,0-19.44,0-.18,0-.37,0-.67-.07.16-.41.26-.74.41-1q8.68-17.34,17.4-34.67a1.73,1.73,0,0,1,1.19-.87c6.59-.05,13.19,0,19.79,0A2.17,2.17,0,0,1,177,97Z"/><path class="cls-1" d="M180.05,56.6l-.06.33-.1,0c0-.12.07-.24.11-.36Z"/><path class="cls-1" d="M205.25,162v-8.77c2.85-.36,3.73.35,3.84,3.12q.06,1.38,0,2.76C209,161.69,208.18,162.29,205.25,162Z"/><path class="cls-1" d="M275.89,157.18v-4.4c1.23.15,2.73-.59,3.52.62a3.43,3.43,0,0,1,.11,3C278.77,157.78,277.18,157,275.89,157.18Z"/><path class="cls-1" d="M139.5,157.27v-4.52c1.24.23,2.76-.6,3.54.7a3.56,3.56,0,0,1,.09,2.93C142.41,157.81,140.81,156.87,139.5,157.27Z"/><path class="cls-1" d="M59.25,153.21c2.85-.34,3.74.38,3.89,3.11,0,.91,0,1.83,0,2.75-.14,2.62-1.08,3.32-3.89,2.89Z"/><path class="cls-1" d="M177.19,162v-8.76c2.69-.51,3.65.21,3.85,2.88a19.1,19.1,0,0,1,.05,2.62C180.91,161.76,180.32,162.25,177.19,162Z"/><path class="cls-1" d="M104.77,157.66c.14-1.09.21-2.17.43-3.21a1.89,1.89,0,0,1,1.94-1.61,1.91,1.91,0,0,1,2.12,1.53,12.53,12.53,0,0,1,0,6.49,2.09,2.09,0,0,1-4,0C105,159.79,104.92,158.72,104.77,157.66Z"/><path class="cls-1" d="M156.15,157.6c-.13,1.06-.19,2.09-.41,3.1a2.12,2.12,0,0,1-4.12.07,12.88,12.88,0,0,1,0-6.38,1.92,1.92,0,0,1,2-1.56,1.94,1.94,0,0,1,2.08,1.6C156,155.47,156,156.55,156.15,157.6Z"/><path class="cls-1" d="M23.4,154l1.15,5.23h-2.5l1.14-5.2Z"/><path class="cls-1" d="M48.41,154.05l1.12,5.19H47L48.2,154Z"/><path class="cls-1" d="M194.29,153.57l1.21,5.67H193C193.42,157.39,193.83,155.58,194.29,153.57Z"/><path class="cls-1" d="M167.49,159.27H165c.41-1.86.81-3.69,1.26-5.72C166.69,155.57,167.09,157.39,167.49,159.27Z"/><path class="cls-1" d="M79.14,153.54l1.24,5.7h-2.5Z"/><path class="cls-1" d="M153.81,19a8,8,0,0,1,2-.16,1.77,1.77,0,0,1,1.18.82c.27.67-.28,1-.9,1.07s-1.26.13-2,.21Z"/><path class="cls-1" d="M153.4,15.85a8.37,8.37,0,0,1,1.91-.16c.4.07.75.5,1.12.77-.3.33-.55.82-.93,1a7.73,7.73,0,0,1-1.8.21Z"/><path class="cls-1" d="M222.45,34l.24-.25-.06.42Z"/><path class="cls-1" d="M240.35,54.55l4.39-2.76c.3,1,1,2.11.72,2.59a5.39,5.39,0,0,1-2.68,1.93C241.5,56.74,241.15,55.36,240.35,54.55Z"/><path class="cls-1" d="M112.92,35.5l-3-4.05c.79-.62,1.65-1.57,2.57-1a5.12,5.12,0,0,1,2.1,2.67C114.72,33.67,113.59,34.59,112.92,35.5Z"/><path class="cls-1" d="M94.22,51.5a4.76,4.76,0,0,1-3.37-2.32,1.8,1.8,0,0,1,.4-1.58c.37-.39,1.22-.79,1.6-.62a9.72,9.72,0,0,1,2.68,1.87,1.58,1.58,0,0,1,0,1.48A5.25,5.25,0,0,1,94.22,51.5Z"/><path class="cls-1" d="M211.91,29.51l-1.77-.88,2.37-2.21Z"/><path class="cls-1" d="M235.38,42.79l-1.26,2.4-1.49-1.35,2.6-1.18Z"/><path class="cls-1" d="M235.23,42.66l.2-.13c0,.09,0,.18-.05.26Z"/><path class="cls-1" d="M249.77,67l-.92-1.68,3.34-.53Z"/></svg>