<?xml version="1.0" encoding="utf-8"?>
<!-- Generator: Adobe Illustrator 24.0.2, SVG Export Plug-In . SVG Version: 6.00 Build 0)  -->
<svg version="1.1" id="Layer_1" xmlns="http://www.w3.org/2000/svg" xmlns:xlink="http://www.w3.org/1999/xlink" x="0px" y="0px"
	 viewBox="0 0 555.4 391" style="enable-background:new 0 0 555.4 391;" xml:space="preserve">
<style type="text/css">
	.st0{fill:#006E8C;}
	.st1{fill:#00A5DF;}
</style>
<title>columbiaicefield-dark</title>
<path class="st0" d="M0,252.1c0-23.4,18.1-39.5,39.3-39.5c14.2,0,26.4,6.9,32.8,16.6l-7.6,6.4c-5.8-7.8-14.5-13.1-25-13.1
	c-16,0-29,12.4-29,29.7c0,17,12.5,28.9,28.9,28.9c10,0,19.5-4.8,25.5-12.8l7.4,6.3C65.5,284.1,53.4,291,39,291
	C17.7,290.9,0,275.3,0,252.1z"/>
<path class="st0" d="M78.8,252.3c-0.3-21.7,17-39.5,38.7-39.8s39.5,17,39.8,38.7s-17,39.5-38.7,39.8l0,0h-0.9
	C95.5,291,78.8,273.9,78.8,252.3z M146.7,251.9c0-16.8-12.7-29.4-28.7-29.4S89.5,235.3,89.5,252c0,16.4,12.3,29,28.5,29
	C134,281,146.7,268.7,146.7,251.9L146.7,251.9z"/>
<path class="st0" d="M171.5,213.8h10.3v65.9h40.8v10h-51L171.5,213.8z"/>
<path class="st0" d="M231,264.2v-50.3h10.3v48.5c0,12.2,6.4,18.7,17.3,18.7c10.9,0,17.1-6.9,17.1-18.7v-48.5H286v50.3
	c0,17-11.3,26.9-27.5,26.9S231,281.1,231,264.2z"/>
<path class="st0" d="M304.3,213.8h4.9L342,262l32.6-48.2h5v75.9h-10.2v-51.2l-26.1,38.3h-2.7l-26.1-38.3v51.2h-10.2L304.3,213.8
	L304.3,213.8z"/>
<path class="st0" d="M453.6,268c0,10.9-7.9,21.8-23.5,21.8h-31.3v-75.9h30c14,0,20.9,9.8,20.9,19c0.1,6.8-4,12.9-10.3,15.4
	C448.9,250.9,453.6,259.2,453.6,268z M408.9,223.4v21.1h18.2c8,0,12-5.6,12-11.1c0-5-4.1-10.1-11.7-10.1h-18.5V223.4z M443,267.2
	c0-6.7-4.8-13.4-15-13.4h-19.1V280h19.5C437.8,280.1,443,273.6,443,267.2z"/>
<path class="st0" d="M478,213.8v75.9h-10.3v-75.9L478,213.8L478,213.8z"/>
<path class="st0" d="M536.5,270h-28.9l-7.7,19.7h-11.2l30.7-75.9h5.5l30.4,75.9h-11.2L536.5,270z M511.2,260.3h21.9l-10.9-28.6
	L511.2,260.3z"/>
<path class="st0" d="M64.2,315v76H54v-75.9L64.2,315z"/>
<path class="st0" d="M78.5,353.3c0-23.4,18.1-39.5,39.3-39.5c14.2,0,26.4,6.9,32.8,16.6l-7.6,6.4c-5.8-7.8-14.5-13-25-13
	c-16,0-29,12.4-29,29.7c0,16.9,12.5,28.9,28.9,28.9c10,0,19.5-4.8,25.5-12.8l7.4,6.3c-6.8,9.4-18.9,16.4-33.3,16.4
	C96.2,392.1,78.5,376.5,78.5,353.3z"/>
<path class="st0" d="M163.1,315h47.2v9.8h-37v22.7h34.2v9.8h-34.2v23.9h37v9.8h-47.2V315z"/>
<path class="st0" d="M225.6,315H272v10h-36.1v22.5h31.5v10h-31.5V391h-10.3L225.6,315L225.6,315z"/>
<path class="st0" d="M294.7,315v76h-10.3v-75.9L294.7,315z"/>
<path class="st0" d="M313.8,315H361v9.8h-37v22.7h34.2v9.8H324v23.9h37v9.8h-47.3L313.8,315L313.8,315z"/>
<path class="st0" d="M376.4,315h10.3v66h40.8v10h-51L376.4,315L376.4,315z"/>
<path class="st0" d="M438.3,315h28.2c21.5,0,34.9,14.7,34.9,38.1c0,23.2-13.6,37.8-36,37.8h-27.2V315H438.3z M465.9,381.2
	c16.1,0,24.9-12.3,24.9-28.4c0-15.8-8.7-28-24.9-28h-17.4v56.4H465.9z"/>
<polygon class="st1" points="294.1,172.4 362.3,142.6 305.1,130 302.5,140.1 "/>
<polygon class="st1" points="306.9,123.1 365.4,136 317.5,82.9 "/>
<polygon class="st1" points="206.2,100.8 300.1,121.6 303.7,107.8 310.5,81.7 "/>
<polygon class="st1" points="315.4,70.2 325,57.3 351.6,21.9 252.1,0 311,65.3 "/>
<polygon class="st1" points="361.2,65.2 357.3,26 351.4,33.9 322.7,72.3 "/>
<polygon class="st1" points="367.3,127.6 361.9,72.2 323.6,79.2 "/>
<polygon class="st1" points="246,42.7 246.1,42.8 303.9,67.9 241.8,-0.9 223.2,32.8 231.1,36.3 "/>
<polygon class="st1" points="190.4,104.6 190.4,104.6 285.8,175.9 298.3,128.4 "/>
<polygon class="st1" points="304.1,75.7 220.1,39.2 219.8,39 188.2,96.8 188.4,96.8 "/>
</svg>
