<svg id="Layer_1" data-name="Layer 1" xmlns="http://www.w3.org/2000/svg" viewBox="0 0 555.44 390.95"><defs><style>.cls-1{fill:#fff;}.cls-2{fill:#00a5df;}</style></defs><title>columbiaicefield</title><path class="cls-1" d="M0,252.05c0-23.42,18.08-39.54,39.34-39.54,14.17,0,26.39,6.88,32.76,16.64l-7.6,6.37c-5.75-7.81-14.48-13.05-25-13.05-16,0-29,12.43-29,29.68,0,17,12.53,28.86,28.86,28.86a31.81,31.81,0,0,0,25.47-12.83l7.4,6.26c-6.78,9.45-18.9,16.43-33.28,16.43C17.67,290.87,0,275.26,0,252.05Z"/><path class="cls-1" d="M78.78,252.26A39.29,39.29,0,1,1,117.7,291C95.52,291,78.78,273.93,78.78,252.26Zm67.89-.31c0-16.84-12.74-29.38-28.66-29.38S89.46,235.31,89.46,252C89.46,268.38,101.78,281,118,281,134,281,146.67,268.69,146.67,252Z"/><path class="cls-1" d="M171.52,213.84h10.27v65.94h40.78v10h-51Z"/><path class="cls-1" d="M231,264.17V213.84h10.27v48.48c0,12.22,6.37,18.69,17.26,18.69s17.15-6.88,17.15-18.69V213.84H286v50.33c0,16.95-11.3,26.91-27.52,26.91S231,281.12,231,264.17Z"/><path class="cls-1" d="M304.33,213.84h4.92L342,262l32.56-48.17h5v75.9H369.34V238.49L343.25,276.8h-2.67l-26.09-38.31v51.25H304.33Z"/><path class="cls-1" d="M453.56,268c0,10.89-7.91,21.77-23.52,21.77H398.71v-75.9h30c14,0,20.85,9.76,20.85,19a16.29,16.29,0,0,1-10.27,15.4C448.94,250.92,453.56,259.24,453.56,268ZM408.88,223.4v21.15h18.18c8,0,12-5.64,12-11.09,0-5-4.11-10.06-11.71-10.06ZM443,267.25c0-6.67-4.83-13.35-15-13.35h-19.1v26.19H428.4C437.84,280.09,443,273.62,443,267.25Z"/><path class="cls-1" d="M478,213.84v75.9H467.73v-75.9Z"/><path class="cls-1" d="M536.55,270H507.69L500,289.74H488.79l30.71-75.9H525l30.4,75.9H544.25Zm-25.37-9.66h21.88l-10.89-28.65Z"/><path class="cls-1" d="M64.24,315.05V391H54v-75.9Z"/><path class="cls-1" d="M78.52,353.26c0-23.42,18.08-39.55,39.34-39.55,14.17,0,26.39,6.88,32.76,16.64l-7.6,6.37c-5.75-7.81-14.48-13-25-13-16,0-29,12.42-29,29.68,0,16.94,12.53,28.86,28.86,28.86a31.79,31.79,0,0,0,25.47-12.84l7.4,6.27c-6.78,9.44-18.9,16.43-33.28,16.43C96.19,392.08,78.52,376.47,78.52,353.26Z"/><path class="cls-1" d="M163.05,315.05h47.24v9.76h-37V347.5h34.2v9.76h-34.2v23.93h37V391H163.05Z"/><path class="cls-1" d="M225.6,315.05H272v10H235.87V347.5H267.4v10H235.87V391H225.6Z"/><path class="cls-1" d="M294.72,315.05V391H284.45v-75.9Z"/><path class="cls-1" d="M313.82,315.05h47.25v9.76h-37V347.5H358.3v9.76H324.09v23.93h37V391H313.82Z"/><path class="cls-1" d="M376.37,315.05h10.27V381h40.78v10H376.37Z"/><path class="cls-1" d="M438.31,315.05h28.24c21.47,0,34.92,14.69,34.92,38.1,0,23.21-13.56,37.8-36,37.8H438.31Zm27.62,66.14c16.13,0,24.86-12.32,24.86-28.35,0-15.81-8.73-28-24.86-28H448.58v56.38Z"/><polygon class="cls-2" points="294.08 172.37 362.26 142.6 305.14 129.96 302.49 140.1 294.08 172.37"/><polygon class="cls-2" points="306.94 123.09 365.41 136.04 317.45 82.92 306.94 123.09"/><polygon class="cls-2" points="206.25 100.8 300.06 121.57 303.67 107.78 310.48 81.65 206.25 100.8"/><polygon class="cls-2" points="315.41 70.16 325.04 57.35 351.63 21.91 252.07 0 311 65.27 315.41 70.16"/><polygon class="cls-2" points="361.16 65.18 357.33 26.05 351.44 33.88 322.66 72.26 361.16 65.18"/><polygon class="cls-2" points="367.27 127.59 361.85 72.21 323.61 79.24 367.27 127.59"/><polygon class="cls-2" points="246.01 42.67 246.15 42.81 303.88 67.88 241.75 -0.94 223.23 32.85 231.13 36.28 246.01 42.67"/><polygon class="cls-2" points="190.4 104.57 190.4 104.57 285.84 175.89 298.26 128.44 190.4 104.57"/><polygon class="cls-2" points="304.12 75.66 220.08 39.15 219.83 39.05 188.18 96.8 188.41 96.85 304.12 75.66"/></svg>