<svg id="Layer_1" data-name="Layer 1" xmlns="http://www.w3.org/2000/svg" viewBox="0 0 470 202"><defs><style>.cls-1{fill:#363536;}.cls-2{fill:#383739;}.cls-3{fill:#3e3d3f;}.cls-4{fill:#cacccd;}.cls-5{fill:#a1a4a6;}.cls-6{fill:#b6b8ba;}.cls-7{fill:#d7d8d9;}.cls-8{fill:#333233;}.cls-9{fill:#2e2c2d;}.cls-10{fill:#312f31;}.cls-11{fill:#3c3b3d;}.cls-12{fill:#373637;}.cls-13{fill:#68696b;}.cls-14{fill:#515254;}.cls-15{fill:#7c7d80;}.cls-16{fill:#474749;}.cls-17{fill:#727376;}.cls-18{fill:#808284;}.cls-19{fill:#626365;}.cls-20{fill:#f1f1f2;}.cls-21{fill:#e1e2e3;}.cls-22{fill:#96989b;}.cls-23{fill:#e7e8e9;}.cls-24{fill:#4c4c4e;}.cls-25{fill:#595a5c;}.cls-26{fill:#fafafa;}.cls-27{fill:#f9f9f9;}.cls-28{fill:#eaeaeb;}.cls-29{fill:#ededee;}</style></defs><title>eddieburger</title><path class="cls-1" d="M470,180c-3.61-.37-7.28-.46-10.82-1.18-5.22-1.07-9.42-3.8-11.67-9-7.35,0-14.64,0-21.93,0-.51,0-1-.78-1.61-1.27.84-1.84,1.63-3.58,2.49-5.45-3.48-2.88-7.38-3.14-10.75-3.14l-13,5.07-5-1.72c3.31-3.5,7.17-4.67,11.24-5.18,6.36-.8,8.81-2.73,10.44-8.68,2.14-7.78-3.35-15.05-11.37-14.58A37.45,37.45,0,0,0,398,137.11c-4,1.41-7.85,3.36-12,5.2.65,4.73-2,7.2-6.13,8.76a9.14,9.14,0,0,0-3.63,2.32c-2.18,2.54-5.06,3.67-8.09,4.48A133.65,133.65,0,0,1,344.76,162c-2.29.2-4.55.89-6.83.88a52.59,52.59,0,0,1-7.34-.92c-1.76-.25-3.51-.68-5.29-.84-4.85-.45-9.22-2.36-13.51-4.42a5.19,5.19,0,0,1-2.7-5c0-1.66,0-3.31,0-5.44l-3.29-2.44C304,138.47,303.5,133.79,305,129c.4-1.25.64-2.75,1.48-3.61,3.5-3.53,6.87-7.31,10.89-10.14,6-4.23,15.77-3.07,21.27,1.88l3.22.17c2.87,3.32,5.91,6.83,8.91,10.28,1,5.23,3,10.41-1,14.89-2.61.53-4.83,1.16-7.09,1.38a26.25,26.25,0,0,1-6.45-.12c-1.44-.22-2.71-1.14-4.2-.05a2.23,2.23,0,0,1-1.94,0c-3.21-1.61-6.38-.74-9.61-.13a13.54,13.54,0,0,1-3.43-.28c-1.34,3.08,1.49,5,2.22,7.82a24.18,24.18,0,0,0,15.88,3.1,43.51,43.51,0,0,1,6.74-.06l3.83-3c3.89,1.91-.11,5.5,1.92,8a90.3,90.3,0,0,0,24.57-5.45v-3.48c3.73-.76,7.55-1.13,10.72-4,.05-.54.13-1.3.28-2.69-3,.65-5.49,1.37-8,1.69a45.4,45.4,0,0,1-9.37.53c-4.38-.37-6.69-3.5-6.7-8.14,6.43-7.37,16.27-6.5,25.61,2.33,4.83-2,9.64-4.14,14.59-5.92a36.5,36.5,0,0,1,8.59-1.93c7.82-.81,13,4.84,14,12.34.52,3.85.22,7.63-2.52,10.8a8.5,8.5,0,0,0-.87,2,54.54,54.54,0,0,1,6.16,1.73c4.67,1.89,5.23,3.83,2.51,8.69a82,82,0,0,0,21.23-.9c2.67-5.22,7-7.55,12.94-7,3,.31,3.45,1,3.48,4.79-3.95,3.22-9.08,3.32-13.84,4.62-.64,2.35,1,3.45,2.44,4.4a19.83,19.83,0,0,0,9.73,3.42c2.29.14,4.56.58,6.84.88Zm-18.06-14.06c3.87.41,7.45,0,10.78-3.36-4.88-1.27-8.28-.34-10.68,3.45l-.19.11C451.71,166.43,451.83,166.19,451.94,165.94ZM337.81,125.63c-4.8-2.33-6.86-2.36-16-.41-2.1,1.92-3.74,4.06-3.73,7.25l3.86,1.39c3-.73,5.46-2.09,7.64-1.71,3.31.56,6.2-.19,9.6-.77C338.69,129.33,338.28,127.6,337.81,125.63Zm44.38,15.27c-5.9-6.52-15.45-8.41-21.15-1.71,1.42,3.48,4.33,4.72,7.81,4.75C373.33,144,377.5,142.55,382.19,140.9Zm24.45,21-.08-1-2.41.34,0,.52Z"/><path class="cls-2" d="M34,106.94l1,7.71-6.36,1.92L26.5,112l-4.79-.73c0,2.55.1,5,0,7.45A33.17,33.17,0,0,1,20.9,123l-1.66.27v4l1.66-3.15,1.31,14.39,2.46,1.84c-5.26.73-9.53,2.67-14.45,1.38V135.6L13,134.46a6.8,6.8,0,0,0,.25-1.36c-.14-4.95-.26-9.83,1.46-14.68.78-2.17.13-4.85.13-7.49H7.06l-.36,3.69L4,115l-1.22-1.8L0,114v-1c.32-.58.86-1.13.91-1.73.16-2,.14-4.11.19-6.16,2.59-1.58,5.49-.8,8.22-.92,5.44-.23,10.91-.07,16.36,0,3.05.05,6.1.29,9.15.44l.15,1.18ZM26,109c.15.26.31.53,0,0,.55.35.29.18,0,0s-.33-.55,0,0C25.43,108.69,25.71,108.85,26,109ZM20,114v-3.79h-.9V114c.1,1.91-.43,3.88.9,5.71Zm-1.17,25.83v-.5H15.29v.5Zm14-30.5-.86.14.29,3.44.57,0Zm-11.21-2.45,0-.87-2.26.39,0,.48Zm10.13-.73-.61.09.21,1.55.66-.1Zm-1.13,7.69.31-.28-.3-.3-.31.43Z"/><path class="cls-3" d="M207,201.15c-1.57-.9-1-2.2-.62-3.78l4.45-.6V179.24l-4.91-1.34.33-3.4c8-.92,17.36-.65,20.64.63.06,1.2.16,2.5.18,3.81,0,2.14,0,4.28,0,6.59l-2.7.44c-.52-2.24-1-4.41-1.56-6.83-2.25-1-4.76-.06-7.16-.55-1.13,2-.58,4-.79,6.18,2.28.27,3.21-.43,3.46-2.5.19-1.65,1.07-2.78,3.27-1.9,0,4.36,0,8.78-.06,13.2,0,.48-.76,1-1.09,1.33-3.65-.52-.6-6-5.21-5.88-.09,1.21-.22,2.46-.26,3.71s0,2.59,0,4.12h7.26l1.71-2.59.16-3.69c2.94-.66,3.52-.41,3.69,2,.16,2.15,0,4.32,0,6.73L225,202h-2c-.41-.32-.82-.92-1.23-.93-3.57,0-7.14.05-10.72.1Z"/><path class="cls-4" d="M113,202a4.59,4.59,0,0,0,0-.91l14.07,0a3.63,3.63,0,0,0,0,.87Z"/><path class="cls-5" d="M1.1,105.11c-.05,2,0,4.11-.19,6.16-.05.6-.59,1.15-.91,1.73v-8Z"/><path class="cls-5" d="M0,114l2.78-.8L4,115c-.29,1.07-.89,1.07-1.79.64A12.49,12.49,0,0,0,0,115Z"/><path class="cls-6" d="M136.94.89A2.23,2.23,0,0,0,137,0h4a2.47,2.47,0,0,0,0,.94Z"/><path class="cls-4" d="M211.05,201.17a2.57,2.57,0,0,0-.05.83h-4a4.79,4.79,0,0,0-.05-.85Z"/><path class="cls-4" d="M180.05,201.14a3.55,3.55,0,0,0-.05.86h-3a3,3,0,0,0-.05-.84Z"/><path class="cls-7" d="M144,202a3.73,3.73,0,0,0,0-.82H147a3.28,3.28,0,0,0,0,.83Z"/><path class="cls-4" d="M248,202a5.16,5.16,0,0,0-.06-.79L251,201v1Z"/><path class="cls-8" d="M136.94.89l4.09,0,2.68,2.47a16.44,16.44,0,0,1-4.05,13.24c-17.2,19.9-30.79,42.1-42.48,65.55-1.3,2.63-2.31,5.41-3.58,8.42,2.93.47,5.06-.91,7.19-1.88A80.87,80.87,0,0,1,118.4,82.6a34.59,34.59,0,0,1,8.87-.32c1.31.09,2.55,1.2,3.42,1.64,1,2.92-.34,4.47-1.94,5.71-3.26,2.53-6.65,4.91-10,7.36a17.78,17.78,0,0,0-4.5,4.23l7.8-.52c2-.14,4-.8,5.85-.37,7.46,1.74,14.8.93,22.11-.68,2.78-.61,5.21-.84,7,2.53-.75,4.09.4,8.73-.79,13.34-3.28.48-6.16,1.33-8.95-.92-.25-1.92-.5-3.85-.82-6.29-5.77.38-11.48-3.76-17.22.7-.52,5.59-1,11.1-1.57,16.94l16.1-2.29,4.18,4c-.21,2-.44,4-.69,6.31H130.15a86.77,86.77,0,0,1,.56,9.94c-.16,3.23-1.38,6.4-.69,10.09,5.18-2.68,10.67-1.87,16.23-2.24-.13-2-.24-3.81-.36-5.75l2.49-2.73h7.49l.21,2.41c-2,1.86-.77,4-.3,6.15l.39-6c2,1,1.87,3,1.91,4.78.09,4,0,7.95,0,12.35-15,1.81-29.74.78-44.15,1.13-4.69-5.62-4.09-9.14,1.7-11.38a8.52,8.52,0,0,1,.38-1.83c1.89-4.57,1.89-9.2.88-14a48.47,48.47,0,0,1-.11-18.71c.4-2.23.06-4.59.06-7.33-5.05.36-8.79-1.35-10.06-6.91.71-2.37,2.79-4.07,4.9-5.64,3.32-2.46,6.82-4.69,10.14-7.14,2-1.45,3.75-3.13,6.27-5.26a11.92,11.92,0,0,0-8.32-.38c-6.09,2-12.11,4.11-18.16,6.19a40,40,0,0,0-4.17,1.54,6.48,6.48,0,0,1-7-.68c-.42-1.19-.84-2.37-1.39-4a80.56,80.56,0,0,0,4.1-23.28,33.3,33.3,0,0,0,3-3.5C103.56,49.86,111.07,38,117.5,25.46,121,18.55,125,11.8,130.41,6.09,132.3,4.08,134.75,2.61,136.94.89ZM125.08,20.53l1.4-2c1.49-.7,2.45-1.6,1-3.61l-1.76,2.83-.82,1.11-1.16,1.93-1.84,3.06-2.58,4.31c2.31-.69,2.66-1.76,2.7-3,1.75-.63,1.91-2.27,2.35-3.73ZM118,32c1.62-.64,1.09-1.7.28-3.27L118,32c-.28.16-.56.33.05,0C117.67,32.57,117.84,32.29,118,32ZM95,79l3.21-5.17-1.63-3.59-.68.07c-.31,2.89-.61,5.78-.92,8.67l-.9,1.5.76.27ZM134.91,5.81l4.68,5.1c1.06-2.24,2.07-4.32.95-6.68A4.42,4.42,0,0,0,134.91,5.81Zm-14,97.82c-1.34-.11-3-1.58-4.21,1.14ZM131.39,21.9l2.37-2.06C131.41,18.54,130.69,18.76,131.39,21.9Zm6,105.29-.05.76,3.3-.17,0-.59ZM143.15,154c-.94.17-1.55.11-1.74.36s-.1.88-.16,2C142.1,155.33,142.46,154.87,143.15,154Zm-22.36,7.78v-.48H118.3v.48Zm7.43-17.89.46,0v-2.48l-.66,0C128.09,142.23,128.16,143.06,128.22,143.89Zm26-31.1h.48v-2.48h-.48ZM100.28,61.93l.58-.07-.16-1.57-.66.08Zm30.05-39.74c-.06.12-.19.26-.16.35a1.24,1.24,0,0,0,.31.38l.19-.73ZM116.81,161.44c-.1-.1-.19-.29-.29-.29s-.21.17-.32.27l.45.31Zm-15-102.92-.29-.35c-.12.11-.33.22-.33.34s.18.25.29.38Z"/><path class="cls-9" d="M265,105c.42,7.28,1,14.54,1.22,21.82.19,6.23.05,12.46-.08,18.7,0,1.61-.65,3.21-.84,4.83a40.17,40.17,0,0,0,0,4.14l4.77-1.57,3.18,2.72a67.09,67.09,0,0,1-3.46,8c-.46.8-2.9,1.49-3.45,1-3.11-2.58-6.68-1.28-10-1.67-.48-.05-1-.18-1.72-.34l-.88-3.74c-.46.08-1,0-1.32.27-3.59,2.61-6.81,5.87-11.53,6.48-6.57-.53-11.46-4.66-16.42-8.35-3.89-2.9-6.78-6.9-7.3-12a16.41,16.41,0,0,1,.8-5.77c.83-3,2.08-5.94.77-9.51,2.93-2.92,5.82-5.86,8.79-8.72a57.11,57.11,0,0,1,5.17-4.54c4.34-3.26,9.65-3.65,14.72-4.75,1.09-.24,2.2-.45,3.61-.74v-9.26l-4.89,1-2.82-2.64c-.72-2.74.49-5.67,2.83-6.28a23.18,23.18,0,0,1,6.72-.86c3.59.12,7.18.68,11,1.07L265,103l-1.71-.73v5.91C264,106.8,264.47,105.91,265,105Zm4,57c2.16-1,.66-2.41,0-3.71V162l-3.64.38C267.4,163.08,268.45,163.55,269,162Zm-40-25c.1,1.57-.37,3.22.94,4.68V137l-.26-2.71-.68.06Zm13-12.92-7.67,5.15c-.49,1.76-1.23,3.92-1.66,6.15a42.45,42.45,0,0,0-.92,7.35,8.19,8.19,0,0,0,7.9,8.48c3.76.25,7.39-.27,10-3.24a17.37,17.37,0,0,0,4-12.3c-.07-2.93-.66-5.86-1.08-9.3C249.87,123,245.84,122.88,242.06,124.05Zm22.21,2.72c.85-3,.85-3,0-5.43Zm-.48,13.56-1.13.16c1,1.63-.51,3.48,1.13,5.25ZM230.86,159c.41.37.9.91,1,.85a6.2,6.2,0,0,0,1.07-1.1c-.35-.24-.7-.66-1-.64S231.27,158.65,230.86,159Zm11.28-4.83,0,.63,2.53-.12,0-.7Zm-18.64-1.34.57-.83-1.53-.9-.33.52ZM258,148.55l.82.21v-2.5l-.47,0Zm-.58-53.38.07.88,2.22-.41-.05-.47Z"/><path class="cls-9" d="M209.07,100c.23.23.66.48.64.7-.59,6.87-1.26,13.74-1.84,20.61a21.2,21.2,0,0,0,.29,3.44c.16,1.94.75,4,.38,5.79-1.38,6.8,0,13.61-.4,20.4-.06.89.63,1.83,1.05,2.94l4.38.34c2.12,2.05,2.39,4.61,2.53,7.28-2.48,2.53-5.46,1.16-8.14,1.41s-5.25.42-8.7.69c-1.55-.38-2.66-2-2.59-5-7.24,5.14-14.54,7.53-23.35,4.85L165.21,157c-1.85-3.85-3.07-10.9-3.55-16.66-.18-2.19-.59-4.56.39-6.2,1.76-3,2-6.5,3.93-9.27,1.51-2.15,3-4.49,5-6,3-2.28,6.47-4,9.55-5.76,5.82.13,11.65-1.91,16.92,2,.21.79.44,1.57.61,2.36a2.15,2.15,0,0,0,1,1.7V103.86l-3.39-4-5.16,1.38c-.5-2.05-.91-3.78-1.4-5.8,2.62-3.21,6.54-3.32,10.24-3.5,3.34-.16,7.12-1.11,9.69,2.79,0,1-.1,2.1-.15,3.24L207,98.2c0,1.11,0,1.9,0,2.68a18.07,18.07,0,0,0,.34,1.91Zm-30.71,26.1a10.63,10.63,0,0,1-.46,2c-2.59,4.71-2,10.21-3.79,15.15a9.7,9.7,0,0,0,.12,4.92c.8,3.88,5.72,6.94,9.11,5.55,6.93-2.84,11.53-8.14,12.65-16.68.48-3.67.47-7.39.69-11.37-2.57-3.79-6.5-4.58-11.19-3.48C183.42,123.76,182.05,126.75,178.36,126.07Zm20.27,30.76c.31-2.42,1.05-3.88-1.43-5.31Zm7.51-41.27.54.21a4.56,4.56,0,0,0,.29-1.27,4.44,4.44,0,0,0-.39-1.22l-.44.15ZM182.77,161.7l-.07-.61-2.32.24.09.71Zm10.85-11c1.91.3,2.64.11,1.92-2Zm12.16-29.54-.46,0v2.5l.66,0C205.92,122.81,205.85,122,205.78,121.16ZM172.7,138.22l-.61.08.24,2.33.71-.09Z"/><path class="cls-10" d="M281.43,126.12l-5.41-.43c-2.71-3.49-1.83-6.91-.62-10,1.67-.18,3.14-.38,4.62-.47,1.32-.08,2.79-.4,4,0a7.54,7.54,0,0,0,4.21.09c1.45-.25,3.07.58,4.45.9.54,4.88,1.37,9.29,1.41,13.71a61.45,61.45,0,0,1-1.33,12.22c-1,5-1.2,5,.75,10.72H299c3.12,4.23,2,9.53-2.48,10.47-6.05,1.26-12.27,2.74-18.58,0-1.7-3.35-2-7-1.61-11.15l5.15-.61v-12l1.25-1.49C278.88,134.48,283.5,130.18,281.43,126.12Z"/><path class="cls-1" d="M35,105.83l-.15-1.18v-2.79c5.18-1.36,6.32-1.31,10.18.59v13c2.47-1.16,4.3-2.15,6.22-2.9,4.06-1.59,6.89-.15,8.2,4-.25,1.18-1.37,2.5.56,3.31l0,4.1-.69,2.79,1.2,1.81,1.32-3.56c.16,1.31.26,2.64.51,3.93s.65,2.54,1,3.87c3.94,4.32,4.18,5.25,2.08,8.87a79.43,79.43,0,0,1-13.79-.34c-1.07-2.85-.76-5,.88-7l2.2-.53c1.81-4.84,1.66-9.36-1.24-13.83l-3.92-.29c-3.83,3.25-4.67,7.51-4.73,12.08l-1.64.25L43,134.79h2.14l.9.45,1.05,2.69-2.22,3.46a17.58,17.58,0,0,1-9.64-.12l-.43-5.54,2.9-1a2.85,2.85,0,0,0,.4-.85c.28-3.76.19-7.52.62-11.31.51-4.5-.57-9.18-1-14L35,107Zm9,8.61-.78-.13v3.49l.53,0Zm-3.27,25.93c-.1-.05-.22-.16-.29-.14s-.21.17-.31.25l.58.17Z"/><path class="cls-1" d="M76.88,131.05c2.55,4.23,5.81,5.2,11.42,3.37.46-.15.89-.37,1.63-.69l1.9,3.05L90.72,140a16,16,0,0,1-8,1.74c-5.84-.61-10.81-2.9-13.76-8.38a14.6,14.6,0,0,1-1.66-9c.22-1.53.57-3.67,2.84-4.23a2.75,2.75,0,0,0,1.45-1.25c3.16-5.45,8-6.1,13.51-4.73.32.07.66.09,1,.13,5.32,3.26,7.55,8,6.8,14.74L77,129l-1.71-1.65-.16,3.44Zm8.67-8.91c-2.28-2.4-3.8-4-6.82-2.66l-2.48,3.63Zm-9.31,2.14v.45h3.52v-.45Z"/><path class="cls-2" d="M180.05,201.14l-3.1,0c-2.38-.19-2.83-1.7-2.9-3.79-.1-3.28-.57-4.35-2.45-7.47h-4.38c-.95,2.09-.34,4.25-.49,6.49l3.11,1.27v2.64c-.4.36-.52.57-.64.57h-8.85l-1.65-2.82,3.8-2.21V179.63L158.89,177l1.6-2.88c2.7,0,5.18-.07,7.66,0a20.81,20.81,0,0,1,4.86.62c6.29,1.74,7.88,7.48,3.53,12.43-.21.25-.35.55-.64,1q1.17,3.79,2.45,8l3.06,2.13Zm-7.88-15.35c3-2.3,3-2.3,2.31-6.12-2.55-1.29-5.17-2.47-8.06-.83v6.95Z"/><path class="cls-11" d="M251,201l-3.05.23-2.3-.48c-2.31-3.3-.19-7.81-3.44-10.87h-5v6c.75,1.68,4.61,1,3.48,4.6-3.11,1.09-6.42.29-9.83.52l-1.67-2.67,3.84-2.5V179.62c-.89-1.35-3.71-1.21-3-3.92.11-.19.24-.66.46-.72,4.53-1.16,9.16-1.57,13.63-.15,5.72,1.82,7.2,6.73,3.84,11.66a14.28,14.28,0,0,1-1.18,1.37c1.35,6.7,1.58,7.19,5.21,10.87Zm-5.08-20.09c-2.22-2.86-5.28-3-8.72-2.63v7.34C244.5,185.88,244.5,185.88,245.91,180.89Z"/><path class="cls-2" d="M284.77,197.35l4.17-.49V179.22c-1.64-1-4.66.29-4.92-3a2.56,2.56,0,0,1,2.86-2q3.74.09,7.47,0c6.18-.18,8.38,1.33,10.49,7.49l-2,5a19.41,19.41,0,0,1,1.84,2.78,26.42,26.42,0,0,1,1.07,3.7c-.64,1.68-1.45,3.79-2.28,6-6.22,3.39-12.67,1.28-19.46,1.9C284.33,199.4,284.54,198.4,284.77,197.35Zm14.94-8.74-6.41.43v8.27l6.13-.27c2.5-1.84,2.94-3.79,2.42-5.56Zm-.43-3.73c1.58-2.18,1.58-2.18,1.23-5a7.72,7.72,0,0,0-7.24-1.47v6.46Z"/><path class="cls-1" d="M329,197.37l2.78-1.64V179.32l-3.71-2.86c.65-1.88,1.69-2.41,3.18-2.38,2.66,0,5.31,0,8,0,3.78,0,6.72,1.38,8.55,4.81.42,3.36.46,6.61-2.7,8.9l2.33,8.17L350,197.8v2.88h-5.5c-1.46-.79-1.26-2.32-1.29-3.81,0-2.89-.65-5.58-3.28-7.61h-4.47V196l3.47,1.74v2.9c-3.48.21-6.78,1.29-9.92-.77C329,199.05,329,198.21,329,197.37Zm6.37-19.15v7.23h6.24c2.66-2.12,2.66-2.12,2-6C341.11,177.73,338.37,177.91,335.38,178.22Z"/><path class="cls-12" d="M127,201.13l-14.07,0c-1.54-3.36-1.21-3.74,3.74-4v-18c-1.66-.83-5.33.43-4.6-3.92,1.12-.11,2.22-.26,3.33-.32,1.81-.1,3.7.16,5.44-.25,4.75-1.12,8.41.13,11.34,4.85q-.48,3.18-1.16,7.65C134.63,193.8,133.45,198.32,127,201.13Zm-6-3.47c7.06.21,8.46-.82,8.73-6.44L126.25,188,121,189.19Zm8.1-17.39c-3.06-1.91-5.4-2.57-8.05-1.58v6.21h6.88C128.33,183.39,128.69,181.94,129.11,180.27Z"/><path class="cls-12" d="M189.16,173.78l7.55,1.09,2.41-1c.37.42.8.68.77.9-.32,3.4,1.51,7.22-1.85,10.31-3-1.95-1.89-7.89-7.59-6.87-3.68,2.14-3.4,6.05-3.43,9.86,0,3.57.31,6.95,3.9,9,3.44.08,4.48-2.19,5.32-5.15l-3.13-2.27v-2.54c1-.07,1.76-.2,2.55-.18,6.35.15,6.35.16,8.09,1.89-.15,2.32-2.51,1.64-3.58,2.6-1.07,3.11,1,6.69-1.64,9.75l-2.28-.67-7.07.64C181,194.31,181,182.13,189.16,173.78Z"/><path class="cls-11" d="M147,201.17H144c-4.37-1.52-6.13-4.68-6-9.19.11-4.15,0-8.31,0-12.79l-3-2,.82-3h8.92l.25,3.08-3.07,1.29c0,4.53-.13,9.16.07,13.78.06,1.5,1,3,1.34,4.06,3.22,1.18,5.17.43,6.75-2.48V178.92l-3.2-2.8c2.28-3.58,5.63-1.29,8.46-2.2l2.07,2.92-3.06,2a9.85,9.85,0,0,0-.22,1.39c0,3.83,0,7.66-.11,11.48C153.93,197.21,152.51,199.09,147,201.17Z"/><path class="cls-11" d="M329,197.37c0,.84,0,1.68,0,2.52a16.37,16.37,0,0,1-9.31.85c-2-2.41.21-3.32,1.31-4.58-1-3.78-4.06-1.91-6.3-2.56l-1.93,2.14,2.4,4.42c-2.91,1.47-5.58.57-8.28.9l-1.59-2.44c.19-.25.34-.6.6-.73a7.81,7.81,0,0,0,4.44-6c1-5.12,3-10.06,4.61-15.05a16.73,16.73,0,0,1,1.59-2.84c2.54,1,2.82,3,3.32,4.91,1.53,5.86,3.15,11.7,4.82,17.86ZM317.46,183.1l-1.12-.12-1.8,7.08,4.71-.3C318.59,187.3,318,185.2,317.46,183.1Z"/><path class="cls-8" d="M290.87,91.8c.06.62.12,1.24.18,1.93l2.81.53c2.44,2.9,2.06,5.33.3,8.57s-5,2.65-7.25,4.16c-3.71-.82-5.77-3.34-7.59-6.15-1.14-3.18.81-5.63,1.87-8.12C284.29,90.17,287.4,88.79,290.87,91.8Z"/><path class="cls-8" d="M267,181l2.78.37v5.31l5.79.62c.05.75.1,1.48.18,2.51l-5.47.37c-.17,1.66-.34,3.41-.54,5.46l-2.55.4c-.21-2-.39-3.71-.61-5.77l-5.09-.39c-.15-.65-.33-1.39-.58-2.47l5.77-.65C266.82,185,266.92,183.2,267,181Z"/><path class="cls-13" d="M44.87,141.39l2.22-3.46L46,135.24l.74-1.05c2.81.57,1.9,3.3,3.24,4.8C48.82,141.06,47.48,142.51,44.87,141.39Z"/><path class="cls-14" d="M60,124l0-4.1-.24-3.2c1.68.22,2,1.57,2.06,2.83a39.65,39.65,0,0,1,0,4.36Z"/><path class="cls-14" d="M265,105c-.48.9-.95,1.79-1.69,3.16v-5.91L265,103C265,103.66,265,104.34,265,105Z"/><path class="cls-15" d="M60,124l1.76-.11.07,1.15-1.32,3.56-1.2-1.81Z"/><path class="cls-16" d="M209.07,100l-1.71,2.82a18.07,18.07,0,0,1-.34-1.91c-.06-.78,0-1.57,0-2.68L209,98Z"/><path class="cls-17" d="M76.88,131.05l-1.76-.29.16-3.44L77,129Z"/><path class="cls-5" d="M45.14,134.79H43l.22-2.66,1.64-.25Z"/><path class="cls-18" d="M20.9,124.06l-1.66,3.15v-4L20.9,123Z"/><path class="cls-17" d="M59.75,116.74l.24,3.2c-1.93-.81-.81-2.13-.56-3.31Z"/><path class="cls-19" d="M35,105.83,35,107l-1.05,0Z"/><path class="cls-20" d="M337.81,125.63c.47,2,.88,3.7,1.36,5.75-3.4.58-6.29,1.33-9.6.77-2.18-.38-4.66,1-7.64,1.71l-3.86-1.39c0-3.19,1.63-5.33,3.73-7.25C331,123.27,333,123.3,337.81,125.63Z"/><path class="cls-20" d="M382.19,140.9c-4.69,1.65-8.86,3.09-13.34,3-3.48,0-6.39-1.27-7.81-4.75C366.74,132.49,376.29,134.38,382.19,140.9Z"/><path class="cls-21" d="M452,166c2.4-3.79,5.8-4.72,10.68-3.45-3.33,3.34-6.91,3.77-10.78,3.36Z"/><path class="cls-15" d="M406.64,161.93l-2.47-.12,0-.52,2.41-.34Z"/><path class="cls-21" d="M451.94,165.94c-.11.25-.23.49-.09.2L452,166Z"/><path class="cls-19" d="M20,114v5.71c-1.33-1.83-.8-3.8-.9-5.71l.45.06Z"/><path class="cls-17" d="M18.78,139.78H15.29v-.5h3.49Z"/><path class="cls-19" d="M32.8,109.28v3.55l-.57,0-.29-3.44Z"/><path class="cls-22" d="M20,114l-.45.06-.45-.06v-3.8H20Z"/><path class="cls-18" d="M21.59,106.83H19.33l0-.48,2.26-.39Z"/><path class="cls-18" d="M31.72,106.1l.26,1.54-.66.1-.21-1.55Z"/><path class="cls-13" d="M26,109c-.29-.16-.57-.32,0,0-.35-.57-.18-.3,0,0Z"/><path class="cls-13" d="M26,109c.27.16.53.33,0,0,.33.56.17.29,0,0Z"/><path class="cls-13" d="M30.59,113.79l-.3-.15.31-.43.3.3Z"/><path class="cls-21" d="M134.91,5.81a4.42,4.42,0,0,1,5.63-1.58c1.12,2.36.11,4.44-.95,6.68Z"/><path class="cls-4" d="M95,79c.31-2.89.61-5.78.92-8.67l.68-.07,1.63,3.59L95,79Z"/><path class="cls-19" d="M156.17,145.8l-.39,6c-.47-2.11-1.67-4.29.3-6.15Z"/><path class="cls-4" d="M124.38,21.37c-.44,1.46-.6,3.1-2.35,3.73l-.12-1.27,1.84-3.06Z"/><path class="cls-23" d="M125.73,17.73l1.76-2.83c1.44,2,.48,2.91-1,3.61Z"/><path class="cls-13" d="M120.86,103.63l-4.21,1.14C117.88,102.05,119.52,103.52,120.86,103.63Z"/><path class="cls-6" d="M121.91,23.83,122,25.1c0,1.28-.39,2.35-2.7,3Z"/><path class="cls-21" d="M131.39,21.9c-.7-3.14,0-3.36,2.37-2.06Z"/><path class="cls-18" d="M137.4,127.19h3.22l0,.59-3.3.17Z"/><path class="cls-24" d="M143.15,154c-.69.87-1.05,1.33-1.9,2.38.06-1.14-.06-1.71.16-2S142.21,154.17,143.15,154Z"/><path class="cls-14" d="M120.79,161.78h-2.48v-.48h2.49Z"/><path class="cls-18" d="M128.22,143.89c-.06-.83-.13-1.66-.2-2.49l.66,0v2.48Z"/><path class="cls-25" d="M154.22,112.79v-2.48h.48v2.48Z"/><path class="cls-18" d="M118,32l.3-3.25c.81,1.57,1.34,2.63-.28,3.27Z"/><path class="cls-15" d="M100.28,61.93,100,60.37l.66-.08.16,1.57Z"/><path class="cls-4" d="M123.75,20.77l1.16-1.93.17,1.69-.7.84Z"/><path class="cls-23" d="M125.08,20.53l-.17-1.69.82-1.11.75.78Z"/><path class="cls-15" d="M95,79l-.16,1.75-.76-.27L95,79Z"/><path class="cls-18" d="M118,32c-.17.28-.34.56,0-.06-.61.37-.33.2-.05,0Z"/><path class="cls-22" d="M130.33,22.19h.34l-.19.73a1.24,1.24,0,0,1-.31-.38C130.14,22.45,130.27,22.31,130.33,22.19Z"/><path class="cls-14" d="M116.81,161.44l-.16.29-.45-.31c.11-.1.22-.28.32-.27S116.71,161.34,116.81,161.44Z"/><path class="cls-15" d="M101.81,58.52l-.33.37c-.11-.13-.3-.26-.29-.38s.21-.23.33-.34Z"/><path class="cls-26" d="M242.06,124.05c3.78-1.17,7.81-1.06,10.59,2.29.42,3.44,1,6.37,1.08,9.3a17.37,17.37,0,0,1-4,12.3c-2.61,3-6.24,3.49-10,3.24a8.19,8.19,0,0,1-7.9-8.48,42.45,42.45,0,0,1,.92-7.35c.43-2.23,1.17-4.39,1.66-6.15Z"/><path class="cls-16" d="M264.27,126.77v-5.43C265.12,123.72,265.12,123.72,264.27,126.77Z"/><path class="cls-25" d="M263.79,140.33v5.41c-1.64-1.77-.09-3.62-1.13-5.25Z"/><path class="cls-16" d="M230,137v4.68c-1.31-1.46-.84-3.11-.94-4.68l.47,0Z"/><path class="cls-14" d="M269,162V158.3c.65,1.3,2.15,2.71,0,3.71Z"/><path class="cls-24" d="M230.86,159c.41-.39.7-.87,1-.89s.69.4,1,.64a6.2,6.2,0,0,1-1.07,1.1C231.76,160,231.27,159.41,230.86,159Z"/><path class="cls-15" d="M242.14,154.21l2.53-.19,0,.7-2.53.12Z"/><path class="cls-16" d="M223.5,152.87l-1.29-1.21.33-.52,1.53.9Z"/><path class="cls-13" d="M269,162c-.53,1.54-1.58,1.07-3.63.39L269,162Z"/><path class="cls-17" d="M258,148.55l.35-2.33.47,0v2.5Z"/><path class="cls-18" d="M257.38,95.17h2.24l.05.47-2.22.41Z"/><path class="cls-19" d="M230,137l-.47,0-.47,0v-2.65l.68-.06Z"/><path class="cls-27" d="M178.36,126.07c3.69.68,5.06-2.31,7.13-3.88,4.69-1.1,8.62-.31,11.19,3.48-.22,4-.21,7.7-.69,11.37-1.12,8.54-5.72,13.84-12.65,16.68-3.39,1.39-8.31-1.67-9.11-5.55a9.7,9.7,0,0,1-.12-4.92c1.79-4.94,1.2-10.44,3.79-15.15A10.63,10.63,0,0,0,178.36,126.07Z"/><path class="cls-14" d="M198.63,156.83l-1.43-5.31C199.68,153,198.94,154.41,198.63,156.83Z"/><path class="cls-24" d="M206.14,115.56v-2.13l.44-.15a4.44,4.44,0,0,1,.39,1.22,4.56,4.56,0,0,1-.29,1.27Z"/><path class="cls-25" d="M182.77,161.7l-2.3.34-.09-.71,2.32-.24Z"/><path class="cls-16" d="M193.62,150.7l1.92-2C196.26,150.81,195.53,151,193.62,150.7Z"/><path class="cls-24" d="M205.78,121.16c.07.82.14,1.65.2,2.48l-.66,0v-2.5Z"/><path class="cls-25" d="M172.7,138.22l.34,2.32-.71.09-.24-2.33Z"/><path class="cls-13" d="M44,114.44l-.25,3.38-.53,0v-3.49Z"/><path class="cls-13" d="M40.74,140.37l0,.28-.58-.17c.1-.08.19-.21.31-.25S40.64,140.32,40.74,140.37Z"/><path class="cls-7" d="M85.55,122.14l-9.3,1,2.48-3.63C81.75,118.19,83.27,119.74,85.55,122.14Z"/><path class="cls-15" d="M76.24,124.28h3.52v.45H76.25Z"/><path class="cls-23" d="M172.17,185.79h-5.75v-6.95c2.89-1.64,5.51-.46,8.06.83C175.2,183.49,175.2,183.49,172.17,185.79Z"/><path class="cls-28" d="M245.91,180.89c-1.41,5-1.41,5-8.72,4.71v-7.34C240.63,177.9,243.69,178,245.91,180.89Z"/><path class="cls-27" d="M299.71,188.61l2.14,2.87c.52,1.77.08,3.72-2.42,5.56l-6.13.27V189Z"/><path class="cls-20" d="M299.28,184.88h-6v-6.46a7.72,7.72,0,0,1,7.24,1.47C300.86,182.7,300.86,182.7,299.28,184.88Z"/><path class="cls-23" d="M335.38,178.22c3-.31,5.73-.49,8.21,1.27.69,3.84.69,3.84-2,6h-6.24Z"/><path class="cls-29" d="M121,197.66v-8.47l5.24-1.21,3.49,3.24C129.47,196.84,128.07,197.87,121,197.66Z"/><path class="cls-29" d="M129.11,180.27c-.42,1.67-.78,3.12-1.17,4.63h-6.88v-6.21C123.71,177.7,126.05,178.36,129.11,180.27Z"/><path class="cls-29" d="M317.46,183.1c.56,2.1,1.13,4.2,1.79,6.66l-4.71.3,1.8-7.08Z"/></svg>