<svg id="Layer_1" data-name="Layer 1" xmlns="http://www.w3.org/2000/svg" viewBox="0 0 448.01 180.34"><defs><style>.cls-1{fill:#be3c49;}.cls-2{fill:#383838;}.cls-3{fill:#fff;}.cls-4{fill:#e1e1e1;}.cls-5{fill:#060606;}.cls-6{fill:#120c0d;}.cls-7{fill:#fcfcfc;}</style></defs><title>extremeyeti-dark</title><path class="cls-1" d="M41.89,1.09A50.59,50.59,0,0,1,47.53.93c3.16,0,6.32,0,9.47.28A31.4,31.4,0,0,1,65.56,3c5.57,2,10.67,5,16,7.55l1.61.73a33.85,33.85,0,0,0,6.11,2C108.77,18,121,31.1,124.47,51c.48,2.72,1.85,5.27,2.62,8,1.74,6,3.37,12.11,5,18.16q.41,4,.8,8l.87,3.16.74,2.92c.14.64.28,1.28.41,1.92l.17,1c.21.73.43,1.45.65,2.18-.15,8.28.8,16.76-.66,24.81-3.17,17.54-14.67,29-30.3,36.49-7.44,3.6-15,6.92-22.79,10.5,1.55,3.71,3.19,7.6,5.17,12.3C74.39,177.55,61.68,177.53,51,170l-1.12-.7c-4.94-5.42-10.5-9.84-17.54-12.39-3.22-1.17-6.06-3.36-9.08-5.09l-2.35-1.74-1.18-1-.92-.86-.11-.08-.82-.74C2.37,132.2-.85,113.77,3.51,93.2c1.65-7.78,2-15.87,4-23.52A306.41,306.41,0,0,1,17.65,38.55c4.2-11,12.56-18.17,23.26-22.75l1.29-.64,1.8-.53L45.86,14l1-.3,3.59-.8-2.69-1.69-.15-.16-.78-.76L34.68,2.79a57.53,57.53,0,0,1,6.17-1.58C41.19,1.16,41.54,1.12,41.89,1.09Zm85.25,127.18.87-1.2a.56.56,0,0,0,.1-.65c3.68-7.16,4.42-14.86,3.41-22.63-1.26-9.62-3.1-19.16-4.72-28.73a4.56,4.56,0,0,0-.7-1.28L125.91,72l-1.82-7.31a.66.66,0,0,0-.29-.68l-1.7-3.32a.69.69,0,0,0-.26-.68Q120,53.88,118.11,47.7L117.9,46l-1.79-4.28L115.76,40l-1.61-2.18h0l-4-6h0l-6.07-5.93h0L102,24.1a.58.58,0,0,0-.65-.26L97.94,22a.69.69,0,0,0-.71-.15l-5.15-2H92L75.9,14.07h0l-3.8-2.25h0L65.91,8.14l-1.58-.33L59.92,6.05l-1.75-.19A14.23,14.23,0,0,0,47.83,4.43l9.93,9.72h-.07c-2.13,1.28-4.2,2.69-6.42,3.79a49.88,49.88,0,0,1-5.44,2h0l-4,1.8-.13.07C29.13,25.56,23.4,35.36,20,46.86c-1.71,5.69-2.59,11.56-5.41,17-1.64,3.14-2.1,7-2.79,10.53-1.34,6.61-2.3,13.37-3.59,20-1.84,9.42-2.45,18.93.17,28.18,3.88,13.64,12.85,23.44,25.5,29.51,6.44,3.09,13,5.66,17.43,11.62.26.35.88.44,1.33.65l11.17,5.82h0c4.33,2.66,9.13,2.36,14.6,3.07-1.33-3.63-2.31-6.31-3.33-9.08l4.86-2,3-.29,16.22-7.65h.41l.35-.19,4-1.9h0l3.29-1.86a.69.69,0,0,0,.65-.31l2.13-1.71h0l5.81-4.14h0l2-1.93h0l4.1-4.87h0l3.75-5.15.36-1.6,1-2.09Z"/><path class="cls-2" d="M247.22,112c4-11.47,12.31-16.94,24.29-17,17.65-.06,35.3,0,52.95,0a20.52,20.52,0,0,1,2.26.29v8.93H290c-7,.06-9.62,2.61-9.8,9.65-.12,4.66-.21,9.34.08,14,.51,7.81,3.26,10.27,11,10.29h35.63V147c-1.35.1-2.77.31-4.18.31-17.15,0-34.3.05-51.46,0-14.67,0-24.62-9.83-25.14-24.63l5,1.14.89-1.17-6-4.8c.31-1.36.62-2.72.94-4.08l8.46,3.49.55-1.17Z"/><path class="cls-1" d="M245.93,117.93l6,4.8L251,123.9l-5-1.14c-3.83-4.6-7.42-9.47-13.2-11.91-1.16-2.14-2.22-4.35-3.53-6.4-.3-.47-1.43-.41-2.18-.59-.3-.54-.53-1.48-.93-1.56-5.34-1-8.37-4.83-11.25-9-2.12-3-4.51-5.91-6.56-8.56a91.12,91.12,0,0,0-8.17,4.62c-3.82,2.72-7.58,5.62-8.66,10.63l-1.52,0-3.9,2.14-.12.08-5.22,3.78-3,1-1-1.87,10-9.27L192.9,92l3.36-3.65,4-4.06,3.8-3-4.57-3.51-3.15-2.14a.78.78,0,0,0-.46-.57L195,74h0l-.75-1.18v-.11l-2-2.19-4.59-5.45-3-2.84L184.18,64l-.81,2.19L181,64.25l-2.89-.44c1.67-4.34-3-3.39-4.32-5.42.24-1,.51-2.15.79-3.3l.86-5.87,4.95,5,2.08-5.54-6.24-4-1.86-4.53,1.95-.93,7.18,1.28,2.65-3.29v-.07c.11,2.85,1.26,4,4,2.43V41.1a.49.49,0,0,0-.49.51v0l.37,1c3,4.92,7,8.78,11.22,12.63,2.42,2.2,3.76,5.57,5.77,8.7l11.85,5.86c1.23-1.9,2.46-4.61,4.41-6.61s4.71-3.4,7.64-5.43V55.64A41.93,41.93,0,0,1,250,39.91l3,.14,1-.08,2.06,1h0l4.62,1.11-9.12,10.86-8.31,2.86c-.52,2.56-1,4.83-1.55,7.61L247,61c-.07.6-.14,1.19-.21,1.88l3.84.89a27.72,27.72,0,0,0-4.73.41c-.75.19-1.27,1.23-1.9,1.89l-11,1.07-10.19,7,2,5c6.28,3.62,8.58,10.21,11.3,16.52a17.56,17.56,0,0,0,1.19,2c-1.18,3.64.86,5.85,3.47,7.8l2,5.73-.14.34.39.13.29.33C244.24,114,245.09,115.94,245.93,117.93Z"/><path class="cls-2" d="M411.32,104.24H387.15v42.88h-31.9V104.25H331.52v-8.9h79.8Z"/><path class="cls-2" d="M177.72,106.91l3.05-1c3,.46,4.28-1.42,5.22-3.78l.12-.08c1.61-.15,3.71.61,3.9-2.14l1.56.09,16.84,15,18.73-11.09c.75.18,1.88.12,2.18.59,1.31,2,2.37,4.26,3.53,6.4l-21,13.84V147H180V125.12l-13.88-11.41-.82-.74L147.9,97.08l.15-2L180,94.87h4l2.66,1-10,9.27-6.38,1.64v4.88Z"/><path class="cls-2" d="M416.5,95.4h31.36v20.21l-30.28,32.21-1.08-.7Z"/><path class="cls-2" d="M317.76,88H303.33c-11.51-8.72-13.76-11.1-14-15.3a30.34,30.34,0,0,0,4.86-.06,32.06,32.06,0,0,0,4.87-1.74c-3.65-4.35-7.65-2.18-11.62-2.82V87.82H272.52V63.71H289.4c5.16,0,10.32-.05,15.49,0,4.7.07,7.54,1.84,8.25,5,.76,3.35-.61,5.25-5.52,7.65-.27.13-.44.44-.95,1l11.48,9.8Z"/><path class="cls-2" d="M407.76,87.9H393.21V78.23c-3.6,3-6.42,5.28-9,7.71s-5.34,2.86-8.34.33-6.45-5-10.36-8v9.51H359.1V64h6.61L383,79.3l18.65-15.4h6.11Z"/><path class="cls-2" d="M354.91,63.74c-.26,1.9-.41,3-.66,4.75H333.1c0,4.32-.23,7.93.07,11.5.26,3.1,2.64,3.88,5.45,3.85,5.15-.06,10.3,0,15.74,0l.45,3.71a17,17,0,0,1-3,.55c-7.66,0-15.34.13-23,0-7.44-.14-12-5-11.92-12.48s4.42-11.74,11.86-11.82C337.25,63.67,345.73,63.74,354.91,63.74Z"/><path class="cls-2" d="M178.07,63.81l2.89.44-1,3.63-15.84.51V82.65c6.82,2.23,13.68.52,20.71,1.37l.53,3.81H147.74c0-4.66-.33-9.42.08-14.11.56-6.27,4.69-9.75,11-9.94,2.5-.07,5,0,7.49,0l.2.19.22-.19h8.88Z"/><path class="cls-2" d="M448.06,63.72V68H428.19c-2.53,5.2-2.23,9.91-.16,15.36h20v4.26A3.73,3.73,0,0,1,447,88c-8,0-16,.11-24,0-7.5-.08-12.39-4.86-12.48-12-.1-7.5,4.7-12.3,12.49-12.36C431.26,63.67,439.55,63.72,448.06,63.72Z"/><path class="cls-2" d="M285.65,123.34v-8.86h41.17v8.86Z"/><path class="cls-2" d="M259.2,74.54V87.78H244V68.06l.09-1.22,1.93.24c1.92,1.92,3.68,4.29,6.91,2.3L254.44,68h1.61C254.9,71.3,258.41,72.25,259.2,74.54Z"/><path class="cls-3" d="M240.81,105.45c-2.61-2-4.65-4.16-3.47-7.8,5.19-4.12,11-2.43,16.62-2.46l.55,1.35Z"/><path class="cls-2" d="M354.58,73v3.84h-18.9c-.17-1.07-.36-2.27-.6-3.84Z"/><path class="cls-2" d="M429.14,76.77c-.08-1.21-.16-2.3-.26-3.77H448c.08,1,.17,2.24.28,3.77Z"/><path class="cls-2" d="M166.05,76.79c-.06-1.3-.11-2.38-.17-3.83H185c.07,1.15.14,2.34.23,3.83Z"/><path class="cls-2" d="M252,64l1.41-.22h5.86l.21.19.21-.19h10.93V68H259.85l-3.8.08L256,68c-.59-.65-1.15-1.33-1.77-2S252.76,64.67,252,64Z"/><path class="cls-1" d="M247.22,112l8.66,4.15-.55,1.17-8.46-3.49-.12-1.87a.29.29,0,0,1,.41,0Z"/><path class="cls-3" d="M244.09,66.84,244,68.06l-11-.92,11-1.07V66A.9.9,0,0,1,244.09,66.84Z"/><path class="cls-3" d="M256.05,68.06l3.8-.08.51,4.19c-.13.27-.64,1.32-1.16,2.37C258.41,72.25,254.9,71.3,256.05,68.06Z"/><path class="cls-3" d="M252,64c.74.7,1.5,1.37,2.21,2.09s1.18,1.31,1.77,2h-1.56l-6-2.69L244,66l.07.07c.63-.66,1.15-1.7,1.9-1.89a27.72,27.72,0,0,1,4.73-.41Z"/><path class="cls-3" d="M180,67.88l1-3.63,2.41,1.91.81-2.19.78,4Z"/><path class="cls-1" d="M171,43.53l.32,1.5-1.39,1-2.82-2.29.28-.73,3.6.48Z"/><path class="cls-1" d="M161.82,46.49l3.14,2-.62,1-3.15-2Z"/><path class="cls-1" d="M265.77,38.56l-.09.39-2.62,2-1.86-.9Z"/><path class="cls-4" d="M133,85.06l-.81-8Z"/><path class="cls-1" d="M171,52.44,166.2,51l.41-1.27L170.14,51Z"/><path class="cls-1" d="M172.22,37.66c.16.73.32,1.46.49,2.2l-2.16-1.31Z"/><path class="cls-1" d="M188.91,35.16,186.74,35c1.3-2.11,2.18-3,3-.17A1,1,0,0,0,188.91,35.16Z"/><path class="cls-1" d="M188.91,35.16a1,1,0,0,1,.87-.29l.93,1.65-.81.39Z"/><path class="cls-4" d="M192.3,70.55l2,2.19Z"/><path class="cls-1" d="M190.13,41.09V39.56l1.5-.28.28.77Z"/><path class="cls-4" d="M133.81,88.21l-.87-3.16Z"/><path class="cls-1" d="M172.09,51.28l1.88.51-2.55.25Z"/><path class="cls-4" d="M45.86,14,44,14.63Z"/><path class="cls-4" d="M135,93.05c-.13-.64-.27-1.28-.41-1.92Z"/><path class="cls-4" d="M135.78,96.24c-.22-.73-.44-1.45-.65-2.18C135.34,94.79,135.56,95.51,135.78,96.24Z"/><path class="cls-4" d="M190,42.67l-.37-1Z"/><path class="cls-1" d="M171,52.44,170.14,51l1.08.82a.83.83,0,0,0-.25.63Z"/><path class="cls-1" d="M247,61.09l1.07-1.15Z"/><path class="cls-1" d="M243.11,111.65l-.39-.13.14-.34A.73.73,0,0,1,243.11,111.65Z"/><path class="cls-4" d="M17.9,147.42l.82.74Z"/><path class="cls-4" d="M18.83,148.24l.92.86Z"/><path class="cls-1" d="M166.72,63.77l-.22.19-.2-.19Z"/><path class="cls-1" d="M259.71,63.76l-.21.19-.21-.19Z"/><path class="cls-4" d="M195,74l.86,1Z"/><path class="cls-4" d="M42.2,15.16l-1.29.64Z"/><path class="cls-4" d="M46.88,10.33l.78.76Z"/><path class="cls-4" d="M49.9,169.32,51,170Z"/><path class="cls-4" d="M194.27,72.85,195,74Z"/><path class="cls-5" d="M121.84,60a.69.69,0,0,1,.26.68L123.8,64a.66.66,0,0,1,.29.68c.46,2.48-1.83,5.64,1.82,7.31l.19,1.75c.31,6.12-1.69,12.46.93,16.84.65,4.69.41,8.16,1.67,11,2.35,5.18,1.87,10.6.65,15.38a39.24,39.24,0,0,0-1.24,9.47.56.56,0,0,1-.1.65l-.87,1.2.09.08H125.3c.39.93.64,1.51.89,2.09l-.36,1.6-1.13-1-3.36,3.36.74,2.78h0l-3.76-3.35c7.89-13.58,10.14-32.42,4.45-40.2l-1.72,7-2.34,1.09c-.34-8.75-1.39-17.24-8.74-23.37l1-1.81c.21-.66.8-1.55.56-2-2.1-3.6-4.35-7.11-6.56-10.65l.33-2.1a16.19,16.19,0,0,1,9.4,9.75c2.25,5.82,3.7,12,5.49,17.94l.43,1.45.73-.08.13-1.56c-.19-5,.1-10-.67-14.89C119,63,113.16,54.41,101.69,51.2A59.84,59.84,0,0,0,85,49.32c-9.9.13-14.44,5.52-14.19,15.7l.38,1,.74,1.09-3.07,2,3.22,2.37,9.53,1.46,1.29,3.23,1,1.88.6,5.86c-5.89-.33-10,.84-12.59,5.39,3.06,1.24,5.82,2.32,8.55,3.46,4.53,1.88,8.93,3.11,13.87.76,1.44-.7,4.94,0,5.64,1.19,2.55,4.3,4.32,9.07,6.38,13.66l-1.89,1.86c-1.52-2.89-2.36-6.39-6.89-7.65l.75,2.34-2.66.25-9.24-1.68c1,3,1.73,5.18,2.45,7.32l-3.55-1.44-1.33-.1V99.76c-5.18,3.27-2.66-4.14-6-3.49l-1.44,6.93c-4.72-2.93-9.71-1.35-14.6-1.23-.51,1.24-.89,2.14-1.27,3-.48-1.49-1-3-1.52-4.72l-3.7-.23-3.91,3.11L42,105.45,40.74,104a3,3,0,0,1,.1-.93l1.79-.79-.2-.56-2.75.42c-5.89,2.89-7.84,8.23-5.4,14.41l2.34-6.41,1.37.38c-.41,3.52-.83,7-1.24,10.54l-3.68.34L30.75,115l.65-8.94c2.07-3.71,4-7.49,6.25-11.1,1.4-2.27,3.63-2.44,6.14-1.74,2.66.74,5.41,1.12,8.13,1.67-.14,2.79,1,3.69,3.72,2.5l-.73-3.37,11.34-4.89L64.94,87l1-2.43-3.24.52-8.63-1.91L53.24,80l.55-1.27,3-5.51,1.6-1.6,3.17.15h3.7l1.59-4.86c2.39-7.33-1.39-15.46-8.76-16.7-5.59-1-11.48-.08-17.23,0l-3,.74L29.2,54.18l-2.43-1.45c9.12-7.64,20-7.79,30.44-7-.83-7.08-1.64-14-2.45-20.95l-2.85.13-1-3-1.46.23-.24,3.5a1.11,1.11,0,0,0-.23.52l-2.16.59L38.09,30.1l-2.23-2.22,5.78-6.12.13-.07c2.35,1.65,3.66,1,4-1.8H54.6l5.89-4.49-2.86-1.27h.07l.48-3.25L53.5,6.55l4.67-.69,1.75.19c.52,3,2.73,1.7,4.41,1.76l1.58.33.52,3.68H72.1c-.12,3.07,2.26,1.9,3.76,2.22h0c1.16,4.17,3.74,6.31,8.24,6,2.61-.2,5.25-.11,7.87-.16H92c.53,3.73,3.3,1.67,5.15,2a.69.69,0,0,1,.71.15c.17,2.34,1.79,2,3.35,1.83a.58.58,0,0,1,.65.26l2.1,1.77h0l6.07,5.93h0c-.66,3.33.7,5.31,4,6h0c.54.72,1.08,1.45,1.61,2.18l.35,1.71c.06,1.65-1.11,3.82,1.79,4.28l.21,1.68v12ZM96.91,45.85,113.84,53l-.8-4.89,2.54-1.23-3.16-.67c-3.9-10-10.65-16.94-21.36-19.49l-.4-.12-4.74-1.68-1.76-.44-2.09.66c2.33,7.06.12,13.69-1.94,20.29H94ZM69.35,79.59v-.83H62.52v.83Zm-8.8,17.76.21.7,2.83-.67-.33-1Zm8.68-5.59v-.4H67.6v.4Z"/><path class="cls-6" d="M66.87,66.93l-1.59,4.86h-3.7l2.69-2c-6.45-3.57-14.56-5-16.9-3l3.85,3,.21-.47,7,2.22-1.6,1.6c-8.44-1.63-16.46,0-24.32,3.1a18.29,18.29,0,0,0-11.65,14,44.49,44.49,0,0,0-1.22,10.34c.24,9.56,3.28,17.92,11.74,23.44a18.92,18.92,0,0,0,3.25,1.28l-1.56-3.84,3.68-.34,4,9.46-2.09.5c4,11.25,8.38,22,17.73,29.85L53,164l-.33.35c-.45-.21-1.07-.3-1.33-.65-4.43-6-11-8.53-17.43-11.62C21.26,146,12.29,136.21,8.41,122.57c-2.62-9.25-2-18.76-.17-28.18,1.26-6.63,2.22-13.39,3.51-20,.69-3.57,1.15-7.39,2.79-10.53,2.82-5.41,3.7-11.28,5.41-17,3.45-11.5,9.18-21.3,21.69-25.1l-5.78,6.12,2.23,2.22A32.74,32.74,0,0,0,24.31,53.82l2.46-1.09,2.43,1.45C23.33,58.7,19,64.44,17.93,71.8c-.88,5.87-.72,11.89-1,17.85l.17,1.78h.56l.18-1.74c2-6.47,3.43-13.25,6.27-19.35C28,62,35,58.93,43.89,60.72c4.7.94,9.21,2.75,13.85,4C60.75,65.61,63.82,66.22,66.87,66.93ZM15.36,94l-1.13.17C7.38,120.25,18.8,143,43.52,149.53l-8.69-20.81c-12.25-5.06-17.27-15.22-18-28.23C16.75,98.28,15.88,96.13,15.36,94ZM37.89,62.82c-6.83,1.91-10.55,6.81-11,12.94L46,69.21Z"/><path class="cls-5" d="M83,161.87l-3,.29H75l-1.74-2.51-1.8.89c.59,1.53,1.14,3,1.65,4.3L68.6,170.2H63.81l-3.36-3.41,3.47-1.69,4.5,1-1.51-2-.36-3.91-2.88,1c-4.25-4.42-2.51-9.9-2.4-16.2l-6,4.5V135.57c-9,.36-10,0-12.37-5.22l3.5-4.45c.46-7.22,1.63-14.39,5.58-20.8,3.29.72,1.39,3.32,1.85,5.07l-3,7.9-.61,3-.22,2c-.09,1.53-.19,3-.29,4.81l3.2.27c3-.73,6.19-1.08,9-2.28A17.19,17.19,0,0,1,76.4,126a83.89,83.89,0,0,0,8.47,2.79l1.24,1.57.8-1.94,3.68-3.9c.89,1.18,1.51,2.07,2.2,2.92,3.4,4.15,2.29,7.41-3.06,8.27-2.57.4-5.25.07-7.76.07l-6.89,7.86-1.28-.82c1.08-2.59,2.17-5.17,3.51-8.36-1.52.27-3,.16-3.18.63-3.16,6.41-5.72,13-6.27,21.29l10.76.41,1.42-.33,6.68-1.74C88.58,158.73,84.45,159.6,83,161.87Z"/><path class="cls-5" d="M107.94,150a.69.69,0,0,1-.65.31h-3.82l.53,1.86h0c-1.57.15-3.69-.85-4,1.9l-.35.19h-.41l-8.19,1,.06.6-4.31-1.1,4-3.7L94,150l1-1-.15.07a11.79,11.79,0,0,0,3.45-.32,54.62,54.62,0,0,0,19.24-13.87c.4.77,1.12,1.54,1.11,2.31a36.45,36.45,0,0,1-.66,4.88h0L116,144h0c-3.07-.21-5.18.92-5.81,4.14h0Z"/><path class="cls-6" d="M128.11,126.42a39.24,39.24,0,0,1,1.24-9.47c1.22-4.78,1.7-10.2-.65-15.38-1.26-2.79-1-6.26-1.67-10.95-2.62-4.38-.62-10.72-.93-16.84a4.56,4.56,0,0,1,.7,1.28c1.62,9.57,3.46,19.11,4.72,28.73C132.53,111.56,131.79,119.26,128.11,126.42Z"/><path class="cls-6" d="M63.85,170.2H68.6l4.47-5.36c-.51-1.34-1.06-2.77-1.65-4.3l1.8-.89L75,162.16h5l-4.86,2c1,2.77,2,5.45,3.33,9.08C73,172.56,68.18,172.86,63.85,170.2Zm11.75,1c-.12-.26-.19-.66-.38-.75s-.54.15-.81.24l.51,1Z"/><path class="cls-6" d="M92,19.88c-2.62.05-5.26,0-7.87.16-4.5.34-7.08-1.8-8.24-6Z"/><path class="cls-6" d="M58.17,5.86l-4.67.69,4.74,4.35-.48,3.25L47.83,4.43A14.23,14.23,0,0,1,58.17,5.86Z"/><path class="cls-6" d="M63.92,165.11l-3.47,1.69,3.36,3.41-11.17-5.82L53,164c1.18.57,2.79-2.18,3.92.75.35.91,2.8.56,3-1.63Z"/><path class="cls-6" d="M86.74,154.73l4.31,1.1-.06-.6,8.19-1L83,161.87c1.49-2.27,5.62-3.14,3.79-7.17Z"/><path class="cls-6" d="M57.69,14.16l2.86,1.27-5.89,4.49H45.83a49.88,49.88,0,0,0,5.44-2C53.49,16.85,55.56,15.44,57.69,14.16Z"/><path class="cls-6" d="M121.84,60l-3.73-.39V47.7Q120,53.88,121.84,60Z"/><path class="cls-6" d="M72.08,11.82H66.43l-.52-3.68Z"/><path class="cls-6" d="M118,142.1a36.45,36.45,0,0,0,.66-4.88c0-.77-.71-1.54-1.11-2.31l.79-1,3.76,3.35Z"/><path class="cls-6" d="M122.08,137.19l-.74-2.78c1.27-1.28,2.29-2.29,3.36-3.36l1.13,1Z"/><path class="cls-6" d="M114.15,37.81c-3.31-.66-4.67-2.64-4-6Z"/><path class="cls-6" d="M110.14,31.83l-6.07-5.93Z"/><path class="cls-6" d="M110.09,148.23c.63-3.22,2.74-4.35,5.81-4.14Z"/><path class="cls-6" d="M125.91,72c-3.65-1.67-1.36-4.83-1.82-7.31Z"/><path class="cls-6" d="M97.23,21.86c-1.85-.33-4.62,1.73-5.15-2Z"/><path class="cls-6" d="M45.8,19.89c-.37,2.78-1.68,3.45-4,1.8Z"/><path class="cls-6" d="M64.33,7.81C62.65,7.75,60.44,9,59.92,6.05Z"/><path class="cls-6" d="M117.9,46c-2.9-.46-1.73-2.63-1.79-4.28Z"/><path class="cls-6" d="M104,152.12l-.53-1.86h3.82Z"/><path class="cls-6" d="M99.94,154.05c.33-2.75,2.45-1.75,4-1.9Z"/><path class="cls-6" d="M75.86,14c-1.5-.32-3.88.85-3.76-2.22Z"/><path class="cls-6" d="M123.8,64l-1.7-3.32Z"/><path class="cls-6" d="M101.29,23.84c-1.56.19-3.18.51-3.35-1.83Z"/><path class="cls-6" d="M115.76,40l-1.61-2.18Z"/><path class="cls-6" d="M116,144.05l2-1.93Z"/><path class="cls-6" d="M107.94,150l2.13-1.71Z"/><path class="cls-6" d="M104,25.89l-2.08-1.79Z"/><path class="cls-6" d="M126.19,130.44c-.25-.58-.5-1.16-.89-2.09h1.93Z"/><path class="cls-6" d="M127.14,128.27l.87-1.2Z"/><path class="cls-3" d="M177.72,106.91l-7.41,4.65v-4.88l6.38-1.64Z"/><path class="cls-3" d="M186,102.16c-.94,2.36-2.22,4.24-5.22,3.78Z"/><path class="cls-3" d="M190,99.94c-.19,2.75-2.29,2-3.9,2.14Z"/><path class="cls-1" d="M244,66l4.44-.67,6,2.69-1.51,1.36L246,67.08l-1.93-.24A.9.9,0,0,0,244,66Z"/><path class="cls-3" d="M246,67.08l6.91,2.3C249.7,71.37,247.94,69,246,67.08Z"/><path class="cls-4" d="M86.74,154.73h0l-6.68,1.74-.89-.71-.53,1-10.76-.41c.55-8.28,3.11-14.88,6.27-21.29.23-.47,1.66-.36,3.18-.63-1.34,3.19-2.43,5.77-3.51,8.36l1.28.82,6.9-7.85c2.51,0,5.19.33,7.76-.07,5.35-.86,6.46-4.12,3.06-8.27-.69-.85-1.31-1.74-2.2-2.92l-3.68,3.9-2,.37A85.32,85.32,0,0,1,76.43,126a17.19,17.19,0,0,0-14.49-.09c-2.82,1.2-6,1.55-9,2.28L50,123.09l.26-2.06c2.18-.58,2.08-1.63.61-3l3-7.9c.76,4.53,2.13,8.74,5.64,11.5L60.75,105c.38-.91.76-1.81,1.27-3,4.89-.12,9.88-1.7,14.6,1.23.64,6,1.28,12,2,19.11L83.81,113l.39.3.73,1.58.64-.18v-2.19l.33-.38,1.21,2.28c1.61,3.43-.21,8.26,3.39,10.88l1.75-.54q-1.17-5.2-2.32-10.42l-1-3.49c-.72-2.14-1.43-4.28-2.45-7.32l9.24,1.68c3.51,4.34,6.07,9,5.27,14.9l-.64.47.59.53-2.67,12.2c-.68,1.35-.59,2.94-1.16,4.25-2,4.56-4.18,9-6.3,13.51Zm-13-10.83-.88,1.94-1,2.94.83.25,1-2,.76-1.54Zm-2.2,6.39c-.06.27-.11.54,0,0,0,.55,0,.28-.05,0Z"/><path class="cls-4" d="M116.83,112l-1.47,4.08-1.1,2.14c-2,4.77-5.49,7.86-11,10.56,3.49-7.18,5.3-13.58,3.13-20.45-2.06-4.59-3.83-9.36-6.38-13.66-.7-1.17-4.2-1.89-5.64-1.19C89.43,95.83,85,94.6,80.5,92.72,77.77,91.58,75,90.5,72,89.26c2.55-4.55,6.7-5.72,12.59-5.39L83.94,78l-1-1.88L81.65,72.9c10.06-1.34,19.46.78,28.36,5.45,7.35,6.13,8.4,14.62,8.74,23.37-.06.1-.2.23-.17.29a3.14,3.14,0,0,0,.34.55c-.33,2.45-.65,4.91-1,7.36a2.13,2.13,0,0,1-.76.4"/><path class="cls-4" d="M33.07,121.41l1.56,3.84A19.65,19.65,0,0,1,31.38,124c-8.46-5.52-11.5-13.88-11.74-23.44a44.49,44.49,0,0,1,1.22-10.34A18.27,18.27,0,0,1,32.49,76.34c7.86-3.15,15.88-4.73,24.32-3.1l-3,5.51L53.24,80l.85,3.2,8.63,1.91L64.94,87l1.31,2.14L54.91,94.07l-3,.87c-2.72-.55-5.47-.93-8.13-1.67S39,92.74,37.64,95c-2.23,3.61-4.18,7.39-6.25,11.1A54.52,54.52,0,0,0,29,112.7c-.14.61,1.12,1.56,1.73,2.35Z"/><path class="cls-4" d="M63.92,165.11l-4-2-3.48-2.28C47.07,153,42.64,142.28,38.69,131l2.09-.5-4-9.46c.41-3.51.83-7,1.24-10.54l-1.37-.38-2.34,6.41c-2.44-6.18-.49-11.52,5.4-14.41l1.16.93c0,.31-.08.62-.1.93l-.42,2.12,1.72-.68,9.58-2.27L52,105.1c-4,6.41-5.12,13.58-5.58,20.8l-3.5,4.45c2.35,5.17,3.4,5.58,12.37,5.22v13.94l6-4.5c-.11,6.3-1.85,11.78,2.4,16.2l3.24,2.88,1.51,2ZM42.57,108.89l-.67-1.36-2.09,1.38.57,1Z"/><path class="cls-4" d="M70.81,65C70.56,54.84,75.1,49.45,85,49.32a59.84,59.84,0,0,1,16.69,1.88C113.16,54.41,119,63,120.81,74.36c.77,4.88.48,9.92.67,14.89l-1.29.19c-1.79-6-3.24-12.12-5.49-17.94-1.68-4.34-4.68-8-9.43-9.62-4.85-2.86-9.88-1.66-14.78-.41C85.27,62.81,80.17,64.62,75,66.22Z"/><path class="cls-4" d="M66.87,66.93c-3.05-.71-6.12-1.32-9.13-2.16-4.64-1.3-9.15-3.11-13.85-4C35,58.93,28,62,24.08,70.35c-2.84,6.1-4.23,12.88-6.27,19.35a2.32,2.32,0,0,0-.91,0c.31-6,.15-12,1-17.85C19,64.44,23.33,58.7,29.2,54.18L37.87,51c1.49,1.74,2.48,1.42,3-.74,5.75-.06,11.64-.93,17.23,0C65.48,51.47,69.26,59.6,66.87,66.93Z"/><path class="cls-4" d="M91.06,26.73c10.71,2.55,17.46,9.46,21.36,19.49l.62,1.9.8,4.89L96.91,45.85c-.67-2.34-1.64-2.54-2.93-.41H80.13c2.06-6.6,4.27-13.23,1.94-20.29l2.09-.66,1.76.44,4.74,1.68-1,.75,1,1.08Z"/><path class="cls-4" d="M26.77,52.73l-2.46,1.09A32.76,32.76,0,0,1,38.09,30.1l8.69-3.31.52,1.78,1-.76.61-1.61a1.11,1.11,0,0,1,.23-.52l2.74-.75,2.85-.13c.81,7,1.62,13.87,2.45,21C46.75,44.94,35.89,45.09,26.77,52.73Z"/><path class="cls-4" d="M118.32,133.88l-.79,1a54.62,54.62,0,0,1-19.24,13.87,11.79,11.79,0,0,1-3.45.32l7.21-16.83a46.41,46.41,0,0,0,5.37-2.69C113.7,125.32,118.5,120,119,112q1-4.71,2-9.44l.06-1.89,1.72-7C128.46,101.46,126.21,120.3,118.32,133.88Z"/><path class="cls-6" d="M119,112c-.5,8.07-5.3,13.35-11.58,17.58a46.41,46.41,0,0,1-5.37,2.69q-3.6,8.39-7.21,16.83L95,149l-1,1-3.18,1c2.12-4.49,4.33-8.95,6.3-13.51.57-1.31.48-2.9,1.16-4.25L101,121v-1c.8-5.87-1.76-10.56-5.27-14.9l2.66-.25,6.68,13c-.17-2.46-.35-5-.54-7.65l1.89-1.86c2.17,6.87.36,13.27-3.13,20.45,5.52-2.7,9-5.79,11-10.56l1.1-2.14,1.47-4.08.31-1.68a2.13,2.13,0,0,0,.76-.4Z"/><path class="cls-6" d="M75,66.22c5.15-1.6,10.25-3.41,15.47-4.75,4.9-1.25,9.93-2.45,14.78.41l-.33,2.1c-5.59-1.47-8.44-.09-11.56,5.25l17.56,7.35-1,1.81c-8.9-4.67-18.3-6.79-28.36-5.45L72,71.48l-3.22-2.37,3.07-2,2.61-.73h.27Zm11.86,3.61,4.06-3.5-.7-1.43L74,69.31l.37,2Z"/><path class="cls-4" d="M110.94,76.58,93.38,69.23c3.12-5.34,6-6.72,11.56-5.25,2.21,3.54,4.46,7.05,6.56,10.65C111.74,75,111.15,75.92,110.94,76.58Z"/><path class="cls-6" d="M83.81,113l-5.15,9.34c-.76-7.15-1.4-13.13-2-19.11L78.1,96.3c3.3-.65.78,6.76,6,3.49v9.51Zm-.34-9-4.6-1c.54,4.2,1,7.67,1.44,11.15l.83.15c.73-3.3,1.47-6.56,2.33-10.37Z"/><path class="cls-6" d="M52,105.1l-.38-1.92,3.91-3.11,3.7.23c.57,1.75,1,3.23,1.52,4.72l-1.26,16.65c-3.51-2.76-4.88-7-5.64-11.5C53.39,108.42,55.29,105.82,52,105.1Zm3-1.69c-.36,3.43-.25,6.32,2.46,9.26.59-3.55,1.06-6.39,1.62-9.79Z"/><path class="cls-1" d="M58.41,71.64l-7-2.22-.21.47-3.85-3c2.34-2,10.45-.59,16.9,3l-2.69,2Z"/><path class="cls-4" d="M104.49,110.23c.19,2.6.37,5.19.54,7.65l-6.68-13-.75-2.34C102.13,103.84,103,107.34,104.49,110.23Z"/><path class="cls-4" d="M30.75,115.05c-.61-.79-1.87-1.74-1.73-2.35a55.09,55.09,0,0,1,2.38-6.59Z"/><ellipse class="cls-6" cx="65.94" cy="79.17" rx="4.83" ry="0.59"/><path class="cls-6" d="M51.92,94.94l3-.87.73,3.37C52.89,98.63,51.78,97.73,51.92,94.94Z"/><path class="cls-6" d="M87.11,114.38,85.9,112.1l-.55-2.73,3.55,1.44,1,3.49Z"/><path class="cls-6" d="M51.91,24.93l-2.74.75.24-3.5L50.87,22Z"/><path class="cls-4" d="M85.35,109.37l.55,2.73-.33.38-1.37.79-.39-.3.21-3.7Z"/><path class="cls-6" d="M64.94,87l-2.22-1.91L66,84.61Z"/><path class="cls-4" d="M94,45.44c1.29-2.13,2.26-1.93,2.93.41Z"/><path class="cls-6" d="M60.55,97.35l2.71-1,.33,1L60.76,98Z"/><path class="cls-4" d="M40.88,50.21c-.53,2.16-1.52,2.48-3,.74Z"/><path class="cls-5" d="M121.05,100.67l-.06,1.89h-2.11a3.14,3.14,0,0,1-.34-.55c0-.06.11-.19.17-.29Z"/><path class="cls-6" d="M40.84,103.08l-1.16-.93,2.75-.42.2.56Z"/><path class="cls-4" d="M120.19,89.44l1.29-.19-.13,1.56-.73.08Z"/><path class="cls-6" d="M113,48.12l-.62-1.9,3.16.67Z"/><path class="cls-4" d="M48.94,26.2l-.61,1.61-1,.76-.52-1.78Z"/><path class="cls-4" d="M75,66.22l-.21.16h-.27L71.19,66l-.38-1Z"/><path class="cls-4" d="M71.19,66l3.35.36-2.61.73Z"/><path class="cls-6" d="M42,105.45l-1.72.68L40.7,104Z"/><path class="cls-6" d="M69.23,91.76H67.59v-.4h1.63Z"/><path class="cls-4" d="M91.06,26.73l-.33,1.71-1-1.08,1-.75Z"/><path class="cls-6" d="M82.9,76.17l1,1.88Z"/><path class="cls-6" d="M53.24,80l.55-1.27Z"/><path class="cls-6" d="M85.92,24.93l-1.76-.44Z"/><path class="cls-4" d="M15.36,94c.52,2.16,1.39,4.31,1.51,6.49.69,13,5.71,23.17,18,28.23l8.69,20.81C18.8,142.92,7.38,120.22,14.23,94.14Z"/><path class="cls-4" d="M37.89,62.82,46,69.21,26.9,75.76C27.34,69.63,31.06,64.73,37.89,62.82Z"/><path class="cls-5" d="M56.42,160.88l3.48,2.28c-.21,2.19-2.66,2.54-3,1.63-1.13-2.93-2.74-.18-3.92-.75Z"/><path class="cls-4" d="M16.9,89.65a2.78,2.78,0,0,1,.91,0l-.18,1.74h-.56Z"/><path class="cls-4" d="M50,123.09l2.91,5.08-3.2-.27Z"/><path class="cls-6" d="M66.91,164.09l-3.24-2.88,2.88-1Z"/><path class="cls-4" d="M50.89,118.07c1.47,1.33,1.57,2.38-.61,3Z"/><path class="cls-6" d="M84.9,128.77l2-.37-.8,1.94Z"/><path class="cls-7" d="M78.65,156.77l.53-1,.89.71Z"/><path class="cls-4" d="M94,150l1-1Z"/><path class="cls-5" d="M75.6,171.24l-.68.48-.51-1c.27-.09.61-.32.81-.24S75.48,171,75.6,171.24Z"/><path class="cls-5" d="M87.11,114.38l2.82-.08q1.16,5.2,2.32,10.42l-1.75.54C86.9,122.64,88.72,117.81,87.11,114.38Z"/><path class="cls-7" d="M84.2,113.27l1.37-.79v2.19l-.64.18Z"/><path class="cls-6" d="M73.59,147l-1,2-.83-.25,1-2.94Z"/><path class="cls-1" d="M71.49,150.29c0,.28.06.55,0,0C71.38,150.83,71.43,150.56,71.49,150.29Z"/><path class="cls-5" d="M73.59,147l-.78-1.2.88-1.94.66,1.6Z"/><path class="cls-7" d="M101,120.07v1l-.59-.53Z"/><path class="cls-5" d="M73.69,143.9l.66,1.6Z"/><path class="cls-5" d="M118.88,102.6H121q-1,4.73-2,9.44l-1.1-2C118.23,107.51,118.55,105.05,118.88,102.6Z"/><path class="cls-7" d="M117.14,110.36l-.31,1.68Z"/><path class="cls-4" d="M42.57,108.89l-2.19,1-.57-1,2.09-1.38Z"/><path class="cls-1" d="M86.88,69.83,74.41,71.35l-.37-2,16.2-4.41.7,1.43Z"/><path class="cls-1" d="M83.47,103.93c-.86,3.81-1.6,7-2.33,10.26l-.83-.15c-.45-3.48-.9-7-1.44-11.15Z"/><path class="cls-1" d="M55,103.41l4.08-.53c-.56,3.4-1,6.24-1.62,9.79C54.76,109.73,54.65,106.84,55,103.41Z"/></svg>