<svg id="Layer_1" data-name="Layer 1" xmlns="http://www.w3.org/2000/svg" viewBox="0 0 295.18 124.24"><defs><style>.cls-1{fill:#757575;}.cls-2{fill:#325e89;}</style></defs><title>glacierrafting-dark</title><path class="cls-1" d="M97.48,65.07a80.88,80.88,0,0,0,.26,8.09,33.4,33.4,0,0,1-6.23,2.93,20.71,20.71,0,0,1-7.09,1.32A15,15,0,0,1,69.08,62.76c0-.31,0-.62,0-.93A16.4,16.4,0,0,1,73.91,50a16.17,16.17,0,0,1,12-4.94A19.86,19.86,0,0,1,97.79,49a22.78,22.78,0,0,1-5.64,4.2,11.18,11.18,0,0,0-3.8-3.2,10.23,10.23,0,0,0-4.89-1.29A14.89,14.89,0,0,0,80,49q-4.16,3.57-4.15,11.49,0,6.48,2.37,9.76T86,73.52a15.45,15.45,0,0,0,4.87-.72,40.33,40.33,0,0,0,.62-7.6H85.54l2.28-3.57c2.86.21,5.29.32,7.29.31s3.65,0,5-.09L98.5,65.07Z"/><path class="cls-1" d="M105.93,76.87v-1a41.69,41.69,0,0,0,.71-8.85V55.46a39.1,39.1,0,0,0-.71-8.9v-1h7.77v1a22.85,22.85,0,0,0-.51,4.2c-.13,2.12-.2,3.73-.2,4.83V67.53q0,3.27.27,6c.56.06,1.74.08,3.53.08,4.71,0,8.2-.47,10.46-1.43h.85l-.8,4.74Z"/><path class="cls-1" d="M150.27,66.32h-9.52q-1.47,5.1-1.74,6.28a15.13,15.13,0,0,0-.27,3.29v1h-7.51v-1Q133.56,74.29,137,64t4.51-13.62a29.45,29.45,0,0,0,1.25-4.8l6.89-.67q0,1.7,2.95,9.74,5.51,15,7.64,18.47a9.86,9.86,0,0,0,2.33,2.77v1h-9.48v-1Q153.09,74,150.27,66.32Zm-5-15.11q-1.47,4.24-3.71,11.85h7.74q-.27-.77-.81-2.55-1.11-4-3.18-9.3Z"/><path class="cls-1" d="M171.09,60.11q0,6.17,3.11,9.57a10.12,10.12,0,0,0,7.8,3.39q3.48,0,9.83-3.22l1.66,2.42q-3.36,2.19-4.59,2.86a21.24,21.24,0,0,1-3.79,1.47,17.12,17.12,0,0,1-5.12.81,15.44,15.44,0,0,1-11-4.34q-4.56-4.33-4.56-11.62A15,15,0,0,1,169.6,49.6a19.18,19.18,0,0,1,13-4.56,23.25,23.25,0,0,1,10.1,2.33,14.35,14.35,0,0,1-2.55,5.5,21.37,21.37,0,0,0-5.58-3.16,14.1,14.1,0,0,0-4.59-.87,27.08,27.08,0,0,0-3.6.22,12.52,12.52,0,0,0-3.82,4.39A13.73,13.73,0,0,0,171.09,60.11Z"/><path class="cls-1" d="M208.45,55.9V66.59a40.84,40.84,0,0,0,.72,9.3v1h-7.78v-1a40.84,40.84,0,0,0,.72-9.3V55.46a38,38,0,0,0-.72-8.9v-1h7.78v1a22.45,22.45,0,0,0-.51,4.32C208.52,53.07,208.45,54.74,208.45,55.9Z"/><path class="cls-1" d="M229.91,48.75a25.23,25.23,0,0,0-2.87.09c0,1.37,0,4.73,0,10.06l11.49-.22-1.57,3.71H236a26.19,26.19,0,0,0-5-.36,40.06,40.06,0,0,0-4.09.09v2.37c0,5,0,8,.13,9,.69.06,1.82.08,3.42.08a48.16,48.16,0,0,0,5.75-.4,21.1,21.1,0,0,0,4.91-1H242l-.85,4.74H219.76v-1a41.78,41.78,0,0,0,.76-9V55.59a41.78,41.78,0,0,0-.76-9v-1l20.79-.14-1.34,3.94h-.85A36.29,36.29,0,0,0,229.91,48.75Z"/><path class="cls-1" d="M253.55,45.67l6.39-.09c3.85,0,6.83.58,8.92,1.74S272,50.44,272,53.2a8.88,8.88,0,0,1-2.55,6.64,10.77,10.77,0,0,1-6.79,2.91l5.1,5.94a43.37,43.37,0,0,0,5,5.23A9.93,9.93,0,0,0,276,75.8v1.07h-7.82q-.63-.93-3.09-4.07L257,63a4.82,4.82,0,0,1-.76,0v6.21a24.06,24.06,0,0,0,.71,6.71v1h-8v-1a17.76,17.76,0,0,0,.9-6.26v-16a25.79,25.79,0,0,0-.76-7v-1ZM265.4,54c0-2.08-.46-3.52-1.37-4.31a6.36,6.36,0,0,0-4.24-1.19c-1.93,0-3.07,0-3.42,0-.06.89-.09,4.77-.09,11.62a19.56,19.56,0,0,0,2.54.14q3.58,0,5.08-1.59A6.62,6.62,0,0,0,265.4,54Z"/><path class="cls-1" d="M56.6,99.18h-5V104H49.89V89h5.7A6.52,6.52,0,0,1,60,90.28,4.61,4.61,0,0,1,61.5,94a5.25,5.25,0,0,1-.86,3.08,4.83,4.83,0,0,1-2.49,1.79l3.5,5.09H59.71Zm2.15-2.5a3.22,3.22,0,0,0,1.1-2.63,3.09,3.09,0,0,0-1.1-2.57,5,5,0,0,0-3.16-.87h-4v7h4A4.89,4.89,0,0,0,58.75,96.68Z"/><path class="cls-1" d="M73.58,100.17,71.91,104H70.09l6.72-15h1.78l6.71,15H83.43l-1.67-3.79Zm4.07-9.25-3.34,7.6H81Z"/><path class="cls-1" d="M96.26,90.61v5.28h7v1.65h-7V104H94.55V89h9.53v1.65Z"/><path class="cls-1" d="M118.07,90.61V104h-1.72V90.61h-4.87V89H123v1.65Z"/><path class="cls-1" d="M154.48,89.5A8.15,8.15,0,0,1,157,91.11l-1,1.3A6.45,6.45,0,0,0,154,91a6.19,6.19,0,0,0-5.47.29,6,6,0,0,0-2.21,2.14,5.87,5.87,0,0,0,0,6,6,6,0,0,0,2.22,2.15,6.14,6.14,0,0,0,3.07.79,6.27,6.27,0,0,0,2.38-.47,6.47,6.47,0,0,0,2-1.33l1.06,1.18a8.91,8.91,0,0,1-2.59,1.69,7.57,7.57,0,0,1-3,.62,7.67,7.67,0,0,1-3.89-1,7.77,7.77,0,0,1-2.82-2.76,7.36,7.36,0,0,1-1-3.83,7.12,7.12,0,0,1,1-3.78A7.67,7.67,0,0,1,147.69,90a8,8,0,0,1,3.93-1A7.74,7.74,0,0,1,154.48,89.5Z"/><path class="cls-1" d="M177,89.93a7.62,7.62,0,0,1,2.85,2.73,7.39,7.39,0,0,1,0,7.62A7.67,7.67,0,0,1,177,103a8.19,8.19,0,0,1-7.89,0,7.67,7.67,0,0,1-2.85-2.75,7.44,7.44,0,0,1,2.85-10.36,8.25,8.25,0,0,1,7.89,0Zm-7,1.42a6.13,6.13,0,0,0-2.24,2.14,5.69,5.69,0,0,0,0,6,6.17,6.17,0,0,0,10.54,0,5.65,5.65,0,0,0,.83-3,5.48,5.48,0,0,0-.83-3,6.08,6.08,0,0,0-2.22-2.14,6,6,0,0,0-3-.8A6.05,6.05,0,0,0,170,91.35Z"/><path class="cls-1" d="M204.54,104V91.64l-5.46,10.77h-1l-5.5-10.81V104H191V89h2.12l5.49,10.81L204,89h2.1v15Z"/><path class="cls-1" d="M227.53,90.28A4.64,4.64,0,0,1,229.06,94a4.89,4.89,0,0,1-1.53,3.86,6.25,6.25,0,0,1-4.32,1.36h-3.92V104h-1.71V89h5.63A6.39,6.39,0,0,1,227.53,90.28Zm-8.24,7.3h3.86a4.82,4.82,0,0,0,3.16-.9,3.22,3.22,0,0,0,1.1-2.63,3.09,3.09,0,0,0-1.1-2.57,5,5,0,0,0-3.16-.87h-3.86Z"/><path class="cls-1" d="M239.28,100.17,237.6,104h-1.82l6.73-15h1.78l6.7,15h-1.86l-1.67-3.79Zm4.07-9.25L240,98.52h6.72Z"/><path class="cls-1" d="M271,104l-9-12v12h-1.72V89H262l9,12V89h1.69v15Z"/><path class="cls-1" d="M289.48,104h-1.69V98.89L282,89h1.78l4.87,7.83,4.8-7.83h1.75l-5.7,9.85Z"/><path id="final-duder" class="cls-2" d="M94.33,31.47a27.82,27.82,0,0,0-2.67-6.1c-.52-.78-1.15-1.72-1.72-2.47a20.29,20.29,0,0,1-2.2-3.44,2.06,2.06,0,0,0-.49-.61,2.44,2.44,0,0,1-.69-1.24c-.21-.86-.44-1.71-.68-2.56a2.28,2.28,0,0,0-.36-.83,13.72,13.72,0,0,0-1.37-1.48c-.24-.22-.32-.19-.66-.28a3.51,3.51,0,0,0-.79-.12H80.55a.36.36,0,0,0-.17.07,2.57,2.57,0,0,0-1.8,2.15v.58a1,1,0,0,0-.82.3.83.83,0,0,0-.09.79,11.5,11.5,0,0,0,1,1.3,6.43,6.43,0,0,0,.57.6c-.16.25-.53.72-.68.93l-5.17,7-.46-.12-1.44-.36c-.71-.15-2.18-.44-2.79-.49L68,25a2.67,2.67,0,0,0,0-.4A43.11,43.11,0,0,0,62,24c-.09,0-.17-.17-.22-.26a2.47,2.47,0,0,1,.34-1,1.05,1.05,0,0,1,.39-.27A7,7,0,0,1,64,22.19h.34a1.37,1.37,0,0,0,.74-.34,1.77,1.77,0,0,0,.23-.59,12.9,12.9,0,0,1,.39-1.48c.06-.25.09-.5.13-.76v-.23c.7-.32.44-.91.43-1.43v-.43l.72-.31a.91.91,0,0,0,.7-1.08.89.89,0,0,0-.17-.37c-.21-.41-.51-.76-.71-1.17a5,5,0,0,1-.44-1.24,3,3,0,0,1,1.23-1.95l.87-.29c.28-.09.3-.18.78-.34-.36-.28-.3-.52-.54-.6a1.45,1.45,0,0,1-1-1.29,11.77,11.77,0,0,0-2-4.48C62.78-.29,55.44-1.82,51.12,3a21.73,21.73,0,0,0-1.71,2.24,2,2,0,0,0-.25.86c-.09.73-.15,1.45-.22,2.18a1.69,1.69,0,0,1,0,.45,5.81,5.81,0,0,0,.14,3.64c.05.21.09.42.13.65l1.12.29a6.65,6.65,0,0,0-.24,2.7c.19.66.23.81-.18,1,0,.11.09.22.13.32a2.8,2.8,0,0,1,.76-.17c.21.41-.32.52-.35.89l.58.63-.4.37a3,3,0,0,0,.11.5l.68.57.62-.83c.11.16.24.25.24.33A7.14,7.14,0,0,1,51.72,22H51.1c-.07.19-.14.39-.23.59-.61,1.34,0,1.47-1.21,1.9-1.51,0-4.7.87-5.24,1.54v.43a4.65,4.65,0,0,0-1.79.93,12.5,12.5,0,0,0-3.36,3.44A66.45,66.45,0,0,0,35.68,38c-.89,2-2.24,4.82-2.55,5.61A40.65,40.65,0,0,0,31.47,50C31.06,52.15,34.1,59.6,35,61.54c1,2.14,1.91,3.9,2.23,4.44.88,1.45.33,2.34.24,3.48a4.94,4.94,0,0,0,.66,2.89l.32.64c-2.59,3.59-5.13,7.16-7.74,10.68a10.6,10.6,0,0,1-2.07,2c-1.77,1.38-3.59,2.71-5.43,4s-3.94,2.66-5.87,4A29,29,0,0,0,12,98.34q-5.11,5.91-10.16,11.87a8.79,8.79,0,0,0-1.45,2.4,4.74,4.74,0,0,0,.84,5.22c1.85,2,3.88,3.78,5.9,5.58a3.54,3.54,0,0,0,3.54.62,5.6,5.6,0,0,0,2.89-2q5.3-7.16,10.54-14.35a25.9,25.9,0,0,0,3.25-6.21C28.81,97.73,29.91,93.87,31,90a11.55,11.55,0,0,1,1.52-3.6c2.63-3.78,5.28-7.53,7.92-11.29.12-.17.27-.39.44-.44a3.56,3.56,0,0,0,1.63-1.15c.48-.48.85-1,1.34-1.49,1.88,0,2.52-3.28,2-4.44.21-.29.39-.57.6-.83,2.29-3,18.56-23.3,23.85-30.05L71,36l4.9.26c1.28.08,3.94-.11,4.61-.13,1.27,0,4.85-.24,6.27-.46,1.08-.17,2.28-.41,3.09-.6s3.37-1.23,4.13-2.23A1.38,1.38,0,0,0,94.33,31.47ZM43.66,65.72a1.7,1.7,0,0,1-1.12-1.27c-.13-.65-.38-1.45-.55-2.1s-.51-2.19-.64-2.69c-.35-1.26-1.27-4.93-1.64-6.33-.68-2.54-.5-2.62-.24-3a77.18,77.18,0,0,0,5.7-10c.08,1.24.2,2,.26,2.57,0,.34.06,0,0,.08a4.73,4.73,0,0,1-.39.87c-.87.85-1.34,4.67-1.09,5.64.11.41.18,1.09.28,1.5s.22.94.35,1.41c.08.29.24.56.3.85.19,1,1.67,6.92,2.53,7.67A54.28,54.28,0,0,1,43.66,65.72Zm43.4-36.95a21.78,21.78,0,0,1-4.38-.87c-1.33-.27-6.55-1.17-6.6-1.21s3.56-4.81,5.27-7.16a2.62,2.62,0,0,1,.34.24A15.65,15.65,0,0,1,85.05,24C86.24,25.71,87.48,28.76,87.06,28.77Z"/></svg>