<svg id="Layer_1" data-name="Layer 1" xmlns="http://www.w3.org/2000/svg" viewBox="0 0 295.18 124.24"><defs><style>.cls-1{fill:#fff;}.cls-2{fill:#325e89;}</style></defs><title>glacierrafting</title><path class="cls-1" d="M97.48,65.07a79.9,79.9,0,0,0,.26,8.09,33,33,0,0,1-6.23,2.93,20.75,20.75,0,0,1-7.09,1.32A15,15,0,0,1,69.09,61.83,16.37,16.37,0,0,1,73.91,50a16.15,16.15,0,0,1,12-4.94A19.82,19.82,0,0,1,97.79,49a22.89,22.89,0,0,1-5.64,4.2A11.26,11.26,0,0,0,88.35,50a10.25,10.25,0,0,0-4.89-1.29A15.06,15.06,0,0,0,80,49q-4.15,3.57-4.15,11.49,0,6.48,2.37,9.76T86,73.52a15.3,15.3,0,0,0,4.87-.72,40.45,40.45,0,0,0,.62-7.6H85.54l2.28-3.57q4.29.32,7.29.31c2,0,3.65,0,5-.09L98.5,65.07Z"/><path class="cls-1" d="M105.93,76.87v-1a42.21,42.21,0,0,0,.71-8.85V55.46a39.16,39.16,0,0,0-.71-8.9v-1h7.77v1a22.4,22.4,0,0,0-.51,4.2c-.13,2.12-.2,3.73-.2,4.83V67.53q0,3.27.27,6c.56.06,1.74.08,3.53.08,4.71,0,8.2-.47,10.46-1.43h.85l-.8,4.74Z"/><path class="cls-1" d="M150.27,66.32c-1.13,0-2.69,0-4.69,0s-3.61,0-4.83,0q-1.47,5.1-1.74,6.28a15.6,15.6,0,0,0-.27,3.29v1h-7.51v-1Q133.56,74.29,137,64t4.51-13.62a29.36,29.36,0,0,0,1.25-4.8l6.89-.67q0,1.7,2.95,9.74,5.51,15,7.64,18.47a10,10,0,0,0,2.33,2.77v1h-9.48v-1Q153.09,74,150.27,66.32Zm-5-15.11q-1.47,4.24-3.71,11.85h7.74q-.27-.77-.81-2.55Q147.38,56.54,145.31,51.21Z"/><path class="cls-1" d="M171.09,60.11q0,6.17,3.11,9.57A10.09,10.09,0,0,0,182,73.07q3.48,0,9.83-3.22l1.66,2.42q-3.36,2.19-4.59,2.86a21.77,21.77,0,0,1-3.79,1.47,17,17,0,0,1-5.12.81,15.45,15.45,0,0,1-11-4.34q-4.56-4.33-4.56-11.62A14.93,14.93,0,0,1,169.6,49.6a19.16,19.16,0,0,1,13-4.56,23.22,23.22,0,0,1,10.1,2.33,14.25,14.25,0,0,1-2.55,5.5,21.53,21.53,0,0,0-5.58-3.16,14.1,14.1,0,0,0-4.59-.87,26.7,26.7,0,0,0-3.6.22,12.43,12.43,0,0,0-3.82,4.39A13.77,13.77,0,0,0,171.09,60.11Z"/><path class="cls-1" d="M208.45,55.9V66.59a40.91,40.91,0,0,0,.72,9.3v1h-7.78v-1a40.91,40.91,0,0,0,.72-9.3V55.46a38.43,38.43,0,0,0-.72-8.9v-1h7.78v1a23,23,0,0,0-.51,4.32C208.52,53.07,208.45,54.74,208.45,55.9Z"/><path class="cls-1" d="M229.91,48.75c-1.23,0-2.18,0-2.87.09C227,50.21,227,53.57,227,58.9l11.49-.22-1.57,3.71H236a25.73,25.73,0,0,0-5-.36c-2.19,0-3.56,0-4.09.09v2.37c0,5,0,8,.13,9,.69.06,1.82.08,3.42.08a49.06,49.06,0,0,0,5.75-.4,20.91,20.91,0,0,0,4.91-1H242l-.85,4.74H219.76v-1a41.63,41.63,0,0,0,.76-9V55.59a41.91,41.91,0,0,0-.76-9v-1l20.79-.14-1.34,3.94h-.85A36.55,36.55,0,0,0,229.91,48.75Z"/><path class="cls-1" d="M253.55,45.67l6.39-.09q5.78,0,8.92,1.74T272,53.2a8.88,8.88,0,0,1-2.55,6.64,10.78,10.78,0,0,1-6.79,2.91l5.1,5.94a44.42,44.42,0,0,0,5,5.23A10,10,0,0,0,276,75.8v1.07h-7.82q-.63-.93-3.09-4.07L257,63a4.52,4.52,0,0,1-.76,0v6.21a24,24,0,0,0,.71,6.71v1h-8v-1a17.77,17.77,0,0,0,.9-6.26v-16a25.86,25.86,0,0,0-.76-7v-1Q250.42,45.67,253.55,45.67ZM265.4,54c0-2.08-.46-3.52-1.37-4.31a6.35,6.35,0,0,0-4.24-1.19c-1.93,0-3.07,0-3.42.05-.06.89-.09,4.77-.09,11.62a19.81,19.81,0,0,0,2.54.14q3.58,0,5.08-1.59A6.64,6.64,0,0,0,265.4,54Z"/><path class="cls-1" d="M56.6,99.18c-.43,0-.76,0-1,0h-4V104H49.89V89h5.7A6.53,6.53,0,0,1,60,90.28,4.6,4.6,0,0,1,61.5,94a5.28,5.28,0,0,1-.86,3.08,4.83,4.83,0,0,1-2.49,1.79l3.5,5.09H59.71Zm2.15-2.5a3.21,3.21,0,0,0,1.1-2.63,3.09,3.09,0,0,0-1.1-2.57,5,5,0,0,0-3.16-.87h-4v7h4A4.9,4.9,0,0,0,58.75,96.68Z"/><path class="cls-1" d="M73.58,100.17,71.91,104H70.09l6.72-15h1.78l6.71,15H83.43l-1.67-3.79Zm4.07-9.25-3.34,7.6H81Z"/><path class="cls-1" d="M96.26,90.61v5.28h7v1.65h-7V104H94.55V89h9.53v1.65Z"/><path class="cls-1" d="M118.07,90.61V104h-1.72V90.61h-4.87V89H123v1.65Z"/><path class="cls-1" d="M154.48,89.5A8.14,8.14,0,0,1,157,91.11l-1,1.3a6.56,6.56,0,0,0-2-1.38,6.2,6.2,0,0,0-5.47.29,6,6,0,0,0-2.21,2.14,5.87,5.87,0,0,0,0,6,5.88,5.88,0,0,0,2.22,2.15,6.13,6.13,0,0,0,3.07.79,6.35,6.35,0,0,0,2.38-.47,6.47,6.47,0,0,0,2.05-1.33l1.06,1.18a8.91,8.91,0,0,1-2.59,1.69,7.45,7.45,0,0,1-3,.62,7.65,7.65,0,0,1-3.89-1,7.77,7.77,0,0,1-2.82-2.76,7.39,7.39,0,0,1-1-3.83,7.13,7.13,0,0,1,1.05-3.78,7.67,7.67,0,0,1,2.84-2.73,7.9,7.9,0,0,1,3.93-1A7.77,7.77,0,0,1,154.48,89.5Z"/><path class="cls-1" d="M177,89.93a7.63,7.63,0,0,1,2.85,2.73,7.38,7.38,0,0,1,0,7.62A7.68,7.68,0,0,1,177,103a8.21,8.21,0,0,1-7.89,0,7.68,7.68,0,0,1-2.85-2.75,7.46,7.46,0,0,1,0-7.63,7.48,7.48,0,0,1,2.85-2.73,8.25,8.25,0,0,1,7.89,0Zm-7,1.42a6.13,6.13,0,0,0-2.24,2.14,5.71,5.71,0,0,0,0,6,6.17,6.17,0,0,0,10.54,0,5.63,5.63,0,0,0,.83-3,5.54,5.54,0,0,0-.83-3,6.08,6.08,0,0,0-2.22-2.14,6,6,0,0,0-3-.8A6.07,6.07,0,0,0,170,91.35Z"/><path class="cls-1" d="M204.54,104l0-12.36-5.46,10.77h-1L192.58,91.6V104H191V89h2.12l5.49,10.81L204,89h2.1v15Z"/><path class="cls-1" d="M227.53,90.28A4.65,4.65,0,0,1,229.06,94a4.91,4.91,0,0,1-1.53,3.86,6.27,6.27,0,0,1-4.32,1.36h-3.92V104h-1.71V89h5.63A6.41,6.41,0,0,1,227.53,90.28Zm-8.24,7.3h3.86a4.86,4.86,0,0,0,3.16-.9,3.21,3.21,0,0,0,1.1-2.63,3.09,3.09,0,0,0-1.1-2.57,5,5,0,0,0-3.16-.87h-3.86Z"/><path class="cls-1" d="M239.28,100.17,237.6,104h-1.82l6.73-15h1.78l6.7,15h-1.86l-1.67-3.79Zm4.07-9.25L240,98.52h6.72Z"/><path class="cls-1" d="M271,104l-9-12v12h-1.72V89H262L271,101V89h1.69v15Z"/><path class="cls-1" d="M289.48,104h-1.69V98.89L282,89h1.78l4.87,7.83,4.8-7.83h1.75l-5.7,9.85Z"/><path id="final-duder" class="cls-2" d="M94.33,31.47a27.59,27.59,0,0,0-2.67-6.1c-.52-.78-1.15-1.72-1.72-2.47a20.52,20.52,0,0,1-2.2-3.44,1.91,1.91,0,0,0-.49-.61,2.47,2.47,0,0,1-.69-1.24c-.21-.86-.44-1.71-.68-2.56a2.3,2.3,0,0,0-.36-.83,13.72,13.72,0,0,0-1.37-1.48c-.24-.22-.32-.19-.66-.28a3.51,3.51,0,0,0-.79-.12l-2.15,0a.41.41,0,0,0-.17.07,2.56,2.56,0,0,0-1.8,2.15c0,.17,0,.6,0,.58a1,1,0,0,0-.82.3.82.82,0,0,0-.09.79,11.54,11.54,0,0,0,1,1.3,5.48,5.48,0,0,0,.57.6c-.16.25-.53.72-.68.93-1.65,2.23-5.17,7-5.17,7l-.46-.12-1.44-.36c-.71-.15-2.18-.44-2.79-.49L68,25a1.87,1.87,0,0,0,0-.4,42.55,42.55,0,0,0-6-.61c-.09,0-.17-.17-.22-.26s.21-.85.34-1a1.14,1.14,0,0,1,.39-.27,6.68,6.68,0,0,1,1.44-.27h.34a1.38,1.38,0,0,0,.74-.34,1.71,1.71,0,0,0,.23-.59,12.9,12.9,0,0,1,.39-1.48c.06-.25.09-.5.13-.76,0-.08,0-.22,0-.23.7-.32.44-.91.43-1.43v-.43l.72-.31a.91.91,0,0,0,.53-1.45c-.21-.41-.51-.76-.71-1.17a5,5,0,0,1-.44-1.24,3,3,0,0,1,1.23-1.95l.87-.29c.28-.09.3-.18.78-.34-.36-.28-.3-.52-.54-.6a1.45,1.45,0,0,1-1-1.29,11.76,11.76,0,0,0-2-4.48C62.78-.29,55.44-1.82,51.12,3a22.07,22.07,0,0,0-1.71,2.24,2,2,0,0,0-.25.86c-.09.73-.15,1.45-.22,2.18a1.65,1.65,0,0,1,0,.45,5.81,5.81,0,0,0,.14,3.64c.05.21.09.42.13.65l1.12.29a6.64,6.64,0,0,0-.24,2.7c.19.66.23.81-.18,1,0,.11.09.22.13.32a2.6,2.6,0,0,1,.76-.17c.21.41-.32.52-.35.89l.58.63-.4.37c0,.17.08.33.11.5l.68.57.62-.83c.11.16.24.25.24.33a7,7,0,0,1-.56,2.36l-.34,0-.28,0c-.07.19-.14.39-.23.59-.61,1.34,0,1.47-1.21,1.9-1.51,0-4.7.87-5.24,1.54,0,.05,0,.37,0,.43a4.67,4.67,0,0,0-1.79.93,12.4,12.4,0,0,0-3.36,3.44,68.31,68.31,0,0,0-3.59,7.22c-.89,2-2.24,4.82-2.55,5.61a41.27,41.27,0,0,0-1.66,6.33C31.06,52.15,34.1,59.6,35,61.54c1,2.14,1.91,3.9,2.23,4.44.88,1.45.33,2.34.24,3.48a5,5,0,0,0,.66,2.89l.32.64c-2.59,3.59-5.13,7.16-7.74,10.68a10.53,10.53,0,0,1-2.07,2c-1.77,1.38-3.59,2.71-5.43,4s-3.94,2.66-5.87,4A29.11,29.11,0,0,0,12,98.34q-5.11,5.91-10.16,11.87a9,9,0,0,0-1.45,2.4,4.74,4.74,0,0,0,.84,5.22c1.85,2,3.88,3.78,5.9,5.58a3.53,3.53,0,0,0,3.54.62,5.56,5.56,0,0,0,2.89-2q5.3-7.15,10.54-14.35a26.09,26.09,0,0,0,3.25-6.21C28.81,97.73,29.91,93.87,31,90a11.59,11.59,0,0,1,1.52-3.6c2.63-3.78,5.28-7.53,7.92-11.29.12-.17.27-.39.44-.44a3.55,3.55,0,0,0,1.63-1.15c.48-.48.85-1,1.34-1.49,1.88,0,2.52-3.28,2-4.44.21-.29.39-.57.6-.83,2.29-3,18.56-23.3,23.85-30.05L71,36l4.9.26c1.28.08,3.94-.11,4.61-.13,1.27,0,4.85-.24,6.27-.46,1.08-.17,2.28-.41,3.09-.6s3.37-1.23,4.13-2.23A1.39,1.39,0,0,0,94.33,31.47ZM43.66,65.72a1.68,1.68,0,0,1-1.12-1.27c-.13-.65-.38-1.45-.55-2.1s-.51-2.19-.64-2.69c-.35-1.26-1.27-4.93-1.64-6.33-.68-2.54-.5-2.62-.24-3a76.52,76.52,0,0,0,5.7-10c.08,1.24.2,2,.26,2.57,0,.34.06,0,0,.08s-.22.7-.39.87c-.87.85-1.34,4.67-1.09,5.64.11.41.18,1.09.28,1.5s.22.94.35,1.41c.08.29.24.56.3.85.19,1,1.67,6.92,2.53,7.67A54.61,54.61,0,0,1,43.66,65.72Zm43.4-36.95a22,22,0,0,1-4.38-.87c-1.33-.27-6.55-1.17-6.6-1.21s3.56-4.81,5.27-7.16a3.86,3.86,0,0,1,.34.24A15.66,15.66,0,0,1,85.05,24C86.24,25.71,87.48,28.76,87.06,28.77Z"/></svg>