<svg id="Layer_1" data-name="Layer 1" xmlns="http://www.w3.org/2000/svg" viewBox="0 0 468.76 320.96"><defs><style>.cls-1{fill:#fff;fill-rule:evenodd;}</style></defs><title>jasperskytram</title><g id="Symbols"><path id="brand" class="cls-1" d="M7.69,261s173-261,248-261,188.1,183.28,188.1,183.28S314.59,17,254.25,17,7.69,261,7.69,261ZM211.86,94.94q2.52-1.44,5-2.84a6.75,6.75,0,0,0-.92,3.37,5.16,5.16,0,0,0,.08.79,7.2,7.2,0,0,0-4.16-1.32Zm11.37-6.32c1.53-.82,3.07-1.63,4.6-2.43a6.4,6.4,0,0,0-.91,3.27A4.75,4.75,0,0,0,227,90,6.89,6.89,0,0,0,223.23,88.62ZM234.08,83l3.49-1.74a6.26,6.26,0,0,0-.43,2.22c0,.22.05.44.07.67A6.42,6.42,0,0,0,234.08,83Zm11.12-5.43A552.06,552.06,0,0,1,311.55,51.4q3.36,2.68,6.74,5.54a353.54,353.54,0,0,0-69.47,29.43,6.14,6.14,0,0,0-3.62-8.82Zm-40.57,24.63a7.24,7.24,0,0,0,7.25,7.25l.22,0c-8.95,6.35-18,13.36-27.15,21.11C108.57,195.53,74.16,261,74.16,261h-41S101,176.69,169.86,123A354.57,354.57,0,0,1,205.6,98.61,7.23,7.23,0,0,0,204.63,102.18Zm14.49,0a8.09,8.09,0,0,0-.09-1,6.79,6.79,0,0,0,3.42,1.13l-3.87,2.59A7.07,7.07,0,0,0,219.12,102.18Zm10.61-6.71c0-.24,0-.47-.07-.7a6.6,6.6,0,0,0,2.81,1.15l-3.21,2A6.89,6.89,0,0,0,229.73,95.47Zm10.27-6a5.83,5.83,0,0,0-.09-.84,6.24,6.24,0,0,0,3.1,1l-3.41,2A6.47,6.47,0,0,0,240,89.46ZM184.44,210.68a5.86,5.86,0,0,0,5.84,5.84H269.4c-20.63,36.33-19.82,44.23-19.82,44.23H102.38s28.7-56.44,82.06-108.91Zm37.11-91.18-7.61,18.66H199q4.49-4,9.14-7.88Q215,124.58,221.55,119.5Zm-18.16,28.11a2.34,2.34,0,0,1,2.33,2.34v30.73a2.34,2.34,0,0,1-2.33,2.33h-8.5a2.34,2.34,0,0,1-2.34-2.33V150a2.34,2.34,0,0,1,2.34-2.34Zm15.8-9.45,10-24.48c2.21-1.66,4.4-3.26,6.55-4.81l9.67,29.29Zm28.34,9.45a2.34,2.34,0,0,1,2.33,2.34v30.73a2.34,2.34,0,0,1-2.33,2.33h-31a2.34,2.34,0,0,1-2.34-2.33V150a2.34,2.34,0,0,1,2.34-2.34ZM326.07,63,362,97.26s-28,17.54-62.59,70.56c-7.74,11.86-14.26,22.24-19.78,31.35V144a5.85,5.85,0,0,0-5.84-5.83H250.52L239.88,105.9C293,68.48,326.07,63,326.07,63ZM44.52,289.34h-.1l-6.27,19H50.84Zm-8,24.37-2.3,7h-7.3L39.13,284H49.52L62,320.66H54.81l-2.4-7ZM71.46,309v1.71c0,4.21,1.81,4.5,8.33,4.5s7.29-1.18,7.29-5.43c0-5.24-2.79-4.55-8.28-4.85-7.93-.49-14.2-.19-14.2-10.86,0-10.09,6.37-10.38,15.19-10.38,7.49,0,13.61.24,13.61,9.88v1.18H86.35v-1.18c0-4-1.62-4.11-6.56-4.11-7,0-8.14.69-8.14,4.61,0,4.5.94,4.65,8.09,5.08,11.31.69,14.4,1.28,14.4,10.63,0,10.33-4.9,11.21-14.35,11.21-8.14,0-15.38.24-15.38-10.28V309Zm44.28-6.22c5-.1,6-1,6-6.17s-.73-6.66-6-6.6h-9.21v12.77ZM99.47,284h16.27c9.84,0,13.07,2.35,13.07,12.63s-3.47,12.19-13.07,12.19h-9.21v11.89H99.47Zm40.66,15.17h17.19v5.78H140.13v9.74h18.26v6H133.07V284h25.18v6H140.13ZM181,302.5c5.19,0,6.47-1,6.47-6.41,0-5.19-.93-6.12-6-6.12h-9.79V302.5Zm-9.3,6v12.13h-7.06V284h18.76c8,.2,11.12,2.69,11.12,11,0,5.44-.3,9.41-6.51,10.33v.2c5,.44,6.21,3.13,6.21,8.32v6.85h-7.05v-6.85c0-3.08-1.27-5.24-4.65-5.28Zm51.23.44v1.71c0,4.21,1.81,4.5,8.32,4.5s7.3-1.18,7.3-5.43c0-5.24-2.79-4.55-8.28-4.85-7.93-.49-14.2-.19-14.2-10.86,0-10.09,6.37-10.38,15.18-10.38,7.5,0,13.62.24,13.62,9.88v1.18h-7.05v-1.18c0-4-1.62-4.11-6.57-4.11-7,0-8.13.69-8.13,4.61,0,4.5.93,4.65,8.08,5.08,11.32.69,14.4,1.28,14.4,10.63,0,10.33-4.9,11.21-14.35,11.21-8.13,0-15.37.24-15.37-10.28V309Zm35.55-10h3.29L274,284h8.67l-14.89,17.92,16.41,18.79h-8.92L261.74,305h-3.29v15.71h-7V284h7Zm46.48,7.64v14.09h-7.05V306.57L284.61,284h8l8.72,15.66h.14L310.37,284h8.13Zm32.91,14.09h-7V290H320v-6h28.61v6H337.84ZM370,302.5c5.19,0,6.46-1,6.46-6.41,0-5.19-.93-6.12-6-6.12h-9.79V302.5Zm-9.31,6v12.13h-7.05V284h18.76c8,.2,11.11,2.69,11.11,11,0,5.44-.29,9.41-6.51,10.33v.2c5,.44,6.22,3.13,6.22,8.32v6.85h-7.06v-6.85c0-3.08-1.27-5.24-4.64-5.28Zm43.73-19.19h-.09l-6.27,19h12.68Zm-8,24.37-2.3,7h-7.29L399,284H409.4l12.44,36.71h-7.15l-2.4-7Zm54.08,7h-6.32l-11.66-30.79h-.14l.58,30.79h-7V284h11.31l10,27.27h.2L457.2,284h11.56v36.71h-7.05l.59-30.93h-.25ZM24.2,284v25.41c0,9.64-3.48,11.6-11.91,11.6C4.8,321,0,320,0,311.56v-5.29H6.76V309c0,4.8,0,5.93,5.53,5.93,4.22,0,4.85-1.08,4.85-5.58V284Zm245-136.34a2.34,2.34,0,0,1,2.34,2.34v30.73a2.34,2.34,0,0,1-2.34,2.33h-8.5a2.34,2.34,0,0,1-2.33-2.33V150a2.34,2.34,0,0,1,2.33-2.34Z"/></g></svg>