<svg id="Layer_1" data-name="Layer 1" xmlns="http://www.w3.org/2000/svg" viewBox="0 0 354.96 327.75"><defs><style>.cls-1{fill:#231f20;}.cls-2{fill:#b56a4f;}</style></defs><title>kickinghorse-dark</title><path class="cls-1" d="M0,161.53H355v57.6H0Zm17.88,45.19.16.44a7.22,7.22,0,0,0,1.22.2c3.83,0,7.66-.09,11.49-.1,1.68,0,3.36.11,5,.08.39,0,.77-.35,1.15-.54a3.71,3.71,0,0,0-1-.85,21.18,21.18,0,0,0-2.09-.5c-2.27-.58-3-1.57-3.06-3.9a32.75,32.75,0,0,0,0-4.43c-.34-2.41.86-3.82,2.66-5a1.37,1.37,0,0,1,1.92-.05,1.16,1.16,0,0,1,.2.24c4.28,4.59,8.62,9.11,12.92,13.67a4.2,4.2,0,0,0,3.38,1.46c2.75-.08,5.5,0,8.25-.06a4.35,4.35,0,0,0,1.21-.42c-.33-.32-.61-.82-1-.92a12.21,12.21,0,0,1-5.51-3.23c-4.54-4.62-9-9.28-13.54-13.92-1.28-1.32-1.26-1.57.25-2.65q5.31-3.8,10.64-7.57a20.49,20.49,0,0,1,7.69-3.74c.33-.07.59-.51.89-.78-.34-.27-.65-.69-1-.78a8.71,8.71,0,0,0-1.91,0c-2.76,0-5.51.08-8.27.09-1.19,0-2.39-.13-3.59-.06-.34,0-.66.51-1,.78.29.27.54.65.88.79a11.62,11.62,0,0,0,1.64.33c1.32.29,1.61.92.87,2a7.47,7.47,0,0,1-1.56,1.8Q39.41,184.76,32,190.32a3.46,3.46,0,0,1-.93.34,2,2,0,0,1-.18-.48c0-4.19,0-8.38.11-12.58,0-1.67.9-2.32,2.55-2.66.66-.14,1.85.13,1.75-.95s-1.29-.64-2-.64c-3.63,0-7.27.13-10.9.16-1.6,0-3.19-.16-4.79-.15-.34,0-.68.39-1,.61.27.34.48.85.82,1a15.76,15.76,0,0,0,2.34.51c2.25.52,3.25,1.68,3.25,4v21.36c0,3.06-.85,4.12-3.73,5A6.13,6.13,0,0,0,17.88,206.72Zm146.83-16c-.14-.25-.24-.35-.24-.46,0-4.11-.08-8.23,0-12.35,0-1.94.87-2.6,2.8-3,.63-.13,1.73.07,1.61-1s-1.15-.62-1.79-.61c-3.56,0-7.11.14-10.67.17-1.55,0-3.11-.19-4.66-.16-.53,0-1.42.34-1.51.68-.24.95.73.94,1.34,1.11s1,.17,1.53.28c2.61.54,3.58,1.72,3.58,4.41v20.63a12.65,12.65,0,0,1-.25,2.38,3.44,3.44,0,0,1-2.85,2.87,2.36,2.36,0,0,0-.91.24,7.75,7.75,0,0,0-1,.9c.38.19.77.52,1.15.52,3.83,0,7.66-.07,11.49-.08,1.76,0,3.51.09,5.27.08.32,0,.63-.31,1-.49-.24-.28-.43-.71-.73-.81-.83-.28-1.71-.4-2.56-.62a3.29,3.29,0,0,1-2.85-3.69,36.54,36.54,0,0,0,0-4.68,4.61,4.61,0,0,1,2.4-4.78c1.4-.92,1.41-1,2.55.23q6.43,6.8,12.86,13.58a4,4,0,0,0,3.19,1.33c2.79-.06,5.58,0,8.37-.06a3.38,3.38,0,0,0,1.14-.48c-.31-.3-.58-.77-.95-.86a12.7,12.7,0,0,1-6-3.6c-4.42-4.5-8.81-9-13.19-13.6-1.21-1.26-1.17-1.54.28-2.57,3.67-2.62,7.34-5.25,11-7.85a20.61,20.61,0,0,1,7-3.44c.44-.11.79-.59,1.18-.9a6,6,0,0,0-1.34-.73,5.75,5.75,0,0,0-1.55,0c-2.8,0-5.59.09-8.39.1-1.19,0-2.39-.11-3.59-.06-.32,0-.62.46-.93.71.26.29.48.7.81.84a10.39,10.39,0,0,0,1.64.34c1.44.33,1.79,1,.84,2.18a22.92,22.92,0,0,1-3.44,3.31c-4.12,3.17-8.31,6.24-12.48,9.33a7.07,7.07,0,0,1-1.15.62Zm111.72,6.57a24.19,24.19,0,0,1-2-1.46q-8.4-7-16.77-14.14c-2.78-2.35-5.66-4.59-8.29-7.09a4.57,4.57,0,0,0-3.61-1.29c-2.87.06-5.74,0-8.61,0-.16,0-.36-.06-.48,0-.34.21-.85.45-.9.74s.33.8.64.95a8.33,8.33,0,0,0,1.84.49,5.15,5.15,0,0,1,4.1,4,10.09,10.09,0,0,1,.32,2.25v19.2a3.61,3.61,0,0,1-1.84,3.28,21.57,21.57,0,0,1-2.05,1,9.4,9.4,0,0,0-1.51.7c-.28.2-.39.63-.58,1a4.22,4.22,0,0,0,1,.49,5.92,5.92,0,0,0,1.19,0l8.49-.06c1.72,0,3.44.07,5.16,0,.42,0,.84-.38,1.26-.59a8.23,8.23,0,0,0-1.17-.95,4.12,4.12,0,0,0-1.16-.23c-3.93-.75-5.55-2.54-5.61-6.51-.07-5.52,0-11,0-16.56a3.83,3.83,0,0,1,.29-1,3.93,3.93,0,0,1,1.05.4c1,.81,2,1.67,3.06,2.51l27,22.47c.67.56,1.43,1.18,2.22.69.38-.24.43-1.19.43-1.82V179.48c0-2.42.83-3.55,3.14-4.33a12.2,12.2,0,0,0,1.57-.56c.24-.12.38-.45.56-.68a4.39,4.39,0,0,0-.78-.58,1.7,1.7,0,0,0-.71,0H270.62c-.49,0-1,.44-1.46.67a4.83,4.83,0,0,0,1.25,1c1.45.53,3,.85,4.42,1.42a3,3,0,0,1,2,3v16a14.21,14.21,0,0,1-.4,1.83Zm50.4-5.84h-6.11a22.88,22.88,0,0,0-2.87.11c-.31,0-.56.54-.84.84.29.26.54.66.87.75a11.89,11.89,0,0,0,1.79.14c1.54.17,3,.5,3.94,1.93,2.09,3.23.64,7.9-3,9.06a29.68,29.68,0,0,1-6.35,1.06,13.8,13.8,0,0,1-14-8,18,18,0,0,1-.84-13.2,12,12,0,0,1,9.25-8.62,22.92,22.92,0,0,1,10.45.21A13.68,13.68,0,0,1,329.43,184c.14.33.23.78.49.94a2.39,2.39,0,0,0,1.36.32,1,1,0,0,0,.65-.77c0-2.92.05-5.84,0-8.76,0-1.1-1-1.53-1.71-.73-1.09,1.17-2.19,1-3.47.52A37.48,37.48,0,0,0,309.5,173c-5.63.62-10.6,2.62-14.4,7-7.35,8.44-5.21,20.22,4.58,25.2A25.74,25.74,0,0,0,311,207.73c7.13.13,13.79-1.9,20.26-4.65a1.8,1.8,0,0,0,.82-1.34c.05-1.35-.16-2.71-.15-4.07,0-2.86.65-3.62,3.37-4.56.38-.13.62-.67.93-1-.39-.23-.78-.64-1.18-.65-2.71-.08-5.47-.05-8.22-.05Zm-206.5,16.32c7.12,0,12.61-1.4,16.69-4.3a27.76,27.76,0,0,0,4-3.89c.25-.26.14-.86.2-1.3a4.44,4.44,0,0,0-1.54.06,7.44,7.44,0,0,0-1.56,1.1,21,21,0,0,1-10.93,4.74c-7.46.78-14.29-2.19-17.64-9.37-3.94-8.44.15-17.56,8.91-19.48,6.36-1.39,11.94.44,16.62,4.89,1.35,1.28,2.35,2.91,3.6,4.3.37.41,1.07.52,1.61.77a4.41,4.41,0,0,0,.46-1.55c-.29-2.78-.66-5.55-1-8.32a4.9,4.9,0,0,0-.43-1.12c-.46.23-1.07.36-1.34.73a1.73,1.73,0,0,1-2.09.68c-.58-.17-1.15-.34-1.71-.55a32.68,32.68,0,0,0-15-2.08c-5.76.66-10.81,2.72-14.63,7.26-7,8.31-5,19.74,4.45,24.77a24.76,24.76,0,0,0,11.33,2.62Zm-37.51-.36v0h3.35c1.76,0,3.52.07,5.27,0,.39,0,.77-.42,1.15-.64a4.41,4.41,0,0,0-1.1-.71c-.73-.18-1.5-.18-2.25-.32-2.32-.42-3.58-1.76-3.59-3.93v-23.5a2.84,2.84,0,0,1,2.43-3.09,7.43,7.43,0,0,0,1.38-.38,3.8,3.8,0,0,0,.8-.85,3.32,3.32,0,0,0-.91-.57,5.84,5.84,0,0,0-1.32-.06c-3.75,0-7.5.09-11.25.11-1.56,0-3.11-.12-4.67-.08-.44,0-.87.38-1.31.58a4.88,4.88,0,0,0,1.17,1,22.81,22.81,0,0,0,2.45.55c2.71.65,3.46,1.58,3.46,4.32v19.42c0,1.08,0,2.16-.09,3.24a3.11,3.11,0,0,1-2,2.86,9.26,9.26,0,0,0-1.43.57,5.52,5.52,0,0,0-.93,1,3.72,3.72,0,0,0,1.15.47c2.74,0,5.49,0,8.24,0Zm127.78-17v11.28a3.6,3.6,0,0,1-2.34,3.78,4.93,4.93,0,0,0-1.23.46,5.69,5.69,0,0,0-.89,1.07,4.35,4.35,0,0,0,1.21.42h17c.35,0,.66-.44,1-.67-.3-.21-.56-.55-.89-.63-.74-.17-1.5-.21-2.25-.33-2.69-.45-3.84-1.77-3.85-4.46V178.77c0-2.27.74-3.13,2.95-3.69.67-.16,1.77,0,1.6-1.09,0-.29-1.17-.58-1.79-.58-3.28,0-6.55.14-9.83.15-2.19,0-4.39-.14-6.58-.15-.39,0-.78.41-1.16.63.33.29.61.72,1,.84,1.18.37,2.42.54,3.59.92,1.86.6,2.46,1.52,2.47,3.47,0,3.63,0,7.35,0,11.07Z"/><path class="cls-2" d="M355,223.93v57.84c-.44,0-.87-.09-1.31-.09H1.31c-.44,0-.87.06-1.31.09V223.93c.44,0,.87.09,1.31.09H353.65A12.92,12.92,0,0,0,355,223.93Zm-238.31,12c-2.42.25-4.87.36-7.26.78A24,24,0,0,0,96,243.35c-5.53,5.66-5.53,13.38,0,19.08a21.48,21.48,0,0,0,8.12,5.17,36.81,36.81,0,0,0,19.12,1.57A24.58,24.58,0,0,0,136.58,263c3.49-3.32,5.43-7.33,4.51-12.26-.79-4.24-3.35-7.37-6.81-9.78-5.28-3.74-11.28-4.9-17.63-5.06ZM32.74,256.14H54.29v13.05H65V236.51H54.22v13H32.68v-13H22.07v32.67H32.74ZM195,253.78c.71-.36,1.65-.77,2.53-1.29,5.25-3.08,5.7-8.92,1-12.77-3-2.43-6.58-3.21-10.32-3.25-6.24-.08-12.48,0-18.72,0a8.47,8.47,0,0,0-1.13.05v32.73H179.1V256.09c4.08-.65,7.35.35,9.55,3.88a65.17,65.17,0,0,1,3.6,6.08c1.2,2.5,2.78,3.84,5.71,3.28a18,18,0,0,1,3.59,0h4.73c-2.5-4-4.77-7.85-7.28-11.53A29.79,29.79,0,0,0,195,253.78Zm136.51,1.63V249.3H312v-6.82h20.5v-5.95H301.23v32.68h31.65v-6H312v-7.82Zm-96.11,4.15V266c0,.29.44.69.76.83a36.6,36.6,0,0,0,20.31,2.41c3.36-.53,6.52-1.62,9-4.18a7.7,7.7,0,0,0,.57-10c-1.81-2.36-4.38-3.58-7.08-4.5-3.13-1.07-6.34-1.91-9.49-2.94a10.87,10.87,0,0,1-3-1.47,1.66,1.66,0,0,1-.64-2.26,1.62,1.62,0,0,1,.85-.74,6.54,6.54,0,0,1,2-.75,20.87,20.87,0,0,1,9,.34c2.63.63,5.23,1.41,7.91,2.15v-5.41c0-.73-.24-1-.93-1.24a43,43,0,0,0-17.25-2.07c-3.74.33-7.36,1.17-10.32,3.7a7.13,7.13,0,0,0-2.57,6.85,8.37,8.37,0,0,0,5.17,6.45,66.48,66.48,0,0,0,6.92,2.63c2.6.9,5.25,1.63,7.84,2.56a2.42,2.42,0,0,1,1.92,2.47c-.11,1.34-1.18,1.9-2.32,2.3a3.77,3.77,0,0,1-.58.14,21.47,21.47,0,0,1-11.66-1.07c-2.05-.76-4.14-1.75-6.37-2.67Z"/><path class="cls-1" d="M262,90.43a52.62,52.62,0,0,1-10.91-9.5c-2.92-3.22-5.72-6.57-8.36-10A6.88,6.88,0,0,0,236.07,68l-6.92.67a2.24,2.24,0,0,0-1.56,2.2,1.87,1.87,0,0,0,1.24,1.1c3.29.67,6.59,1.24,9.9,1.73,1.86.29,1.87.21,2,2.1.48,10.26,3.83,19.34,11,26.84a1.27,1.27,0,0,1,.39.84,17.48,17.48,0,0,1-1.53-1,46.59,46.59,0,0,1-12.74-17c-.41-.91-.83-1.81-1.29-2.69-1.3-2.49-3-3.37-5.87-3.2-3.19.2-6.39.32-9.58.46a21.66,21.66,0,0,1-16.67-6.53c-1.08-1.06-2.09-2.21-3.19-3.24a1.62,1.62,0,0,0-1.28-.39,50.84,50.84,0,0,0-17.88,8.88c-4,3-7.84,6-11.85,9A26.31,26.31,0,0,1,156,92.42c-3,.17-6,.4-9.18.61,1,1.76,1.92,3.6,3.05,5.32a3.09,3.09,0,0,1-.14,3.91c-3.15,4.51-6.52,8.94-8.44,14.14-2.86,7.74-5.43,15.58-8.13,23.37-.37,1.09-.79,2.17-1.21,3.25a6.52,6.52,0,0,1-.51.78l-.32-.06c.09-.66.13-1.32.26-2,1.51-7.63,3.2-15.23,4.5-22.89,1-5.59,1.39-11.26,2.06-16.89v-.88c-2.26,3.21-4.34,6.22-6.48,9.18-6.11,8.38-11,17.48-15.65,26.71a41.22,41.22,0,0,1-2.63,4.13,6.15,6.15,0,0,1-.76.85l-.29-.15c.25-.68.46-1.38.75-2,4.06-9.36,8.23-18.67,12.18-28.07,2.4-5.69,4.8-11.4,6.08-17.49A19.55,19.55,0,0,0,131.05,84a11.74,11.74,0,0,0-9.92-8,11.22,11.22,0,0,0-7.32,2.16c-3,2.09-5.73,4.46-8.54,6.75a1.35,1.35,0,0,0-.33,1c.6,4.86-2.31,8.19-7.21,8.68a1.35,1.35,0,0,0-.81.55c-1.57,2.07-3.12,4.15-4.63,6.26a3,3,0,0,0-.43,1.19,4.79,4.79,0,0,1-3.55,3.67c-1.32.24-1.81-.14-1.87-1.48A38.06,38.06,0,0,1,91,84.13,2.15,2.15,0,0,0,91.38,83c-.16-2.89,1.28-5.12,2.91-7.27.19-.25.72-.55.87-.46a1.55,1.55,0,0,1,.57.94c.15.81.19,1.63.28,2.49,1.9-2.39,3.65-4.8,5.61-7,5.21-6,11.21-10.89,18.63-13.93a39.89,39.89,0,0,1,18.94-2.43c6.25.5,12.48,1.25,18.73,1.63,7.78.47,14.93-1.64,21.76-5.39a132.42,132.42,0,0,1,21.47-9.89C206,40.05,210.9,39.24,216,40.3a1.32,1.32,0,0,0,1.08-.39c5.43-7,12.88-10,21.45-10.9,5-.52,10.13-.77,15-2.39a22.16,22.16,0,0,0,9.69-6.17,10.57,10.57,0,0,0,3-6.52h.48a20.28,20.28,0,0,1-1.88,14.27c-1.45,2.76-4,4.39-6.78,5.64a43.37,43.37,0,0,1-14.2,3.56c-5.88.51-11.8.67-17.69,1a14.44,14.44,0,0,0-7.2,1.93c-.23.15-.44.32-.77.56,4.13,1.51,7.77,3.55,10.14,7.28s2.81,7.9,1.85,12.42c1.77.2,3.48.45,5.2.58,2.75.2,5.5.39,8.25.45,1.3,0,1.65.69,2,1.77a74,74,0,0,0,3,9.55c2.52,5.79,6.56,10.54,11.16,14.82.85.78,1.65,1.61,2.47,2.41Z"/><path class="cls-1" d="M262.13,90.19l.19.3H262Z"/><path class="cls-1" d="M262.32,90.49l.17.1-.15.06v-.18Z"/><path class="cls-1" d="M24.53,312.07H22.4V297.93a2.44,2.44,0,0,1,2.85.94c1.15,1.67,2.52,3.18,3.87,4.85,1.28-1.58,2.6-3,3.71-4.61a2.5,2.5,0,0,1,3-1.17v14.12h-2.1V301.19l-4.61,5.74-4.59-5.72Z"/><path class="cls-1" d="M284.39,312.14a12.07,12.07,0,0,1-2.08-.16,7.49,7.49,0,0,1-4.56-2.33,6.8,6.8,0,0,1-1.52-4.23v-.81c.18-3.76,3.07-6.63,7.25-6.91,3.07-.21,5.71.84,7.3,3.64a7.18,7.18,0,0,1-.35,8,6,6,0,0,1-3.82,2.54A11,11,0,0,1,284.39,312.14Zm5.16-7a5.55,5.55,0,1,0-5.55,5.55A5.54,5.54,0,0,0,289.55,305.14Z"/><path class="cls-1" d="M110.53,312a2.64,2.64,0,0,1-3-1c-2.64-3.19-5.4-6.28-8.31-9.63V312h-2V297.94a2.18,2.18,0,0,1,2.5.84c2.53,3,5.13,5.9,7.7,8.84l1.09,1.21V297.91h2Z"/><path class="cls-1" d="M55,312.14c-4.24,0-6.31-1.23-7.51-4.22a7.43,7.43,0,0,1,1.61-8.08,8.43,8.43,0,0,1,10.39-.73,7.38,7.38,0,0,1,2.22,9.32C60.22,311.32,57.84,312.6,55,312.14Zm-5.81-7.07a5.54,5.54,0,1,0,5.67-5.41h-.2a5.33,5.33,0,0,0-5.49,5.15v.26Z"/><path class="cls-1" d="M189.56,297.89h2V312a2.34,2.34,0,0,1-2.78-.78c-2.73-3.28-5.58-6.46-8.51-9.83v10.67h-2V297.94a2.15,2.15,0,0,1,2.5.86c2.82,3.31,5.71,6.56,8.74,10Z"/><path class="cls-1" d="M73.37,297.9h2v8.45a5.75,5.75,0,0,0,.48,2.42c.72,1.46,2.81,2.09,4.74,1.63s2.89-1.4,3-3.4c.08-2.59.06-5.19.08-7.78v-1.34h2c0,3.35.15,6.7,0,10a4.53,4.53,0,0,1-4.78,4.25h-.11a21,21,0,0,0-2.51,0c-2.66,0-4.66-1.6-4.81-4.27C73.23,304.57,73.37,301.26,73.37,297.9Z"/><path class="cls-1" d="M309.38,305.34c1.54,2.25,3,4.41,4.5,6.59-1.83.54-2.29.36-3.25-1.08-.82-1.22-1.65-2.45-2.54-3.62a2.93,2.93,0,0,0-3-1.11v5.95H303V297.9c1.51,0,3-.11,4.52,0a4,4,0,0,1,3.78,3A3.84,3.84,0,0,1,309.38,305.34Zm-4.25-1.22c1.44,0,3,.38,3.71-1.14a2.77,2.77,0,0,0-.1-2.32c-.83-1.28-2.28-.92-3.61-.87Z"/><path class="cls-1" d="M224.4,305.35,229,312c-2.26.45-2.27.43-3.45-1.36-.77-1.16-1.56-2.32-2.42-3.41a2.83,2.83,0,0,0-2.95-1.07v5.93H218V297.78c1.7.08,3.37.07,5,.26a3.47,3.47,0,0,1,3.25,2.89,3.72,3.72,0,0,1-1.77,4.33C224.43,305.31,224.35,305.39,224.4,305.35Zm-4.25-1.26c1.43,0,3,.41,3.7-1.07a2.76,2.76,0,0,0-.1-2.41c-.85-1.23-2.29-.89-3.6-.81Z"/><path class="cls-1" d="M154.09,312.07c-2.13.16-2.28.21-2.89-1.64s-1.69-2.29-3.63-2.4c-2.71-.15-4.33.53-5,3.26-.22,1-.38.93-2.47.79.5-1.19,1-2.35,1.46-3.5,1.44-3.37,2.86-6.74,4.34-10.08a1.43,1.43,0,0,1,1-.65,1.19,1.19,0,0,1,1,.5C150,302.87,152,307.41,154.09,312.07Zm-7.14-11-2.06,5h4.29Z"/><path class="cls-1" d="M247.53,297.94v1.81h-6v4.3h5.82V306h-5.82v4.35h6.09v1.75h-8.26V297.94Z"/><path class="cls-1" d="M265.35,301c-1.27-.95-2.51-1.76-4-1.25A2.32,2.32,0,0,0,260,301a1.88,1.88,0,0,0,.62,1.62,32.21,32.21,0,0,0,3.17,2.1,4.32,4.32,0,0,1,2.22,4.64,3.07,3.07,0,0,1-1.65,2.29,5.12,5.12,0,0,1-1.84.48,8.7,8.7,0,0,1-2.39-.09,2.78,2.78,0,0,1-1.5-.67,2.35,2.35,0,0,1-.6-1.74v-.46c0-.15.07-.48,0-.52l.79.71a3.78,3.78,0,0,0,3.38,1.14,2.68,2.68,0,0,0,1.7-1.22,2.51,2.51,0,0,0-.5-1.91,5.17,5.17,0,0,0-1.47-1.2c-.68-.47-1.42-.87-2.1-1.36-1.85-1.33-2.42-2.95-1.73-4.75a4.38,4.38,0,0,1,4.67-2.38H263C265.38,298.13,265.61,298.43,265.35,301Z"/><path class="cls-1" d="M126.1,299.78h-4.95v-1.86h12v1.83h-5v12.33h-2.1Z"/><path class="cls-1" d="M333.31,297.94v1.76h-4.94v12.36H326.2V299.78h-5v-1.84Z"/><path class="cls-1" d="M166.53,312.08H164.4V297.89h2.13v14.19Z"/><path class="cls-2" d="M116.18,262.85c-3.38-.06-7.09-.68-10.14-3.3a8.73,8.73,0,0,1-1.07-12.3,8.88,8.88,0,0,1,1.73-1.57c3.65-2.59,7.81-3,12.12-2.67a15.2,15.2,0,0,1,7.1,2.29,8.84,8.84,0,0,1-.11,15.22C123,262.28,119.9,262.83,116.18,262.85Z"/><path class="cls-2" d="M179.17,242.33c2.93.19,5.81.22,8.63.63a3.06,3.06,0,0,1,2.83,3.28s0,.11,0,.16a2.76,2.76,0,0,1-1.57,2.52,7.8,7.8,0,0,1-2.82.88c-2.31.12-4.63,0-7.05,0Z"/></svg>