<svg id="Layer_1" data-name="Layer 1" xmlns="http://www.w3.org/2000/svg" viewBox="0 0 514.98 291.49"><defs><style>.cls-1{fill:#202020;}</style></defs><title>malignelake-dark</title><polygon class="cls-1" points="284.08 242.97 258.38 268.67 232.68 242.97 284.08 242.97"/><path class="cls-1" d="M323.77,83.25l-65-65-65,65h35.06v-4h11.45l3.84-27.65a.25.25,0,0,1,.49,0l3.83,27.65h5.15l5.68-46.1a.24.24,0,1,1,.48,0l5.67,46.1h5.16l3.83-27.64a.25.25,0,0,1,.49,0l3.84,27.64h11.45v4Z"/><polygon class="cls-1" points="202.56 63.55 185.44 46.43 154.26 77.61 188.5 77.61 202.56 63.55"/><polygon class="cls-1" points="328.78 77.61 361.73 77.61 330.54 46.43 314.07 62.9 328.78 77.61"/><path class="cls-1" d="M105.68,204.12a15.54,15.54,0,0,1-.24,2.72,6,6,0,0,1-.93,2.34,4.89,4.89,0,0,1-2,1.63,7.77,7.77,0,0,1-3.33.62,7,7,0,0,1-4.07-1.15A5.4,5.4,0,0,1,93,206.7l4.1-1a1.92,1.92,0,0,0,.67,1.27,2,2,0,0,0,1.33.51,1.76,1.76,0,0,0,1.21-.38,2.32,2.32,0,0,0,.62-1,4.41,4.41,0,0,0,.25-1.25V190.6h4.47Z"/><path class="cls-1" d="M123.37,190.62h3.69l8.83,20.29h-5l-1.75-4.3h-7.88l-1.69,4.3h-5Zm1.72,5.91-2.47,6.3h5Z"/><path class="cls-1" d="M155.12,195.58a3.21,3.21,0,0,0-1.48-1,5.28,5.28,0,0,0-1.76-.33,4.21,4.21,0,0,0-1,.12,3.24,3.24,0,0,0-1,.36,2,2,0,0,0-.75.64,1.78,1.78,0,0,0,.4,2.38,6.57,6.57,0,0,0,1.73.83q1.05.34,2.25.69a9.26,9.26,0,0,1,2.25,1A5.3,5.3,0,0,1,157.5,202a5.14,5.14,0,0,1,.69,2.84,6.29,6.29,0,0,1-.64,2.95,6,6,0,0,1-1.7,2.09,7.28,7.28,0,0,1-2.49,1.24,11.29,11.29,0,0,1-3,.4,10.67,10.67,0,0,1-3.67-.61,9.33,9.33,0,0,1-3.15-1.94l3.18-3.5a4.86,4.86,0,0,0,1.73,1.42,5,5,0,0,0,2.17.5,4.53,4.53,0,0,0,1.1-.13,3.06,3.06,0,0,0,1-.39,2.2,2.2,0,0,0,.71-.65,1.67,1.67,0,0,0,.27-1,1.72,1.72,0,0,0-.7-1.45,6.51,6.51,0,0,0-1.76-.9c-.71-.25-1.47-.5-2.29-.75a10.14,10.14,0,0,1-2.29-1,5.4,5.4,0,0,1-1.77-1.66,4.74,4.74,0,0,1-.7-2.72,6,6,0,0,1,2.37-4.93,7.48,7.48,0,0,1,2.47-1.25,10.17,10.17,0,0,1,2.9-.42,11.7,11.7,0,0,1,3.32.49,7.7,7.7,0,0,1,2.89,1.64Z"/><path class="cls-1" d="M168.7,190.62h7.54a15.1,15.1,0,0,1,3,.29,6.82,6.82,0,0,1,2.45,1,4.81,4.81,0,0,1,1.66,1.89,6.47,6.47,0,0,1,.62,3,6.89,6.89,0,0,1-.57,3,4.84,4.84,0,0,1-1.58,1.92,6.5,6.5,0,0,1-2.38,1,13.76,13.76,0,0,1-3,.3h-3.26v7.91H168.7Zm4.48,8.6h3a6.42,6.42,0,0,0,1.16-.11,3.06,3.06,0,0,0,1-.39A2.08,2.08,0,0,0,179,198a2.37,2.37,0,0,0,.28-1.19,2,2,0,0,0-.36-1.24,2.34,2.34,0,0,0-.92-.73,3.41,3.41,0,0,0-1.25-.33,11.69,11.69,0,0,0-1.32-.08h-2.28Z"/><path class="cls-1" d="M194.09,190.62h13.79v4.13h-9.31v3.78h8.79v4.13h-8.79v4.12h9.82v4.13h-14.3Z"/><path class="cls-1" d="M219.15,190.62H227a14.52,14.52,0,0,1,2.94.3,7.18,7.18,0,0,1,2.43,1,5,5,0,0,1,1.66,1.9,6.32,6.32,0,0,1,.62,3,6,6,0,0,1-1.12,3.66,5,5,0,0,1-3.27,1.9l5.16,8.57h-5.35l-4.25-8.11h-2.2V211h-4.47Zm4.47,8.4h3.91a4.58,4.58,0,0,0,1.22-.26,2.16,2.16,0,0,0,.9-.68,2,2,0,0,0,.36-1.29,2.14,2.14,0,0,0-.32-1.23,2.08,2.08,0,0,0-.8-.7,3.62,3.62,0,0,0-1.12-.33,8.48,8.48,0,0,0-1.23-.09h-2.92Z"/><path class="cls-1" d="M273.8,195.89a4.45,4.45,0,0,0-1.62-1.23,5.3,5.3,0,0,0-2.22-.43,5.57,5.57,0,0,0-4.2,1.85,6,6,0,0,0-1.23,2.08,7.82,7.82,0,0,0,0,5.23,6.39,6.39,0,0,0,1.21,2.06,5.44,5.44,0,0,0,6.51,1.28,5.09,5.09,0,0,0,1.75-1.61l3.72,2.78a7.79,7.79,0,0,1-3.26,2.67,10.18,10.18,0,0,1-4.07.86,12.4,12.4,0,0,1-4.39-.75,9.83,9.83,0,0,1-3.46-2.13,9.67,9.67,0,0,1-2.28-3.37,12.33,12.33,0,0,1,0-8.83,9.54,9.54,0,0,1,2.28-3.36,10,10,0,0,1,3.46-2.14,12.4,12.4,0,0,1,4.39-.75,11.91,11.91,0,0,1,1.79.16,9.75,9.75,0,0,1,1.83.51,7.73,7.73,0,0,1,1.73.91,6.7,6.7,0,0,1,1.5,1.41Z"/><path class="cls-1" d="M294,190.62h3.7l8.83,20.29h-5l-1.75-4.3H291.9l-1.69,4.3h-4.93Zm1.72,5.91-2.47,6.3h5Z"/><path class="cls-1" d="M315.73,190.62h6.07l8.63,14.1h.05v-14.1H335v20.29h-5.84l-8.86-14.44h-.05v14.44h-4.47Z"/><path class="cls-1" d="M352.92,190.62h3.7l8.83,20.29H360.4l-1.75-4.3h-7.88l-1.69,4.3h-4.93Zm1.72,5.91-2.46,6.3h5Z"/><path class="cls-1" d="M374.65,190.62h6.7a18.5,18.5,0,0,1,4.63.55,10.45,10.45,0,0,1,3.83,1.76,8.55,8.55,0,0,1,2.59,3.16,10.73,10.73,0,0,1,1,4.73,9.69,9.69,0,0,1-.93,4.34,9.28,9.28,0,0,1-2.51,3.16,11,11,0,0,1-3.64,1.93,14.06,14.06,0,0,1-4.32.66h-7.31Zm4.47,16.16h2.32a12.64,12.64,0,0,0,2.88-.31,6.06,6.06,0,0,0,2.31-1.05,5,5,0,0,0,1.53-1.92,6.77,6.77,0,0,0,.56-2.91,5.65,5.65,0,0,0-.56-2.59,5.39,5.39,0,0,0-1.5-1.82,6.39,6.39,0,0,0-2.23-1.07,10.07,10.07,0,0,0-2.68-.36h-2.63Z"/><path class="cls-1" d="M410.24,190.62h3.7l8.83,20.29h-5l-1.75-4.3h-7.88l-1.69,4.3h-4.93Zm1.72,5.91-2.46,6.3h4.95Z"/><polygon class="cls-1" points="293.06 242.97 258.38 277.65 223.69 242.97 122.34 242.97 122.34 246.88 222.07 246.88 255.61 280.42 248.21 287.81 250.98 290.58 258.38 283.19 265.77 290.58 268.54 287.81 261.14 280.42 294.68 246.88 393.41 246.88 393.41 242.97 293.06 242.97"/><path class="cls-1" d="M374.79,77.38l-7.16-7.19h87.69V66.28H363.73L330.56,33,310.69,52.83,258.74.87,206,53.57,185.44,33,152.12,66.28H60.28v3.91H148.2L141,77.38H18.34v5.87H184.66L258.74,9.18l74.07,74.07H497.52V77.38Zm-192.56,0H146.55l38.89-38.89,17.84,17.84ZM313.46,55.59,330.55,38.5l38.71,38.88h-34Z"/><path class="cls-1" d="M48.54,115.91v48.21H39.32V139.75L24.24,157.86l-15-18.11v24.37H0V115.91H.59l23.65,27.86L48,115.91Z"/><path class="cls-1" d="M53.86,164.12,78.5,115.91h.92l24.63,48.21H94l-3.75-7.57H67.56l-3.69,7.57ZM72,148.51H85.81L79,134Z"/><path class="cls-1" d="M144.05,156v8.17H109.34V115.91h9.22v40Z"/><path class="cls-1" d="M158.92,164.12h-9.23V115.91h9.23Z"/><path class="cls-1" d="M216,137.78a37.63,37.63,0,0,1,0,6.19C215,156.28,205.79,165,192.35,165c-14.35,0-25.55-11.2-25.55-25a24.94,24.94,0,0,1,45.71-13.9L204.69,131c-2.84-4.08-7.71-7.31-13-7.31-8.69,0-15.81,7.71-15.81,16.4a16.54,16.54,0,0,0,16.67,16.4c7.44,0,12.77-4.61,13.56-10.41H188.35v-8.29Z"/><path class="cls-1" d="M264.38,164.12l-31.75-28.65v28.65h-9.15V115.91h1l31.68,29.18V115.91h9.22v48.21Z"/><path class="cls-1" d="M284.83,124.08v12h23.32v8.17H284.83V156h26.28v8.17H275.68V115.91h35.43v8.17Z"/><path class="cls-1" d="M374.06,156v8.17H339.35V115.91h9.22v40Z"/><path class="cls-1" d="M377,164.12l24.63-48.21h.92l24.63,48.21h-10l-3.75-7.57h-22.7L387,164.12Zm18.17-15.61H409L402.12,134Z"/><path class="cls-1" d="M461.94,164.12l-20.22-21.93v21.93H432.5V115.91h9.22v24.5l19.17-24.5h11.33l-19.83,25,21.74,23.25Z"/><path class="cls-1" d="M488.7,124.08v12H512v8.17H488.7V156H515v8.17H479.55V115.91H515v8.17Z"/></svg>