<svg id="Layer_1" data-name="Layer 1" xmlns="http://www.w3.org/2000/svg" viewBox="0 0 226.18 157.99"><defs><style>.cls-1{fill:#feb608;}</style></defs><title>mels</title><path class="cls-1" d="M114.14,41.91c-5.8-4.67-11-9.48-16.72-13.36-24.58-16.48-48.6-4.61-51.47,25C44.58,67.85,48.48,81,53.72,93.84c9.71,23.75,25.46,43.19,44.21,60.38l4.14,3.76c-11.65,0-22.21,0-32.77,0a6.88,6.88,0,0,1-3.23-1.14C44.59,144.05,25.72,128.45,12.38,107,.25,87.46-2.68,66.28,2.34,44.08A39.83,39.83,0,0,1,8.93,29.73C33.2-3.32,76.88-9.62,109.75,14.89c1,.78,2.12,1.52,3.37,2.41,9.45-7.52,19.71-13,31.5-15.69C173.26-4.81,205.55,8.39,219.83,34c3.95,7.07,5.2,16.11,6,24.41,2.34,24.92-6.63,45.94-23.68,63.93A205.12,205.12,0,0,1,160.78,156a11.53,11.53,0,0,1-5.58,1.67c-9.66.17-19.32.08-30,.08,1.63-1.7,2.75-3,3.95-4.13,16.78-16.39,31.84-34.07,42.29-55.3,8.2-16.68,11.62-34,6.63-52.26a45.17,45.17,0,0,0-5-11.37c-7.41-12.21-17.88-16-31.59-12C130.21,26,121.52,33,114.14,41.91Z"/></svg>