<svg id="Layer_1" data-name="Layer 1" xmlns="http://www.w3.org/2000/svg" viewBox="0 0 540.94 302.23"><defs><style>.cls-1{fill:#3a9073;}.cls-2{fill:#375d72;}</style></defs><title>minnewanka-dark</title><path class="cls-1" d="M270.47,13.29A64.57,64.57,0,1,0,335,77.9v-.05A64.63,64.63,0,0,0,270.47,13.29Zm39.25,79.44c-2.65,9.46-10.79,17.21-25.63,24.39-10.13,4.9-10.7,11-10.7,11h0a3,3,0,0,1-6,0h0c0-.06-.57-6.15-10.71-11-14.83-7.18-23-14.93-25.62-24.39a3,3,0,0,1,4.09-3.59L244.83,93a2.87,2.87,0,0,1,1.78,3.65s0,.09-.05.13c-.32.78-1.24,2-3.81,1.44l-2.7-.67c3.62,5,9.94,9.6,19.24,14.1a32.14,32.14,0,0,1,8.06,5.4V70.82L256.42,81.75a3,3,0,0,1-4.27-4.27l15.2-15.21v-8.1L256.42,65.1a3,3,0,0,1-4.27-4.27l15.2-15.2v-8.1L256.42,48.46a3,3,0,0,1-4.27-4.28L268.3,28a3.08,3.08,0,0,1,.92-.59,3.16,3.16,0,0,1,1-.23h.25a3,3,0,0,1,2,.84h0l16.1,16.09a3,3,0,0,1,0,4.24l0,0a3.09,3.09,0,0,1-4.27,0L273.4,37.53v8.1l15.19,15.2a3,3,0,0,1,0,4.24l0,0a3.09,3.09,0,0,1-4.27,0L273.4,54.17v8.1l15.19,15.21a3,3,0,0,1,0,4.24l0,0a3.09,3.09,0,0,1-4.27,0L273.4,70.82v46.25a32.37,32.37,0,0,1,8.06-5.39c9.3-4.5,15.61-9.12,19.24-14.1l-2.69.67c-2.58.58-3.5-.66-3.82-1.44a2.86,2.86,0,0,1,1.54-3.74l.18-.07,9.72-3.9a3,3,0,0,1,4.09,3.6Z"/><path class="cls-1" d="M270.47,0a77.86,77.86,0,1,0,77.86,77.86h0A77.84,77.84,0,0,0,270.48,0Zm0,148.46a70.61,70.61,0,1,1,70.61-70.61A70.61,70.61,0,0,1,270.47,148.46Z"/><path class="cls-2" d="M20.53,234.47H5.79V199.56a2.8,2.8,0,0,0-2.51-3.06,2.54,2.54,0,0,0-.39,0A2.8,2.8,0,0,0,0,199.18a2.38,2.38,0,0,0,0,.38v37.2a2.84,2.84,0,0,0,2.53,3.13,3.25,3.25,0,0,0,.54,0H20.53a2.72,2.72,0,1,0,.33-5.43h-.33"/><path class="cls-2" d="M52.76,225.57H37l7.86-22.09Zm-3.84-25.68c-.82-2.29-2.13-3.4-4-3.4s-3.2,1.11-4,3.4l-13.2,35.18-.11.33a8.53,8.53,0,0,0-.62,2.38,2.55,2.55,0,0,0,2.61,2.49h.17a2.83,2.83,0,0,0,2.81-2.15l2.69-7.47h19.3l2.68,7.47a2.83,2.83,0,0,0,2.82,2.15A2.55,2.55,0,0,0,62.84,238a1,1,0,0,0,0-.17,8.53,8.53,0,0,0-.62-2.38Z"/><path class="cls-2" d="M79.67,217.13l17.22-15.52A3,3,0,0,0,98.05,199a2.42,2.42,0,0,0-2.3-2.53h-.24c-1.18,0-2.09.85-3,1.74L74.7,214.48V199.56a2.9,2.9,0,1,0-5.79-.34,1.93,1.93,0,0,0,0,.34v37.62a2.9,2.9,0,1,0,5.79.34,1.93,1.93,0,0,0,0-.34V220l19.38,19a3.56,3.56,0,0,0,2.75,1.21,2.74,2.74,0,0,0,2.84-2.6,3,3,0,0,0-1.16-2.34Z"/><path class="cls-2" d="M127.69,202.28a2.72,2.72,0,0,0,.33-5.43H108.8a2.86,2.86,0,0,0-3.08,2.61,3,3,0,0,0,0,.52v36.78a2.84,2.84,0,0,0,2.53,3.13,3.25,3.25,0,0,0,.54,0h18.89a2.72,2.72,0,0,0,.33-5.43h-16.5V221.09h15a2.72,2.72,0,0,0,.33-5.43H111.52V202.28Z"/><path class="cls-2" d="M193.74,200.71c-.63-3.49-2.73-4.22-4.38-4.22a3.73,3.73,0,0,0-4.09,2.94l-8.87,30.43-8.88-30.43a3.71,3.71,0,0,0-4.08-2.94c-1.65,0-3.76.73-4.38,4.22l-5.8,34.16a14.16,14.16,0,0,0-.3,2.43c0,1.85,1,3,2.71,3s2.86-.82,3.08-2.5l4.82-33.22L173.45,238a3,3,0,0,0,5.89,0l9.89-33.38L194,237.75c.22,1.69,1.23,2.51,3.08,2.51,1.7,0,2.71-1.11,2.71-3a14.16,14.16,0,0,0-.3-2.43Z"/><path class="cls-2" d="M209.93,196.49a2.8,2.8,0,0,0-2.9,2.69,2.38,2.38,0,0,0,0,.38v37.62a2.9,2.9,0,1,0,5.79.34,1.93,1.93,0,0,0,0-.34V199.56a2.8,2.8,0,0,0-2.51-3.06,2.54,2.54,0,0,0-.39,0"/><path class="cls-2" d="M252.36,196.49a2.8,2.8,0,0,0-2.91,2.68,2.54,2.54,0,0,0,0,.39v30.13l-21.13-30.34c-1.47-2.15-2.24-2.86-3.92-2.86s-2.66,1.1-2.66,3.37v37.32a2.91,2.91,0,1,0,5.8.48,3.84,3.84,0,0,0,0-.48V207.05l21.12,30.34c1.48,2.15,2.25,2.87,3.93,2.87s2.65-1.11,2.65-3.37V199.56a2.8,2.8,0,0,0-2.51-3.06h-.38"/><path class="cls-2" d="M294.79,196.49a2.8,2.8,0,0,0-2.9,2.69,2.38,2.38,0,0,0,0,.38v30.13l-21.13-30.34c-1.48-2.15-2.25-2.86-3.93-2.86s-2.65,1.1-2.65,3.37v37.32a2.9,2.9,0,1,0,5.79.34,1.93,1.93,0,0,0,0-.34V207.05l21.12,30.34c1.48,2.15,2.25,2.87,3.93,2.87s2.65-1.11,2.65-3.37V199.56a2.8,2.8,0,0,0-2.51-3.06h-.38"/><path class="cls-2" d="M328.58,202.28a2.72,2.72,0,1,0,.33-5.43H309.69a2.86,2.86,0,0,0-3.08,2.61,3,3,0,0,0,0,.52v36.78a2.84,2.84,0,0,0,2.53,3.13,3.25,3.25,0,0,0,.54,0h18.89a2.72,2.72,0,1,0,.33-5.43h-16.5V221.09h15a2.72,2.72,0,0,0,.33-5.43H312.41V202.28Z"/><path class="cls-2" d="M382.18,196.49a2.84,2.84,0,0,0-3.12,2.55s0,.08,0,.12l-5.41,33.06-9.54-33.45a3,3,0,0,0-5.89,0l-9.54,33.45-5.4-33.06a2.86,2.86,0,0,0-3-2.68h-.1a2.54,2.54,0,0,0-2.66,2.41v.24a14,14,0,0,0,.3,2.74l6.45,34.7c.34,1.71,1.09,3.68,4,3.68,2.11,0,3.5-.6,4.38-3.66l8.52-30.46,8.52,30.46c.87,3.06,2.26,3.66,4.37,3.66,2.94,0,3.7-2,4-3.69l6.45-34.69a14,14,0,0,0,.3-2.74,2.54,2.54,0,0,0-2.43-2.65h-.22"/><path class="cls-2" d="M412.53,225.57H396.81l7.86-22.09Zm-3.85-25.68c-.81-2.29-2.13-3.4-4-3.4s-3.2,1.11-4,3.4l-13.2,35.18a1.27,1.27,0,0,1-.12.34,9.29,9.29,0,0,0-.61,2.37,2.55,2.55,0,0,0,2.61,2.49h.17a2.83,2.83,0,0,0,2.82-2.15l2.68-7.47h19.33l2.68,7.47a2.83,2.83,0,0,0,2.82,2.15,2.55,2.55,0,0,0,2.77-2.31,1,1,0,0,0,0-.17,9.29,9.29,0,0,0-.61-2.37Z"/><path class="cls-2" d="M459.28,196.49a2.8,2.8,0,0,0-2.91,2.68,2.54,2.54,0,0,0,0,.39v30.13l-21.12-30.34c-1.48-2.15-2.25-2.86-3.93-2.86s-2.65,1.1-2.65,3.37v37.32a2.9,2.9,0,1,0,5.79.34,1.93,1.93,0,0,0,0-.34V207.05l21.13,30.34c1.47,2.15,2.24,2.87,3.92,2.87s2.65-1.11,2.65-3.37V199.56a2.8,2.8,0,0,0-2.51-3.06h-.38"/><path class="cls-2" d="M481.86,217.13l17.22-15.52a2.93,2.93,0,0,0,1.17-2.59,2.43,2.43,0,0,0-2.33-2.53h-.21c-1.19,0-2.09.85-3,1.74L476.9,214.48V199.56a2.9,2.9,0,1,0-5.79-.34,1.93,1.93,0,0,0,0,.34v37.62a2.9,2.9,0,1,0,5.79.34,1.93,1.93,0,0,0,0-.34V220l19.37,19a3.56,3.56,0,0,0,2.75,1.21,2.73,2.73,0,0,0,2.84-2.6,3,3,0,0,0-1.16-2.34Z"/><path class="cls-2" d="M530.86,225.57H515.14L523,203.48Zm9.47,9.84L527,199.89c-.81-2.29-2.12-3.4-4-3.4s-3.2,1.11-4,3.4l-13.2,35.18-.12.34a9.29,9.29,0,0,0-.61,2.37,2.55,2.55,0,0,0,2.61,2.49h.16a2.83,2.83,0,0,0,2.82-2.15l2.69-7.47h19.33l2.68,7.47a2.83,2.83,0,0,0,2.82,2.15,2.55,2.55,0,0,0,2.76-2.32.86.86,0,0,0,0-.16,8.89,8.89,0,0,0-.61-2.37"/><path class="cls-1" d="M139.42,295.27H144a2.3,2.3,0,0,0,2.6-2.45v-.59c0-1.54-.81-2.57-2.29-2.57h-4.89Zm0-8.83H144c1.24,0,2.08-.86,2.08-2.84v-.22c0-2.1-.9-2.82-2.79-2.82h-3.9Zm-3.32,12.29a1,1,0,0,1-1-1V278.06a1,1,0,0,1,1-1h7.16c4.64,0,7.18,2,7.18,5.84v.94a4.8,4.8,0,0,1-2.17,3.93,4.74,4.74,0,0,1,2.63,4.3v1.08c0,3.22-2.16,5.57-6.84,5.57Z"/><path class="cls-1" d="M163.82,290.16h5.07l-2.56-8.05Zm-6.16,8.57a.67.67,0,0,1-.7-.64.58.58,0,0,1,0-.29l7-19.8a1.43,1.43,0,0,1,1.3-.92h2.13a1.51,1.51,0,0,1,1.33.92l7.06,19.81a.68.68,0,0,1-.36.88.71.71,0,0,1-.29.05H172.6a1.41,1.41,0,0,1-1.3-.93L170,293.5h-7.2l-1.36,4.27a1.33,1.33,0,0,1-1.24,1Z"/><path class="cls-1" d="M183.49,298.73a1,1,0,0,1-1-1V278.06a1,1,0,0,1,1-1H186a1.76,1.76,0,0,1,1.48.86l7.18,13-.09-12.87a.93.93,0,0,1,.85-1h2.44a1,1,0,0,1,1,1v19.68a1,1,0,0,1-1,1h-2.63a1.71,1.71,0,0,1-1.45-.86l-7.15-12.94.12,12.81a1,1,0,0,1-1,1Z"/><path class="cls-1" d="M208,298.73a1,1,0,0,1-1-1V278.06a1,1,0,0,1,1-1h11.5a1,1,0,0,1,1,1v1.58a1,1,0,0,1-1,1h-8.23v6.16H218a1,1,0,0,1,1,.95v1.55a1,1,0,0,1-1,1h-6.68v7.49a1,1,0,0,1-1,1Z"/><path class="cls-1" d="M228.64,298.73a1,1,0,0,1-1-1V278.06a1,1,0,0,1,1-1h11.55a1,1,0,0,1,1,1v1.58a1,1,0,0,1-1,1H232v6.16h6.69a1,1,0,0,1,1,.95v1.55a1,1,0,0,1-1,1H232v7.49a1,1,0,0,1-1,1Z"/><path class="cls-1" d="M244.94,302.23c-.5,0-.75-.22-.75-.59v-.3c0-.41.15-.63.59-1a2.51,2.51,0,0,0,.87-1.74,1.88,1.88,0,0,1-.87-1.73,2.07,2.07,0,0,1,1.92-2.21,1.79,1.79,0,0,1,.4,0,2.11,2.11,0,0,1,2.39,1.79,1.85,1.85,0,0,1,0,.41c0,2.63-2.47,5.35-4.57,5.35"/><path class="cls-1" d="M285.81,292.94c0,3.6-3.25,6.23-7.84,6.23s-7.86-2.76-7.86-7.06v-8.45c0-4.3,3.28-7,7.86-7s7.84,2.62,7.84,6.18v.78a1,1,0,0,1-1,1h-2.42a.86.86,0,0,1-.9-.82v-.57c0-1.8-1.45-3-3.56-3s-3.55,1.36-3.55,3.9v7.68c0,2.54,1.45,3.9,3.55,3.9s3.56-1.21,3.56-3.06V292a.85.85,0,0,1,.76-.93h2.56a1,1,0,0,1,1,.95Z"/><path class="cls-1" d="M298.42,290.16h5.07l-2.57-8.05Zm-6.16,8.57a.67.67,0,0,1-.7-.64.58.58,0,0,1,.05-.29l7-19.81a1.43,1.43,0,0,1,1.3-.92h2.14a1.53,1.53,0,0,1,1.33.92l7.05,19.81a.68.68,0,0,1-.36.88.66.66,0,0,1-.28.05h-2.58a1.39,1.39,0,0,1-1.29-.93l-1.4-4.3h-7.15L296,297.77a1.3,1.3,0,0,1-1.24,1Z"/><path class="cls-1" d="M318.08,298.73a1,1,0,0,1-1-1V278.06a1,1,0,0,1,1-1h2.54a1.76,1.76,0,0,1,1.48.86l7.19,13-.1-12.87a.93.93,0,0,1,.85-1h2.44a1,1,0,0,1,1,1v19.68a1,1,0,0,1-1,1h-2.63a1.71,1.71,0,0,1-1.45-.86l-7.15-12.94.12,12.81a1,1,0,0,1-1,1Z"/><path class="cls-1" d="M346.88,290.16H352l-2.57-8.05Zm-6.16,8.57a.68.68,0,0,1-.7-.66.86.86,0,0,1,.05-.27l7-19.81a1.43,1.43,0,0,1,1.3-.92h2.13a1.51,1.51,0,0,1,1.34.92l7.05,19.81a.68.68,0,0,1-.36.88.71.71,0,0,1-.29.05H355.7a1.41,1.41,0,0,1-1.3-.93l-1.4-4.3h-7.15l-1.36,4.27a1.3,1.3,0,0,1-1.24,1Z"/><path class="cls-1" d="M369.86,295.24h4c2.05,0,3.16-1.37,3.16-3.91v-6.87c0-2.54-1.11-3.86-3.16-3.86h-4Zm-3.31,3.49a1,1,0,0,1-1-1V278.06a1,1,0,0,1,1-1h7.33c4.62,0,7.46,2.72,7.46,7v7.62c0,4.3-2.84,7-7.46,7Z"/><path class="cls-1" d="M393.74,290.16h5.07l-2.57-8.05Zm-6.16,8.57a.67.67,0,0,1-.7-.64.58.58,0,0,1,.05-.29L394,278a1.42,1.42,0,0,1,1.29-.92h2.14a1.53,1.53,0,0,1,1.33.92l7.06,19.81a.68.68,0,0,1-.36.88.71.71,0,0,1-.29.05H402.6a1.41,1.41,0,0,1-1.3-.93l-1.39-4.3h-7.16l-1.36,4.27a1.31,1.31,0,0,1-1.23,1Z"/></svg>