<svg id="Layer_1" data-name="Layer 1" xmlns="http://www.w3.org/2000/svg" viewBox="0 0 413.58 335.93"><defs><style>.cls-1{fill:#3f517a;}</style></defs><title>norquay-dark</title><g id="Layer_2" data-name="Layer 2"><g id="Layer_1-2" data-name="Layer 1-2"><polyline class="cls-1" points="22.51 232.68 99.88 125.76 127.17 176.12 89.47 232.68 22.51 232.68"/><polyline class="cls-1" points="139.55 73.43 106.07 119.57 171.06 232.39 187.94 232.39 208.76 196.94 139.55 73.43"/><polyline class="cls-1" points="133.36 186.53 104.1 232.68 160.65 232.39 133.36 186.53"/><polyline class="cls-1" points="258.56 0 177.25 121.54 214.95 186.25 294.29 62.74 258.56 0"/><polyline class="cls-1" points="298.51 77.37 200.6 232.39 384.6 232.11 298.51 77.37"/><path class="cls-1" d="M36,325.8,8.16,279.94V325.8H0V265H8.16l27.57,45.58V265h8.16v60.8Z"/><path class="cls-1" d="M87.5,264.19a31.23,31.23,0,1,1-31,31.46v0c0-.82,0-1.64.08-2.45A31.47,31.47,0,0,1,87.5,264.19Zm-.28,54.58a23.38,23.38,0,1,0-22.49-24.24v.89a22.5,22.5,0,0,0,21.64,23.33h0Z"/><path class="cls-1" d="M172.75,325.8H162.62L146.86,303h-7.59v22.8h-8.44V265h23.35c12.94,0,18,9.57,18,19.13,0,9-4.51,17.73-16,18.85Zm-33.48-53.17v22.79H153.9c7.31,0,10.13-5.63,10.13-11.26s-2.82-11.53-9.85-11.53Z"/><path class="cls-1" d="M235.21,332l-6.47,3.94L222,325.24a36,36,0,0,1-9.56,1.41,31,31,0,0,1-30.77-31.13,18.4,18.4,0,0,1,.1-2.35,30.84,30.84,0,1,1,47,28.41Zm-10.69-16.88a23.07,23.07,0,1,0-34.61-19.69,22.15,22.15,0,0,0,20.82,22.79,27.26,27.26,0,0,0,6.75-.29l-6.19-10.12,6.19-3.94Z"/><path class="cls-1" d="M291.48,304.7V264.75h8.44V304.7a22.23,22.23,0,0,1-44.46,0V264.75h8.45V304.7a13.54,13.54,0,0,0,13.26,13.8h.8a13.06,13.06,0,0,0,13.52-12.58C291.5,305.51,291.5,305.1,291.48,304.7Z"/><path class="cls-1" d="M322.43,310.33l-5.91,15.47H307.8L330.87,265h8.72l23.07,60.77h-8.72L348,310.33Zm23.07-7.6-10.13-27-10.13,27Z"/><path class="cls-1" d="M381.79,325.8V297.67l-23.07-32.92h9.85L386,289.51l17.73-24.76h9.84l-23.35,32.92V325.8Z"/></g></g></svg>