<svg id="Layer_1" data-name="Layer 1" xmlns="http://www.w3.org/2000/svg" viewBox="0 0 150.21 160.73"><defs><style>.cls-1{fill:#232021;}.cls-2{fill:#231f21;}.cls-3{fill:#81b8e2;}.cls-4{fill:#242022;}.cls-5{fill:#82b8e2;}.cls-6{fill:#262324;}.cls-7{fill:#272324;}.cls-8{fill:#272325;}.cls-9{fill:#252123;}.cls-10{fill:#252223;}.cls-11{fill:#87b9e0;}.cls-12{fill:#2a2728;}.cls-13{fill:#9bbdd7;}.cls-14{fill:#fcfcfc;}.cls-15{fill:#fafafa;}.cls-16{fill:#f7f6f7;}.cls-17{fill:#f4f3f4;}.cls-18{fill:#edeced;}.cls-19{fill:#ecebeb;}.cls-20{fill:#fdfdfd;}.cls-21{fill:#f5f4f5;}.cls-22{fill:#e5e2e3;}.cls-23{fill:#dad7d8;}</style></defs><title>papabears</title><path class="cls-1" d="M42.06,27.85c-2.54,1.51-5.11,3-7.6,4.55A2.56,2.56,0,0,0,33.34,34a1.92,1.92,0,0,1-1.76,1.81,4.23,4.23,0,0,0-3.14,2.27,5.34,5.34,0,0,1-4.28,2.72c-.64.05-1.26.31-1.89.31-2.24,0-3.46,1.19-4.53,3.14A65.52,65.52,0,0,0,32.82,125.5a68.66,68.66,0,0,0,15.82,10.09,2.14,2.14,0,0,0,1.15.23,2.35,2.35,0,0,0-.3-.33c-8.09-5.92-13-14.06-16.19-23.36a78.38,78.38,0,0,1-3.85-20.2,5,5,0,0,1,2.3-4.78,27.38,27.38,0,0,1,8.49-3.8,102,102,0,0,1,20.89-3.54,166.54,166.54,0,0,1,34.36.69c6.71.86,13.37,2,19.59,4.82a22.08,22.08,0,0,1,4,2.55,3.89,3.89,0,0,1,1.55,3.58c-.12,1.47-.17,3-.26,4.43,1.28.3,2.58.52,3.81.91,5.21,1.67,7.48,5.92,6,11.18a16.1,16.1,0,0,1-5.07,7.7,42,42,0,0,1-12.61,7.49,3.43,3.43,0,0,0-1.5,1.21,44,44,0,0,1-11.18,11.82,6.12,6.12,0,0,0,1.12-.28c20.93-9.57,34.25-25.51,38.5-48.15,4.34-23-2.52-42.93-19.11-59.49a2.55,2.55,0,0,0-2.18-.89,6.57,6.57,0,0,1-2.42-.54c-.79-.27-1.52-.69-2.57-1.18.34,1,.61,1.79,1,2.93l-1.15-1a41.11,41.11,0,0,0-10.18-6.91,1.68,1.68,0,0,1-.78-1.07c-.29-1.32-.43-2.68-.68-4a2.32,2.32,0,0,0-.48-1.18c-2.13-2.1-4.3-4.15-6.45-6.21-1.13,2-3.19,2.34-4.66,3.24a23.84,23.84,0,0,0,3.58,1.58,6.54,6.54,0,0,0,2.74-.12,6.53,6.53,0,0,0,1.58-.75c3.19,2.77,3.62,5.27,1.43,8.31C98,19.68,97,18.82,95.8,18.06a26.32,26.32,0,0,0-3.22-1.85,3.39,3.39,0,0,0-4,.36l-1.8-4.7c2.31-1.7,4.57-3.38,6.86-5a1.3,1.3,0,0,1,1,0c2.24,1,4.4,2.15,6.71,2.88a6.18,6.18,0,0,1,3.37,2.3,16.49,16.49,0,0,0,5.38,4.11,64.75,64.75,0,0,1,17,14.07c11.31,13.07,17.27,28.3,17.06,45.56-.29,24.84-11,44.51-31.82,58-39.45,25.46-91.88,4.8-103.92-40.59C.16,61.83,15.07,28.9,44.31,14c.71-.36,1.35-.84,1.95-1.21L51.69,17a.89.89,0,0,1,.26.25l4.8,8a1.5,1.5,0,0,1,0,.23A35.14,35.14,0,0,0,45.4,29.13c-1.26.61-2.47,1.32-3.73,1.92a3.09,3.09,0,0,1-1.07.12,3.57,3.57,0,0,1,.22-1c.42-.77.9-1.5,1.36-2.25l.13-.23ZM37,93.32c.48.32.8.56,1.15.75.52.29,1,.59,1.59.83a57.42,57.42,0,0,0,15.91,3.82,156.21,156.21,0,0,0,39,0,57.81,57.81,0,0,0,15-3.53c1.14-.47,2.21-1.13,3.62-1.86-1.37-.73-2.36-1.34-3.42-1.78a54.13,54.13,0,0,0-13.45-3.36A154.48,154.48,0,0,0,64.82,87a99.82,99.82,0,0,0-19.67,2.84A23.58,23.58,0,0,0,37,93.32Zm78.84,22.41c.93-.6,2-1.26,3-2a17.15,17.15,0,0,0,5.75-6c2.12-4-.18-7.63-4.52-7.61C118.66,105.41,117.25,110.58,115.84,115.73ZM32.56,25.89l.14.44c1.28-.49,2.54-1.09,3.85-1.46,3.91-1.11,7.85-2.12,11.77-3.2,1.9-.52,2.32-1.57,1.15-3.18-1-1.38-2.2-2.62-3.32-3.94a3.66,3.66,0,0,0-1.49,2.81,4,4,0,0,1-2.47,3.55ZM38,27.77l-.16-.54c-1.85.33-3.7.6-5.53,1a6.9,6.9,0,0,0-3,1.07c-1.76,1.57-3.29,3.41-4.91,5.13C29.49,33.25,33.29,29.69,38,27.77Zm66.56-12c.61,3,2.48,4.66,4.54,6.19,1.15-1.35,1.08-2.29-.29-3.29S106.08,16.79,104.52,15.73Zm6.34,4.56-.17.17c.48.85.92,1.74,1.46,2.56a3.9,3.9,0,0,0,1.26,1.35c1.21.67,2.5,1.19,3.77,1.74a5.17,5.17,0,0,0,.82.2l.07-.19ZM26.45,36.89c-2,1.16-4.69.94-6,3.22C22.61,39.36,25.08,39.14,26.45,36.89Z"/><path class="cls-2" d="M65.91,60.42c-.28-3.58.77-7,1.61-10.37.88-3.59,2.69-5.12,6.09-5.44a7.17,7.17,0,0,1,7,4.28,73.24,73.24,0,0,1,2.56,7.84c1.75,6,.36,11.44-3.41,16.33a4.27,4.27,0,0,1-.93.92c-1.68,1.15-7.88.93-9.6-1.46a18.16,18.16,0,0,1-3.34-9.82C65.87,61.94,65.91,61.18,65.91,60.42Z"/><path class="cls-3" d="M78,44a10.3,10.3,0,0,0-6.43-.62c-3.76,1-5.36,3.88-6.2,7.36-.29,1.21-.46,2.45-.8,3.65A21.71,21.71,0,0,1,66.18,40c2.46-5.16,6.12-9.41,10-13.51a37,37,0,0,0,3.12-3.62c2.92-4,2.44-8.18.32-12.22-1.7-3.23-3.81-6.25-5.74-9.37-.12-.2-.27-.39-.39-.59a.83.83,0,0,1,0-.68,15.16,15.16,0,0,1,2,1.27C79.3,4.57,83,7.94,85.34,12.47A15.8,15.8,0,0,1,85.7,27.1c-1.33,2.9-2.94,5.67-4.45,8.49a25.3,25.3,0,0,0-3,7.79A3.36,3.36,0,0,1,78,44Z"/><path class="cls-1" d="M61.34,62.4c-.34,2.13-.58,4.72-1.19,7.23-.78,3.25-3.16,5.05-6.26,6a1.8,1.8,0,0,1-1.17,0c-2.42-1.1-4.58-2.38-5-5.43a27.55,27.55,0,0,1,.89-12.31,7.52,7.52,0,0,1,5.62-5.22,5,5,0,0,1,6.43,4.08C61,58.42,61.1,60.18,61.34,62.4Z"/><path class="cls-4" d="M102,68.38a36.13,36.13,0,0,1-.41,4c-.62,2.94-3.26,4.1-5.74,2.46-6.41-4.23-8.14-8.77-6.12-16.11a17.45,17.45,0,0,1,2-4.69c1.6-2.54,3.65-2.59,5.28-.08C99.9,58.36,102.26,62.92,102,68.38Z"/><path class="cls-5" d="M96.62,51.26c-2.85-.92-4.3-.45-5.94,2.05-.7,1.06-1.16,2.27-1.78,3.38-.17.29-.56.46-.84.68-.19-.28-.5-.53-.55-.82-1-6.63.16-12.73,4.53-18,1.52-1.84,3.2-3.56,4.76-5.37a6.06,6.06,0,0,0,1-6.85c-1.23-2.61-2.91-5-4.4-7.5a.84.84,0,0,1-.16-.65,7.86,7.86,0,0,1,1.1.63c3.28,2.62,6.29,5.48,7.52,9.65,1.07,3.62-.34,6.79-2,9.91A34.93,34.93,0,0,0,96.74,45c-.49,1.6-.17,3.46-.19,5.2A10.28,10.28,0,0,0,96.62,51.26Z"/><path class="cls-6" d="M75.85,19.78a15.24,15.24,0,0,1-1.47-1.38c-1.46-1.84-3.62-2.67-5.53-3.83a2.26,2.26,0,0,0-3.36,1.92c0,.24.41.6.71.75,2.74,1.37,5.5,2.71,8.22,4.16-2.09.42-3.65-1.23-5.69-1.49L69,23c-3-3.79-5.87-4.43-9.14-2.58l-4.47-3.63a1.52,1.52,0,0,1,0-2.68,5.31,5.31,0,0,1,.68-.49,20,20,0,0,0,6.28-5.43c.14-.19.35-.44.53-.44,1.32-.07,1.77-1.21,2.57-1.94,1.2-1.1,2.53-2,3.76-3.12,1-.88,2-1.85,2.87-2.72.54,1.09,1.12,2.19,1.64,3.32A18.16,18.16,0,0,1,75,6.3c.29,1.15-.15,1.72-1.29,2-1.29.33-1.43.65-.76,1.82a22.63,22.63,0,0,1,2.85,8.08C75.83,18.62,75.82,19,75.85,19.78ZM71.73,1.67l-.4-.31C70,2.77,68.35,4,67.45,5.64a7.24,7.24,0,0,1-4,3.35s0,.12,0-.12l4.18.58.47.06c1.2.05,1.59-.39,1.45-1.61a.68.68,0,0,1,.19-.52C71.35,5.81,71.33,3.67,71.73,1.67ZM56.46,15.16l.31.47c.59-.37,1.16-.78,1.77-1.12.89-.51,1.79-1,2.7-1.44s1.87-.83,2.74-1.35c.3-.18.38-.7.57-1.07-.5-.06-1.16-.36-1.48-.15C60.83,12,58.66,13.59,56.46,15.16Z"/><path class="cls-3" d="M49.07,48.52a19.82,19.82,0,0,1,5-10.54C55.34,36.49,56.65,35,58,33.61c2.31-2.46,2.45-5.25,1-8.09-1.15-2.3-2.66-4.44-4-6.65a1.88,1.88,0,0,1-.37-1.06c.72.58,1.47,1.13,2.16,1.74,2.46,2.17,4.8,4.45,6.1,7.58a9.94,9.94,0,0,1-.28,8.57c-1.22,2.47-2.53,4.9-3.73,7.37a11.19,11.19,0,0,0-.77,7.47c.05.26,0,.54.06,1-3-1.21-5.63-.29-8.06,1.4l-.53.46h0a3.23,3.23,0,0,1-.48-1C49.05,51.07,49.07,49.8,49.07,48.52Z"/><path class="cls-4" d="M118.48,76.3c-.09,1.27-.11,2.56-.29,3.82-.23,1.7-1,2.34-2.7,2.47-4.31.31-8.71-4.14-8.1-8.38.5-3.48,1.27-6.91,1.92-10.36a2.65,2.65,0,0,1,2.23-2.23,2.48,2.48,0,0,1,2.55,1.2A20.92,20.92,0,0,1,118.2,73.9c.08.8.12,1.6.18,2.39Z"/><path class="cls-4" d="M32.17,76.8c.19-5,1.11-9.69,4.18-13.78.72-1,1.52-1.65,2.81-1.37a2.81,2.81,0,0,1,2.23,2.52c.61,3.21,1.24,6.43,1.82,9.65a6.25,6.25,0,0,1-3,6.87c-1.48,1-2.92,2-4.8,1.91s-2.72-.71-3-2.58C32.23,79,32.24,77.88,32.17,76.8Z"/><path class="cls-6" d="M134,136.51c0,.32.07.72-.09.94-.6.79-1.28,1.52-1.85,2.18l-8.13-8.4c.62-.65,1.31-1.42,2.06-2.1.18-.17.59-.07.89-.1l.27-.05-.2-.29c.27-.44.52-.88.83-1.29.45-.61.93-1.2,1.32-1.68l8.07,8.44c-.61.65-1.32,1.44-2.09,2.17-.14.12-.56-.06-.86-.11l-.17-.17-.23-.24-.24-.25-1.86-2.71-1,1.06,2.55,1.86.24.24.24.24Zm-6-6.77-.36-.08.15.36,1.35,2.23,1.12-1Zm-.8-.38.08.09a.6.6,0,0,0,.08-.16s-.05,0-.08-.08Z"/><path class="cls-6" d="M146.53,122.61l-9.85-6c.39-.64.83-1.47,1.39-2.22a1.19,1.19,0,0,1,1-.25c1.2.23,2.39.53,3.58.81l.11-.29-3.8-1.82,1.62-2.65,9.63,6.18c-1.15,2.56-1.15,2.55-3.79,2a5.62,5.62,0,0,0-2.17-.08l3.82,1.74Z"/><path class="cls-7" d="M71.88,154.78c1.19,1.86.68,3.88.9,5.95l-1.33-.07c-2.31-.13-2.29-.12-2.09-2.5.06-.76.54-1.73-.79-2.24v4.52l-3.74-.28c.26-2,.6-3.85.73-5.73s0-3.71,0-5.85a49.27,49.27,0,0,1,6.09.8c1.69.42,2,3.62.66,5A3.52,3.52,0,0,1,71.88,154.78Zm-2.44-3.57-.57.18-.11,2.25.43.18c.26-.4.69-.78.73-1.2A4.07,4.07,0,0,0,69.44,151.21Z"/><path class="cls-6" d="M39,139.77c1.43.74,3,1.53,4.6,2.37a2,2,0,0,1,1.17,2.17,3.51,3.51,0,0,1-1.83,2.91,4.86,4.86,0,0,1-.79.25,3.74,3.74,0,0,1-1.29,4.63,3.08,3.08,0,0,1-2.34.24,51.38,51.38,0,0,1-4.71-2.25C35.52,146.62,37.22,143.24,39,139.77Zm-.15,7.43-1.06,2.13c1,.61,1.38,0,1.7-.61S39.73,147.5,38.82,147.2Zm1.89-3.76-.85,1.71.28.37c.39-.21.91-.33,1.15-.66C41.72,144.29,41.6,143.73,40.71,143.44Z"/><path class="cls-8" d="M98.21,145.56l2.77-.85c1.15,1.38.38,2.75.09,4a2.42,2.42,0,0,0,.7,2.57,20.25,20.25,0,0,1,2.2,2.34,7.4,7.4,0,0,1,.78,1.94l-3.15,1-2.27-3.92-.43.2,1.69,4L97.15,158c-1.14-3.67-2.27-7.29-3.42-11l3.44-1.08L98,150l.47,0Z"/><path class="cls-8" d="M50.86,157.26l-6.78-2.34c1.27-3.61,2.52-7.19,3.81-10.88l6.73,2.32c-.43,1.24-.84,2.42-1.28,3.71L51,149.26l-.4-1.79-.42,0-.65,1.79,1.79.72-.73,2.09-1.82-.57L48,153.59c1.25.55,1.13-.67,1.62-1.18l2.58.88Z"/><path class="cls-6" d="M130.81,124.18l4.61-5.73,3.06,2.45-1.57,2-1.82-.23-.11.43,1.48,1.17,1.27-1.43,1.72,1.39-1.15,1.53,1.72,1.38c.87-1-.25-1.32-.6-1.94l1.73-2.15,3.26,2.63-4.59,5.74c-1.45-1.31-2.8-2.63-4.27-3.81S132.47,125.37,130.81,124.18Z"/><path class="cls-8" d="M80.82,156.51l2.92-.34a3.47,3.47,0,0,0,.2.92,4.82,4.82,0,0,0,.74.76c.13-.34.44-.74.35-1a2.26,2.26,0,0,0-.83-1c-.23-.18-.61-.15-.93-.21a3.68,3.68,0,0,1-2.93-5.09,4,4,0,0,1,1.48-1.6,3.22,3.22,0,0,1,1.48-.4c2.86-.41,3.9.47,4,3.5l-2.67.32a3.81,3.81,0,0,0-.2-.6,2.86,2.86,0,0,0-.56-.68s-.48.25-.47.36c0,.36.08.9.32,1a6.78,6.78,0,0,0,1.69.52c2.14.53,3,1.78,2.79,4.32-.12,1.84-1.25,2.91-3.31,3.11a7.61,7.61,0,0,1-1.07,0c-2.08,0-2.62-.54-2.83-2.59C80.94,157.45,80.89,157.06,80.82,156.51Z"/><path class="cls-8" d="M57.79,147.15l4,.82v11.78l-4.05-.85.91-2.84-1.26-.28-.25,3L53.59,158Zm.16,6.4,1,.15.2-2.8-.18-.06Z"/><path class="cls-6" d="M26.68,145.72l-3.22-2.47,2-2.19-1-.78L23,142.87l-2.9-2.19,8.5-8L32,135.28Zm1-8.84L26,138.51l.79.6,1.1-2.1,0-.33Z"/><path class="cls-7" d="M10.52,131.25,8,128l2.49-1.6-.54-.73-2.14,2.05L5.38,124.7l10.25-5.63,2.66,3.39Zm3.37-8.15-.18-.22-2.24,1.29.71.74Z"/><path class="cls-9" d="M15.23,136.07l-2.43-2.52,8.1-8.2c1.05,1.1,2.23,2.28,3.35,3.52a2.3,2.3,0,0,1,.16,3.27,17.17,17.17,0,0,1-2.68,2.71,2.25,2.25,0,0,1-3.08-.07c-.47-.36-.9-.78-1.42-1.23a10.71,10.71,0,0,1-.81,1.35A12.07,12.07,0,0,1,15.23,136.07Zm3.82-4.32c.93.69,1.38.5,2.48-.87.43-.55.54-1-.09-1.34Z"/><path class="cls-6" d="M124.63,136l-2.49,1.85a7.71,7.71,0,0,0-.87-1c-.16-.15-.47-.13-.72-.18,0,.25-.2.59-.09.73,1.11,1.57,2.24,3.11,3.41,4.63.12.16.48.13.73.2,0-.29.13-.64,0-.85a14.05,14.05,0,0,0-1.08-1.53l2.4-1.77c.7.95,1.4,1.81,2,2.75a1.51,1.51,0,0,1,0,1.18,5.38,5.38,0,0,1-3.24,3,2.7,2.7,0,0,1-3.21-1c-1.27-1.64-2.54-3.29-3.69-5a2.67,2.67,0,0,1,.43-3.78c1.09-1.1,2.5-2,3.94-1.59C123.12,133.84,123.78,135.12,124.63,136Z"/><path class="cls-10" d="M4.46,117.15l-2.57,2L0,116l9.93-5.92c.79,1.37,1.68,2.83,2.48,4.33a2.21,2.21,0,0,1-.63,3A20.3,20.3,0,0,1,8.3,119.5a2.22,2.22,0,0,1-2.78-.8C5.15,118.23,4.85,117.72,4.46,117.15Zm4.91-3-2.81,1.69c1.11,1.33,1.81.07,2.57-.26C9.74,115.31,10.06,114.81,9.37,114.16Z"/><path class="cls-6" d="M110.62,143.12l1.2,2.37-1.88,1.07L107.4,142l7.4-4.12c.84,1.53,1.67,3,2.54,4.58l-1.87,1-1.4-2.18-.39.24,4.58,7.58-3.12,1.77-4.09-8Z"/><path class="cls-8" d="M102.79,143.91l3.07-1.32c1.5,3.52,3,7,4.5,10.6l-3,1.33Z"/><path class="cls-11" d="M41.19,55.14l-.55,5a18.25,18.25,0,0,1-2.37,0c-.24,0-.66-.59-.61-.68.9-1.51,1.86-3,2.81-4.47Z"/><path class="cls-11" d="M110.4,60.09c-.15-1.66-.3-3.3-.45-4.94l.33-.16c.23.16.54.27.68.49.78,1.16,1.53,2.34,2.25,3.53.44.73.23,1.12-.66,1.09C111.92,60.07,111.28,60.09,110.4,60.09Z"/><path class="cls-12" d="M76.19,153.25l.23-1.61c-.15-.15-.59-.37-.66-.67a2.63,2.63,0,0,1,.08-1.55,1.19,1.19,0,0,1,1.1-.41,1.85,1.85,0,0,1,.94,1.08c.31,1.35-.47,2.33-1.29,3.24Z"/><path class="cls-13" d="M49.07,48.52c0,1.28,0,2.55,0,3.83a3.23,3.23,0,0,0,.48,1c-.55.71-1,.43-.92-.27C48.72,51.58,48.93,50.05,49.07,48.52Z"/><path class="cls-13" d="M49.59,53.39l.53-.46Z"/><path class="cls-14" d="M37,93.32a23.58,23.58,0,0,1,8.15-3.46A99.82,99.82,0,0,1,64.82,87a154.48,154.48,0,0,1,31.59,1.15,54.13,54.13,0,0,1,13.45,3.36c1.06.44,2,1,3.42,1.78-1.41.73-2.48,1.39-3.62,1.86a57.81,57.81,0,0,1-15,3.53,156.21,156.21,0,0,1-39,0A57.42,57.42,0,0,1,39.74,94.9c-.55-.24-1.07-.54-1.59-.83C37.8,93.88,37.48,93.64,37,93.32Z"/><path class="cls-15" d="M115.84,115.73c1.41-5.15,2.82-10.32,4.26-15.55,4.34,0,6.64,3.64,4.52,7.61a17.15,17.15,0,0,1-5.75,6C117.84,114.47,116.77,115.13,115.84,115.73Z"/><path class="cls-16" d="M32.56,25.89l9.63-5a4,4,0,0,0,2.47-3.55,3.66,3.66,0,0,1,1.49-2.81c1.12,1.32,2.32,2.56,3.32,3.94,1.17,1.61.75,2.66-1.15,3.18-3.92,1.08-7.86,2.09-11.77,3.2-1.31.37-2.57,1-3.85,1.46Z"/><path class="cls-17" d="M38,27.77c-4.67,1.92-8.47,5.48-13.59,6.67,1.62-1.72,3.15-3.56,4.91-5.13a6.9,6.9,0,0,1,3-1.07c1.83-.41,3.68-.68,5.53-1Z"/><path class="cls-17" d="M104.52,15.73c1.56,1.06,2.93,1.94,4.25,2.9s1.44,1.94.29,3.29C107,20.39,105.13,18.75,104.52,15.73Z"/><path class="cls-18" d="M110.86,20.29l7.21,5.83-.07.19a5.17,5.17,0,0,1-.82-.2c-1.27-.55-2.56-1.07-3.77-1.74A3.9,3.9,0,0,1,112.15,23c-.54-.82-1-1.71-1.46-2.56Z"/><path class="cls-19" d="M26.45,36.89c-1.37,2.25-3.84,2.47-6,3.22C21.76,37.83,24.47,38.05,26.45,36.89Z"/><path class="cls-20" d="M42.06,27.85l.25-.11-.13.23Z"/><path class="cls-21" d="M71.73,1.67c-.4,2-.38,4.14-2,5.71a.68.68,0,0,0-.19.52c.14,1.22-.25,1.66-1.45,1.61l-.47-.06L63.4,8.87c0,.24,0,.13,0,.12a7.24,7.24,0,0,0,4-3.35C68.35,4,70,2.77,71.33,1.36Z"/><path class="cls-18" d="M56.46,15.16c2.2-1.57,4.37-3.17,6.61-4.66.32-.21,1,.09,1.48.15-.19.37-.27.89-.57,1.07-.87.52-1.83.89-2.74,1.35s-1.81.93-2.7,1.44c-.61.34-1.18.75-1.77,1.12Z"/><path class="cls-20" d="M133.25,135.77l-2.55-1.86,1-1.06,1.86,2.71Z"/><path class="cls-20" d="M127.93,129.74l2.26,1.49-1.12,1L127.72,130Z"/><path class="cls-20" d="M127.72,130l-.15-.36.36.08Z"/><path class="cls-20" d="M133.53,135.56l.24.25-.28.2-.24-.24Z"/><path class="cls-20" d="M133.73,136.25l-.24-.24.28-.2.23.24Z"/><path class="cls-20" d="M134,136.05l.17.17-.22.29-.22-.26Z"/><path class="cls-20" d="M127.13,129.36l.08-.15s.08.06.08.08a.6.6,0,0,1-.08.16Z"/><path class="cls-20" d="M126.9,128.69l.2.29-.27.05C126.85,128.92,126.87,128.8,126.9,128.69Z"/><path class="cls-22" d="M69.44,151.21a4.07,4.07,0,0,1,.48,1.41c0,.42-.47.8-.73,1.2l-.43-.18.11-2.25Z"/><path class="cls-22" d="M38.82,147.2c.91.3,1,.85.64,1.52s-.69,1.22-1.7.61Z"/><path class="cls-22" d="M40.71,143.44c.89.29,1,.85.58,1.42-.24.33-.76.45-1.15.66l-.28-.37Z"/><path class="cls-23" d="M58,153.55l1-2.71.18.06-.2,2.8Z"/><path class="cls-22" d="M27.86,137l-1.1,2.1-.79-.6,1.75-1.63Z"/><path class="cls-22" d="M27.72,136.88l.18-.2c0,.11,0,.22,0,.33Z"/><path class="cls-23" d="M13.89,123.1l-1.71,1.81-.71-.74,2.24-1.29Z"/><path class="cls-22" d="M19.05,131.75l2.39-2.21c.63.32.52.79.09,1.34C20.43,132.25,20,132.44,19.05,131.75Z"/><path class="cls-19" d="M9.37,114.16c.69.65.37,1.15-.24,1.43-.76.33-1.46,1.59-2.57.26Z"/></svg>