<svg id="Layer_1" data-name="Layer 1" xmlns="http://www.w3.org/2000/svg" viewBox="0 0 531.34 80"><defs><style>.cls-1{fill:#fdfdfd;}.cls-2{fill:#2f2d2e;}.cls-3{fill:#343334;}.cls-4{fill:#ec2f4a;}.cls-5{fill:#333233;}.cls-6{fill:#312f31;}.cls-7{fill:#2b292a;}.cls-8{fill:#2e2c2d;}.cls-9{fill:#363435;}.cls-10{fill:#f6f7f7;}</style></defs><title>pursuit</title><path class="cls-1" d="M173.52,9.77V69.3H186.8V50.73c7.21-2,11.68.16,14.6,6.46,1.66,3.57,4.28,6.72,6.61,10,.71,1,1.88,2.25,2.9,2.31,4.53.25,9.08.11,14.39.11L211,48.45a7.07,7.07,0,0,1,1-1c9.4-5.18,12.89-12.42,11-22.78-1.57-8.42-7.89-14.1-18.27-14.75S184.09,9.77,173.52,9.77Zm166.87-.15c0,12.65-.59,24.83.15,36.92,1,15.74,9.41,23.25,25.06,23.78,14.37.49,25-6.61,26.13-19.68,1.19-13.47.26-27.13.26-41H379.15c0,11.87.07,23.47,0,35.08-.07,8.37-4.58,13.12-12.26,13.23-7.94.13-12.86-4.7-13-13.09-.13-9.32,0-18.64,0-28,0-2.42,0-4.83,0-7.31ZM82.14,9.67c0,13.19-.4,26,.22,38.79a25.13,25.13,0,0,0,4.76,12.82c7.15,9.81,17.74,10.11,28.44,8.18C125.19,67.72,132,61.72,132.92,52c1.37-14,1.23-28.09,1.74-42.34H121c0,10.38.07,20.52,0,30.65A40.11,40.11,0,0,1,120,49.2c-1.37,5.8-5.49,8.71-11.7,8.79s-10.62-2.78-12.16-8.28a30.15,30.15,0,0,1-1-7.88c-.1-10.63,0-21.27,0-32.16Zm220.41,6.52c-10.36-7.25-21-10-32.74-5.49-7.11,2.72-10.54,8.43-10.76,15.9s3.26,12.75,10.28,15.46c3.09,1.19,6.29,2.07,9.44,3.11,3,1,6.18,1.64,8.86,3.19,1.55.9,3.23,3.36,3.08,5s-2.26,3.47-3.95,4.41a7.72,7.72,0,0,1-5.33.56c-5.8-1.65-11.48-3.7-17.92-5.84-1.68,2-4.2,5-6.8,8.15,9.21,8.07,19.69,10.78,31.28,9.22,9-1.21,15.05-7.29,16-15.34,1.12-9.43-2.3-14.9-11.9-18.75-2.61-1-5.36-1.75-8-2.64s-5.87-1.49-8.38-3c-1.53-.9-3.22-3.37-3-4.89s2.39-3.53,4.12-4.14a11.72,11.72,0,0,1,6.84-.09c4.07,1.21,7.95,3.08,12.24,4.81ZM531.34,9.63H482.1V21.94H500V69.18h13.85V21.75h17.51Z"/><path class="cls-2" d="M0,9c7,.14,14,.25,20.92.42a82.21,82.21,0,0,1,8.46.43c10.68,1.37,17.26,8.47,18.06,19.28.74,10.14-5,18.57-15.32,21-5.92,1.39-12.15,1.41-18.8,2.1V69.29L0,70ZM13.33,39.3c4.51,0,8.67.3,12.77-.08A8.59,8.59,0,0,0,34,30.48c0-4.56-2.58-8-7.38-8.52-4.34-.48-8.77-.1-13.29-.1Z"/><path class="cls-3" d="M419,80l8.58-38.71c3.23,6.35,7.53,9.11,15.25,6.05-5.15,8.16-9.64,15.11-14,22.16-2.1,3.41-3.91,7-5.85,10.5Z"/><path class="cls-4" d="M455,0c-2.73,12.61-5.45,25.23-8.14,37.67-2.21-2.05-4-4.67-6.52-5.79-2.31-1-5.34-.48-8.21-.63C438.67,21,445.33,10.48,452,0Z"/><path class="cls-5" d="M173.52,9.77c10.57,0,20.89-.51,31.14.14s16.7,6.33,18.27,14.75c1.92,10.36-1.57,17.6-11,22.78a7.07,7.07,0,0,0-1,1L225.3,69.57c-5.31,0-9.86.14-14.39-.11-1-.06-2.19-1.32-2.9-2.31-2.33-3.24-4.95-6.39-6.61-10-2.92-6.3-7.39-8.44-14.6-6.46V69.3H173.52ZM187,21.64V38.29c5.08,0,9.75.24,14.39-.07,5.54-.36,8.55-3.68,8.39-8.57-.15-4.6-3.2-7.67-8.52-8C196.65,21.43,192,21.64,187,21.64Z"/><path class="cls-6" d="M340.39,9.62h13.45c0,2.48,0,4.89,0,7.31,0,9.32-.1,18.64,0,28,.13,8.39,5.05,13.22,13,13.09,7.68-.11,12.19-4.86,12.26-13.23.1-11.61,0-23.21,0-35.08H392c0,13.84.93,27.5-.26,41C390.57,63.71,380,70.81,365.6,70.32c-15.65-.53-24.1-8-25.06-23.78C339.8,34.45,340.39,22.27,340.39,9.62Z"/><path class="cls-7" d="M82.14,9.67h13c0,10.89-.06,21.53,0,32.16a30.15,30.15,0,0,0,1,7.88c1.54,5.5,6,8.37,12.16,8.28s10.33-3,11.7-8.79a40.11,40.11,0,0,0,.91-8.89c.11-10.13,0-20.27,0-30.65h13.67c-.51,14.25-.37,28.37-1.74,42.34-.95,9.72-7.73,15.72-17.36,17.46-10.7,1.93-21.29,1.63-28.44-8.18a25.13,25.13,0,0,1-4.76-12.82C81.74,35.68,82.14,22.86,82.14,9.67Z"/><path class="cls-8" d="M302.55,16.19l-6.68,9.6c-4.29-1.73-8.17-3.6-12.24-4.81a11.72,11.72,0,0,0-6.84.09c-1.73.61-3.9,2.55-4.12,4.14s1.48,4,3,4.89c2.51,1.49,5.56,2,8.38,3s5.43,1.6,8,2.64c9.6,3.85,13,9.32,11.9,18.75-1,8.05-7,14.13-16,15.34-11.59,1.56-22.07-1.15-31.28-9.22,2.6-3.13,5.12-6.14,6.8-8.15,6.44,2.14,12.12,4.19,17.92,5.84a7.72,7.72,0,0,0,5.33-.56c1.69-.94,3.78-2.78,3.95-4.41s-1.53-4.05-3.08-5c-2.68-1.55-5.87-2.19-8.86-3.19-3.15-1-6.35-1.92-9.44-3.11-7-2.71-10.5-8-10.28-15.46s3.65-13.18,10.76-15.9C281.51,6.23,292.19,8.94,302.55,16.19Z"/><path class="cls-9" d="M531.34,9.63V21.75H513.83V69.18H500V21.94H482.1V9.63Z"/><path class="cls-10" d="M13.33,39.3V21.86c4.52,0,9-.38,13.29.1,4.8.53,7.4,4,7.38,8.52a8.59,8.59,0,0,1-7.9,8.74C22,39.6,17.84,39.3,13.33,39.3Z"/></svg>