<svg id="Layer_1" data-name="Layer 1" xmlns="http://www.w3.org/2000/svg" viewBox="0 0 404.93 246.46"><defs><style>.cls-1{fill:#2393bd;}.cls-2{fill:#0a0a0a;}.cls-3{fill:#fdfdfd;}</style></defs><title>Artboard 3</title><path class="cls-1" d="M139.54,38a7.15,7.15,0,0,1,0-2.28c2.18-5.53,3-11.43,5.09-17C150,4.15,162.67.57,176.94.09a169.46,169.46,0,0,1,39.75,3.39c5.94,1.22,12.45,2.38,17.86,5.08,2.92,1.46,10.3,5.92,10.69,9.66.45,4.49-.52,9.07.67,13.67.19.74-13.92-2.57-15-2.9a92.28,92.28,0,0,0-57,1C162.83,33.83,151.63,40.17,139.54,38Z"/><path class="cls-2" d="M153.1,173.78v3l-6,8.18c1.12,3,2.59,5.74,5.69,6.82,7.18,1,12.49-1.93,16.9-7.25-2-5.3-.45-10.59,1-15.61,1.64-5.71,3.86-11.41,9.26-15.24h2.9a13,13,0,0,1,.89,2.94,27.91,27.91,0,0,1-2.33,14.54,45.13,45.13,0,0,1-8,12.76c-.87,2.79,1.43,4.42,2.59,6.38,1,1.74,3.12,1.73,5,1.6,2-.15,4.1-.38,6.4-.59,0,.63.13,1.45.22,2.37a17.62,17.62,0,0,1-9.5,1.86c-3.93-1.25-6.51-3.6-7.65-7.63-3.28,2.39-6,4.82-9.45,6.3-1.73.73-3.5.43-5.23,1.18-1.34.58-3.24,0-4.95-.44-2.08-.54-2.52-2.23-3.69-3.36a25.82,25.82,0,0,1-2.58-3.53c-6,5.57-12.85,8.85-21.4,8.16v-5.3l-2.1.88c-3,1.22-5.85,2.55-8.85,3.6a20.3,20.3,0,0,1-4.92.86c-2.47.22-4.17-.93-5.1-3.7v-3.33L99.68,188a32.54,32.54,0,0,1-10.52,6.17,55.14,55.14,0,0,0-10.47,5.12,6.07,6.07,0,0,0-2.9,4,114.66,114.66,0,0,1-4.23,14.2C69.72,222.66,68,228,66,233.14a59.33,59.33,0,0,1-4.54,9.18c-.94,1.54-2.65,2.61-4.27,4.14H55.11c-1.19-1.72-2.39-3.54-1.29-6.06.73-1.65.39-3.52.92-5.32A89.33,89.33,0,0,1,69.11,204.8a40.73,40.73,0,0,1,2.79-3.36A4.75,4.75,0,0,0,73.49,197a11.07,11.07,0,0,1-3.07.69,12.38,12.38,0,0,1-3-1L65,191.83c-2.15-.35-3.92.84-5.83,1.46-6.25,2-12.57,3.48-19.21,3-1.25-.1-2.5,0-3.76,0a72.41,72.41,0,0,1-11.33-5.87,15.15,15.15,0,0,0-10.33-1.5,56.18,56.18,0,0,0-12.33,3.66c-.54.22-1,.56-1.85,1L0,190.39a52.07,52.07,0,0,1,6.13-2.23c3.59-.82,7.05-2.16,10.82-2.35s6-.13,8.65,1.59a72.34,72.34,0,0,0,10,5.28,3.62,3.62,0,0,1,.82.65c10.54.73,20.35-2.27,30.17-5.47,2.55-6.28,7.31-8.46,14.4-6.94l2.42,3.41c-1.3,1.68-2.55,3.25-2.95,5.34s-3.05,3.22-2.3,6.07a12.7,12.7,0,0,0,2.63-1.09c2.94-2.18,6.55-2.84,9.83-4.18a21,21,0,0,0,7.68-5v-3.24h1.91c.77,1.12-.5,3,2.19,3.64l4.56-1.53,1.27,1.27-2.47,3.92v2.7c.26.16.45.38.66.4,4,.31,7.49-1.45,11.15-2.51,2.39-.69,4.69-1.68,7.07-2.41a20.65,20.65,0,0,1,3.41-.44v3.1l-3,2.48c2.65.66,2.79.61,10-1.71a17.41,17.41,0,0,0,8.24-5.73c0-2.75.06-5.5,0-8.24a20.57,20.57,0,0,1,1.44-8.53c2.09-5.15,3.88-10.41,8.74-14.13.93-.14,2.14-.48,3.24,1.08a106.72,106.72,0,0,1-.09,10.85c-.28,2.78-1.14,5.6-3.64,7.44.12-1.21-.14-2.65.42-3.6,2.13-3.6,2-7.48,1.88-11.39a12,12,0,0,0-.41-2c-4,2.87-4.66,7.28-6.61,10.86-2.43,4.5-2.25,9.38-1.79,14.61l5.8-8.52ZM74.28,185c1.55-.08,3.33.64,4.68-1.59-1.91.3-3.77-.64-4.62,1.65l-.11.07Zm3,2.3c-2.87.8-5.85,1.35-8.11,3.1v4.23c5.07,0,8-2.74,8.07-7.37.22-.11.45-.22.09-.05C77.58,186.91,77.45,187.13,77.33,187.34Zm-20,56.59c.85-1.18,1.62-2.11,2.22-3.13,5.73-9.92,8.22-21.05,11.71-31.8.28-.86,0-1.9,0-3.61-.71,1-1,1.32-1.29,1.73a98.14,98.14,0,0,0-9.06,16.37,118.81,118.81,0,0,0-5.15,15.17C55.35,240.27,54.76,242.35,57.31,243.93Zm114.54-61.52c1.44-1.78,2.47-3,3.43-4.27a29.78,29.78,0,0,0,4.63-7.79,37.65,37.65,0,0,0,2-6.88c.39-2.61.66-5.06-.6-7.47-2,.5-2.75,2.18-3.51,3.74C174.47,166.73,171.67,173.89,171.85,182.41Z"/><path class="cls-2" d="M147.64,119.68c5.5.16,11.7-5.38,12.23-10.83l-3.53-2.71c-.76-1.32,0-2.09,1-2.77h18.38c1.67,1.69,1.75,3.43.1,3.56-2.82.21-4.34,2.29-6.16,3.71-2.81,2.2-5.07,5.09-7.84,8,1,1.56,2.11,3.28,3.27,4.94,3.4,4.84,6.9,9.62,10.22,14.52,1,1.55,2.65,2.21,3.93,3.23v2.4h-20v-2.55l1.43-1.57a8.24,8.24,0,0,0-.25-2.16c-1-2.54-7-10.9-9.22-13a5.93,5.93,0,0,0-.72-.1c-.75,0-1.5,0-2.56,0-.24,2.56-.08,5.14-.12,7.72s-.19,4.91,1.23,7.51l3.1,1.69v2.5H131.48c-.73-3.6,3.5-3.13,4.37-5.43v-15.7c0-9.24,0-18.48,0-27.72a6.32,6.32,0,0,0-1.34-4.48L131.38,89V86.51c.21-.14.41-.36.61-.38,5.15-.28,10.3-.54,15.65-.81Z"/><path class="cls-1" d="M233.12,108.67,229.68,106c-.72-.56,1.33-2.34,1.78-2.56,1.24-.61,2.67-.18,4-.19,3.14,0,7.07-.92,9.84,1.1v2.35c-3,1.07-4.17,3.72-5.17,6.26-2.33,6-4.67,11.89-7,17.86l-3.58,9.27c-.55,1.43-1.09,2.86-1.66,4.37h-7.95c-.46-1-1.44-2.22-1.56-3.52-.37-4-2.3-7.5-3.13-11.34-.75-3.45-2-6.8-3.06-10.19,0-.11-.16-.19-.41-.47-2.9,8.61-5.77,17.11-8.62,25.58h-8a15.7,15.7,0,0,1-1.53-3.41c-1.24-6.32-3.93-12.17-5.73-18.31q-1.6-5.44-3.38-10.84c-.37-1.12-1.13-2.13-1.43-3.26-.41-1.54-1.6-1.62-2.92-1.85v-2.65h19.21l.29,1.66-3,1.57c.34,1.27-1.27,2.28-.66,3.92,1,2.55,1.7,5.18,2.49,7.78,1.2,4,2.37,7.94,3.75,12.55l9.29-27.51h7.34c1.64,4.3,2.74,8.9,4,13.46s2.69,8.84,4.19,13.72c.33-.53.75-.91.8-1.34.65-4.65,2.82-8.79,4.29-13.16C233,114.34,233.76,111.76,233.12,108.67Z"/><path class="cls-1" d="M225.76,53.12a17.09,17.09,0,0,1-2.33,2.66c-10,6.91-18.45,13.44-30.76,15.36-14.2,2.22-29.13,2.56-42.95-1.69a13.89,13.89,0,0,1-2.89-1.8c15.09-6,26.07-17.36,43-18.37,10.42-.62,20.72,1.55,30.84,3.73A28.47,28.47,0,0,0,225.76,53.12Z"/><path class="cls-2" d="M83.32,123.84a28.93,28.93,0,0,1-1.38,9.25c-2.12,5.72-5.94,9.2-11.61,10.66a29.37,29.37,0,0,1-14.52.1c-6.23-1.55-10-5.44-11.47-11.57-.62-2.56-1.47-5.2-1.38-7.77.28-7.08,1.89-13.81,8-18.32a16.64,16.64,0,0,1,6.12-2.73c2.1-.45,4.39-.06,6.5-.83,4.36,1,9.06.52,13,3.65a19,19,0,0,1,5.94,8.77C83.52,117.89,83.26,120.86,83.32,123.84ZM67.24,108.9a15.67,15.67,0,0,0-1.47-.94c-2.8-1.36-4.4-1.16-6.53,1.08a8.22,8.22,0,0,0-2.1,3.35,56.23,56.23,0,0,0-1.49,8.55c-.28,3,.27,6.1.55,9.16.38,4.17,1.68,7.58,5.3,10,.43,0,.93,0,1.43,0,3.05.23,5-1,6.24-3.93,1.47-3.45,1.56-7.06,2-10.63.23-1.87-.53-3.84-.55-5.77C70.57,115.81,69.91,112.06,67.24,108.9Z"/><path class="cls-1" d="M283.54,139.19l3.68,2.27v2.27H272.31V139a18.63,18.63,0,0,0-1.85,1.11c-3.9,3.2-8.29,5.16-13.37,4.43-2.68-.39-5.47-1.25-7.34-3.45a9,9,0,0,1-2.14-7.08c.49-3.7,2.21-6.94,5.53-8.69a32.53,32.53,0,0,1,13.28-4,43.71,43.71,0,0,0,5.14-.94c-.13-2.66.24-5.3-.72-7.93-1.49-4.12-5.57-6-9.23-3.76a8.52,8.52,0,0,0-2.73,3.42,18.71,18.71,0,0,0-1.05,4h-7l-.95-1.21c0-1.71-.58-4.68.34-6.13a4,4,0,0,1,1.6-1.27c7.22-3.78,18-6.3,25.79-3,3.41,1.44,4.6,4.44,5.22,7.71a51.12,51.12,0,0,1,.73,6.88c.12,2.37,0,4.74,0,7.12Zm-12.16-6.36v-7.6a12.35,12.35,0,0,0-8.51,1.54c-2.52,1.35-3.16,4.13-4,6.59.56,1.47,1.11,2.9,1.55,4,2.07,1.6,4.19,1.15,5.84,1.13A9,9,0,0,0,271.38,132.83Z"/><path class="cls-1" d="M362.62,124.37h-25c.3,2.08.59,4.06.94,6.41.86,2.63,2.86,4.89,5.5,6.95h8.07c1.13-.61,2.41-1.26,3.63-2s1.71-2.54,3.92-2.41l2.44,3.33a19,19,0,0,1-10.6,7.19,23.07,23.07,0,0,1-10.22.62c-7.57-1.39-11.39-3.38-14.19-11.4a23.3,23.3,0,0,1-1.45-10c.43-4.26,1.1-8.58,3.69-12.19a16.66,16.66,0,0,1,9.42-6.92,31.09,31.09,0,0,1,11.74-.49,12,12,0,0,1,9.85,6.44c1.49,2.92,2.72,5.85,2.76,9.18a11.2,11.2,0,0,0,.49,1.7,5.72,5.72,0,0,1,.16,2.16C363.63,123.49,363,123.91,362.62,124.37ZM351,119.06c.26-4.37.06-8.31-3.28-11.17h-5.46c-2.66,3.25-4.48,6.74-3.77,11.17Z"/><path class="cls-1" d="M241.3,39c-2.75,3.77-5,7-8.68,8.8-3.19.1-6.34-1-9.54-1.32-7.18-.8-13.9-3.37-20.92-4.7-3.2-.61-6.42-1-9.59-1.62-4-.75-7.86-.55-11.77-.53a64.17,64.17,0,0,0-15.62,2.52c-8.84,2.29-17.42,5.54-26.43,7.2a25.5,25.5,0,0,0-3,1,44.57,44.57,0,0,1,1.84-7.82c.95,0,1.92,0,2.89,0a43,43,0,0,0,14.21-2.31c7.59-2.35,15.2-4.63,22.89-6.51A97.44,97.44,0,0,1,211,31.81C213.47,32.08,241.16,39.2,241.3,39Z"/><path class="cls-2" d="M126,105.19v9.06l-1,1h-6.88c-2.2-2-1.54-5.7-4.6-7.4A5.54,5.54,0,0,0,108.7,109a8.51,8.51,0,0,0-2.86,4.89c-1.21,4.69-1.09,9.55-.72,14.33.22,3,1.11,5.89,3.78,7.93a6.86,6.86,0,0,0,4.63,1.72,13.45,13.45,0,0,0,7.27-2.67l1.85-1.29,3.39,3.21a16.82,16.82,0,0,1-10.62,7,23,23,0,0,1-13.66-.95c-4.72-1.86-6.93-5.74-8.65-10.11a11.49,11.49,0,0,1-.8-4.62c.08-2.62-.06-5.24,0-7.86A18.47,18.47,0,0,1,96,110.33a17,17,0,0,1,9.9-6.55,24.79,24.79,0,0,1,9-1.1c3.35.34,6.67,1,10,1.55C125.32,104.31,125.64,104.88,126,105.19Z"/><path class="cls-1" d="M320.13,136.2c1.7.65,1.79,1.86,1.68,3.51a17.33,17.33,0,0,1-10.61,4.82,13,13,0,0,1-6.14-.65c-3.5-1.39-5.84-3.43-6.62-7.38a28.39,28.39,0,0,1-.62-5.4c0-7.36,0-14.73,0-22.31h-4.7c-.72-2.76-.54-3,2.59-3.24,2.56-1.64,3.5-4.09,3.65-7.08a30,30,0,0,1,1-4.74h9.38c.11,3.21,0,6.54.07,10.13,3.63.45,7.33,0,11.11.27v4.28H309.89c-.19,3-.06,5.81-.08,8.62s0,5.5,0,8.25v8.59c.82,2.13,1.83,4,5,4.48Z"/><path class="cls-2" d="M20.33,103.5v5.08C22,107.3,23.52,106.15,25,105a8.37,8.37,0,0,1,5-1.72c2.61,0,5.22,0,8,0v11.78H31c-1.73-1.27-1.32-5.27-5.15-4.9-2,.23-3.34,1.64-4.66,3.24-1.63,7.14-.64,14.46-.79,21.74a19.18,19.18,0,0,0,.87,4.23l3.48,1.86v2.41H4c-.79-2.77,1.84-3.13,3.61-4.6.21-2,.63-4.23.67-6.5.09-6.49-.05-13,.07-19.48.06-3.19-1-5.34-4.4-6.2V103.5Z"/><path class="cls-1" d="M387.56,139.17l3.86,2.22v2.34h-20v-2.28l3.6-3.12V110c-.75-1.42-1.14-3.24-3.43-3.14-.33,0-1-.91-1-1.37a7.22,7.22,0,0,1,.77-2.13H387v6.25c4.8-6.51,11.1-6.9,17.92-6.11v11.65h-5.71c-1.62-.45-2.89-1.91-3.3-4.3l-4.35-1c-3.49,2.58-4.6,5.88-4.52,9.76.06,2.87-.05,5.74,0,8.62C387.17,131.81,387.39,135.34,387.56,139.17Z"/><path class="cls-2" d="M298.09,158l1.23,2.28c-.16.25-.58.63-.63,1.05-.43,4.16-1.95,8-3.21,12-.64,2-1.13,4.23-2.29,5.94-1.87,2.74-1.6,5.67-1.29,8.55.15,1.42,1.37,2.72,2.15,4.15,2.8-.3,5.39.5,7.82-.89.5,3.18.44,3-2.1,3.77a17.58,17.58,0,0,1-5.28.68c-3.93-.85-4.57-4.05-6-6.64-1.92,3-4.31,5-8.56,7.4h-4.16a6.64,6.64,0,0,1-2.84-5.16c-5.17,2.48-10.15,5-15.62,5.23-2.31-1-1.07-3-1.81-4.6L237,197.92l-1.59-1.51c.6-1.43,1.18-2.82,1.87-4.49a9.37,9.37,0,0,0-5.7,1.45,24.45,24.45,0,0,1-12.78,2.91L217.38,195,212,198.06l-4.18-2.61v-3.78l-7.3,2.41v-3c4.88-2.35,10.75-2.62,15.19-5.93h6.14c.59,2.72,0,5.3-.47,8,1.55-1.39,3.41-.47,5.15-1.23,3.55-1.57,7.44-2.35,11.21-3.4,1.13-.31,2.32-.44,3.3-.61l1.4,1.28-1,3.44a134.24,134.24,0,0,0,17-5.43c2.27,1.61,2.27,1.61,1.13,4.93.29.14.63.45.88.39,5.69-1.45,11.37-2.85,15.79-7.17,1.16-1.12,2.81-1.74,4.38-2.68h8.26c-.48-4.79,1.27-9.1,2.32-13.51.71-3,2.38-5.7,3.59-8.55C295.37,159.29,296.06,158,298.09,158Zm-3.21,10.53c.88-1,2-2,1.09-3.62-1.58.88-1.12,2.29-1.15,3.56l-.77,1.31.51.23C294.67,169.55,294.77,169.06,294.88,168.56Zm-13.06,17.18c-1.91,2.32-5.57,3.37-4.91,7.46,2.25.45,4.32.33,5.92-1.16,2-1.91,4.61-3.53,5.34-7.15Zm-70.12,8.52a12,12,0,0,0,8.35-5.92c-2.29-.58-4.17-.3-5.64,1.12C213.2,190.64,211.18,191.45,211.7,194.26ZM294,171l-.66,0,.19,1.25h.33Z"/><path class="cls-2" d="M328.59,185.72c1.18,2.61,0,6.57,4.74,7.63l3.14-2.21c.46-2.93.81-5.19,1.22-7.83.91.55,1.47.9,2.12,1.31-.23,2,.47,4-1,6l2.55,1.84c2.16-.49,4.86-.72,7.23-1.73s4.77-1.51,7.11-2.38,4.8-2,7.68-3.21H369c-.23,2.42.62,4.82-1.21,7.41,1.89,0,3.4.4,4.53-.07,4.46-1.88,9.41-2.76,13.2-6.28V182.6c2.51-.7,2.76-.46,3.2,3.33l6.54-1a6.5,6.5,0,0,1-2.23,4.28v3.06c3.34,1.48,6.26-.76,9.56-1.19v3a27.29,27.29,0,0,1-2.73,1,43,43,0,0,1-5.56,1.17c-3.54.39-6.25-3.44-4.38-7.19l-3.05-1A33.11,33.11,0,0,1,374.52,195a20.43,20.43,0,0,1-4.41,1.22,57.16,57.16,0,0,1-6.86-.4L358.88,198l-4.07-2.52v-3.42c-.4-.12-.66-.31-.84-.24-3.33,1.17-6.62,2.49-10,3.51a5.35,5.35,0,0,1-4.89-.59,13.57,13.57,0,0,1-1.54-1.61l-3.49,3.14h-3.41c-2.66-1.78-3.81-4.56-4.64-7.57l-9.92,5.75c-.16-1.25-.27-2.07-.4-3.08,3.28-2.16,7.29-3.32,9.91-6.81-.42-5.35,1-10.68,2.4-15.9a21.29,21.29,0,0,1,4.23-8.49c1.57-1.78,2.47-4.26,5-5.12.89-.3,1.76-.63,2.51-.9,1.55,1.37,1.52,2.93,1.54,4.51.15,7.92-2.63,14.75-7.56,20.81C332.09,181.48,330.45,183.46,328.59,185.72Zm.53-5.5.68.43a49.58,49.58,0,0,0,3.59-4.64c2.05-3.35,4.65-6.45,5.37-10.48.48-2.69,1.66-5.34.66-8.28-.66.16-1.45.1-1.77.46a22.46,22.46,0,0,0-3.75,4.91A52.71,52.71,0,0,0,330,175.3C329.74,176.94,329.42,178.58,329.12,180.22ZM367,188.43c-3.25-1.06-5.31.53-7.22,2.52-.83.87-1.94,1.69-.65,3.3A12.3,12.3,0,0,0,367,188.43Z"/><path class="cls-1" d="M138.48,61.31a9.18,9.18,0,0,1-2.63-7.9c6.11-1.37,12.26-2.68,18.38-4.14,3.21-.77,6.35-1.83,9.54-2.71a15.72,15.72,0,0,1,3.84-.79c3.86,0,7.64-1.63,11.67-.74-3.41,1.21-6.71,2.31-9.95,3.56a32.3,32.3,0,0,0-6.76,3.06c-4,2.75-8.37,4.55-12.64,6.63a39.5,39.5,0,0,1-6.71,2.26A43.06,43.06,0,0,1,138.48,61.31Z"/><path class="cls-3" d="M57.31,243.93c-2.55-1.58-2-3.66-1.54-5.27a118.81,118.81,0,0,1,5.15-15.17A98.14,98.14,0,0,1,70,207.12c.26-.41.58-.78,1.29-1.73,0,1.71.25,2.75,0,3.61-3.49,10.75-6,21.88-11.71,31.8C58.93,241.82,58.16,242.75,57.31,243.93Z"/><path class="cls-3" d="M171.85,182.41c-.18-8.52,2.62-15.68,6-22.67.76-1.56,1.53-3.24,3.51-3.74,1.26,2.41,1,4.86.6,7.47a37.65,37.65,0,0,1-2,6.88,29.78,29.78,0,0,1-4.63,7.79C174.32,179.42,173.29,180.63,171.85,182.41Z"/><path class="cls-3" d="M153.1,173.78l-.79.07-5.8,8.52c-.46-5.23-.64-10.11,1.79-14.61,1.95-3.58,2.59-8,6.61-10.86a12,12,0,0,1,.41,2c.09,3.91.25,7.79-1.88,11.39-.56,1-.3,2.39-.42,3.6Z"/><path class="cls-3" d="M77.29,187.3c-.06,4.63-3,7.38-8.07,7.37v-4.23c2.26-1.75,5.24-2.3,8.11-3.1Z"/><path class="cls-3" d="M74.34,185.1c.85-2.29,2.71-1.35,4.62-1.65-1.35,2.23-3.13,1.51-4.68,1.59Z"/><path class="cls-3" d="M74.28,185l0,.13.11-.07Z"/><path class="cls-3" d="M77.33,187.34c.12-.21.25-.43,0-.09.36-.17.13-.06-.09.05Z"/><path class="cls-3" d="M67.24,108.9c2.67,3.16,3.33,6.91,3.38,10.89,0,1.93.78,3.9.55,5.77-.44,3.57-.53,7.18-2,10.63-1.27,3-3.19,4.16-6.24,3.93-.5,0-1,0-1.43,0-3.62-2.43-4.92-5.84-5.3-10-.28-3.06-.83-6.11-.55-9.16a56.23,56.23,0,0,1,1.49-8.55,8.22,8.22,0,0,1,2.1-3.35c2.13-2.24,3.73-2.44,6.53-1.08A15.67,15.67,0,0,1,67.24,108.9Z"/><path class="cls-3" d="M271.38,132.83a9,9,0,0,1-5.13,5.69c-1.65,0-3.77.47-5.84-1.13-.44-1.13-1-2.56-1.55-4,.85-2.46,1.49-5.24,4-6.59a12.35,12.35,0,0,1,8.51-1.54Z"/><path class="cls-3" d="M351,119.06H338.48c-.71-4.43,1.11-7.92,3.77-11.17h5.46C351.05,110.75,351.25,114.69,351,119.06Z"/><path class="cls-3" d="M281.82,185.74l6.35-.85c-.73,3.62-3.3,5.24-5.34,7.15-1.6,1.49-3.67,1.61-5.92,1.16C276.25,189.11,279.91,188.06,281.82,185.74Z"/><path class="cls-3" d="M211.7,194.26c-.52-2.81,1.5-3.62,2.71-4.8,1.47-1.42,3.35-1.7,5.64-1.12A12,12,0,0,1,211.7,194.26Z"/><path class="cls-3" d="M294.88,168.56l-.32,1.48-.51-.23.77-1.31Z"/><path class="cls-3" d="M294,171l-.14,1.2h-.33l-.19-1.25Z"/><path class="cls-3" d="M329.12,180.22c.3-1.64.62-3.28.91-4.92a52.71,52.71,0,0,1,3.87-12.68,22.46,22.46,0,0,1,3.75-4.91c.32-.36,1.11-.3,1.77-.46,1,2.94-.18,5.59-.66,8.28-.72,4-3.32,7.13-5.37,10.48a49.58,49.58,0,0,1-3.59,4.64Z"/><path class="cls-3" d="M367,188.43a12.3,12.3,0,0,1-7.87,5.82c-1.29-1.61-.18-2.43.65-3.3C361.67,189,363.73,187.37,367,188.43Z"/></svg>