<svg id="Layer_1" data-name="Layer 1" xmlns="http://www.w3.org/2000/svg" viewBox="0 0 360 65.52"><defs><style>.cls-1{fill:#fff;}</style></defs><title>scenicflights</title><path class="cls-1" d="M360,27.5a3.78,3.78,0,0,0-.37,1.17c0,1.35-.82,1.71-1.93,1.93-4.17.83-8.33,1.7-12.5,2.52a11.64,11.64,0,0,1-2.13.19c-2.72,0-5.44,0-8.15,0-.64,0-1,.11-1.09.9-.19,2.95-.44,5.9-.69,8.84-.27,3.26-.57,6.52-.88,10l4.85.71c.43.06.86.11,1.29.19,1.61.32,1.88.72,1.57,2.3a5.38,5.38,0,0,0-.18.69c-.24,2.29-.23,2.29-2.45,2.85-1,.24-1.92.46-2.87.72s-1.73.48-2.3-.69l-.43,2.89-.31,0c-.21-1-.41-2-.65-3.15-.61,1.41-1.6,1.27-2.7.94s-2.54-.61-3.77-1a1.77,1.77,0,0,1-1-1.08,24,24,0,0,1-.33-3.29c-.05-.73.31-1.06,1.07-1.13,2-.19,3.93-.43,5.88-.72a1.09,1.09,0,0,0,.7-.78c-.24-3.18-.54-6.35-.85-9.53-.28-2.85-.62-5.7-.9-8.56-.09-.9-.6-1.09-1.38-1.08-2.12,0-4.25.14-6.36,0-3-.25-6-.64-8.94-1.13-2.32-.39-4.59-1-6.89-1.52-2.09-.44-2.53-.89-2.6-3,0-1,0-2,0-3,0-.7.23-1.15,1-1.23.39,0,.78-.2,1.16-.21q7.85-.14,15.68-.23c2.58,0,5.15,0,7.88,0,0-1.48-.06-2.62,0-3.76.1-1.65.3-3.3.43-4.94.07-.81.52-1.09,1.28-1.07a17.3,17.3,0,0,0,2.16,0c.94-.08,1.3.41,1.36,1.24.16,2.36.34,4.72.45,7.09,0,.89.35,1.23,1.29,1.23,3.86,0,7.73.11,11.6.22s7.71.27,11.56.48c.51,0,1,.49,1.49.74Z"/><path class="cls-1" d="M105.39,11.64h4.44V29.82h5.46V28.44c0-5.22,0-10.43,0-15.65,0-1,.31-1.33,1.29-1.25s2.06,0,3.19,0V50.48h-4.43V33.87h-5.44V50.48h-4.48Z"/><path class="cls-1" d="M2.35,11.61H6.76V29c.93.41,1.24.09,1.44-.7,1.33-5.32,2.72-10.61,4-15.93.16-.65.41-.86,1-.85,1.15,0,2.31,0,3.64,0-.12.68-.2,1.28-.35,1.86-1.42,5.58-3,11.12-4.21,16.73-.28,1.25.27,2.74.61,4.07,1.4,5.41,2.87,10.79,4.35,16.32-1.42,0-2.7.05-4,0a1.23,1.23,0,0,1-.8-.79c-1.41-5.13-2.75-10.27-4.15-15.4-.18-.65-.15-1.76-1.57-1.28V50.47H2.35Z"/><path class="cls-1" d="M192.2,11.61h4.93c1.89,12.91,3.77,25.8,5.68,38.81h-4.47q-.47-3.49-1-7.08H192c-.33,2.37-.65,4.72-1,7.12h-4.45C188.43,37.47,190.31,24.55,192.2,11.61Zm2.5,8.68h-.09c-.7,6.43-1.4,12.86-2.1,19.33h4.34Z"/><path class="cls-1" d="M278.68,50.45V16.54a23.69,23.69,0,0,1,2.54,0,1.16,1.16,0,0,1,.77.68c2.09,6.49,4.13,13,6.19,19.5.27.86.57,1.7.8,2.39q-.41-11.07-.82-22.5h4v33.9a18.48,18.48,0,0,1-2.69,0c-.32-.05-.69-.59-.81-1Q285.31,39,282,28.52a4,4,0,0,0-.19-.49c.28,7.28.58,14.79.88,22.42Z"/><path class="cls-1" d="M77.49,39.33c-.29-3.75-.69-7.5-.84-11.26s0-7.56,0-11.43h3.79V50.52a21.5,21.5,0,0,1-2.78-.05c-.28,0-.59-.58-.71-.95Q73.65,39.2,70.43,28.86c-.12-.36-.28-.72-.33-.85.28,7.31.58,14.83.87,22.45H67V16.54a22,22,0,0,1,2.57,0,1.17,1.17,0,0,1,.74.72c2.06,6.46,4.09,12.94,6.14,19.41.28.89.61,1.77.91,2.66Z"/><path class="cls-1" d="M149.31,34c2.52,1,2.78,3.21,2.82,5.42.07,3.66,0,7.32,0,11.08h-3.86V45.93c0-2.15,0-4.3,0-6.46,0-3.26-1.2-3.79-3.67-3.63-.39,0-.79,0-1.35,0V50.48H139.5v-34a82.51,82.51,0,0,1,8.79.45c2.06.32,3,2.15,3.4,4.15a28.19,28.19,0,0,1,.21,9.21C151.7,31.87,151.06,32.75,149.31,34Zm-6-1.29c.94,0,1.82.06,2.68,0a2,2,0,0,0,2-1.87c.12-3,.11-6,0-9a1.84,1.84,0,0,0-1.64-1.8c-1-.1-2,0-3,0Z"/><path class="cls-1" d="M262.92,23.24c.09-1.89.23-3.88,1.74-5.39a6,6,0,0,1,6.6-1.4,5.21,5.21,0,0,1,3.67,5.07q.36,9.47.43,18.92a44.91,44.91,0,0,1-.61,5.88c-.52,4.13-3.92,5.07-7.11,4.55s-4.23-2.45-4.5-5.52m3.63-.07a2.1,2.1,0,0,0,2.28,2.32,2.13,2.13,0,0,0,2.25-2.24c.06-.91.21-1.81.21-2.72-.06-7-.12-14-.23-21a2,2,0,0,0-2.21-2.12,2.05,2.05,0,0,0-2.3,2.05c-.11,1.46-.2,2.92-.22,4.39,0,2.5,0,5,0,7.52Z"/><path class="cls-1" d="M136,43.64a16,16,0,0,1-.56,3.49c-.89,3.41-3.87,4.24-7,3.74s-4.32-2.28-4.49-5.4c-.34-6.38-.41-12.77-.46-19.16a30.59,30.59,0,0,1,.65-5.87,5.32,5.32,0,0,1,5.58-4.35c3,0,5.24,1.54,5.76,4.29a48.29,48.29,0,0,1,.69,6.58Zm-3.64-12.22c0-3.22-.13-6.43-.22-9.65a2.27,2.27,0,0,0-4.52-.21c-.11,1.34-.21,2.68-.23,4l.22,19.68a2.09,2.09,0,0,0,2.15,2.33,2.12,2.12,0,0,0,2.38-2.11Z"/><path class="cls-1" d="M92.78,37.25l-2.42-.12V33.85H96.6V50.33c-1.76.53-1.81.49-2.62-2.15-1.56,2.76-4.34,3.66-7,2.2a5.32,5.32,0,0,1-2.59-4.8Q84.06,35.82,84,26a45.22,45.22,0,0,1,.61-5.76c.51-4.17,6.68-5.43,9.66-2.87a6.44,6.44,0,0,1,2.14,4.72c.16,2.6,0,5.22,0,7.93H92.81c0-1.16,0-2.31,0-3.45,0-1.66-.12-3.32-.23-5a2.13,2.13,0,0,0-2.39-2.11A2.05,2.05,0,0,0,88,21.74q-.15,10.74-.22,21.48a13.56,13.56,0,0,0,.47,3A1.71,1.71,0,0,0,90,47.61a2.06,2.06,0,0,0,2.35-1.17,3.57,3.57,0,0,0,.39-1.12C92.79,42.66,92.78,40,92.78,37.25Z"/><path class="cls-1" d="M357.22,31.05c-.32,1.88-.47,3.65-.93,5.32A25.07,25.07,0,0,1,350,47.5a24.45,24.45,0,0,1-9.08,5.94,8.7,8.7,0,0,1-3.6.05c-1.48-.15-2.94-.49-4.6-.79.08-1,.14-2,.24-3.06.13-1.36.33-2.72.43-4.09,0-.68.4-.78,1-.92a21.83,21.83,0,0,0,8.79-4A10.93,10.93,0,0,0,347,34.84c.47-1.73.66-1.86,2.47-2.19C352,32.19,354.44,31.63,357.22,31.05Z"/><path class="cls-1" d="M305.43,31.08c2.84.56,5.5,1.11,8.17,1.59a1.86,1.86,0,0,1,1.77,1.46c1,4.06,3.64,6.82,7.19,8.69A24.89,24.89,0,0,0,328,44.66a1.92,1.92,0,0,1,1.7,1.8c.2,1.91.35,3.83.51,5.75a1.93,1.93,0,0,1-.07.5c-2.1.36-4.17.81-6.26,1.06s-3.89-1-5.64-2A22.61,22.61,0,0,1,308,40.56a60.71,60.71,0,0,1-2.08-7.24C305.7,32.65,305.6,32,305.43,31.08Z"/><path class="cls-1" d="M55.92,16.54C54.6,21.89,53.38,27.1,52,32.27c-.41,1.52.14,2.78.49,4.12,1.19,4.66,2.43,9.3,3.71,14.15-1.18,0-2.28.05-3.37,0-.27,0-.64-.45-.72-.75-1.17-4.22-2.29-8.45-3.44-12.67a5,5,0,0,0-.43-1.22,5.36,5.36,0,0,0-.79-.87l-.36.23V50.45H43.28V16.61H47V31.83c.77.28,1,.2,1.25-.59,1.14-4.59,2.39-9.15,3.55-13.74.18-.71.44-1,1.18-1C53.93,16.58,54.85,16.54,55.92,16.54Z"/><path class="cls-1" d="M155.2,38.36h4c0,1.19,0,2.33,0,3.47s.1,2.53.24,3.79a2.06,2.06,0,0,0,2,2c1.35.09,2.34-.44,2.45-1.73a43.41,43.41,0,0,0,0-6.35,3.77,3.77,0,0,0-1.12-2c-1.66-1.83-3.39-3.59-5.12-5.35a7.7,7.7,0,0,1-2-4,16.91,16.91,0,0,1,.1-8c1-3.55,4.07-4.56,7.1-4.05,3.51.59,4.85,2.43,4.92,6,.05,2.29.2,4.57.32,7h-4c0-2,0-3.94,0-5.89a9.28,9.28,0,0,0-.2-1.74c-.32-1.63-.67-2-2-2-1.81-.05-2.41.24-2.63,2-.42,3.41-.72,6.85,2.48,9.38.9.71,1.6,1.67,2.47,2.42,3.52,3,4.29,6.89,3.5,11.2A13,13,0,0,1,166.47,49c-1.35,2.18-3.76,2.28-6,1.92-3.34-.53-4.69-2.18-4.91-5.63C155.4,43,155.32,40.76,155.2,38.36Z"/><path class="cls-1" d="M40.21,31h-4c0-.48,0-.91,0-1.33-.07-2.66-.13-5.32-.24-8a2.1,2.1,0,0,0-2.3-2.19,2,2,0,0,0-2.22,2.13q-.17,10.5-.24,21c0,.86.17,1.73.22,2.59.07,1.52.86,2.36,2.25,2.36A2.16,2.16,0,0,0,36,45.28c.09-2.34.16-4.68.23-7,0-.31,0-.62.07-1H40c0,1.24.06,2.46,0,3.67a39.35,39.35,0,0,1-.52,5.54c-.78,3.79-3.92,5-7.21,4.38-3-.56-4.41-2.15-4.51-5.23q-.34-9.71-.44-19.42a46.92,46.92,0,0,1,.6-5.75c.43-3.77,4.37-4.83,7-4.25,3,.65,4.31,2.1,4.58,5.21S40,27.72,40.21,31Z"/><path class="cls-1" d="M232.23,16.58h4.24c1.67,11.28,3.34,22.54,5,33.89h-3.81c-.33-2-.66-4.12-1-6.21H232c-.31,2-.63,4.09-1,6.2h-3.82Zm4,24.42-1.81-16.61h-.13L232.47,41Z"/><path class="cls-1" d="M204,16.59h4c1.08,8.47,2.15,16.94,3.16,24.85,1-7.91,2.13-16.38,3.23-24.9h3.26c.19,0,.39.05.67.09-1.67,11.31-3.34,22.57-5,33.86H209C207.36,39.25,205.7,28,204,16.59Z"/><path class="cls-1" d="M356.65,22.92l-7-.32c-.24,0-.46-.12-.7-.13-2-.14-2.06-.12-2.52-2a90.87,90.87,0,0,0-5.64-15.3c-1.36-3.08-1.6-3.25,2.12-4.56a5.41,5.41,0,0,1,6.61,2.63,62.94,62.94,0,0,1,3.91,8.21c1.08,2.74,1.84,5.61,2.68,8.44C356.33,20.77,356.43,21.75,356.65,22.92Z"/><path class="cls-1" d="M306,22.69a50.66,50.66,0,0,1,1.27-5.41c1.5-4.23,3-8.47,4.82-12.58A6.58,6.58,0,0,1,318.36.52a9.39,9.39,0,0,1,3.39.9c1.1.43,1.18,1.13.68,2.35-1.43,3.47-2.89,6.93-4.19,10.44-.84,2.25-1.45,4.58-2.11,6.88a1.65,1.65,0,0,1-1.86,1.4c-2.3,0-4.6.13-6.91.2Z"/><path class="cls-1" d="M171.33,16.6h8.89v3.33h-5V31.27h4.61v3.18H175.2V47.1h5v3.37h-8.91Z"/><path class="cls-1" d="M248.84,50.47H245V20h-3.85V16.62h11.45v3.29h-3.75Z"/><path class="cls-1" d="M62.7,50.48H59V16.63H62.7Z"/><path class="cls-1" d="M23.54,50.48H19.87V16.62h3.67Z"/><path class="cls-1" d="M224.6,50.48h-3.7V16.63h3.7Z"/><path class="cls-1" d="M255.45,16.61h3.69V50.46h-3.69Z"/><path class="cls-1" d="M326.54,11.44c1.43-.51,3.57.78,4.44-1.84,1,2.66,3.31,1,4.89,1.92-.43.09-.79.21-1.17.25-1.08.12-2.21.07-3.1.89a.92.92,0,0,1-.75.11C329.41,12.35,328,11.89,326.54,11.44Z"/></svg>