<svg id="Layer_1" data-name="Layer 1" xmlns="http://www.w3.org/2000/svg" xmlns:xlink="http://www.w3.org/1999/xlink" viewBox="0 0 448.99 353.29"><defs><style>.cls-1{fill:#fff;}.cls-1,.cls-3{fill-rule:evenodd;}.cls-2{mask:url(#mask);}.cls-3{fill:#efc818;}</style><mask id="mask" x="0" y="269.9" width="43.45" height="83.39" maskUnits="userSpaceOnUse"><g id="mask-2"><polygon id="path-1" class="cls-1" points="0 269.9 43.45 269.9 43.45 353.29 0 353.29 0 269.9"/></g></mask></defs><title>skybridge</title><g id="Page-1"><g id="Golden-Skybridge---Landing-Page-_Desktop_---GS-Footer" data-name="Golden-Skybridge---Landing-Page-(Desktop)---GS-Footer"><g id="Footer"><g id="Logo"><g id="Group-3"><g class="cls-2"><path id="Fill-1" class="cls-1" d="M0,349.17l1.54-17.11c2.56,5.12,8.08,11.83,17.51,9.85,6.84-1.43,12.08-6.56,12.68-13.21C33.29,311.39,2,318.53,4.07,295.36c1.1-12.13,11.28-21.46,22-23.71,7.55-1.58,9.63.09,12.91-.6a12.52,12.52,0,0,0,3.22-1.15L40.6,287.5c-2.81-3.44-6.66-7.14-14.1-5.58-6.15,1.29-10.45,5.84-10.88,10.63-1.27,14,30,6.84,27.7,32.76-.92,10.27-9,23.85-25.53,27.33-8.73,1.83-14.27-.47-17.79-3.47"/></g></g><path id="Fill-4" class="cls-1" d="M99.91,256.93c-1.7,1.6-5.25,6.37-9.65,14.11L74.15,299.65C86.94,305.8,84.66,331,92.76,336.24l-15,3.14c-8.63-5.87-1.42-29.64-14-31.31l-1.91,21.22c-.83,9.19.06,12.27.54,13.41l-16,3.35c.71-1.39,2.2-5,3-14.16L54.13,280c.58-6.45.5-10.94-.55-13.31l16-3.35c-1.43,2.89-2.44,7.61-3,14.06l-1.76,19.46,12.5-23.06c3.5-6.39,5.2-11.26,4.88-13.11Z"/><path id="Fill-6" class="cls-1" d="M117,253.44c-.48,3.08.38,7.6,2.23,13l6.13,17.32,9.55-20.61c2.81-6.35,4.43-11.39,4.71-14.42l16.46-3.46a117.18,117.18,0,0,0-8.77,15.28l-17,35.13-1.78,19.75c-.84,9.29.06,12.27.55,13.32l-16,3.35c.6-1.28,2.28-4.8,3.12-14.09L118,298.23,106.7,269a49.79,49.79,0,0,0-6.3-12.11Z"/><path id="Fill-8" class="cls-1" d="M170.65,275.57l3.17-.67c2.58-.54,12.33-3.92,13.31-14.78S178.6,250,176,250.56l-3.18.66Zm15.42,21.14c.86-9.59-5.62-13.31-13.35-11.69l-3,.62L167.46,311a21.27,21.27,0,0,0,5.69-.52c7-1.48,12.2-5.82,12.92-13.74Zm12.77-2.4c-1.12,12.42-11,22.55-25,25.49-6.25,1.31-9.42.92-14.19,1.92a45,45,0,0,0-7.3,2.2c.71-1.39,2.2-5,3-14.16l4.68-51.93c.58-6.45.5-10.95-.55-13.32L176.1,241c12.4-2.6,25,1.47,23.7,15.65a25.27,25.27,0,0,1-15.62,21c6.61,0,15.78,4.18,14.66,16.59Z"/><path id="Fill-10" class="cls-1" d="M239.47,249.62c.87-9.68-6-11.31-12-10l-2.88.6-2.31,25.62,2.88-.6c6-1.27,13.48-5.9,14.35-15.58ZM227.79,230.2c13.39-2.82,25.75,1.5,24.41,16.36-1,11.15-8.58,19.55-17.36,24.18,8.08,6.46,8.87,29,15.66,32.5l-15,3.14c-8.76-5.45-1.43-29.54-14.15-30.9l-1.88,20.83c-.83,9.2.07,12.17.55,13.32l-16,3.35c.71-1.39,2.19-4.87,3-14.06L211.77,247c.84-9.29-.06-12.27-.55-13.32Z"/><path id="Fill-12" class="cls-1" d="M271.29,285.35c-.83,9.19.16,12.25.64,13.39l-16,3.35c.61-1.37,2.2-5,3-14.16L263.67,236c.58-6.45.4-10.92-.55-13.31l16-3.35c-1.53,2.91-2.54,7.63-3.12,14.08Z"/><path id="Fill-14" class="cls-1" d="M295.84,284a27,27,0,0,0,5.69-.52c8.24-1.73,16.28-10,18.45-34.1s-8.93-27.19-15.78-25.76l-3,.63Zm-7.78,10.75a44.41,44.41,0,0,0-7.31,2.2c.71-1.4,2.2-5,3-14.16l4.69-51.93c.58-6.46.5-11-.56-13.32L304.78,214c19.15-4,30.43,9,28.27,32.93s-12.94,42.15-30.8,45.89c-6.25,1.31-9.43.93-14.19,1.93Z"/><path id="Fill-16" class="cls-3" d="M449,0C327.69,88.74,183.73,122.13,115.86,129.77l-1,5.26C292.76,115.82,395.3,62.4,446.42,31.8c0,0,2.49-27.73,2.57-31.8"/><path id="Fill-18" class="cls-1" d="M175.13,187.14l-3.86,40.28c-5.07,1-12.12,5.33-20.18,6.92-16.81,3.31-26-10.37-23.84-33.27s15.63-40.86,32.94-44.27c6-1.18,9,.07,12.35-.6.6-.12,1.11-.4,1.51-.48l-1.51,15.7a11.17,11.17,0,0,0-12.1-5c-10.05,2-18.39,14.72-20.06,32.11s3.22,27.51,12.47,25.69a22.3,22.3,0,0,0,7.43-3.21l2.09-21.78a50.17,50.17,0,0,0-9.81,3.59l-1.2-10.95Z"/><path id="Fill-20" class="cls-1" d="M220.93,182.79c1.66-17.39-1.72-27.91-10.17-26.24s-14.12,14-15.79,31.36,1.72,27.81,10.27,26.12,14-13.85,15.69-31.24m13.12-2.59c-2.19,22.81-13.74,40.49-29.75,43.65s-24.65-10.55-22.46-33.35,13.74-40.49,29.85-43.67,24.56,10.47,22.36,33.37"/><path id="Fill-22" class="cls-1" d="M245.1,153.63q.89-9.25-.53-12.82l16-3.16c-1.44,2.85-2.56,7.38-3.15,13.55l-5,52.16c3.34-.3,8.27-.81,12.15-1.57,7.46-1.47,12.4-3.18,14.48-4.51l-2.53,11.14a49.78,49.78,0,0,1-9.95,3c-8.25,1.62-15.09,1.69-21.65,3a41.84,41.84,0,0,0-7.64,2.33c1.44-2.76,2.46-7.36,3.05-13.53Z"/><path id="Fill-24" class="cls-1" d="M299.15,195.33a26.73,26.73,0,0,0,5.71-.48c8.25-1.62,16.33-9.54,18.54-32.54s-8.92-26-15.78-24.67l-3,.59Zm-7.81,10.26a46.66,46.66,0,0,0-7.32,2.08c.71-1.33,2.21-4.74,3.05-13.53l4.76-49.63c.6-6.17.52-10.46-.53-12.73l16.91-3.34c19.19-3.78,30.48,8.67,28.29,31.57s-13,40.25-30.94,43.78c-6.26,1.24-9.45.86-14.22,1.8Z"/><path id="Fill-26" class="cls-1" d="M359.9,127.7l-2,21,8.15-1.61a77.53,77.53,0,0,0,13.59-4.33l-3.74,13.58a51.8,51.8,0,0,0-12.77.87L357,158.45l-2.38,24.77a121.15,121.15,0,0,0,12.15-1.57c7.36-1.45,12.31-3.16,14.38-4.49l-2.43,11.12a49.42,49.42,0,0,1-10,3.16c-8.35,1.64-15.17,1.52-21.74,2.81a36.38,36.38,0,0,0-7.65,2.43c1.45-2.85,2.58-7.48,3.17-13.65l4.74-49.44c.6-6.17.32-10.43-.63-12.72l38.48-7.58,1.1,11a47,47,0,0,0-12.86.79Z"/><path id="Fill-28" class="cls-1" d="M403.58,134.12,400,171.89c-1,10.28.53,12.73.53,12.73l-14.91,2.94c1.44-2.85,2.55-7.29,3.14-13.46l4.77-49.73c.59-6.17.32-10.42-.62-12.8L406,109l16.54,42.13L425.71,118c1-10.28-.52-12.82-.52-12.82L440,102.28q-2.17,4.27-3.06,13.53l-4.77,49.72c-.59,6.17-.41,10.36.54,12.74l-14.23,2.8a25.85,25.85,0,0,0-1.33-12.58Z"/><path id="Fill-30" class="cls-1" d="M385.69,231l-3.8,42.15c-5.06,1.06-12.09,5.61-20.12,7.29-16.77,3.52-26-10.76-23.83-34.72s15.53-42.79,32.8-46.41c5.95-1.25,8.95,0,12.32-.66.59-.13,1.11-.43,1.51-.51l-1.49,16.43A11,11,0,0,0,371,209.36c-10,2.1-18.33,15.46-20,33.64s3.25,28.78,12.48,26.84a21.5,21.5,0,0,0,7.4-3.37L373,243.68a49.32,49.32,0,0,0-9.78,3.78L362,236Z"/><path id="Fill-32" class="cls-1" d="M410.92,201.66l-2,22,8.14-1.71a76.15,76.15,0,0,0,13.55-4.56l-3.72,14.21a49.41,49.41,0,0,0-12.74.94L408,233.83l-2.33,25.92a117.29,117.29,0,0,0,12.12-1.68c7.34-1.54,12.27-3.34,14.35-4.74L429.74,265a48.31,48.31,0,0,1-9.93,3.33c-8.34,1.75-15.14,1.64-21.69,3a35.37,35.37,0,0,0-7.63,2.56c1.44-3,2.56-7.83,3.14-14.28l4.67-51.73c.58-6.46.3-10.91-.65-13.3L436,186.51,437.15,198a44.77,44.77,0,0,0-12.83.87Z"/></g></g></g></g></svg>