<svg id="Layer_1" data-name="Layer 1" xmlns="http://www.w3.org/2000/svg" viewBox="0 0 54.11 35.7"><defs><style>.cls-1{fill:#494949;}</style></defs><title>atv</title><path class="cls-1" d="M54.11,27.25c-.18.69-.31,1.4-.53,2.08A9.43,9.43,0,1,1,54,25a1.66,1.66,0,0,0,.1.29Zm-4.53-1a4.92,4.92,0,1,0-4.93,4.91A4.92,4.92,0,0,0,49.58,26.25Z"/><path class="cls-1" d="M33.09,28c-1.24.21-1.61,0-2.18-1-.45-.8-.88-1.61-1.35-2.39a.77.77,0,0,0-.56-.33c-1.5,0-3,0-4.49,0a.79.79,0,0,0-.55.34c-.51.89-1,1.8-1.47,2.69A1.18,1.18,0,0,1,21,28c0-1,.07-2,0-3a11.7,11.7,0,0,0-9.46-10.23l-.15,0c-1.76.05-3-1.07-4.17-2.09A8.49,8.49,0,0,1,4.46,8.21a12.24,12.24,0,0,1-.35-2.34c-.06-1.08.64-1.58,1.68-1.22L17.84,8.84l20.42,7.09.53.18A11.86,11.86,0,0,0,33.09,28Z"/><path class="cls-1" d="M18.85,26.24a9.43,9.43,0,1,1-9.4-9.42A9.45,9.45,0,0,1,18.85,26.24Zm-14.33,0a4.92,4.92,0,0,0,9.83,0,4.92,4.92,0,1,0-9.83,0Z"/><path class="cls-1" d="M43.86,15.48,24.05,8.61c1.75-2.32,4.2-2.31,6.75-2.17-.1-.24-.14-.38-.21-.52C30.13,5,29.65,4,29.2,3.08a.73.73,0,0,0-.63-.46c-.8-.12-1.6-.24-2.39-.41A1.09,1.09,0,0,1,25.36.75,1.12,1.12,0,0,1,26.57,0c1.11.17,2.22.37,3.33.56a1.24,1.24,0,0,1,1,.75c.43.9.87,1.79,1.33,2.72a3.71,3.71,0,0,1,2.69-.82,3.4,3.4,0,0,1,2.24,1.07c2,2.07,3.9,4.15,5.85,6.24a3.37,3.37,0,0,1,.9,2.36C43.87,13.71,43.86,14.54,43.86,15.48Z"/><path class="cls-1" d="M42,26.27a2.66,2.66,0,1,1,2.66,2.65A2.66,2.66,0,0,1,42,26.27Z"/><path class="cls-1" d="M12.08,26.24a2.66,2.66,0,1,1-2.65-2.65A2.66,2.66,0,0,1,12.08,26.24Z"/></svg>