<svg id="Layer_1" data-name="Layer 1" xmlns="http://www.w3.org/2000/svg" viewBox="0 0 45.31 38.71"><defs><style>.cls-1{fill:#494949;}</style></defs><title>bike</title><path class="cls-1" d="M0,28.38c.2-.8.34-1.62.61-2.39A9.41,9.41,0,1,1,.1,30.57c0-.14-.07-.28-.1-.42Zm9.44-5.73A6.61,6.61,0,1,0,16,29.26,6.59,6.59,0,0,0,9.44,22.65Z"/><path class="cls-1" d="M24.83,12.55l-4.54,4.64a2.4,2.4,0,0,1,.45.25Q22.51,19.2,24.27,21a.89.89,0,0,1,.26.56q0,5.57,0,11.15c0,.1,0,.2,0,.33H20.77v-.53q0-4.17,0-8.36a1,1,0,0,0-.41-.9C18.58,21.67,16.8,20.1,15,18.5a3.84,3.84,0,0,1-1.31-3.33,3.66,3.66,0,0,1,1.11-2.25c1.81-1.82,3.62-3.65,5.46-5.43a3.46,3.46,0,0,1,4.64,0c1.39,1.32,2.75,2.67,4.14,4A9.28,9.28,0,0,0,35.32,14l.31,0,.11,0v3.73a14.08,14.08,0,0,1-6.05-1.36A17.59,17.59,0,0,1,24.83,12.55Z"/><path class="cls-1" d="M35.89,38.71a9.45,9.45,0,1,1,9.42-9.5A9.49,9.49,0,0,1,35.89,38.71Zm-.08-16.06a6.61,6.61,0,1,0,6.67,6.46A6.56,6.56,0,0,0,35.81,22.65Z"/><path class="cls-1" d="M33,3.79a3.77,3.77,0,0,1-7.54,0,3.77,3.77,0,1,1,7.54,0Z"/></svg>