<svg id="Layer_1" data-name="Layer 1" xmlns="http://www.w3.org/2000/svg" viewBox="0 0 50 50.02"><defs><style>.cls-1{fill:#00c0ff;}</style></defs><title>Artboard 41</title><path class="cls-1" d="M23.54,50V38.45l-12.4,2c.35-1.4.67-2.72,1-4a8.78,8.78,0,0,1,.26-1c.16-.41,0-.63-.31-.89Q6.25,30,.44,25.45L0,25.09,4.4,23,1.6,14.27l8.11,1.89.44-5.09,6.38,5.8.11-.05L14.78,5.21l1.64.56c1.16.41,2.33.81,3.49,1.24a.48.48,0,0,0,.7-.23C22,4.62,23.38,2.48,24.77.33L25,0l.32.46c1.36,2.1,2.73,4.2,4.07,6.32A.49.49,0,0,0,30.1,7c1.66-.6,3.34-1.18,5.12-1.8C34.6,9.13,34,13,33.37,16.81l.09.07,6.39-5.81.44,5.1,8.11-1.9L45.6,23l4.4,2.1-.43.37c-3.88,3-7.76,6.05-11.65,9.05a.76.76,0,0,0-.32.93c.4,1.5.76,3,1.13,4.5,0,.15.07.31.11.53l-12.37-2V50Z"/></svg>