<?xml version="1.0" encoding="utf-8"?>
<!-- Generator: Adobe Illustrator 24.0.2, SVG Export Plug-In . SVG Version: 6.00 Build 0)  -->
<svg version="1.1" id="Layer_1" xmlns="http://www.w3.org/2000/svg" xmlns:xlink="http://www.w3.org/1999/xlink" x="0px" y="0px"
	 viewBox="0 0 22.1 22.1" style="enable-background:new 0 0 22.1 22.1;" xml:space="preserve">
<style type="text/css">
	.st0{fill:#1CC2FF;}
</style>
<title>Artboard 5</title>
<g id="Group_32">
	<path id="Path_33" class="st0" d="M11.1,22.1C4.9,22.1,0,17.2,0,11S4.9,0,11.1,0s11,4.9,11,11.1c0,0,0,0,0,0l0,0
		C22.1,17.2,17.1,22.1,11.1,22.1z M11.1,2.5c-4.7,0-8.6,3.8-8.6,8.6s3.8,8.6,8.6,8.6s8.6-3.8,8.6-8.6l0,0l0,0
		C19.6,6.3,15.8,2.5,11.1,2.5L11.1,2.5z"/>
</g>
<g id="Group_33">
	<path id="Path_34" class="st0" d="M17.5,8.3l-1.8-1.8l-7,7l-2.5-2.5l-1.8,1.8l4.2,4.2L17.5,8.3z"/>
</g>
</svg>
