<svg id="Layer_1" data-name="Layer 1" xmlns="http://www.w3.org/2000/svg" viewBox="0 0 50 50.06"><defs><style>.cls-1{fill:#00c0ff;}</style></defs><title>Artboard 40</title><path class="cls-1" d="M50,3.77A3.46,3.46,0,0,0,46.25,0H38.54C36,0,33.53,0,31,0a6.12,6.12,0,0,0-4.65,2Q13.75,15.11,1.11,28.23a3.39,3.39,0,0,0,0,5.06L16.78,49a3.46,3.46,0,0,0,5,0Q34.92,36.34,48,23.68A6.18,6.18,0,0,0,50,19C50,13.94,50,8.85,50,3.77ZM31.54,21.15c-1.49,2.39-2,5.1-2.49,7.81a17,17,0,0,1-1.57,5.17,8.73,8.73,0,0,1-8.89,4.45,8.68,8.68,0,0,1-7-7c-1-5.15,2.08-9.1,6.13-10.81a12.29,12.29,0,0,1,1.58-.38,7.52,7.52,0,0,0-.77,3.85c0,.25.06.49.07.74a1.11,1.11,0,0,0,.82,1.07,1.15,1.15,0,0,0,1.27-.43,13.2,13.2,0,0,1,3.44-2.74A14.36,14.36,0,0,1,31.17,21h.36C31.53,21.09,31.55,21.13,31.54,21.15Zm9.35-9.76a2.28,2.28,0,0,1,0-4.55,2.28,2.28,0,1,1,0,4.55Z"/></svg>