<svg id="Layer_1" data-name="Layer 1" xmlns="http://www.w3.org/2000/svg" viewBox="0 0 50 50.06"><defs><style>.cls-1{fill:#fff;}</style></defs><title>deals2</title><path class="cls-1" d="M50,3.77A3.46,3.46,0,0,0,46.88,0a3.32,3.32,0,0,0-.63,0H31a6.09,6.09,0,0,0-4.65,2Q13.75,15.11,1.11,28.23A3.39,3.39,0,0,0,.84,33a3.44,3.44,0,0,0,.27.27L16.78,49a3.46,3.46,0,0,0,4.89.11l.11-.11Q34.92,36.34,48,23.68A6.17,6.17,0,0,0,50,19ZM31.54,21.15A21.53,21.53,0,0,0,29.05,29a16.74,16.74,0,0,1-1.57,5.17,8.74,8.74,0,0,1-8.89,4.45,8.66,8.66,0,0,1-7-7c-1-5.15,2.08-9.1,6.13-10.81a12.52,12.52,0,0,1,1.58-.38,7.53,7.53,0,0,0-.77,3.85c0,.25.06.49.07.74a1.11,1.11,0,0,0,.82,1.07,1.16,1.16,0,0,0,1.27-.43,13.2,13.2,0,0,1,3.44-2.74,14.38,14.38,0,0,1,7-1.88h.36C31.53,21.09,31.55,21.13,31.54,21.15Zm9.35-9.76a2.28,2.28,0,1,1,.3,0Z"/></svg>