<svg id="Layer_1" data-name="Layer 1" xmlns="http://www.w3.org/2000/svg" viewBox="0 0 405.36 228.87"><defs><style>.cls-1{fill:#fff;}</style></defs><title>Artboard 5</title><path class="cls-1" d="M202.67,82.16l-69.23-4.45,7.48,9.4-22.69,93.43,40.39-4.68,4.64-25.9,31.63-2.35c7.54-.56,13.75-2.71,18.55-6.42a18.24,18.24,0,0,0,7.63-13.73l1.69-25.63a16.42,16.42,0,0,0-5-13.6C214.11,84.61,209.11,82.57,202.67,82.16ZM185.2,123.58l-17.31.47,3.17-17.72,16.62.12Z"/><polygon class="cls-1" points="260.88 85.89 244.55 84.85 228.23 83.8 228.23 83.8 228.23 83.8 223.59 168.34 263.98 163.66 262.43 124.78 260.88 85.89"/><polygon class="cls-1" points="239.8 42.94 248.9 45.63 255.46 35.88 262.65 45.76 269.87 51.64 274.13 47.54 289.6 53.68 253.81 18.31 218.44 54.1 232.01 49.33 239.8 42.94"/><path class="cls-1" d="M374.63,98.85l-22.1-22.1L331,75.37,253.74,0,186.43,66.08,29.74,56,43.41,86.56,0,204.9l24,24L212,207.09l30.72,17.54,140.33-16.91,22.29-26.39ZM380.52,203,243.78,219.46l-30.71-17.52L25.79,223.62l-20-20,43-117.24L37.69,61.55l150.65,9.67L253.75,7l75.06,73.24,21.52,1.38,20,20,29.32,78.71Z"/><polygon class="cls-1" points="70.87 156.81 74.44 145.63 107.06 143.75 114.53 116.52 114.53 116.52 114.53 116.52 99.08 116.7 83.63 116.89 85.76 110.23 87.21 105.71 132.54 106.05 134.74 97.22 135.74 93.19 136.75 89.16 134.35 86.02 127.76 77.35 53.59 72.59 53.59 72.59 53.58 72.59 58.29 83.1 59.59 86 33.06 158.32 20.77 191.82 113.84 181.05 120.81 153.1 70.87 156.81"/><path class="cls-1" d="M363.4,145.35l-3.71-9.95h0l-3.22.23-46.72,3.47-2-11-2.41-13.41L304,107.32l36.26.27,7.13-5.14-1.77-4.75-2.43-6.52-54-3.46a28,28,0,0,0-10.42,1c-.59.19-1.15.41-1.69.64a16.91,16.91,0,0,0-2.06,1.12c-.32.2-.64.39-.94.61a12.15,12.15,0,0,0-5,8.08,15.29,15.29,0,0,0-.17,1.7,15.54,15.54,0,0,0,0,1.8l.89,14.23,1.84,29.37a12.23,12.23,0,0,0,3.28,7.82,15.34,15.34,0,0,0,1.31,1.22,17.32,17.32,0,0,0,3.28,2.07,20,20,0,0,0,1.95.82c4.72,1.73,10.58,2.17,17.55,1.36l66.73-7.72h0Z"/><rect class="cls-1" x="308.51" y="185.95" width="0.2" height="0.2" transform="translate(-20.87 40.11) rotate(-7.19)"/><path class="cls-1" d="M329.48,176.33l0-.32a2.81,2.81,0,0,0-2.5-1l-.74.09c-.35.07-.52.16-.51.28-.6.08-1,.59-1.1,1.54a43.21,43.21,0,0,1-2.19,9.11q-3.51-5.55-3.89-8.56v-.1c-.6-.65-1.14-.94-1.62-.88-2,.37-3.17.74-3.52,1.09l-1.86,5.74c-.39,1.06-.74,2.06-1.06,3l-.66.18-.7.09v-.1l.67-.29,0-.19-1.57.29H308l0-.2-3.13.81c-.15,0-.28-.2-.38-.66l-.12-.1q-1.08-4.38-1.63-5.83c-.57-1.07-1.8-1.49-3.69-1.25a1.65,1.65,0,0,0-.85.5l-.43,2.08L295.16,188a56.12,56.12,0,0,0-2.69,5.09c-1.38,1.9-2,3.23-1.92,4l.09.7q0,.19.42.15c.3.36.59.53.87.49l0,.2.2,0,.08-.11c0,.29.27.53.71.71H293l.08-.1.27.47c.27,0,.6-.35,1-.94a19.69,19.69,0,0,1,2-3.37c-.08-.65,1.89-1.8,5.91-3.48h.1a28.55,28.55,0,0,0,2.22,5.68l.9.69.94-.53.43.26.28-.24,0,.2.2,0,0-.3a1.08,1.08,0,0,0,.72.22h.11l.25-.35,0-.39c0-.2-.08-.43-.13-.69l.9.93.09-.12h.1l.12.09.19-.24.33.07.41-.16.21,0,1.15.5.32,0c.16,0,.27-.32.31-.9v-.1l-.12-.1a12.64,12.64,0,0,1,.62-3.64L316,183.1l.1,0,1.17,2.44,3.58,6.23a8.32,8.32,0,0,0-.46,2.32l.09.74,1,.85,1.05-.24.57.25.53-.06.09-.12.47.26.31,0,.28-.36a42.53,42.53,0,0,1,2-8.12Zm-30,12.58v-.09a8.36,8.36,0,0,1,1.13-2.27l.49,1.56C301.12,188.21,300.59,188.48,299.5,188.91Zm10.85-2.32-.26.75a1.81,1.81,0,0,0-.63-.19l-.48.17,0-.2A4.34,4.34,0,0,0,310.35,186.59Zm-1.46,0,0,.1-.2,0,0-.09ZM308,195.2q-.54-1.86-1.74-4.92l1.74-.52,1.45-.38A28.24,28.24,0,0,0,308,195.2Z"/><path class="cls-1" d="M361.5,172.67c0-.15-.18-.21-.47-.17v-.12l.09-.12v-.11c-.39-.05-.59-.21-.63-.49-.55-.11-.83-.23-.85-.35a84.32,84.32,0,0,0-10.49,2.12l-1.85-.23a1.5,1.5,0,0,0-.95.77c-.31-.06-.49-.22-.52-.46-.55-.12-.83-.23-.85-.35a84.12,84.12,0,0,0-10.49,2.11l-1.85-.22c-.53.06-1,.66-1.48,1.78q.33,2.55-2.18,9.68t-2.36,9.14c0,.23.15.33.37.3l.52.5.2-.26h.11l.12.1c.18,0,.26-.22.26-.6v-.11c.3,0,.51.12.64.48.15,0,.21-.13.18-.35l.22,0,.06.45-.11.12.38.18.1,0c0-.22.26-.36.86-.44q.54-1,3.32-8.7c4.21-1.39,6.71-2.5,7.52-3.33,0-.12-.26-.21-.72-.24v-.12l.1-.12v-.12l-.7-.14-.66.2-.11,0v-.12l.33,0v-.11l-.27-.3-.07-.57c-.18,0-.47-.16-.86-.56l-2.88.58h-.1a5,5,0,0,1,.44-1.76c.07-1.21.48-1.87,1.23-2,4-.9,6.91-1.61,8.76-2.11a38.59,38.59,0,0,1-2.17,8.19q-2.61,7.14-2.36,9.14c0,.23.15.33.37.3l.52.5.2-.25.11,0,.12.11c.18,0,.26-.22.26-.61v-.1c.3,0,.51.12.64.48q.22,0,.18-.36l.22,0,.06.45-.11.12.38.18h.1c0-.22.26-.37.86-.44q.54-1,3.32-8.7c4.21-1.4,6.71-2.51,7.52-3.33,0-.13-.26-.21-.72-.25v-.12l.1-.12v-.12l-.7-.14-.66.21h-.11v-.12l.33,0v-.1l-.27-.31-.07-.56c-.18,0-.47-.17-.86-.57l-2.88.58H350a4.89,4.89,0,0,1,.44-1.75c.07-1.22.48-1.87,1.23-2q11.25-2.53,11.19-3c-.63-.68-1.12-1-1.48-1Z"/><path class="cls-1" d="M289.77,184q-2.16-3.19-8.09-2.45l-1.28.16-3.7.69q-4.74.9-4.59,2.19c.41.88.76,1.35,1,1.39a2.94,2.94,0,0,0,2.8.73q-5.32,10.55-5.95,12.85l.34,1a2.86,2.86,0,0,0-1.59,1.07l0,.11.12.09.51-.17.11,0v.11l-.17.34v.11h.11l.62-.19h.11l.12.09.61-.29.11,0c0,.14-.22.28-.71.42l0,.21,1.36-.39h.11v.1l-1,.56.16.41c0,.15.21.19.57.15l0,.32-.1.12.13.09,2.16-.81q15.44-7.11,15.1-9.69l-.08-.64c-.08-.68-1-1.61-2.72-2.78v-.11q4.65-2.56,4.42-4.34v-.11A2.17,2.17,0,0,0,289.77,184Zm-13.45,13.36v-.11l1.45-3c-.06-.5,1.22-.91,3.85-1.24l2-.26A27.51,27.51,0,0,1,276.32,197.35Zm4.33-9.41a10.08,10.08,0,0,1,1.17-2.74l1.48-.18c1.64-.21,2.47-.2,2.5,0A45.5,45.5,0,0,1,280.65,187.94Z"/></svg>