<svg id="Layer_1" data-name="Layer 1" xmlns="http://www.w3.org/2000/svg" viewBox="0 0 405.36 228.87"><defs><style>.cls-1{fill:#fff;}</style></defs><title>Artboard 6</title><polygon class="cls-1" points="239.8 42.94 248.9 45.63 255.46 35.88 262.65 45.76 269.87 51.64 274.13 47.54 289.6 53.68 253.81 18.31 218.44 54.1 232.01 49.32 239.8 42.94"/><path class="cls-1" d="M374.63,98.85l-22.1-22.1L331,75.36,253.74,0,186.43,66.08,29.74,56,43.41,86.56,0,204.9l24,24L212,207.09l30.72,17.54,140.33-16.91,22.29-26.39ZM380.52,203,243.78,219.46l-30.7-17.52L25.79,223.62l-20-20,43-117.24L37.69,61.54l150.65,9.68L253.75,7l75.06,73.24,21.52,1.38,20,20,29.32,78.71Z"/><polygon class="cls-1" points="70.87 156.81 74.44 145.63 107.06 143.75 114.53 116.52 83.63 116.89 87.21 105.71 132.54 106.04 134.74 97.22 136.75 89.16 127.76 77.35 53.59 72.59 59.59 86 20.77 191.82 113.84 181.05 120.81 153.1 70.87 156.81"/><path class="cls-1" d="M202.67,82.16l-69.23-4.45,7.48,9.4-22.69,93.43,40.39-4.68,4.64-25.9,31.63-2.35c7.54-.56,13.75-2.71,18.55-6.42a18.24,18.24,0,0,0,7.63-13.73l1.69-25.63a16.42,16.42,0,0,0-5-13.6C214.11,84.61,209.11,82.57,202.67,82.16ZM185.2,123.58l-17.31.47,3.17-17.72,16.63.12Z"/><polygon class="cls-1" points="260.88 85.89 228.23 83.8 223.59 168.34 263.98 163.66 260.88 85.89"/><path class="cls-1" d="M274.16,91.12A12.56,12.56,0,0,0,269,102.7l2.73,43.6c.31,4.94,2.91,8.66,7.87,11.11s11.54,3.11,19.5,2.18l66.73-7.72-2.43-6.52-3.71-9.95-49.94,3.7-4.39-24.4L304,107.32l36.26.27,7.13-5.14-4.2-11.27-54-3.46C282.83,87.3,277.81,88.42,274.16,91.12Z"/><path class="cls-1" d="M270.87,186.89l2.25,0a7.67,7.67,0,0,0,2.43.4l.12,0c.34,0,.51-.85.5-2.44a4.17,4.17,0,0,0-4.43-2.08l-.35,0a18.64,18.64,0,0,0-10.25,4.38q-5.58,6.44-5.11,10.47l.08.68.23,1c1.54,3.29,4,4.75,7.33,4.35l1-.12a10.59,10.59,0,0,0,5-2.06q5.19-4,5.06-5.14a3.52,3.52,0,0,0,1.28-2.64l-.16-.33a2.06,2.06,0,0,0-2.09-1.33q-13.47,4-13.38,4.76c0,.15.29.19.82.13l-.19.36,0,.11.55-.06v.1l-.33,0,0,.23h.9v.11l-.65.18,0,.23.66-.08,0,.12-.1.11c.64.26,1,.48,1,.69l3.21-.61h.12v.1a13.38,13.38,0,0,1-3.92,1.38c-1.56.18-2.41-.25-2.53-1.29a8.64,8.64,0,0,1,1.17-5.47A13,13,0,0,1,270.87,186.89Z"/><path class="cls-1" d="M295.92,189.21q-.33-2.82-3.33-5.75v-.11c1.11-.38,1.64-.73,1.6-1.07l-.06-.53-.14-.11q-1.39-2-2.52-1.89h-.12q-2.91.35-7.45,3.2-7.09,5.17-6.47,10.41l.09.77c.22,1.24.45,1.87.67,1.89q3,5.15,8.26,4.51l1.25-.15a13.82,13.82,0,0,0,3.34-.94q5.78-2.72,5-9.7Zm-4.31,1.5c-1.76,3.06-3.87,4.73-6.31,5l-.91.11c-1.61,0-2.49-.63-2.64-1.88l0-.11c-.15-1.34.47-2.88,1.88-4.61q3.92-4.41,7.2-5.25c.1,0,.31.52.65,1.58l-.07.33a5,5,0,0,1,.55,1.8A10.57,10.57,0,0,1,291.61,190.71Z"/><path class="cls-1" d="M330.58,178.22a13,13,0,0,0-7.85-1.56l-.52.06c-5.33.95-8,1.71-7.9,2.29q1.29,2.33,3.15,2.1a27.88,27.88,0,0,1-1.28,5c-1.24,4.16-2.33,6.91-3.28,8.3l-.4-.32-.63.07-.29-.6,1-.64,0-.22-.63.08,0-.32.31,0,0-.21-.63.07h-.85l-6.47,1.19.67-1.57q3.69-11.3,4.27-12.54c-.13-1.09-1.15-1.86-3.05-2.31l-.63.08c-.61.07-1.09.55-1.43,1.45l.14.3a107.55,107.55,0,0,1-5.3,16.4c-.57.56-.83,1-.79,1.37l.12,1,.12.1-.09.1V198c1.08,1,1.81,1.5,2.19,1.45h.11c2.91-1.2,5.23-2.08,6.93-2.64s3-.8,3.95-1.09c-.1.11-.22.2-.3.31s.2.24.55.25c0,.27.15.4.35.37l.4-.15h.11l-.07.32v.09l.12.09.48-.26h.1l-.15.43.17.6.59-.28h.1l-.25.55.12.09a8.62,8.62,0,0,0,2.24-1.2l1.14,0a16.68,16.68,0,0,1,4.29-2.27,32.21,32.21,0,0,0,5.9-4.44q5.32-6.62,5-9.49A3.89,3.89,0,0,0,330.58,178.22ZM319.35,191l2.74-9.25c.1-1.25.4-1.9.9-2,2.57.1,3.94.93,4.13,2.52C327.41,184.67,324.81,187.56,319.35,191Z"/><path class="cls-1" d="M366,170.88l-.75.09c-.35.05-.52.15-.5.27-.61.07-1,.58-1.12,1.53a42.77,42.77,0,0,1-2.26,9.1q-3.47-5.58-3.82-8.59v-.11c-.6-.65-1.13-.94-1.61-.88-2,.35-3.18.71-3.53,1.06l-1.91,5.72a99.93,99.93,0,0,0-3.32,10.09,1.32,1.32,0,0,0-.32,0l.08-.12c-.12-.33-.68-.44-1.68-.32l.09-.1v-.11l-.12-.08.51-.06,0-.22-.62.08v-.1l.22,0a.67.67,0,0,1,.47-.37l0-.31c-.25,0-.44-.12-.57-.44l-.49.16h-.11l0-.2L337.38,189c.58-2.12,1.14-3.22,1.66-3.28,4.16-1.38,6.22-2.17,6.2-2.38v-.09c0-.14-.19-.19-.53-.15V183l.08-.12v-.09q-.84-.21-.9-.72l.06-.32-.21,0v-.1l.49-.27c0-.13-.3-.17-.84-.11v-.09l.29-.14-.24-.28a15.73,15.73,0,0,0-3.1.67l-.11,0,.86-2.37a16.74,16.74,0,0,1,4.69-2c2.46-.59,3.68-1,3.65-1.25s-.19-.19-.53-.15v-.09l.09-.12-1-.4-1.21.14v-.09l.3,0,0-.2c-.4.05-.62,0-.64-.23l.4-.05v-.11c0-.13-.19-.18-.53-.14v-.11l.3,0,0-.2a.36.36,0,0,1-.45-.36l-3.92.78-4,.36c-.93.25-1.35.71-1.27,1.38q-5,14.81-5.48,17.92v.09l.12.09h.09l.1-.11.2,0-.07.32v.11l.12.08.29-.13c.69.08,1.05.21,1.07.39l.49-.17.21,0,.67.43h.1a1.54,1.54,0,0,0,.8-1q-.09-.79,5.87-2.55a33.69,33.69,0,0,0,5.59-2,6.55,6.55,0,0,0-.2,1.78l.05.42,1.11,1.16.09-.11.11,0,.12.1.18-.24.34.07.41-.16.21,0,1.14.51.32,0c.16,0,.27-.32.32-.9V192l-.12-.09a12.49,12.49,0,0,1,.65-3.63l3.19-9.42h.11l1.15,2.45,3.53,6.25a8.22,8.22,0,0,0-.48,2.32l.09.74,1,.86,1-.23.57.25.53-.06.1-.12.46.27.32,0,.28-.36a42.31,42.31,0,0,1,2-8.1l2.81-10.88,0-.32A2.78,2.78,0,0,0,366,170.88Z"/></svg>