<?xml version="1.0" encoding="utf-8"?>
<!-- Generator: Adobe Illustrator 24.0.2, SVG Export Plug-In . SVG Version: 6.00 Build 0)  -->
<svg version="1.1" id="Layer_1" xmlns="http://www.w3.org/2000/svg" xmlns:xlink="http://www.w3.org/1999/xlink" x="0px" y="0px"
	 viewBox="0 0 37.2 37.2" style="enable-background:new 0 0 37.2 37.2;" xml:space="preserve">
<style type="text/css">
	.st0{fill:#2AFEC5;}
</style>
<title>facebook2</title>
<path class="st0" d="M32.2,0H5C2.2,0,0,2.2,0,5v27.2c0,2.8,2.2,5,5,5h13.4V23.9H15c-0.4,0-0.8-0.4-0.8-0.8v-4.3
	c0-0.4,0.4-0.8,0.8-0.8h3.5v-4.1c0-4.8,2.9-7.4,7.2-7.4h3.5c0.5,0,0.8,0.4,0.8,0.8v3.6c0,0.4-0.4,0.8-0.8,0.8H27
	c-2.3,0-2.8,1.1-2.8,2.7V18h5.1c0.5,0,0.8,0.4,0.8,0.8v0.1l-0.5,4.3c-0.1,0.4-0.4,0.7-0.8,0.7h-4.6v13.3h8c2.8,0,5-2.2,5-5V5
	C37.2,2.2,35,0,32.2,0L32.2,0z"/>
</svg>
