<svg id="Layer_1" data-name="Layer 1" xmlns="http://www.w3.org/2000/svg" viewBox="0 0 32.27 32.96"><defs><style>.cls-1{fill:#494949;}</style></defs><title>gondola</title><path class="cls-1" d="M13.42,13.45v2a1.68,1.68,0,0,0,1.74,1.74c.86,0,1.71,0,2.56,0a1.69,1.69,0,0,0,1.76-1.73c0-.64,0-1.28,0-2h.78a39.82,39.82,0,0,1,4.09.1,4.88,4.88,0,0,1,4.2,4.8c0,3.77,0,7.54,0,11.31A3.31,3.31,0,0,1,25.06,33H8.23A3.35,3.35,0,0,1,4.67,29.4V18.6A5,5,0,0,1,9.8,13.45h3.62Zm3.21,12.46h6.3a3.64,3.64,0,0,0,.74-.06,1.42,1.42,0,0,0,1.19-1.49V20.72a1.42,1.42,0,0,0-1.22-1.5,3.78,3.78,0,0,0-.67,0q-6.36,0-12.73,0a3.35,3.35,0,0,0-.63,0A1.4,1.4,0,0,0,8.38,20.7c0,1.25,0,2.5,0,3.75a1.24,1.24,0,0,0,.77,1.22,3.18,3.18,0,0,0,1.1.23C12.37,25.92,14.5,25.91,16.63,25.91Z"/><path class="cls-1" d="M18.13,10.11c0,1.69,0,3.39,0,5.08,0,.54-.08.62-.61.62H15.31c-.45,0-.54-.09-.54-.52q0-4.52,0-9a.57.57,0,0,1,.36-.58c.78-.37,1.55-.77,2.33-1.15.49-.25.68-.13.68.41C18.14,6.66,18.13,8.39,18.13,10.11Z"/><path class="cls-1" d="M13.42,8.44c0,.45,0,.86,0,1.26a.61.61,0,0,1-.34.35c-2.54,1.2-5.08,2.38-7.63,3.57l-4.31,2a1.23,1.23,0,0,1-.56.15.54.54,0,0,1-.57-.5,1.51,1.51,0,0,1,.24-.69c.06-.1.22-.13.34-.19L13,8.59Z"/><path class="cls-1" d="M19.48,7.05c0-.48,0-.86,0-1.24a.48.48,0,0,1,.24-.33L31.2.1a.69.69,0,0,1,1,.28c.17.38,0,.73-.45,1l-7,3.28L19.88,6.87C19.77,6.93,19.65,7,19.48,7.05Z"/></svg>