<svg id="Layer_1" data-name="Layer 1" xmlns="http://www.w3.org/2000/svg" viewBox="0 0 41.2 25.75"><defs><style>.cls-1{fill:#494949;}</style></defs><title>heli</title><path class="cls-1" d="M0,4.9a6,6,0,0,1,.85-.67A10.76,10.76,0,0,1,2.1,3.68a.9.9,0,0,1,1.35.49c.47.92.92,1.85,1.39,2.77a2.57,2.57,0,0,0,.42.46c.33.32.66.65,1,1a.86.86,0,0,0,.42.22H19.13a.85.85,0,0,0,.47-.22Q21,7,22.39,5.57a1.33,1.33,0,0,1,1-.43c.72,0,1.45,0,2.17,0a1,1,0,0,1,1,.61c.42.87.85,1.73,1.3,2.59a.59.59,0,0,0,.37.27,15.39,15.39,0,0,1,8,3A14.76,14.76,0,0,1,40.51,16a3.39,3.39,0,0,1,.41,3.35,4.77,4.77,0,0,1-3,2.48c-.6.21-1.24.31-1.87.47v1.72a4.56,4.56,0,0,0,3.53-1.32.94.94,0,0,1,.91-.38.71.71,0,0,1,.63.6,1.32,1.32,0,0,1-.19.82,4.12,4.12,0,0,1-2.13,1.5,7.07,7.07,0,0,1-2.58.48c-5.4,0-10.79,0-16.18,0a2,2,0,0,1-.55-.06.79.79,0,0,1-.61-.87.81.81,0,0,1,.71-.76,3.85,3.85,0,0,1,.48,0h7.34V22.31H27c-1.14,0-2.28,0-3.42,0a6.06,6.06,0,0,1-5.1-2.5,21.11,21.11,0,0,1-2.59-4.2,2.46,2.46,0,0,0-1.18-1.14,25.2,25.2,0,0,0-5.37-1.76c-.87-.21-1.75-.37-2.63-.56a.5.5,0,0,0-.55.18c-.29.33-.65.6-1,.9a1.43,1.43,0,0,0-.28.32c-.22.43-.44.86-.65,1.29a1,1,0,0,1-.95.6c-1.43,0-1.61-.15-1.59-1.58a1,1,0,0,0-.43-.93A3.52,3.52,0,0,1,0,10.7V9.89a4.15,4.15,0,0,1,.81-1.8.31.31,0,0,0,0-.25C.57,7,.28,6.2,0,5.39ZM39.1,17.16c-.91-2.79-7.87-7.26-10.44-6.72.47,1.55.93,3.1,1.4,4.64a2.59,2.59,0,0,0,2.81,2.08H39.1ZM29.21,24h5.11V22.35H29.21Z"/><path class="cls-1" d="M24.05,1.7c0-.33,0-.6,0-.86A.85.85,0,0,1,24.87,0a.87.87,0,0,1,.88.82c0,.28,0,.56,0,.88H39.94a3,3,0,0,1,.6.05.82.82,0,0,1,.66.8.84.84,0,0,1-.68.83l-.36,0H9.86a2.78,2.78,0,0,1-.64-.06.79.79,0,0,1-.62-.78.82.82,0,0,1,.63-.83,3,3,0,0,1,.6-.05H24.05Z"/></svg>