<?xml version="1.0" encoding="utf-8"?>
<!-- Generator: Adobe Illustrator 24.0.2, SVG Export Plug-In . SVG Version: 6.00 Build 0)  -->
<svg version="1.1" id="Layer_1" xmlns="http://www.w3.org/2000/svg" xmlns:xlink="http://www.w3.org/1999/xlink" x="0px" y="0px"
	 viewBox="0 0 393.9 216.6" style="enable-background:new 0 0 393.9 216.6;" xml:space="preserve">
<style type="text/css">
	.st0{fill:#FFFFFF;}
	.st1{fill:none;}
	.st2{fill:#202020;}
</style>
<title>Artboard 10</title>
<g>
	<g>
		<g>
			<g>
				<path class="st0" d="M108.7,173.8l-92.5,10.7L54.8,79.4l-6-13.3l73.7,4.7l8.9,11.7l-2,8l-2.2,8.8l-45-0.3l-3.6,11.1l30.7-0.4
					l-7.4,27l-32.4,1.9L66,149.7l49.6-3.7L108.7,173.8z"/>
			</g>
			<g>
				<path class="st0" d="M135.6,80.5l-7.4-9.3l68.8,4.4c6.4,0.4,11.4,2.4,15,6c3.7,3.5,5.4,8,5,13.5l-1.7,25.5
					c-0.4,5.5-2.9,10-7.6,13.6c-4.8,3.7-10.9,5.8-18.4,6.4l-31.4,2.3l-4.6,25.7l-40.1,4.6L135.6,80.5z M182.1,99.7l-16.5-0.1
					l-3.2,17.6l17.2-0.5L182.1,99.7z"/>
			</g>
			<g>
				<path class="st0" d="M257.8,156.5l-40.1,4.6l4.6-84l32.4,2.1L257.8,156.5z"/>
			</g>
			<g>
				<path class="st0" d="M333.7,100.8l-36-0.3l1.3,7.3l4.4,24.2l49.6-3.7l3.7,9.9l2.4,6.5l-66.3,7.7c-7.9,0.9-14.4,0.2-19.4-2.2
					c-4.9-2.4-7.5-6.1-7.8-11L262.8,96c-0.3-4.9,1.4-8.8,5.1-11.5c3.6-2.7,8.6-3.8,15-3.4l53.6,3.4l4.2,11.2L333.7,100.8z"/>
			</g>
		</g>
		<g>
			<g>
				<path class="st0" d="M108.7,173.8l-92.5,10.7L54.8,79.4l-6-13.3l73.7,4.7l8.9,11.7l-2,8l-2.2,8.8l-45-0.3l-3.6,11.1l30.7-0.4
					l-7.4,27l-32.4,1.9L66,149.7l49.6-3.7L108.7,173.8z"/>
			</g>
			<g>
				<path class="st0" d="M135.6,80.5l-7.4-9.3l68.8,4.4c6.4,0.4,11.4,2.4,15,6c3.7,3.5,5.4,8,5,13.5l-1.7,25.5
					c-0.4,5.5-2.9,10-7.6,13.6c-4.8,3.7-10.9,5.8-18.4,6.4l-31.4,2.3l-4.6,25.7l-40.1,4.6L135.6,80.5z M182.1,99.7l-16.5-0.1
					l-3.2,17.6l17.2-0.5L182.1,99.7z"/>
			</g>
			<g>
				<path class="st0" d="M257.8,156.5l-40.1,4.6l4.6-84l32.4,2.1L257.8,156.5z"/>
			</g>
			<g>
				<path class="st0" d="M333.7,100.8l-36-0.3l1.3,7.3l4.4,24.2l49.6-3.7l3.7,9.9l2.4,6.5l-66.3,7.7c-7.9,0.9-14.4,0.2-19.4-2.2
					c-4.9-2.4-7.5-6.1-7.8-11L262.8,96c-0.3-4.9,1.4-8.8,5.1-11.5c3.6-2.7,8.6-3.8,15-3.4l53.6,3.4l4.2,11.2L333.7,100.8z"/>
			</g>
		</g>
		<g>
			<g>
				<polygon class="st1" points="233.8,36.6 242.9,39.3 249.4,29.6 256.5,39.4 263.7,45.3 267.9,41.2 283.3,47.3 247.8,12.1 
					212.6,47.7 226.1,43 				"/>
			</g>
			<g>
				<polygon class="st2" points="162.4,117.2 179.6,116.7 182.1,99.7 165.6,99.6 				"/>
			</g>
			<g>
				<g>
					<polygon class="st0" points="222.3,77.2 217.7,161.2 257.8,156.5 254.8,79.3 					"/>
				</g>
				<g>
					<polygon class="st0" points="66,149.7 69.6,138.6 102,136.8 109.4,109.7 78.7,110.1 82.3,99 127.3,99.3 129.5,90.5 131.5,82.5 
						122.5,70.8 48.9,66.1 54.8,79.4 16.3,184.5 108.7,173.8 115.6,146 					"/>
				</g>
				<g>
					<polygon class="st0" points="233.8,36.6 242.9,39.3 249.4,29.6 256.5,39.4 263.7,45.3 267.9,41.2 283.3,47.3 247.8,12.1 
						212.6,47.7 226.1,43 					"/>
				</g>
				<g>
					<polygon class="st2" points="343.6,75 322.3,73.7 247.7,0.9 182.7,64.7 33.1,55.1 44.1,79.8 1.4,196.2 21.2,216.1 207.3,194.6 
						237.8,212 373.6,195.6 392.6,173.1 363.5,94.9 					"/>
				</g>
			</g>
		</g>
	</g>
	<g>
		<path class="st0" d="M251.4,176.3l0.9-0.1c4.7-0.6,7.6,0.6,8.9,3.5l0.2,0.6l0,0.3c0.1,0.9-1.8,2.7-5.7,5.4
			c1.6,4.3,2.5,7.4,2.8,9.1l0.1,0.1l0,0.1l-0.1,0.3l0.2,0.9l-0.1,0.1l-0.2,0c0-0.3-0.1-0.4-0.3-0.4c0,0.2,0,0.3-0.2,0.3l-0.2,0
			l-0.1-0.1l-0.1,0c-0.1,0.3-0.2,0.4-0.3,0.5l-0.5,0l-0.2,0.2c-0.1-0.3-0.3-0.5-0.6-0.5c-1.4-2.5-2.8-5.3-4.1-8.6l-4.5,2.2
			c-0.3,1-0.6,1.6-0.8,1.8l0,0.5l-0.3,0l0.3-1.2l0-0.1l-0.1,0l-0.4,1.2l0.2,0.2c-0.3,0-0.7,0.8-1.3,2.4c-0.1,0-0.2,0.5-0.5,1.5
			c-0.1,0-0.4,0.8-0.8,2.2l-0.1,0c0-0.3-0.4-0.6-1.2-0.7l-0.2,0.2c0-0.1-0.1-0.2-0.4-0.2l-0.3,0.1c-0.2-0.4-0.4-0.5-0.7-0.5l0-0.3
			c-0.2-1.7,1.1-6.6,4-14.8c-1.6-0.8-2.4-1.5-2.5-2.1l-0.1-0.5c0-0.4,1.2-1.2,3.6-2.4C246.2,177.3,248,176.7,251.4,176.3z
			 M249.1,185l0.2,0c4-2.3,6.3-4.1,7.1-5.3l0-0.1l-2.1,0.2l-0.2,0c-2.7,0.3-3.9,0.8-3.9,1.4C249.7,183.5,249.3,184.7,249.1,185z"/>
		<path class="st0" d="M275.7,173.5l0.1,0c0.8-0.1,1.6,0.5,2.6,1.9l0.1,0.1l0.1,0.5c0,0.3-0.5,0.7-1.6,1.1l0,0.1
			c2.1,2,3.2,3.9,3.4,5.8l0.1,0.6c0.6,4.7-1,8.1-5,9.9c-1.3,0.5-2.5,0.9-3.4,1l-1.3,0.2c-3.6,0.5-6.4-1-8.5-4.5
			c-0.2,0-0.5-0.7-0.7-1.9l-0.1-0.8c-0.5-3.6,1.7-7.1,6.5-10.7C271.2,174.9,273.8,173.8,275.7,173.5z M266.1,188l0,0.1
			c0.2,1.3,1.1,1.9,2.7,1.9l0.9-0.1c2.5-0.3,4.6-2,6.4-5.2c0.2-0.8,0.3-1.8,0.3-3.1c-0.2-1-0.4-1.6-0.6-1.8l0.1-0.3
			c-0.4-1.1-0.6-1.6-0.7-1.6c-2.2,0.6-4.7,2.4-7.3,5.4C266.5,185,265.9,186.6,266.1,188z"/>
		<path class="st0" d="M296.8,171.6l0.8-0.1c1.9-0.2,3.4,0.1,4.4,1.2l0.1,1c0.2,1.4-0.3,2.2-1.3,2.3c-0.8-0.1-1.6-0.1-2.5,0
			c-5.5,0.7-8.9,3.8-10.3,9.3l-0.1,1.2l0,0.3c0.1,1.1,1,1.7,2.5,1.8c1,0.1,2.2,0.1,3.7-0.1l2-0.3l0,0.2l-0.5,0.1l0,0.1
			c0.2,0,0.4,0.1,0.6,0.4l0.1,0l0,0.3l-1.2,0.3l0,0.1l0.2,0l-0.1,0.7l0.2,0l0,0.2l-0.2,0l0,0.1c0.3,0,0.5,0.1,0.5,0.4l0.2,0L296,191
			l0-0.1l0.1-0.1l0.7-0.1l0,0.2l0.1,0.1l-0.1,0.1l-0.3,0l0,0.1l0.2,0.2l0.3,0l-0.1-0.1l0-0.1l0.3-0.2l0.4,0.1c0.1,0.7-2.5,1.3-7.7,2
			c-3.3,0.4-5.8-0.9-7.6-3.9l-0.2-1.5c-0.4-3.5,1.4-7.5,5.6-12C290.3,173.4,293.3,172,296.8,171.6z M296.4,188.6l0.7-0.1l0,0.2
			l-0.7,0.1L296.4,188.6z"/>
		<path class="st0" d="M309.1,169.3l0.3,0c0.4-0.1,1.1,0.3,2.1,1.1l0.4,0.8l0,0.2c0.1,0.5-0.3,1.6-1.1,3l0.1,0l8.8-6l0.1,0
			c0,0.1-0.1,0.2-0.3,0.2l0,0.1l0.2,0l0.7-0.4l0.1,0.1l0,0.1l0.1-0.1l0.5-0.1c0,0.1-0.1,0.2-0.3,0.3l0.1,0.3l0.7-0.2l-1.2,1.4
			l-0.3,0.2l0,0.1l1.1-0.4c0,0.1-0.2,0.3-0.8,0.6l0.2,0.2l0.1-0.1l0.1,0l0.3,0.1l0,0.1l-0.2,0.3c0.4,0,0.5,0.1,0.6,0.4l-7.6,5.8
			l0,0.1c1.1,2.8,2.2,6,3.1,9.5c0.1,0,0.3,0.4,0.5,1.2l-1.2,0.7l-0.1-0.1l-0.1,0l-1.1,0.7c-1.8-1-2.7-2.2-2.9-3.6l-2.1-5.5l-0.1,0
			c-2.2,1.6-3.3,2.7-3.3,3.4l-1.3,2.8c-0.2,0-0.4,0.6-0.7,1.6l-0.2,0l0-0.1l0-0.4l0-0.1l-0.1,0l-0.1,0.3l-0.1-0.1l-0.1,0l-0.4,0.7
			l0,0.1l0.1,0l0.3-0.7l0.1,0l0,0.2c-0.1,0.4-0.3,0.7-0.8,0.7c-0.6,1.6-0.8,2.6-0.8,3.2l-0.3,0c0-0.3-0.2-0.4-0.5-0.4l-0.7-0.1
			l-0.1-0.1l-0.1,0l-0.5,0.2c0-0.3-0.2-0.4-0.5-0.4l-0.4-0.7c0.7-3.2,2.5-8.6,5.6-16.1C307,171.3,308.2,169.5,309.1,169.3z
			 M304.6,187.1l0.2,0l0.2-0.4l0-0.1l-0.1,0C304.8,186.5,304.7,186.7,304.6,187.1z"/>
		<path class="st0" d="M328,167.5l0.7-0.1c1.3-0.2,2.4,0.3,3.3,1.4l0.1,0.4c0,0.2-0.5,1.6-1.6,4l-3.6,10.7c-0.5,1.2-0.8,2-1.1,2.2
			l-0.1-0.1l-0.1,0l-0.2,0.6l-0.2,0l0.1-0.8l-1,2.2l-0.1,0l-0.1-0.1l0-0.1l0.1-0.1l0-0.2l-0.1,0l-0.3,1.1l-0.2,0l0-0.1l0.2-0.6
			l-1.6,1.7l-0.4-0.2l0.1-0.1l0-0.3l-0.3,0.3l-0.2-0.2c-0.1-1,1.7-7.6,5.5-20C326.9,168.1,327.3,167.6,328,167.5z M327.7,182.2
			l0,0.2l0.1,0L327.7,182.2L327.7,182.2z"/>
		<path class="st0" d="M346.9,164.8c0,0.3,0.2,0.4,0.5,0.4l0,0.2l-0.3,0l0,0.1c0.3,0,0.5,0,0.5,0.1l0,0.1l-0.4,0.1
			c0,0.2,0.2,0.3,0.7,0.2l0,0.2l-0.3,0l0,0.1l1.2-0.2l1,0.4l-0.1,0.1l0,0.1c0.3,0,0.5,0,0.5,0.2c0,0.2-1.2,0.7-3.7,1.3
			c-0.9,0.1-2.5,0.8-4.8,2.1l-0.9,2.4l0.1,0c0.4-0.2,1.4-0.4,3.2-0.7l0.2,0.3l-0.3,0.1l0,0.1c0.6-0.1,0.8,0,0.9,0.1l-0.5,0.3l0,0.1
			l0.2,0l-0.1,0.3c0,0.3,0.4,0.6,0.9,0.7l0,0.1l-0.1,0.1l0,0.1c0.3,0,0.5,0,0.5,0.2l0,0.1c0,0.2-2.1,1-6.3,2.5
			c-0.5,0.1-1.1,1.2-1.7,3.4l7.3-2.2l0,0.2l0.1,0l0.5-0.2c0.1,0.3,0.3,0.5,0.6,0.5l0,0.3c-0.2,0-0.3,0.1-0.5,0.4l-0.2,0l0,0.1
			l0.6-0.1l0,0.2l-0.5,0.1l0.1,0.1l0,0.1l-0.1,0.1c1-0.1,1.6,0,1.7,0.3l-0.1,0.1c0.4,0,0.5,0.1,0.6,0.2c-0.6,0.5-2.6,1.2-6,2.3
			c-4,1.2-6,2.1-6,2.7c-0.1,0.4-0.3,0.7-0.8,1l-0.1,0l-0.7-0.4l-0.2,0l-0.5,0.2c0-0.2-0.4-0.3-1.1-0.4l-0.3,0.1l-0.1-0.1l0-0.1
			l0.1-0.3l-0.2,0l-0.1,0.1l-0.1,0l-0.1-0.1l0-0.1c0.3-2.1,2.1-8.2,5.4-18.3c-0.1-0.7,0.3-1.2,1.3-1.4l4-0.4L346.9,164.8z"/>
		<path class="st0" d="M364.4,161.7l0.2,0c0.3,0,0.8,0.2,1.4,0.6l0.1,0.1l0.1,0l-0.1,0.5l0.3,1.3c0,1.2-0.3,1.9-1,1.9l-0.7,0.1
			c-2.9,0.4-6.4,1.8-10.6,4.4l0,0.2l0.1,0c5.5-0.2,8.6,0.1,9.2,1.1c0.6,0.2,0.9,0.7,1,1.5c0.1,2.5,0,3.7-0.4,3.8
			c-1.5,1.5-3.3,2.7-5.2,3.7c-2.9,1.4-7,3.2-12.2,5.2l-0.1-0.1l0-0.1l0.7-0.4l0-0.2l-1.2,0.4l0-0.1c0-0.2,0.1-0.3,0.5-0.4l0-0.2
			l-0.3,0l0-0.2l0.2,0l0-0.1l-0.7-0.1l0.1-0.1l0-0.3c-0.3,0-0.5-0.1-0.5-0.3l-0.1,0.1l-0.2,0l0-0.1l0.1-0.1l0-0.1l-0.2,0
			c0-0.2-0.1-0.2-0.4-0.2l0-0.1c0-0.4,2.8-1.8,8.7-4.3c3.8-1.9,6-3.1,6.6-3.7c-6.4,0.4-9.7,0.1-9.8-0.8c-0.8-0.4-1.3-1-1.4-2
			c-0.1-0.9,0.2-1.9,1-3.2C354.5,164.8,359.5,162.3,364.4,161.7z M346.9,184.1l0,0.1l0.2,0l0-0.1L346.9,184.1z"/>
	</g>
</g>
<g>
	<g>
		<g>
			<g>
				<path class="st0" d="M107.5,174l-92.5,10.7L53.6,79.6l-6-13.3l73.7,4.7l8.9,11.7l-2,8l-2.2,8.8l-45-0.3l-3.6,11.1l30.7-0.4
					l-7.4,27l-32.4,1.9L64.8,150l49.6-3.7L107.5,174z"/>
			</g>
			<g>
				<path class="st0" d="M134.4,80.7l-7.4-9.3l68.8,4.4c6.4,0.4,11.4,2.4,15,6c3.7,3.5,5.4,8,5,13.5l-1.7,25.5
					c-0.4,5.5-2.9,10-7.6,13.6c-4.8,3.7-10.9,5.8-18.4,6.4l-31.4,2.3l-4.6,25.7l-40.1,4.6L134.4,80.7z M180.9,99.9l-16.5-0.1
					l-3.2,17.6l17.2-0.5L180.9,99.9z"/>
			</g>
			<g>
				<path class="st0" d="M256.6,156.8l-40.1,4.6l4.6-84l32.4,2.1L256.6,156.8z"/>
			</g>
			<g>
				<path class="st0" d="M332.4,101.1l-36-0.3l1.3,7.3l4.4,24.2l49.6-3.7l3.7,9.9l2.4,6.5l-66.3,7.7c-7.9,0.9-14.4,0.2-19.4-2.2
					c-4.9-2.4-7.5-6.1-7.8-11l-2.7-43.3c-0.3-4.9,1.4-8.8,5.1-11.5c3.6-2.7,8.6-3.8,15-3.4l53.6,3.4l4.2,11.2L332.4,101.1z"/>
			</g>
		</g>
		<g>
			<g>
				<polygon class="st1" points="232.6,36.8 241.7,39.5 248.2,29.8 255.3,39.7 262.5,45.5 266.7,41.4 282.1,47.5 246.5,12.4 
					211.4,47.9 224.9,43.2 				"/>
			</g>
			<g>
				<polygon class="st2" points="161.2,117.4 178.4,117 180.9,99.9 164.3,99.8 				"/>
			</g>
			<g>
				<g>
					<polygon class="st0" points="232.6,36.8 241.7,39.5 248.2,29.8 255.3,39.7 262.5,45.5 266.7,41.4 282.1,47.5 246.5,12.4 
						211.4,47.9 224.9,43.2 					"/>
				</g>
			</g>
		</g>
	</g>
	<g>
		<path class="st0" d="M295.2,188.9l0.7-0.1l0,0.2l-0.7,0.1L295.2,188.9z"/>
		<path class="st0" d="M345.7,184.4l0,0.1l0.2,0l0-0.1L345.7,184.4z"/>
	</g>
</g>
</svg>
