<?xml version="1.0" encoding="utf-8"?>
<!-- Generator: Adobe Illustrator 24.0.2, SVG Export Plug-In . SVG Version: 6.00 Build 0)  -->
<svg version="1.1" id="Layer_1" xmlns="http://www.w3.org/2000/svg" xmlns:xlink="http://www.w3.org/1999/xlink" x="0px" y="0px"
	 viewBox="0 0 155.4 87.7" style="enable-background:new 0 0 155.4 87.7;" xml:space="preserve">
<style type="text/css">
	.st0{fill:#FFFFFF;}
	.st1{fill:none;}
</style>
<g>
	<title>Artboard 4</title>
	<g>
		<g>
			<g>
				<path class="st0" d="M44.3,69.4L9.2,73.5l14.7-40l-2.3-5.1l28,1.8l3.4,4.5l-0.8,3l-0.8,3.3l-17.1-0.1l-1.4,4.2L44.6,45
					l-2.8,10.3L29.4,56l-1.4,4.2l18.9-1.4L44.3,69.4z"/>
			</g>
			<g>
				<path class="st0" d="M54.5,33.9l-2.8-3.5L77.9,32c2.4,0.2,4.3,0.9,5.7,2.3c1.4,1.3,2,3,1.9,5.1l-0.6,9.7
					c-0.1,2.1-1.1,3.8-2.9,5.2c-1.8,1.4-4.2,2.2-7,2.4L63,57.6l-1.8,9.8L46,69.2L54.5,33.9z M72.2,41.2l-6.3,0l-1.2,6.7l6.5-0.2
					L72.2,41.2z"/>
			</g>
			<g>
				<path class="st0" d="M101,62.8l-15.3,1.8l1.8-31.9l12.3,0.8L101,62.8z"/>
			</g>
			<g>
				<path class="st0" d="M129.8,41.6l-13.7-0.1l0.5,2.8l1.7,9.2l18.9-1.4l1.4,3.8l0.9,2.5l-25.2,2.9c-3,0.3-5.5,0.1-7.4-0.8
					c-1.9-0.9-2.9-2.3-3-4.2l-1-16.5c-0.1-1.9,0.5-3.3,1.9-4.4c1.4-1,3.3-1.4,5.7-1.3l20.4,1.3l1.6,4.3L129.8,41.6z"/>
			</g>
		</g>
		<g>
			<g>
				<path class="st0" d="M44.3,69.4L9.2,73.5l14.7-40l-2.3-5.1l28,1.8l3.4,4.5l-0.8,3l-0.8,3.3l-17.1-0.1l-1.4,4.2L44.6,45
					l-2.8,10.3L29.4,56l-1.4,4.2l18.9-1.4L44.3,69.4z"/>
			</g>
			<g>
				<path class="st0" d="M54.5,33.9l-2.8-3.5L77.9,32c2.4,0.2,4.3,0.9,5.7,2.3c1.4,1.3,2,3,1.9,5.1l-0.6,9.7
					c-0.1,2.1-1.1,3.8-2.9,5.2c-1.8,1.4-4.2,2.2-7,2.4L63,57.6l-1.8,9.8L46,69.2L54.5,33.9z M72.2,41.2l-6.3,0l-1.2,6.7l6.5-0.2
					L72.2,41.2z"/>
			</g>
			<g>
				<path class="st0" d="M101,62.8l-15.3,1.8l1.8-31.9l12.3,0.8L101,62.8z"/>
			</g>
			<g>
				<path class="st0" d="M129.8,41.6l-13.7-0.1l0.5,2.8l1.7,9.2l18.9-1.4l1.4,3.8l0.9,2.5l-25.2,2.9c-3,0.3-5.5,0.1-7.4-0.8
					c-1.9-0.9-2.9-2.3-3-4.2l-1-16.5c-0.1-1.9,0.5-3.3,1.9-4.4c1.4-1,3.3-1.4,5.7-1.3l20.4,1.3l1.6,4.3L129.8,41.6z"/>
			</g>
		</g>
		<g>
			<g>
				<polygon class="st1" points="91.9,17.2 95.3,18.2 97.8,14.6 100.5,18.3 103.2,20.5 104.8,19 110.7,21.3 97.2,7.9 83.8,21.4 
					88.9,19.6 				"/>
			</g>
			<g>
				<g>
					<polygon class="st0" points="87.5,32.7 85.8,64.6 101,62.8 99.8,33.4 					"/>
				</g>
				<g>
					<polygon class="st0" points="28.1,60.2 29.4,56 41.7,55.3 44.6,45 32.9,45.1 34.2,40.9 51.4,41.1 52.2,37.7 53,34.7 49.6,30.2 
						21.5,28.4 23.8,33.5 9.2,73.5 44.3,69.4 46.9,58.8 					"/>
				</g>
				<g>
					<polygon class="st0" points="91.9,17.2 95.3,18.2 97.8,14.6 100.5,18.3 103.2,20.5 104.8,19 110.7,21.3 97.2,7.9 83.8,21.4 
						88.9,19.6 					"/>
				</g>
				<g>
					<path class="st0" d="M142.8,38.3l-8.3-8.3l-8.1-0.5L97.1,1L71.7,26l-59.2-3.8l5.2,11.5L1.3,78.4l9.1,9.1l71-8.2L93,85.8l53-6.4
						l8.4-10L142.8,38.3z M145,77.7l-51.6,6.2l-11.6-6.6l-70.7,8.2l-7.6-7.6l16.2-44.3l-4.2-9.4l56.9,3.7L97.1,3.6l28.4,27.7
						l8.1,0.5l7.6,7.6l11.1,29.7L145,77.7z"/>
				</g>
				<g>
					<path class="st0" d="M137.2,52.1l-18.9,1.4l-1.7-9.2l-0.5-2.8l13.7,0.1l2.7-1.9l-1.6-4.3l-20.4-1.3c-2.4-0.2-4.3,0.3-5.7,1.3
						c-1.4,1-2.1,2.5-1.9,4.4l1,16.5c0.1,1.9,1.1,3.3,3,4.2c1.9,0.9,4.4,1.2,7.4,0.8l25.2-2.9l-0.9-2.5L137.2,52.1z"/>
				</g>
			</g>
			<g>
				<polygon class="st0" points="28.1,60.2 29.4,56 41.7,55.3 44.6,45 32.9,45.1 34.2,40.9 51.4,41.1 52.2,37.7 53,34.7 49.6,30.2 
					21.5,28.4 23.8,33.5 9.2,73.5 44.3,69.4 46.9,58.8 				"/>
			</g>
			<g>
				<polygon class="st0" points="87.5,32.7 85.8,64.6 101,62.8 99.8,33.4 				"/>
			</g>
			<g>
				<path class="st0" d="M137.2,52.1l-18.9,1.4l-1.7-9.2l-0.5-2.8l13.7,0.1l2.7-1.9l-1.6-4.3l-20.4-1.3c-2.4-0.2-4.3,0.3-5.7,1.3
					c-1.4,1-2.1,2.5-1.9,4.4l1,16.5c0.1,1.9,1.1,3.3,3,4.2c1.9,0.9,4.4,1.2,7.4,0.8l25.2-2.9l-0.9-2.5L137.2,52.1z"/>
			</g>
		</g>
	</g>
	<g>
		<path class="st0" d="M98.6,70.3l0.4,0c1.8-0.2,2.9,0.2,3.4,1.3l0.1,0.2l0,0.1c0,0.4-0.7,1-2.2,2.1c0.6,1.6,1,2.8,1.1,3.5l0,0l0,0
			l0,0.1l0.1,0.4l0,0l-0.1,0c0-0.1,0-0.2-0.1-0.1c0,0.1,0,0.1-0.1,0.1l-0.1,0l0,0l0,0c0,0.1-0.1,0.2-0.1,0.2l-0.2,0l-0.1,0.1
			c0-0.1-0.1-0.2-0.2-0.2c-0.6-0.9-1.1-2-1.5-3.3l-1.7,0.8c-0.1,0.4-0.2,0.6-0.3,0.7l0,0.2l-0.1,0l0.1-0.5l0,0l0,0l-0.1,0.5l0.1,0.1
			c-0.1,0-0.3,0.3-0.5,0.9c0,0-0.1,0.2-0.2,0.6c-0.1,0-0.2,0.3-0.3,0.8l0,0c0-0.1-0.2-0.2-0.4-0.3l-0.1,0.1c0-0.1-0.1-0.1-0.1-0.1
			l-0.1,0.1c-0.1-0.1-0.2-0.2-0.3-0.2l0-0.1c-0.1-0.6,0.4-2.5,1.5-5.6c-0.6-0.3-0.9-0.6-1-0.8l0-0.2c0-0.1,0.5-0.4,1.4-0.9
			C96.6,70.7,97.3,70.5,98.6,70.3z M97.7,73.6L97.7,73.6c1.6-0.9,2.5-1.6,2.8-2l0,0l-0.8,0.1l-0.1,0c-1,0.1-1.5,0.3-1.5,0.6
			C97.9,73.1,97.8,73.5,97.7,73.6z"/>
		<path class="st0" d="M107.8,69.3L107.8,69.3c0.3,0,0.7,0.2,1,0.7l0.1,0l0,0.2c0,0.1-0.2,0.3-0.6,0.4l0,0c0.8,0.7,1.2,1.5,1.3,2.2
			l0,0.2c0.2,1.8-0.4,3.1-1.9,3.8c-0.5,0.2-0.9,0.3-1.3,0.4l-0.5,0.1c-1.4,0.2-2.4-0.4-3.2-1.7c-0.1,0-0.2-0.3-0.3-0.7l0-0.3
			c-0.2-1.4,0.7-2.7,2.5-4.1C106.1,69.8,107.1,69.4,107.8,69.3z M104.1,74.8L104.1,74.8c0.1,0.5,0.4,0.8,1,0.8l0.4,0
			c0.9-0.1,1.8-0.8,2.4-2c0.1-0.3,0.1-0.7,0.1-1.2c-0.1-0.4-0.2-0.6-0.2-0.7l0-0.1c-0.1-0.4-0.2-0.6-0.3-0.6
			c-0.8,0.2-1.8,0.9-2.8,2.1C104.3,73.7,104.1,74.3,104.1,74.8z"/>
		<path class="st0" d="M115.8,68.5l0.3,0c0.7-0.1,1.3,0.1,1.7,0.4l0,0.4c0.1,0.5-0.1,0.8-0.5,0.9c-0.3,0-0.6-0.1-1,0
			c-2.1,0.3-3.4,1.4-3.9,3.5l0,0.4l0,0.1c0.1,0.4,0.4,0.7,1,0.7c0.4,0,0.8,0,1.4-0.1l0.8-0.1l0,0.1l-0.2,0l0,0c0.1,0,0.1,0,0.2,0.1
			l0,0l0,0.1l-0.5,0.1l0,0l0.1,0l0,0.3l0.1,0l0,0.1l-0.1,0l0,0c0.1,0,0.2,0,0.2,0.1l0.1,0l-0.1,0l0,0l0-0.1l0.3,0l0,0.1l0,0l0,0.1
			l-0.1,0l0,0l0.1,0.1l0.1,0l0,0l0,0l0.1-0.1l0.1,0c0,0.3-0.9,0.5-2.9,0.8c-1.3,0.2-2.2-0.3-2.9-1.5l-0.1-0.6
			c-0.2-1.3,0.5-2.8,2.1-4.6C113.4,69.2,114.5,68.7,115.8,68.5z M115.7,75l0.3,0l0,0.1L115.7,75L115.7,75z"/>
		<path class="st0" d="M120.5,67.7l0.1,0c0.2,0,0.4,0.1,0.8,0.4l0.2,0.3l0,0.1c0,0.2-0.1,0.6-0.4,1.2l0,0l3.4-2.3l0,0
			c0,0.1,0,0.1-0.1,0.1l0,0l0.1,0l0.3-0.2l0,0l0,0l0,0l0.2,0c0,0.1,0,0.1-0.1,0.1l0.1,0.1l0.3-0.1l-0.5,0.5l-0.1,0.1l0,0l0.4-0.1
			c0,0-0.1,0.1-0.3,0.2l0.1,0.1l0,0l0,0l0.1,0l0,0l-0.1,0.1c0.1,0,0.2,0,0.2,0.1l-2.9,2.2l0,0c0.4,1.1,0.8,2.3,1.2,3.6
			c0.1,0,0.1,0.1,0.2,0.5l-0.5,0.3l0,0l0,0l-0.4,0.3c-0.7-0.4-1-0.8-1.1-1.4l-0.8-2.1l0,0c-0.8,0.6-1.3,1-1.3,1.3l-0.5,1.1
			c-0.1,0-0.2,0.2-0.3,0.6l-0.1,0l0,0l0-0.2l0,0l0,0l0,0.1l0,0l0,0l-0.2,0.3l0,0l0,0l0.1-0.3l0,0l0,0.1c0,0.2-0.1,0.3-0.3,0.3
			c-0.2,0.6-0.3,1-0.3,1.2l-0.1,0c0-0.1-0.1-0.2-0.2-0.1l-0.2,0l0,0l0,0l-0.2,0.1c0-0.1-0.1-0.2-0.2-0.1l-0.2-0.3
			c0.2-1.2,1-3.3,2.1-6.1C119.7,68.4,120.2,67.8,120.5,67.7z M118.8,74.4L118.8,74.4l0.1-0.2l0,0l0,0
			C118.9,74.2,118.8,74.3,118.8,74.4z"/>
		<path class="st0" d="M127.7,67l0.3,0c0.5-0.1,0.9,0.1,1.3,0.5l0,0.2c0,0.1-0.2,0.6-0.6,1.5l-1.4,4.1c-0.2,0.5-0.3,0.7-0.4,0.8l0,0
			l0,0l-0.1,0.2l-0.1,0l0-0.3l-0.4,0.8l0,0l0,0l0,0l0,0l0-0.1l0,0L126,75l-0.1,0l0,0l0.1-0.2l-0.6,0.6l-0.1-0.1l0-0.1l0-0.1
			l-0.1,0.1l-0.1-0.1c0-0.4,0.7-2.9,2.1-7.6C127.3,67.2,127.4,67,127.7,67z M127.6,72.6L127.6,72.6L127.6,72.6L127.6,72.6
			L127.6,72.6z"/>
		<path class="st0" d="M134.9,66c0,0.1,0.1,0.1,0.2,0.1l0,0.1l-0.1,0l0,0c0.1,0,0.2,0,0.2,0.1l0,0l-0.2,0c0,0.1,0.1,0.1,0.2,0.1
			l0,0.1l-0.1,0l0,0l0.5-0.1l0.4,0.2l0,0l0,0c0.1,0,0.2,0,0.2,0.1c0,0.1-0.5,0.3-1.4,0.5c-0.3,0-0.9,0.3-1.8,0.8l-0.3,0.9l0,0
			c0.1-0.1,0.5-0.2,1.2-0.3l0.1,0.1l-0.1,0.1l0,0c0.2,0,0.3,0,0.3,0l-0.2,0.1l0,0l0.1,0l0,0.1c0,0.1,0.1,0.2,0.4,0.3l0,0l0,0l0,0
			c0.1,0,0.2,0,0.2,0.1l0,0c0,0.1-0.8,0.4-2.4,0.9c-0.2,0-0.4,0.5-0.6,1.3l2.8-0.8l0,0.1l0,0l0.2-0.1c0.1,0.1,0.1,0.2,0.2,0.2l0,0.1
			c-0.1,0-0.1,0.1-0.2,0.1l-0.1,0l0,0l0.2,0l0,0.1l-0.2,0l0,0l0,0l0,0c0.4,0,0.6,0,0.7,0.1l0,0c0.1,0,0.2,0,0.2,0.1
			c-0.2,0.2-1,0.5-2.3,0.9c-1.5,0.5-2.3,0.8-2.3,1c0,0.1-0.1,0.3-0.3,0.4l0,0l-0.3-0.2l-0.1,0l-0.2,0.1c0-0.1-0.1-0.1-0.4-0.1
			l-0.1,0.1l0,0l0,0l0-0.1l-0.1,0l0,0l0,0l0,0l0,0c0.1-0.8,0.8-3.1,2.1-7c0-0.3,0.1-0.4,0.5-0.5l1.5-0.2L134.9,66z"/>
		<path class="st0" d="M141.5,64.8L141.5,64.8c0.2,0,0.4,0.1,0.6,0.2l0,0l0,0l0,0.2l0.1,0.5c0,0.5-0.1,0.7-0.4,0.7l-0.3,0
			c-1.1,0.1-2.4,0.7-4,1.7l0,0.1l0,0c2.1-0.1,3.3,0,3.5,0.4c0.2,0.1,0.3,0.3,0.4,0.6c0,0.9,0,1.4-0.2,1.4c-0.6,0.6-1.2,1-2,1.4
			c-1.1,0.5-2.7,1.2-4.6,2l0,0l0,0l0.3-0.2l0-0.1l-0.5,0.1l0,0c0-0.1,0.1-0.1,0.2-0.2l0-0.1l-0.1,0l0-0.1l0.1,0l0,0l-0.3-0.1l0,0
			l0-0.1c-0.1,0-0.2,0-0.2-0.1l0,0l-0.1,0l0,0l0,0l0,0l-0.1,0c0-0.1-0.1-0.1-0.1-0.1l0,0c0-0.1,1.1-0.7,3.3-1.6
			c1.5-0.7,2.3-1.2,2.5-1.4c-2.4,0.2-3.7,0-3.7-0.3c-0.3-0.1-0.5-0.4-0.5-0.8c0-0.3,0.1-0.7,0.4-1.2C137.8,66,139.6,65,141.5,64.8z
			 M134.9,73.3L134.9,73.3L134.9,73.3L134.9,73.3L134.9,73.3z"/>
	</g>
</g>
</svg>
