<svg id="Layer_1" data-name="Layer 1" xmlns="http://www.w3.org/2000/svg" viewBox="0 0 155.41 87.74"><defs><style>.cls-1{fill:#fff;}</style></defs><title>Artboard 4</title><polygon class="cls-1" points="91.93 16.46 95.42 17.49 97.94 13.76 100.69 17.54 103.46 19.8 105.09 18.23 111.03 20.58 97.31 7.02 83.75 20.74 88.95 18.91 91.93 16.46"/><path class="cls-1" d="M143.62,37.9l-8.47-8.48-8.26-.53L97.28,0,71.47,25.34,11.4,21.48l5.24,11.71L0,78.55l9.19,9.19,72.09-8.35,11.78,6.73,53.8-6.48,8.55-10.12Zm2.26,39.92L93.46,84.14,81.69,77.42,9.89,85.73,2.22,78.06,18.71,33.11l-4.26-9.52L72.21,27.3,97.28,2.68l28.78,28.08,8.25.53L142,39l11.25,30.18Z"/><path class="cls-1" d="M43.64,69.41,8,73.54,22.84,33l-2.3-5.14L49,29.65l3.44,4.53-.77,3.09-.84,3.38-17.38-.12-1.37,4.28,11.85-.14L41.05,55.11l-12.51.72-1.37,4.29L46.31,58.7Z"/><path class="cls-1" d="M54,33.4l-2.86-3.61L77.7,31.5a8.68,8.68,0,0,1,5.78,2.32A6.34,6.34,0,0,1,85.4,39l-.65,9.82a7,7,0,0,1-2.92,5.27,12.93,12.93,0,0,1-7.12,2.46l-12.12.9-1.78,9.93L45.33,69.21ZM72,40.81l-6.37-.05-1.21,6.8L71,47.38Z"/><path class="cls-1" d="M101.2,62.74l-15.48,1.8L87.5,32.13l12.51.8Z"/><path class="cls-1" d="M130.46,41.25l-13.9-.11.51,2.83,1.68,9.36,19.15-1.42,1.42,3.81.93,2.5-25.58,3a13.65,13.65,0,0,1-7.48-.83,4.88,4.88,0,0,1-3-4.26l-1.05-16.72a4.8,4.8,0,0,1,2-4.44,8.6,8.6,0,0,1,5.79-1.3L131.58,35l1.61,4.32Z"/><path class="cls-1" d="M95.19,72.68c.56-.06.93.07,1.09.39a16.19,16.19,0,0,1,.46,1.73l0,0c0,.13.06.2.11.19l.93-.22v.06h0l.47-.08v.06l-.2.08v0l.21,0,.2-.06v.06a1.55,1.55,0,0,1-.46.18v.06l.14,0c.14,0,.21,0,.22.09l.14,0c.4,0,.6,0,.61,0l0,0,.21,0v0a5.61,5.61,0,0,1-1.61.54l-.52.15a10,10,0,0,1,.61,2l0,.12-.08.1h0a.26.26,0,0,1-.21-.07v.09h-.06V78.2l-.08.07-.13-.08-.28.16-.26-.21a8.24,8.24,0,0,1-.64-1.69h0c-1.2.48-1.79.82-1.76,1a5.49,5.49,0,0,0-.61,1c-.11.18-.21.27-.3.28l-.07-.14,0,0h0q-.19-.09-.21-.21l0,0H93v0a.31.31,0,0,1-.25-.15c-.08,0-.13,0-.13,0l0-.21c0-.21.17-.6.58-1.16a15.63,15.63,0,0,1,.81-1.5l.8-1.88.14-.61A.53.53,0,0,1,95.19,72.68Zm.09,2.89v0c.32-.12.48-.2.48-.23l-.15-.46A2.61,2.61,0,0,0,95.28,75.57ZM98,74.75H98v.06H98ZM98,75v0h.06v0Z"/><path class="cls-1" d="M101,72.06l.15,0a3.89,3.89,0,0,1,2.32.47,1.15,1.15,0,0,1,.52.74c.06.57-.43,1.51-1.49,2.81a9.65,9.65,0,0,1-1.75,1.3,5.09,5.09,0,0,0-1.28.67h-.33a2.78,2.78,0,0,1-.67.35l0,0,.07-.16h0l-.17.08-.06-.18,0-.12h0l-.14.08,0,0v0l0-.09h0l-.12,0c-.06,0-.09,0-.1-.12s-.16,0-.16-.07a1,1,0,0,1,.36-.29,7.3,7.3,0,0,0,1.14-2.64,7.17,7.17,0,0,0,.38-1.49c-.36.05-.67-.16-.92-.62C98.61,72.56,99.39,72.33,101,72.06Zm-.87,4.21c1.62-1,2.4-1.85,2.31-2.57,0-.46-.46-.71-1.22-.75-.14,0-.23.21-.27.58Z"/><path class="cls-1" d="M109.71,70.84l.08.16h0l0,0h0l0,0,0,0v0l.08.06A11.84,11.84,0,0,1,108.83,73a33.25,33.25,0,0,0-2,3.71c-.05.37-.19.56-.4.59h-.14a1.28,1.28,0,0,1-1-.32l0-.31-1.12-3.59-.41-1.2v0a.47.47,0,0,1,.37-.31,1.33,1.33,0,0,1,.9.23,1,1,0,0,1,.44.83s.25.79.67,2.35h0l.68-1.12a1,1,0,0,0,.31-.51h0l0,0h0l.27-.33,0,0v0l0-.1.09-.07h0l.06.17,0-.08,0-.13h0l0-.1a.46.46,0,0,1,.17-.29h0l0,0h0l.06-.07v.07l0,0v0h0l.32-.5h0v0l-.2.33,0,.2.32-.44,0,0h0V72h0l-.09-.16,0,0h0l0,0h0l.31-.3,0,0v0l-.15.18v0h.07A3.77,3.77,0,0,1,109.71,70.84Z"/><path class="cls-1" d="M113.69,70.55c0,.08.06.11.14.11v0l-.09,0v0c.1,0,.15,0,.15,0v0h-.12c0,.07.07.09.19.07V71h-.09v0l.36,0,.29.12,0,0v0c.1,0,.15,0,.16,0s-.35.19-1.09.36a5.25,5.25,0,0,0-1.39.59l-.25.7h0a4.92,4.92,0,0,1,.92-.19l.07.08-.09,0v0c.17,0,.25,0,.25,0l-.14.08v0h.06l0,.1c0,.1.1.17.27.21v0l0,0v0c.1,0,.15,0,.16,0v0a8.13,8.13,0,0,1-1.84.69c-.15,0-.32.34-.49,1l2.12-.6v0h0l.15,0c0,.1.09.14.17.14v.09a.19.19,0,0,0-.14.1h-.06v0l.18,0v.06l-.15,0,0,0v0l0,0c.29,0,.46,0,.49.09l0,0c.1,0,.16,0,.16.07a7.25,7.25,0,0,1-1.75.65q-1.77.51-1.74.75a.42.42,0,0,1-.24.3h0l-.19-.13h-.07l-.14,0s-.11-.09-.32-.12l-.09,0,0,0v0l0-.1h-.06l0,0h0l0,0v0a52.88,52.88,0,0,1,1.65-5.3c0-.2.1-.33.38-.4l1.17-.11Z"/><path class="cls-1" d="M119.38,69.77l.22,0a.84.84,0,0,1,.74.3v.1l-.85,3.21a12.86,12.86,0,0,0-.61,2.4l-.09.11h-.09l-.14-.08,0,0-.16,0-.16-.08-.31.07-.29-.25,0-.22a2.3,2.3,0,0,1,.14-.69l-1-1.85-.33-.73h0l-1,2.79a3.45,3.45,0,0,0-.2,1.07l0,0v0c0,.17,0,.26-.1.27H115l-.34-.16h-.06l-.12,0-.1,0-.06.07,0,0h0l0,0-.33-.35v-.12A13.8,13.8,0,0,1,115,72.15l.58-1.69a2.39,2.39,0,0,1,1-.31c.14,0,.3.07.48.26v0A7,7,0,0,0,118.22,73a12.68,12.68,0,0,0,.68-2.69q.06-.42.33-.45S119.28,69.79,119.38,69.77Z"/><path class="cls-1" d="M124.28,69.05l.63,0,.62-.07a.28.28,0,0,1,.29.14l0,0c.11,0,.17,0,.17.08v0l-.36,0v0h.13v.06h-.07l0,0,0,0v.06l.17,0v0l0,0v0c.14,0,.21.07.23.24.09,0,.14,0,.15.08V70l-1.92.45c-.16,0-.27.24-.32.67q-1.35,3.6-1.59,4.56c-.12.15-.22.23-.31.24l-.14-.12c-.13,0-.21,0-.22-.14l0,0h0s-.13-.14-.36-.26l-.12-.15a12.17,12.17,0,0,1,1.18-3.71l.19-.66-1.2.34a.91.91,0,0,1-1-.53l-.15-.38v-.07a.48.48,0,0,1,.21-.42l.43,0A26.85,26.85,0,0,0,124.28,69.05Z"/><path class="cls-1" d="M127.21,68.9l.15,0a.91.91,0,0,1,.85.43l0,.12a5.83,5.83,0,0,1-.49,1.6,5.62,5.62,0,0,0-.42,2.62v.09a4.45,4.45,0,0,0,1.14-1.4,8.73,8.73,0,0,0,1.13-2.3l.14-.41c.06,0,.09,0,.08-.1l0,0h.06l0,.12h0c0-.35.05-.53.1-.53h0l0,.12h0l0-.25h.06V69c.07,0,.14-.2.22-.49h0a1.21,1.21,0,0,1,.41.85c.15,1.34-.54,3-2.08,4.87a2,2,0,0,1-1.09.44A1.56,1.56,0,0,1,126,74l-.1-.36,0-.15a4.64,4.64,0,0,1,.25-2.19l.58-2C126.88,69.07,127,68.92,127.21,68.9Z"/><path class="cls-1" d="M134.1,68l.27,0c1.36-.15,2.22.2,2.56,1.07l0,.18,0,.09c0,.27-.53.78-1.68,1.55a14.43,14.43,0,0,1,.77,2.66l0,0v0l0,.1.07.27,0,0h-.06c0-.08,0-.12-.08-.12s0,.1-.05.1h-.06l0,0h0c0,.09-.05.13-.08.14l-.16,0-.05.07c0-.1-.08-.14-.17-.13a17.26,17.26,0,0,1-1.15-2.53l-1.32.62a1.14,1.14,0,0,1-.25.52v.16h-.09l.08-.35v0h0l-.12.35.07.06c-.08,0-.2.24-.38.69,0,0-.08.14-.14.42,0,0-.12.22-.24.64h0q0-.13-.33-.21l-.05.07s0-.06-.1-.05l-.09,0c-.06-.1-.13-.16-.2-.16v-.09a14.92,14.92,0,0,1,1.21-4.27c-.46-.25-.7-.45-.72-.63l0-.15c0-.11.36-.34,1.06-.68C132.6,68.27,133.13,68.12,134.1,68Zm-.7,2.52h.06a7.18,7.18,0,0,0,2.08-1.5v0l-.61,0h-.06c-.78.08-1.15.22-1.13.4A6.42,6.42,0,0,1,133.4,70.53Z"/><path class="cls-1" d="M140.48,67.5c0,.08.05.12.13.11v.06h-.09v0c.1,0,.15,0,.16,0v0l-.12,0c0,.06.07.08.19.07v.06h-.09v0l.36,0,.29.12,0,0v0c.1,0,.15,0,.15,0s-.35.2-1.08.37a4.67,4.67,0,0,0-1.39.58l-.26.7h0a5.15,5.15,0,0,1,.92-.19l.07.08-.08,0v0c.16,0,.24,0,.25,0l-.15.08v0h.06l0,.1c0,.1.1.17.26.21v0l0,0v0c.1,0,.15,0,.15,0v0a8.7,8.7,0,0,1-1.84.69c-.16,0-.32.34-.5,1l2.12-.6v.06h0l.15,0c0,.1.09.15.16.14v.09c-.05,0-.09,0-.14.11h-.06v0l.19,0v.06l-.15,0,0,0v0l0,0c.3,0,.46,0,.5.09l0,0c.11,0,.16,0,.17.07a7.76,7.76,0,0,1-1.75.66c-1.18.33-1.76.58-1.74.74a.48.48,0,0,1-.24.3h0l-.2-.13h-.06l-.15,0s-.11-.09-.31-.12l-.09,0,0,0v0l0-.1h-.06l0,0h0l0,0v0a50.93,50.93,0,0,1,1.64-5.29c0-.2.11-.34.38-.41l1.18-.1Z"/><path class="cls-1" d="M145.28,66.69h.06a.7.7,0,0,1,.42.18l0,0h0l0,.13.07.39c0,.35-.09.54-.29.56l-.2,0a8.06,8.06,0,0,0-3.08,1.24v.06h0c1.6-.05,2.49.07,2.68.36a.48.48,0,0,1,.28.43c0,.72,0,1.08-.14,1.1a6.36,6.36,0,0,1-1.52,1.06c-.86.41-2,.89-3.56,1.46l0,0v0l.22-.12v-.07l-.35.11v0s0-.08.15-.11v-.07l-.1,0v-.07H140v0l-.21,0,0,0v-.1c-.09,0-.13,0-.14-.08l0,0h-.07v0l0,0v0h-.06s0-.06-.1,0v0A9.87,9.87,0,0,1,142,71.64a11.32,11.32,0,0,0,1.93-1c-1.86.09-2.8,0-2.84-.27a.7.7,0,0,1-.39-.58,1.52,1.52,0,0,1,.29-.92A8.08,8.08,0,0,1,145.28,66.69Zm-5.17,6.45v0h.06v0Z"/></svg>