<svg id="Layer_1" data-name="Layer 1" xmlns="http://www.w3.org/2000/svg" viewBox="0 0 393.86 216.63"><defs><style>.cls-1{fill:#3a3a3a;}.cls-2{fill:none;}.cls-3{fill:#fff;}</style></defs><title>Artboard 3</title><polygon class="cls-1" points="162.1 117.06 179.41 116.58 181.89 99.46 165.27 99.33 162.1 117.06"/><path class="cls-2" d="M196.88,75.16l-69.23-4.44,7.47,9.4-22.68,93.42,40.39-4.68,4.63-25.9,31.63-2.34c7.55-.56,13.75-2.72,18.56-6.42a18.25,18.25,0,0,0,7.62-13.74L217,94.83a16.43,16.43,0,0,0-5-13.6C208.32,77.61,203.32,75.58,196.88,75.16Z"/><polygon class="cls-2" points="255.09 78.9 222.43 76.8 217.8 161.34 258.19 156.66 255.09 78.9"/><polygon class="cls-2" points="65.07 149.81 68.65 138.63 101.27 136.75 108.73 109.53 77.84 109.89 81.41 98.71 126.74 99.05 128.94 90.22 130.95 82.16 121.97 70.35 47.79 65.59 53.79 79.01 14.98 184.83 108.05 174.05 115.01 146.11 65.07 149.81"/><polygon class="cls-2" points="234 35.94 243.11 38.63 249.66 28.89 256.86 38.76 264.08 44.64 268.33 40.55 283.81 46.68 248.02 11.31 212.65 47.1 226.22 42.33 234 35.94"/><path class="cls-2" d="M268.36,84.13c-3.73,2.76-5.46,6.63-5.15,11.57l2.73,43.6c.31,4.94,2.91,8.66,7.86,11.12s11.54,3.1,19.5,2.18L360,144.87l-2.43-6.52-3.7-9.95L304,132.1l-4.39-24.39-1.33-7.39,36.27.27,7.12-5.13-4.2-11.27-53.94-3.47C277,80.31,272,81.43,268.36,84.13Z"/><path class="cls-1" d="M242.74,190.11v.07c.84-.32,1.26-.52,1.25-.6l-.37-1.21A6.66,6.66,0,0,0,242.74,190.11Z"/><polygon class="cls-1" points="250.03 188.58 250.02 188.5 249.87 188.52 249.88 188.59 250.03 188.58"/><path class="cls-1" d="M247.93,191.3a40.34,40.34,0,0,1,1.4,4.19,3.54,3.54,0,0,1,.59-.38c.67-.65,1.47-2.34,2.37-5.05a27.57,27.57,0,0,1-3,.86Z"/><path class="cls-1" d="M258.16,183.3c-.39,0-.62.55-.7,1.51l-2.15,7.13q6.36-3.88,6-6.68C261.2,184,260.14,183.38,258.16,183.3Z"/><path class="cls-1" d="M347.75,173V173l-1.59.1-.16,0q-3,.34-2.94,1a17.44,17.44,0,0,1-.88,2.84l.16,0C345.35,175.23,347.16,173.92,347.75,173Z"/><polygon class="cls-1" points="359.68 183.78 359.69 183.86 359.86 183.84 359.85 183.76 359.68 183.78"/><rect class="cls-1" x="249.73" y="187.98" width="0.16" height="0.16" transform="translate(-19.57 29.29) rotate(-6.46)"/><rect class="cls-3" x="249.73" y="187.98" width="0.16" height="0.16" transform="translate(-19.57 29.29) rotate(-6.46)"/><path class="cls-3" d="M291.59,189c0,.11,0,.21-.07.31l.23-.16C291.74,189.06,291.68,189,291.59,189Z"/><path class="cls-3" d="M308.1,175.7a1.09,1.09,0,0,1-.11-.1,1.07,1.07,0,0,0-.24.73l0,.18.12.32.24-.88Z"/><polygon class="cls-3" points="349.26 184.86 349.26 184.88 349.26 184.88 349.26 184.86 349.26 184.86"/><polygon class="cls-1" points="249.87 188.52 249.88 188.59 250.03 188.58 250.02 188.5 249.87 188.52"/><path class="cls-1" d="M242.74,190.11v.07c.84-.32,1.26-.52,1.25-.6l-.37-1.21A6.66,6.66,0,0,0,242.74,190.11Z"/><path class="cls-1" d="M247.93,191.3a40.34,40.34,0,0,1,1.4,4.19,3.54,3.54,0,0,1,.59-.38c.67-.65,1.47-2.34,2.37-5.05a27.57,27.57,0,0,1-3,.86Z"/><path class="cls-1" d="M258.16,183.3c-.39,0-.62.55-.7,1.51l-2.15,7.13q6.36-3.88,6-6.68C261.2,184,260.14,183.38,258.16,183.3Z"/><path class="cls-1" d="M346.15,173.06l-.16,0q-3,.34-2.94,1a17.44,17.44,0,0,1-.88,2.84l.16,0c3-1.72,4.83-3,5.42-3.91V173Z"/><polygon class="cls-1" points="349.26 184.86 349.26 184.88 349.26 184.88 349.26 184.86 349.26 184.86"/><path class="cls-1" d="M364.53,94.62l-20-20L323,73.24,248,0l-65.4,64.22L31.9,54.55,43,79.38,0,196.63l20,20,187.28-21.69L238,212.47,374.73,196l19.13-22.66ZM337.42,84.19l4.2,11.27-7.12,5.13-36.27-.27,1.33,7.39L304,132.1l49.95-3.7,3.7,9.95,2.43,6.52L293.3,152.6c-8,.92-14.48.21-19.5-2.18s-7.55-6.18-7.86-11.12l-2.73-43.6c-.31-4.94,1.42-8.81,5.15-11.57s8.68-3.82,15.12-3.41ZM248,11.31l35.79,35.37-15.47-6.13-4.26,4.09-7.22-5.88-7.19-9.87-6.56,9.74L234,35.94l-7.78,6.39L212.65,47.1ZM15,184.83,53.79,79l-6-13.42L122,70.35l9,11.81-2,8.06-2.2,8.83-45.33-.34-3.57,11.18,30.89-.37-7.46,27.23-32.62,1.88-3.58,11.18,49.94-3.7-7,27.94Zm202-90-1.7,25.63a18.25,18.25,0,0,1-7.62,13.74c-4.81,3.7-11,5.86-18.56,6.42L157.46,143l-4.63,25.9-40.39,4.68,22.68-93.42-7.47-9.4,69.23,4.44c6.44.42,11.44,2.45,15.06,6.07A16.43,16.43,0,0,1,217,94.83Zm5.46-18,32.65,2.1,3.11,77.76-40.39,4.68Zm39.06,114.59a24.93,24.93,0,0,1-4.58,3.41,12.91,12.91,0,0,0-3.32,1.74h-.88a6.71,6.71,0,0,1-1.73.92l-.09-.07.19-.42H251l-.46.2-.13-.46.11-.33h-.07l-.37.2-.1-.07v-.08l0-.24H250l-.31.12a.25.25,0,0,1-.15,0l0,.19,0,.3-.2.26h-.08a.83.83,0,0,1-.56-.18l0,.24-.16,0V197l-.22.19L248,197l-.73.4-.69-.54a22.13,22.13,0,0,1-1.67-4.4h-.07q-4.68,1.88-4.6,2.63a14.88,14.88,0,0,0-1.57,2.58c-.31.45-.57.69-.78.71l-.2-.36-.06.08h-.07c-.33-.15-.51-.33-.54-.56l-.06.08-.16,0,0-.16c-.21,0-.43-.1-.66-.38q-.32,0-.33-.12l-.06-.54c-.06-.57.44-1.59,1.52-3a44.15,44.15,0,0,1,2.13-3.9l2.08-4.89.36-1.61a1.37,1.37,0,0,1,.65-.38c1.47-.16,2.42.17,2.84,1a46.1,46.1,0,0,1,1.21,4.52l.09.08c.07.35.17.52.29.51l2.42-.59,0,.15h.08l1.22-.21v.15l-.52.21v.09l.54-.06.53-.15,0,.16a4,4,0,0,1-1.19.45l0,.15.37-.12c.36.06.55.14.56.25l.39-.13a6.4,6.4,0,0,1,1.22,0c.08-.27.17-.52.25-.81a20.79,20.79,0,0,0,1-3.87c-.95.11-1.76-.44-2.42-1.64q-.08-.66,6.11-1.74l.41,0a10,10,0,0,1,6,1.23,3,3,0,0,1,1.34,1.93C265.54,185.56,264.24,188,261.49,191.39ZM272.76,193c-.14.95-.5,1.46-1.06,1.53l-.34,0a3.38,3.38,0,0,1-2.66-.84l.09-.8-2.92-9.36-1.06-3.15v-.08a1.25,1.25,0,0,1,1-.81,3.62,3.62,0,0,1,2.37.61,2.6,2.6,0,0,1,1.13,2.16q.12,0,1.75,6.14h.09l1.78-2.93a2.63,2.63,0,0,0,.82-1.33h.09l.09.08H274l.7-.87.09.07v-.08l-.11-.25.23-.21H275l.13.43.16-.19-.12-.34h.08l-.11-.25a1.19,1.19,0,0,1,.44-.76h.09l.09.07h.09l.15-.19,0,.17-.09.11V182h.1l.81-1.32h.09v.08l-.53.85.06.52.84-1.15.1.09h.09l0-.18h.09l-.23-.42.08-.1h.09l.09.08h.09l.79-.79.1.07v.09l-.39.48v.1l.17,0a9.76,9.76,0,0,1,2-2.52l.22.41h.09l.08-.1h.09l.09.08-.07.1v.09l.19.15a31.91,31.91,0,0,1-3,4.83A84.48,84.48,0,0,0,272.76,193Zm44.83-14.5q-3.52,9.38-4.14,11.89c-.31.39-.57.6-.8.62l-.38-.3c-.35,0-.53-.09-.56-.38l-.08.11h-.09c0-.14-.34-.37-.94-.67l-.32-.41q-.19-1.74,3.09-9.67l.51-1.72-3.14.88a2.36,2.36,0,0,1-2.59-1.36l-.26-.68-2,7.51a32.91,32.91,0,0,0-1.61,6.26l-.22.27-.25,0-.35-.21-.08.09-.41.05-.44-.2-.81.17-.74-.66-.06-.58a6.33,6.33,0,0,1,.37-1.79l-2.7-4.83-.88-1.9h-.08l-2.5,7.26a9.55,9.55,0,0,0-.52,2.8l.09.08v.08c0,.45-.12.68-.25.69l-.25,0-.87-.4-.17,0-.32.12-.25,0-.15.18-.09-.07h-.08l-.07.09-.85-.9,0-.33a4.84,4.84,0,0,1,.17-1.37,27.32,27.32,0,0,1-4.34,1.55q-4.6,1.32-4.53,1.94a1.18,1.18,0,0,1-.63.79h-.08l-.51-.34h-.16l-.38.13c0-.13-.29-.23-.82-.3l-.23.1-.09-.07V193l.05-.24h-.15l-.08.09h-.07l-.09-.07v-.07q.39-2.4,4.3-13.82c-.06-.52.27-.87,1-1.06l3.07-.27,3-.58a.27.27,0,0,0,.34.27l0,.16-.23,0v.09c.27,0,.4,0,.41.11v.08l-.31,0c0,.15.19.21.5.18v.15l-.23,0v.07l.94-.1.76.31-.07.09v.07c.26,0,.39,0,.41.12s-.92.51-2.83.95a13.51,13.51,0,0,0-3.63,1.52l-.67,1.83h.08a11.59,11.59,0,0,1,2.4-.52l.19.22-.23.11v.08c.42-.05.63,0,.64.08l-.37.21v.07l.15,0,0,.25c0,.26.26.45.69.56v.07l-.07.09v.08c.26,0,.4,0,.41.11v.08c0,.15-1.58.76-4.79,1.81-.41.05-.84.89-1.3,2.53l5.53-1.58v.15h.09l.38-.12c.1.25.24.37.44.35l0,.23a.56.56,0,0,0-.36.29H290v.08l.48-.06v.17l-.39,0,.09.07v.08l-.07.08c.77-.09,1.2,0,1.29.25l-.06.09a.89.89,0,0,1,.26,0,73,73,0,0,1,2.59-7.78l1.49-4.42a6.8,6.8,0,0,1,2.73-.81,1.59,1.59,0,0,1,1.24.69v.09q.27,2.33,2.92,6.64a33.18,33.18,0,0,0,1.78-7c.11-.74.4-1.13.86-1.18,0-.1.12-.17.4-.21l.57-.07a2.17,2.17,0,0,1,1.81.68,2.24,2.24,0,0,1,.33-.38l1.12-.12a72.76,72.76,0,0,0,8.94-2L320,173l1.63-.18a.71.71,0,0,1,.74.36l-.08.09c.29,0,.44.06.46.21v.09l-.94.11v.08l.34,0,0,.17-.17,0,.09.08-.07.09,0,.18.44,0v.09l-.08.09v.1c.35,0,.55.17.6.62.23,0,.36.08.37.22l0,.17-5,1.18C318,176.82,317.73,177.4,317.59,178.52Zm12.51,8.17a5.56,5.56,0,0,1-2.85,1.14q-3.06.34-4.32-1.78l-.27-.93,0-.4a11.84,11.84,0,0,1,.64-5.72l1.52-5.09c.37-.74.78-1.14,1.23-1.19l.4-.05a2.41,2.41,0,0,1,2.23,1.12l.11.31a15.88,15.88,0,0,1-1.3,4.19,14.78,14.78,0,0,0-1.08,6.81l0,.24a11.5,11.5,0,0,0,3-3.65,23,23,0,0,0,2.95-6l.36-1.09c.16,0,.22-.1.21-.26l.07-.09.16,0,0,.32h.07c0-.92.13-1.38.25-1.39h.08l0,.31h.07l-.07-.64.16,0,0,.24a2.71,2.71,0,0,0,.58-1.28h.08a3.05,3.05,0,0,1,1.06,2.22Q336.1,179.23,330.1,186.69ZM374,170.29l-.51.06a20.93,20.93,0,0,0-8.05,3.24l0,.16h.08c4.15-.12,6.47.18,7,.93a1.28,1.28,0,0,1,.73,1.13c.06,1.87-.06,2.83-.36,2.86a17,17,0,0,1-4,2.78q-3.36,1.59-9.28,3.81l-.09-.08v-.09l.56-.31,0-.18-.91.28v-.09c0-.12.12-.23.39-.3l0-.16-.25,0,0-.18.17,0v-.08l-.53-.11.07-.1,0-.25c-.22,0-.34-.05-.36-.22l-.07.09-.18,0v-.08l.08-.09v-.08h-.17c0-.11-.1-.16-.27-.14V183c0-.12.4-.4,1.2-.8-.58.2-1.25.41-2,.64-3.07.89-4.59,1.54-4.54,2a1.16,1.16,0,0,1-.62.78h-.08l-.51-.34-.17,0-.38.13c0-.13-.29-.23-.82-.3l-.23.1-.09-.07v-.08l.06-.25-.16,0-.07.09h-.08l-.09-.07v.05l0,.26.16.7-.07.09-.16,0c0-.21-.09-.31-.2-.3,0,.16,0,.24-.12.25l-.17,0-.08-.07h-.08c-.06.22-.13.34-.21.35l-.41,0-.13.18q-.11-.39-.45-.36a42.89,42.89,0,0,1-3-6.58l-3.44,1.61a3,3,0,0,1-.65,1.35l0,.42-.24,0,.22-.91v-.08h-.08l-.3.92.18.14c-.2,0-.53.63-1,1.8-.08,0-.19.38-.36,1.09-.11,0-.31.58-.61,1.68h-.09c0-.24-.31-.42-.86-.55l-.14.18c0-.1-.1-.15-.26-.13l-.23.11c-.15-.28-.33-.42-.53-.42l0-.25q-.21-1.92,3.16-11.14c-1.2-.63-1.82-1.17-1.88-1.64l0-.39c0-.28.93-.87,2.77-1.77.22-.45,1.6-.82,4.15-1.11l.71-.08c3.54-.41,5.77.52,6.67,2.77l.14.48,0,.24c.08.69-1.38,2-4.38,4a36.81,36.81,0,0,1,2,6.94l.09.07v-.06q.38-2.38,4.29-13.81c-.06-.52.27-.88,1-1.06l3.06-.27,3-.58a.28.28,0,0,0,.35.27l0,.16-.24,0v.09c.26,0,.4,0,.41.11v.08l-.31,0c0,.16.18.22.49.19l0,.15-.24,0v.07l.94-.11.76.32-.08.09v.07c.26,0,.4,0,.41.12s-.92.51-2.83.95a13.15,13.15,0,0,0-3.62,1.52l-.67,1.83h.08a11.41,11.41,0,0,1,2.4-.52l.18.22-.23.11v.07c.42,0,.64,0,.65.09l-.38.21v.07l.16,0,0,.25c0,.26.26.45.69.56v.07l-.06.09v.07c.26,0,.39,0,.41.12v.08c0,.15-1.58.76-4.8,1.81-.41,0-.84.89-1.3,2.53l5.53-1.58,0,.15h.08l.38-.12c.1.25.25.37.44.34l0,.24a.59.59,0,0,0-.37.28l-.16,0v.07l.47,0,0,.17-.39,0,.09.06v.09l-.08.08c.78-.09,1.21,0,1.3.25l-.07.09a.44.44,0,0,1,.36.12c.84-.37,1.81-.78,2.93-1.23a30.28,30.28,0,0,0,5-2.72q-7.28.34-7.39-.71a1.79,1.79,0,0,1-1-1.51,4,4,0,0,1,.76-2.41c3.81-3.29,7.58-5.16,11.3-5.58l.18,0a1.81,1.81,0,0,1,1.09.48l.09.07h.08l-.05.35.2,1C374.74,169.75,374.49,170.23,374,170.29Z"/><polygon class="cls-1" points="359.68 183.78 359.69 183.86 359.86 183.84 359.85 183.76 359.68 183.78"/></svg>