<svg id="Layer_1" data-name="Layer 1" xmlns="http://www.w3.org/2000/svg" viewBox="0 0 32.93 28.98"><defs><style>.cls-1{fill:#494949;}</style></defs><title>prop</title><path class="cls-1" d="M32.93,27.48a1.86,1.86,0,0,1-2.28,1.46,6.69,6.69,0,0,1-.75-.16,18.84,18.84,0,0,1-4.6-2,30.43,30.43,0,0,1-5.09-3.64,3.06,3.06,0,0,1-.29-.26,5.51,5.51,0,0,0,1.87-3.26c.67.25,1.33.47,2,.73a28.15,28.15,0,0,1,7.41,4.29c.2.17.39.35.57.53a4.24,4.24,0,0,1,1.19,1.67Z"/><path class="cls-1" d="M18.33,13.65a5.46,5.46,0,0,0-3.74,0c-.1-.56-.22-1.1-.3-1.65A30.94,30.94,0,0,1,14,5.36a12.53,12.53,0,0,1,.83-4.23A1.73,1.73,0,0,1,16.35,0a1.76,1.76,0,0,1,1.79,1.1A9.68,9.68,0,0,1,18.84,4a30.24,30.24,0,0,1-.45,9.49C18.38,13.51,18.35,13.57,18.33,13.65Z"/><path class="cls-1" d="M13.08,22.92C12,23.74,11,24.57,9.9,25.33A23.7,23.7,0,0,1,4,28.47,10.37,10.37,0,0,1,2,29a1.65,1.65,0,0,1-1.74-.91,1.72,1.72,0,0,1,.15-2A9.38,9.38,0,0,1,2.51,24,29.76,29.76,0,0,1,11,19.7l.2-.06A5.56,5.56,0,0,0,13.08,22.92Z"/><path class="cls-1" d="M16.49,15.51a3.22,3.22,0,1,1-3.24,3.17A3.21,3.21,0,0,1,16.49,15.51Z"/></svg>