<svg id="Layer_1" data-name="Layer 1" xmlns="http://www.w3.org/2000/svg" viewBox="0 0 43 31.42"><defs><style>.cls-1{fill:#494949;}</style></defs><title>rafting</title><path class="cls-1" d="M43,28.65a6.31,6.31,0,0,1-2.55,2.19,4.56,4.56,0,0,1-4.77-.48c-.37-.3-.71-.63-1.07-.95s-.42-.41-.64-.6a1.54,1.54,0,0,0-2.39-.06c-.54.44-1,.95-1.56,1.4A4.4,4.4,0,0,1,24,30.09c-.54-.47-1-1-1.59-1.42a1.28,1.28,0,0,0-1.8-.05c-.62.46-1.18,1-1.76,1.5a4.37,4.37,0,0,1-6.15,0c-.55-.48-1.09-1-1.66-1.42a1.26,1.26,0,0,0-1.7-.05c-.58.43-1.12.93-1.66,1.41a5,5,0,0,1-2.42,1.28,4.31,4.31,0,0,1-3.72-1,9.54,9.54,0,0,1-1-1,1.13,1.13,0,0,1,0-1.65,1.15,1.15,0,0,1,1.69,0,12.84,12.84,0,0,0,1.11,1,1.76,1.76,0,0,0,2.15.08,11.22,11.22,0,0,0,1.27-1,6.64,6.64,0,0,1,2.43-1.53,3.13,3.13,0,0,1,2.75.28,23.26,23.26,0,0,1,2.21,1.78,2.66,2.66,0,0,0,1.51.84,2.35,2.35,0,0,0,1.72-.67c.46-.4.91-.82,1.38-1.22a4,4,0,0,1,5.66.06c.5.44,1,.93,1.49,1.35a1.85,1.85,0,0,0,2.47.07c.55-.41,1.05-.89,1.57-1.33a8.58,8.58,0,0,1,.71-.52,3.65,3.65,0,0,1,4.73.17c.61.48,1.16,1.05,1.78,1.54a2,2,0,0,0,2.78-.07c.3-.25.58-.51.87-.78.9-.85,1.73-.71,2.26.38Z"/><path class="cls-1" d="M38.36,22.63a3.71,3.71,0,0,1-2.63-.81c-.53-.43-1-.91-1.52-1.38-1.27-1.19-1.81-1.19-3.12-.05a14.7,14.7,0,0,1-1.84,1.52c-1.87,1.12-3.89.79-5.65-.84-.47-.42-.92-.86-1.42-1.25a1.22,1.22,0,0,0-1.66,0A18.77,18.77,0,0,0,19,21.08a5.12,5.12,0,0,1-2.92,1.45,4.49,4.49,0,0,1-3.54-1.24c-.53-.47-1-1-1.59-1.43a1.28,1.28,0,0,0-1.74-.09A15.86,15.86,0,0,0,7.78,21a5.17,5.17,0,0,1-3.34,1.57,4.11,4.11,0,0,1-2.74-.89A11.89,11.89,0,0,1,.31,20.36a1.1,1.1,0,0,1,.06-1.59,1.14,1.14,0,0,1,1.56-.1c.39.31.73.66,1.11,1a1.84,1.84,0,0,0,2.34.12c.45-.29.83-.7,1.26-1a13.11,13.11,0,0,1,1.81-1.27,3.31,3.31,0,0,1,3.55.2c.57.4,1.1.87,1.64,1.31a6.2,6.2,0,0,1,.45.44,2,2,0,0,0,3,0c.43-.38.85-.76,1.3-1.12a4.89,4.89,0,0,1,2.62-1.24,4,4,0,0,1,3.08,1.2c.45.39.87.83,1.32,1.22a2.06,2.06,0,0,0,3,0c.61-.53,1.19-1.1,1.85-1.58a3.69,3.69,0,0,1,4.83.1c.58.46,1.12,1,1.66,1.48a2,2,0,0,0,2.71.13c.45-.36.86-.76,1.3-1.12a1.17,1.17,0,1,1,1.67,1.63,10.5,10.5,0,0,1-1,1.27A4.52,4.52,0,0,1,38.36,22.63Z"/><path class="cls-1" d="M38.47,5.45a4.66,4.66,0,0,1-3.32-1.3c-.45-.42-.89-.86-1.37-1.25a1.48,1.48,0,0,0-2.19,0c-.42.33-.8.7-1.19,1.06A5.31,5.31,0,0,1,27.49,5.4,4.43,4.43,0,0,1,24,4.33c-.39-.33-.75-.71-1.15-1.05a6.24,6.24,0,0,0-.94-.68,1.17,1.17,0,0,0-1.28,0,9.36,9.36,0,0,0-1.06.82,7.1,7.1,0,0,1-2.54,1.75,4.26,4.26,0,0,1-4.24-.85c-.57-.47-1.1-1-1.66-1.49a1.4,1.4,0,0,0-2-.11C8.53,3.2,8,3.7,7.45,4.17a4.42,4.42,0,0,1-6.11.11,7.66,7.66,0,0,1-1-.92,1.15,1.15,0,0,1,0-1.6A1.16,1.16,0,0,1,2,1.65c.31.25.6.55.89.82a2,2,0,0,0,2.82.09c.52-.43,1-.89,1.51-1.33a3.94,3.94,0,0,1,5.49-.12c.56.44,1.06,1,1.61,1.41a2,2,0,0,0,2.85-.06c.47-.41.92-.85,1.41-1.25a4,4,0,0,1,6,.27c.37.38.76.75,1.16,1.09a1.92,1.92,0,0,0,2.57.09c.58-.44,1.07-1,1.66-1.42a7.62,7.62,0,0,1,1.64-1,3.19,3.19,0,0,1,3.19.42,19.75,19.75,0,0,1,2,1.68,2.08,2.08,0,0,0,3,.13c.37-.31.72-.67,1.08-1a1.18,1.18,0,0,1,1.25-.29,1.14,1.14,0,0,1,.79,1,1.21,1.21,0,0,1-.22.81,21,21,0,0,1-2,1.77A3.76,3.76,0,0,1,38.47,5.45Z"/><path class="cls-1" d="M38.3,14.11a4.67,4.67,0,0,1-2.93-1.18c-.49-.44-.95-.91-1.46-1.33a1.53,1.53,0,0,0-2.35,0c-.4.31-.77.65-1.14,1A5.4,5.4,0,0,1,27.55,14a4.5,4.5,0,0,1-3.74-1.24c-.53-.45-1-1-1.56-1.4a1.21,1.21,0,0,0-1.69-.08c-.43.28-.82.63-1.23.95A16.85,16.85,0,0,1,18,13.32a4.37,4.37,0,0,1-5.37-.44c-.58-.51-1.14-1-1.73-1.53a1.18,1.18,0,0,0-1.58-.11c-.69.5-1.33,1.07-2,1.62A4.48,4.48,0,0,1,4.83,14,4.44,4.44,0,0,1,1.2,12.75c-.27-.26-.55-.52-.8-.8a1.12,1.12,0,0,1,0-1.62,1.19,1.19,0,0,1,1.67-.05c.23.2.44.43.67.64a2.12,2.12,0,0,0,3.18,0c.56-.48,1.11-1,1.7-1.44a3.7,3.7,0,0,1,4.9,0c.65.5,1.23,1.11,1.87,1.63a1.89,1.89,0,0,0,2.54.09c.42-.3.77-.69,1.18-1a12.62,12.62,0,0,1,1.72-1.2,3.24,3.24,0,0,1,3.61.24c.73.52,1.36,1.2,2.07,1.76a3.28,3.28,0,0,0,1.17.61,1.77,1.77,0,0,0,1.66-.49c.67-.57,1.31-1.18,2-1.7a3.64,3.64,0,0,1,4.73.06c.56.44,1.07.94,1.6,1.43a2.13,2.13,0,0,0,3.21,0c.38-.34.73-.7,1.13-1a1.09,1.09,0,0,1,1.52.15,1,1,0,0,1,.11,1.48,6.64,6.64,0,0,1-2.89,2.15C39.29,13.94,38.79,14,38.3,14.11Z"/></svg>