<svg id="Layer_1" data-name="Layer 1" xmlns="http://www.w3.org/2000/svg" viewBox="0 0 46.73 31.78"><defs><style>.cls-1{fill:#494949;}</style></defs><title>sightseeing</title><path class="cls-1" d="M46.73,21.91A21.77,21.77,0,0,1,46,25a10.19,10.19,0,0,1-8.37,6.69A10.19,10.19,0,0,1,28,28a1.06,1.06,0,0,0-.9-.41c-2.46,0-4.93,0-7.39,0a1.06,1.06,0,0,0-.89.42,10.15,10.15,0,0,1-9,3.71A10.18,10.18,0,0,1,.84,25.15a10.34,10.34,0,0,1,1-9.89c1.6-2.58,3.12-5.21,4.71-7.8a26.76,26.76,0,0,1,3.78-5.07A7.55,7.55,0,0,1,14.53.06a8.05,8.05,0,0,1,4,.59,6.84,6.84,0,0,1,3.44,2.44,9.1,9.1,0,0,1,.84,1.75c.13.34.37.26.59.26s.49.11.59-.25A6.23,6.23,0,0,1,28.11.7,7.24,7.24,0,0,1,33.48.39a8.79,8.79,0,0,1,3.71,2.8,35.93,35.93,0,0,1,2.49,3.42c2,3.16,3.88,6.36,5.78,9.56a9.46,9.46,0,0,1,1.2,3.89c0,.1.05.2.07.3Zm-36,6.36a7.15,7.15,0,1,0-7.15-7.13A7.14,7.14,0,0,0,10.7,28.27Zm25.38,0a7.15,7.15,0,1,0-7.15-7.08A7.14,7.14,0,0,0,36.08,28.27Z"/></svg>