<svg id="Layer_1" data-name="Layer 1" xmlns="http://www.w3.org/2000/svg" viewBox="0 0 30 33.45"><defs><style>.cls-1{fill:#494949;}</style></defs><title>skydiving</title><path class="cls-1" d="M16.7,0c.48,0,.95.09,1.43.12a42,42,0,0,1,10.47,2,2.2,2.2,0,0,1,1.15,3.08c-.11.21-.24.41-.37.61L26.77,9.55a1.83,1.83,0,0,1-1.69,1,.34.34,0,0,0-.25.16c-1.3,1.73-2.58,3.47-3.87,5.21-.05.06-.12.15-.11.2a4.69,4.69,0,0,1-.31,2.13c-.13.71-.33,1.4-.48,2.1a1.18,1.18,0,0,1-.74.88c-.52.22-1,.47-1.55.7a.34.34,0,0,0-.24.36c0,1.34,0,2.68,0,4a.65.65,0,0,0,.16.4c1,1.23.86.9.82,2.44,0,1.06-.08,2.13-.14,3.19a1.08,1.08,0,0,1-.85,1.1,1,1,0,0,1-1.15-.47,1.44,1.44,0,0,1-.19-.64c-.06-1.11-.09-2.22-.15-3.33a.74.74,0,0,0-.17-.42c-.3-.33-.62-.64-1-1-.37.37-.72.72-1.06,1.08a.59.59,0,0,0-.09.3c0,1.12-.09,2.24-.13,3.36a1.11,1.11,0,0,1-1.06,1.15,1.08,1.08,0,0,1-1.12-1.08c-.08-1.41-.13-2.82-.17-4.24a2.05,2.05,0,0,1,.22-.69.67.67,0,0,1,.12-.16,2.54,2.54,0,0,0,.87-2.34,26,26,0,0,1,0-2.65.34.34,0,0,0-.24-.39c-.53-.23-1.05-.49-1.58-.72a1.13,1.13,0,0,1-.7-.83c-.26-1.17-.55-2.33-.82-3.49a4.68,4.68,0,0,1,0-.65A.65.65,0,0,0,9,15.9q-1.92-2.62-3.87-5.22a.43.43,0,0,0-.31-.16,1.58,1.58,0,0,1-1.39-.66C2.43,8.42,1.4,7,.41,5.51a2.26,2.26,0,0,1,.37-3,1.9,1.9,0,0,1,.59-.33A40.18,40.18,0,0,1,9.11.4c1.3-.16,2.6-.23,3.9-.35l.36,0ZM8.5,9.57a.17.17,0,0,0,0,.07c.52,1.93,1,3.85,1.57,5.78a.32.32,0,0,0,.18.2,1.06,1.06,0,0,1,.67.74c.28.93.58,1.87.89,2.79a.45.45,0,0,0,.22.28,4.92,4.92,0,0,0,2.61.57,1.81,1.81,0,0,1,.52,0,5.25,5.25,0,0,0,2.75-.51.61.61,0,0,0,.36-.41c.28-.91.58-1.82.86-2.73a1.09,1.09,0,0,1,.58-.71.57.57,0,0,0,.28-.33c.34-1.18.66-2.36,1-3.55.2-.72.39-1.44.6-2.18A32,32,0,0,0,8.5,9.57Zm.79,5.63.06,0L7.85,9.69l-2.2.6ZM22.14,9.73l-1.49,5.45.06,0,3.64-4.92-2-.54A.92.92,0,0,0,22.14,9.73Z"/><path class="cls-1" d="M15.05,15.53A2,2,0,1,1,13,17.45,2,2,0,0,1,15.05,15.53Z"/></svg>