<svg id="Layer_1" data-name="Layer 1" xmlns="http://www.w3.org/2000/svg" viewBox="0 0 50 52.6"><defs><style>.cls-1{fill:#00c0ff;}</style></defs><title>Artboard 39</title><path class="cls-1" d="M25,0H48.11C49.48,0,50.05.59,50,2A10.44,10.44,0,0,1,39.61,12Q25,12,10.39,12A10.44,10.44,0,0,1,0,1.8,1.57,1.57,0,0,1,1.74,0Z"/><path class="cls-1" d="M42.22,15.65V15.1H7.79v.6q0,17.46,0,34.92a1.86,1.86,0,0,0,1.2,2H9.7l11.06-6.44c1.27-.74,2.55-1.47,3.81-2.23a.72.72,0,0,1,.87,0c4.59,2.71,9.2,5.39,13.8,8.08.35.21.71.4,1.07.6H41a1.83,1.83,0,0,0,1.2-1.93Q42.2,33.17,42.22,15.65ZM31.13,40.27,25,35.81l-6.13,4.46,2.34-7.22L15.07,28.6h7.59L25,21.39l2.34,7.21h7.59l-6.14,4.45Z"/></svg>