<svg xmlns="http://www.w3.org/2000/svg" viewBox="0 0 50 42.81"><defs><style>.cls-1{fill:#00c0ff;}</style></defs><title>Artboard 43</title><g id="Layer_3" data-name="Layer 3"><path class="cls-1" d="M37.59,14,25,42.81,12.38,14Z"/><path class="cls-1" d="M13.85,11,25,.52,36.13,11Z"/><path class="cls-1" d="M0,14l.52,0H8.73a.56.56,0,0,1,.62.39q4.89,11.25,9.82,22.49a.61.61,0,0,1,.06.39Z"/><path class="cls-1" d="M50,14,30.74,37.21l-.06,0c0-.11.07-.22.11-.32q4.92-11.28,9.86-22.53c.07-.16.27-.37.41-.37C44,13.94,46.93,14,50,14Z"/><path class="cls-1" d="M11.64,0h9.62L11.64,9Z"/><path class="cls-1" d="M38.35,9.05,28.74,0h9.61Z"/><path class="cls-1" d="M8.63,11H.3L8.63,2.22Z"/><path class="cls-1" d="M41.33,11V2.19L49.66,11Z"/></g></svg>