<svg id="Layer_1" data-name="Layer 1" xmlns="http://www.w3.org/2000/svg" viewBox="0 0 35.35 33.64"><defs><style>.cls-1{fill:#494949;}</style></defs><title>zipline</title><path class="cls-1" d="M18.07,7.78a1.36,1.36,0,0,1-1.52,1V14.6L16,15A7.12,7.12,0,0,1,15.8,14c0-1.6,0-3.19,0-4.79v-.4c-1.05-.27-1.29-.6-1.3-1.69,0-.73.13-.55-.57-.8Q7.08,3.89.45.81L.35.76C.12.66-.09.51,0,.22S.41,0,.65.09l1.54.7c3.93,1.79,7.93,3.4,12,4.87.27.1.43.13.65-.16a2.31,2.31,0,0,1,2.94,0,1.61,1.61,0,0,1,.29,1,.63.63,0,0,0,.55.72A76.55,76.55,0,0,0,28.82,9.78c2,.33,4,.5,6,.73.29,0,.61,0,.58.41s-.33.34-.6.33a45.69,45.69,0,0,1-9.09-1.37c-2.42-.61-4.8-1.32-7.2-2Z"/><path class="cls-1" d="M14.9,26.11c.63-.71,1.27-1.43,1.92-2.13a.44.44,0,0,1,.31-.08c1.08,0,2.16,0,3.24,0a1,1,0,0,1,.56.26q2.25,1.93,4.47,3.89c.39.33.77.68,1.16,1l.74-.73a.68.68,0,0,1,1-.07.66.66,0,0,1,0,1L26.61,31a.62.62,0,0,1-.85.12,9.2,9.2,0,0,1-1-.69q-2.34-2-4.67-4a1.38,1.38,0,0,0-.95-.35c-1.33,0-2.67,0-4,0h-.41Z"/><path class="cls-1" d="M4.91,13.49a2.82,2.82,0,1,1,2.78,2.84A2.84,2.84,0,0,1,4.91,13.49Z"/><path class="cls-1" d="M13.35,17.15h-.78c-.82,0-1.64,0-2.45,0a1.35,1.35,0,0,0-.19,2.66,2,2,0,0,0,.42,0c1.19,0,2.39,0,3.58,0a2.26,2.26,0,0,0,1.51-.44l.13.18L12.89,24a.83.83,0,0,0-.13-.28L8.63,19.11a2.12,2.12,0,0,1-.53-1.75A.36.36,0,0,1,8.43,17a3.45,3.45,0,0,0,2-1.12c.08-.08.22-.17.3-.15a5.64,5.64,0,0,1,2.4,1.12A2.56,2.56,0,0,1,13.35,17.15Z"/><path class="cls-1" d="M18.34,21.5l-.45-.16a.31.31,0,0,1-.27-.37,5.12,5.12,0,0,0-.05-1c-2,1.78-3,4.17-4,6.62a9.62,9.62,0,0,0,4.68.14.89.89,0,0,1-.72.8,7.21,7.21,0,0,1-1.79.14,25.58,25.58,0,0,1-2.6-.42c-.4-.07-.49-.24-.36-.62A20.18,20.18,0,0,1,15.6,21c.52-.68,1.21-1.23,1.8-1.86a.54.54,0,0,0,.14-.36,1.59,1.59,0,0,0-.14-.47c-.23-.62-.24-.62.27-1.09C18.22,17.68,18.51,19.49,18.34,21.5Z"/><path class="cls-1" d="M20.62,27.78c.65.56,1.26,1.07,1.86,1.61a.54.54,0,0,1,.11.4c-.05.84-.12,1.68-.19,2.58h.76c.45,0,.73.28.72.66a.64.64,0,0,1-.72.61h-2c-.55,0-.71-.22-.77-.78A36.6,36.6,0,0,1,20.57,28,1.47,1.47,0,0,1,20.62,27.78Z"/><path class="cls-1" d="M12.2,19.13H10.5c-.62,0-.9-.19-.9-.61s.28-.63.91-.63c1.1,0,2.19,0,3.29,0a.77.77,0,0,0,.63-.26c.64-.67,1.31-1.32,2-2l.21-.21a.6.6,0,0,1,.85,0,.58.58,0,0,1,0,.85c-.86.87-1.7,1.75-2.6,2.58a1.49,1.49,0,0,1-.88.23C13.41,19.15,12.8,19.13,12.2,19.13Z"/><path class="cls-1" d="M15.3,24.21l1.79-2.92.69.75-2.36,2.25Z"/><path class="cls-1" d="M20.4,23.13H17.75c.24-.25.44-.48.67-.68a.29.29,0,0,1,.26,0c.58.2,1.15.42,1.72.63Z"/><path class="cls-1" d="M21.17,23.38c1.28.36,1.95.61,1.83,1.55Z"/></svg>